<?xml version="1.0" encoding="utf-8"?>
<!-- Generator: Adobe Illustrator 26.0.3, SVG Export Plug-In . SVG Version: 6.00 Build 0)  -->
<svg version="1.1" id="Layer_1" xmlns="http://www.w3.org/2000/svg" xmlns:xlink="http://www.w3.org/1999/xlink" x="0px" y="0px"
	 viewBox="0 0 512 512" style="enable-background:new 0 0 512 512;" xml:space="preserve">
<style type="text/css">
	.st0{fill:#442F0E;}
	.st1{fill:#36250C;}
	.st2{fill:#452F0C;}
	.st3{fill:#443115;}
	.st4{fill:#311E04;}
	.st5{fill:#E5CA42;}
	.st6{fill:#363A13;}
	.st7{fill:#AA7341;}
	.st8{fill:#D77319;}
	.st9{fill:#60805D;}
	.st10{fill:#35501E;}
	.st11{fill:#7F997A;}
	.st12{fill:#B3AA70;}
	.st13{fill:#96894C;}
</style>
<g>
	<path class="st0" d="M286.2,63.5c7.3,4.5,15.4,7.5,22.1,13.1c2.9,3.8,6,7.4,11.1,8.4c0.3,0.2,0.6,0.5,0.9,0.7
		c0.4,0.3,0.7,0.6,1.1,0.8c0,0-0.1-0.1-0.1-0.1c1.1,4.4,4,6.9,8.4,7.9c0,1.1,0.6,1.7,1.7,1.7c-0.1,1.2-0.8,1.6-1.9,1.8
		c-1,0.1-2.1,0.4-1.8,1.7c0.3,1,1.4,0.7,2.2,0.8c1.8,0.1,3.8-0.2,5.4,0.4c5.3,2,10.5,4.3,15.8,6.4c0.5,2.9-1,5.6-0.9,8.4
		c-5.4-1.1-10.2-3.7-15.4-5.5c-2.6-0.9-5.3-2.4-8.7-0.1c9.1,1.6,16.4,6.5,24.9,8.2c0,2,0,3.9,0.1,5.9c-1.4,2.6-3.3,1.5-5.4,0.9
		c-4-1.1-7-4.9-11.6-4.4c-1.1-0.1-1.9-0.8-2.6-1.5c-0.1-1.8-1.4-1.6-2.6-1.8c-2.8-2.5-5.5-4.9-9.6-4.8c0,0,0.1,0.1,0.1,0.1
		c-0.6-2.1-2.1-4.9,2.4-3.1c1,0.4,2.1,0.1,2.4-1c0.3-1.6-1.2-1.2-2-1.4c-3.2-0.8-6.5-1.9-9.8-1.5c-1.3,0.1-2.9-2.1-3.9,0.5
		c-0.6,0.1-1.1,0.2-1.7,0.3c0-0.3,0-0.7,0-1c-1.7-1.9-3.4-3.7-6.2-1.8c-0.6,0.1-1.2,0-1.5-0.6c-0.5-1.4,1.1-2.3,1.3-3.7
		c-4.6,1-7.7-2.3-11.5-3.1l0,0c-3.9-5.7-8.4-10.9-14.5-14.5c-0.8-2.5-2-4.6-4.3-6c0,0,0,0,0,0c0.1-1.2-0.3-2-1.3-2.9
		c-3.1-2.6-6-5.5-8.9-8.2c3.3-2.7,6.8-5,11-6c0.3,0,0.6,0.1,0.9,0.1c0.1,1.1,0.5,2,1.4,2.5c5.9,4.3,11,9.6,16.3,14.7
		c4.8,4.6,10.2,8.5,15,13c3.9,3.7,8.5,6.9,14,8.4c0.7,0.2,1.4,0.5,1.7-0.4c0.3-0.8-0.3-1.3-1-1.5c-1.8-0.7-3.8-1.2-5.5-2.3
		c-8.8-5.8-16.2-13.1-23.8-20.2c-5.4-5.1-10.8-10.2-17.1-14.2c0-0.5,0-1.1,0-1.6c0.6,0,1.2-0.1,1.9-0.1
		C277.9,60,282.7,60.5,286.2,63.5z"/>
	<path class="st0" d="M222.3,418c-0.6-0.1-1.1-0.1-1.7-0.2c-4.5-3.6-9.7-5.2-15.4-5.6c0,0,0,0,0,0c-2.6-3.9-6.6-5.4-11-6.1
		c-1.1-0.2-1.9-0.7-2.6-1.6c-0.1-1.8-1.3-1.7-2.6-1.7c0,0,0,0,0,0c-1.1-3.4-4-3.9-7-4.3c-0.9-0.4-2-0.7-2.3-1.8
		c-1.2-5.1-6.1-6.7-9.2-9.9c-2.5-2.6-5.5-4.7-5.2-8.8c6.4-2.1,12.9-2.9,19.6-3.4c-0.2,1.4,0.5,2.7,1,3.9c-3.8,1.5-5.1,4.3-4.3,9.5
		c3.1-2.5,6.2-4.7,4.6-9.4c0.1-0.5,0.2-1,0.3-1.4c3.2,0.4,5.2-3.4,8.5-2.6c2,0.5,3.2,1.7,4.5,3.4c2.1,2.8,3.2,5.9,4.7,8.9
		c0.3,0.6,0.7,1.2,1.6,1.2c0.7-0.1,1.1-0.6,0.8-1.1c-1.6-3.2,0.7-2.1,2-1.7c1.8,0.6,3.6,0.4,5.4,0.4c0.5,0.1,1,0.1,1.5,0.2
		c1.3,2.7,3.7,3.3,6.4,3.2l0.2-0.1l0.1,0.2c-0.2,1.9,0.7,2.7,2.6,2.5c1.5,2.6,4,4.3,6.1,6.2c3,2.7,5.6,5.9,8.6,8.5
		c3.6,3.2,8.7,2.5,13.3,2.3c0.7,2.6,3.1,3.2,5.2,3.3c3.3,0,4.5,1.4,4.3,4.5l0,0c-1.7,0.1-3.6-0.7-5.2,0.8c-1.1,0-2.3-0.1-2.5,1.5
		c-3,1.2-6.2,1.7-9.4,1.1c-0.5-1-1.1-1-1.6,0c-0.7,0.1-1.4,0.2-1.8-0.5c-1.3-3.9-3.7-4.8-7.1-2.6c-1.1,0.7-2.2,0.4-3.2,0.5
		c-1.6,0.2-3.4-0.6-4.8,0.7c-0.1,0.2-0.1,0.4-0.1,0.7c-0.6-0.1-1.2-0.1-1.8-0.2c-0.1-0.2-0.2-0.4-0.3-0.6c-0.2,0.2-0.3,0.4-0.5,0.5
		c-0.3-0.1-0.5-0.1-0.8-0.2C223,417.6,222.7,417.4,222.3,418z M206.2,391c0.4,3,0.7,4.9,0.9,6.8c0.1,0.7,0.8,1.5,0.1,2
		c-3.9,2.4-0.2,2.8,1,3.6c6.7,4.5,14.8,5.4,21.9,8.8c0.9,0.4,2.2,1.5,2.7-0.2c0.3-1.2-1-2.1-2.1-2.3c-7.1-1.4-13.3-5-20-7.6
		c-0.4-1.4,3.2-1.7,1.4-2.7C209.1,397.8,209,394.2,206.2,391z M197.9,394.6c-0.5-4-3.3-6-6.6-7.5
		C192.2,390.7,194.8,392.9,197.9,394.6z M202.9,399c0.1-0.2,0.3-0.5,0.3-0.7c-0.1-0.2-0.4-0.2-0.7-0.3c-0.1,0.2-0.3,0.5-0.3,0.7
		C202.3,398.8,202.7,398.9,202.9,399z M190.2,385.4c0.1-0.2,0.3-0.5,0.3-0.7c-0.1-0.2-0.4-0.2-0.7-0.3c-0.1,0.2-0.3,0.5-0.3,0.7
		C189.6,385.2,189.9,385.3,190.2,385.4z"/>
	<path class="st0" d="M287,379.5c0.6-0.1,1.2-0.2,1.8-0.3c6.7,2,12-1.6,17.8-3.9c3.9-1.6,7.2-4.5,11.9-5.7c-1.4,3.3-2.5,5.8-4.6,7.8
		c-0.7,0.6-1.8,2-0.7,2.9c1.3,1,2-0.6,2.5-1.5c2.7-4.7,5.1-9.6,8.1-14.2c2.2-3.3,1.6-8.2,5.8-10.3c4.3,0,8.7-0.3,12.8,1.7
		c-1.1,2.7-4.3,4.3-4.2,7.7l0,0c-3.1,1.6-3.5,4.8-4.3,7.7l0,0c-0.3,0.3-0.6,0.6-0.9,0.9c0,0.5,0,1.1,0,1.6c-0.9,0.5-1.2,1.9-2.6,1.7
		c-0.5,0.3-1.3,0.4-1.4,0.8c-2.1,6.4-6.3,11.3-10.7,16.2c-3.5,3.9-8.6,6-11.7,10.3c-0.8,0.2-1.7,0.2-2.3,0.7
		c-0.9,0.8-1.9,1.5-2.9,0.6c-1.1-1,0.4-1.6,0.7-2.5c0.2-0.5,0.4-1-0.4-1.9c-2,3-4.1,6-6.1,9l-0.3,0.2c0,0-0.3,0-0.3,0
		c-3.3-0.4-5.6,3.2-9.6,1.9c-3.5-1.2-6.4-3.4-9.9-4.6c-1.4-0.5-2.3-1.1-3.1,0.5c-0.8,1.6,0.1,1.9,1.4,2.2c1.7,0.4,2,1.8,2.2,3.3
		c-0.8,0.4-1.4,1.4-2.6,0.8c-1.6-3.1-4.4-1.3-6.6-1.5c-2.9-0.4-6.3,0.2-4.8-4.6c0-0.1-0.3-0.4-0.5-0.6c0-0.8,0-1.6,0-2.4
		c1,0,1.7,0.1,2.4,1.1c1.7,2.4,4.3,1.3,6.2,0.4c2-1,0.2-2.8-0.4-4c-0.9-2-2.4-3.6-3.7-5.4c2.5-3.1,5.8-1.9,8.6-1.3
		c11.4,2.3,21.4-1.5,31.1-6.8c0.5-0.3,0.7-0.8,0.4-1.6c-3.7,1.4-7.4,3-11.2,4.1c-4.2,1.2-8.8,4.1-12.8,2.7c-4.4-1.6-9-3-13.4-4.6
		c-2.3-0.8-2.3-1.5-0.4-2.5c1.3-0.7,2.2-1,0.4-2.2c3-1.9,6.4-2.5,9.8-3.3C281.4,380.8,284.3,381.3,287,379.5z"/>
	<path class="st0" d="M105.5,215.4c0.6,0.7,1,1.6,0.9,2.6c-0.2,0.5-0.6,0.9-0.7,1.5c-1.1,4.7,2,9.1,0.8,13.8
		c-2.5,5-5.7,9.7-7.2,16.4c3-3.2,4.3-6.2,5.5-9.1c0.5-1.3,0.7-2.8,2.5-3c0,1,0.4,1.7,1.5,1.7c0.1,0.4,0.2,0.8,0.4,1.2
		c0.1,1.4-0.9,3.2,1.3,4c0.1,0.9,0.1,1.7,0.2,2.6c-1.6,3.7-1,7.4,0,11c0,0.6,0,1.1,0,1.7c-1.5,0.2-1.4,1.4-1.7,2.5
		c-2,7.6-3.7,15.3-9.3,21.4c-2.5-2.9-5.6-5.5-6.8-9.4c6.8-6.4,7.7-14.3,6.4-23.8c-1.6,4-2.3,7.4-2.1,10.9c0.3,4.5-2,7.7-5.1,10.4
		c-5.2-1.4-5.6-6.9-8.5-10.2c0-1.4,0.3-2.7,0.9-4c1.7-3.9,4.2-7.7,4.2-12.2c2.5-2.8,3.1-6.5,4.5-9.8c0.6-1.5,0-2.1-1.4-2.3
		c0.5-0.9,0.1-2.3,1.7-2.6c1.8-0.2,3.5,1,5.1,0.8c2.4-0.3-1.4-2.8,1.3-4c4.1-1.8,4.2-5.6,2.8-9.4
		C102.9,216.4,103.6,215.2,105.5,215.4z"/>
	<path class="st0" d="M96.1,342.5c-2.3-1.4-4.6-2.7-6.8-4.2c-0.8-0.5-2-1.2-2.1-2c-1.3-8.7-10.5-13.8-10.1-23.1
		c1-0.2,1.4-0.8,1.4-1.8c-0.2-4.4,1.3-8.6,2.1-12.9c0.8-4.5,3.5-8.3,4.1-12.8c2.2-1,4.4-1.9,5.7-4.1c1.7,2.7,5,3.7,6.9,6.2
		c0,0.8,0,1.7,0,2.5c-2.6,7.7-5.1,15.4-7.7,23.1c0.5,0.2,1,0.3,1.4,0.5c1.1-4.3,3.5-7.8,5.4-11.7c2.1,0,2.3,1.7,2.9,3.1
		c2.2,5,0.8,9.9,0,14.9c-0.9,6.1-2.5,12.2,0.3,18.3c0.6,1.3,2.4,2.7,1.2,4.1c-1.1,1.3-2-1.2-3.2-1C96.9,341.8,96.5,342.2,96.1,342.5
		z"/>
	<path class="st0" d="M275.9,463.1c-0.3,0.7-0.9,0.9-1.7,0.9c-3.3-1-5.8,1.1-8.6,2.1c-6.8,2.6-13.3,3.7-19.4-1.7
		c-1.9-1.7-3.9-3.2-5.8-4.9c-5.5-4.9-11.5-7-19.1-5.3c-4.5,1-8.6,3-13.4,3.3c-3.5,0.3-5.5-2.9-8.7-2.1c0.3-1.2-2-3.4,1.1-3.4
		c4,0,7.1-2.3,10.6-3.6c4.4-1.7,8.6-4.5,13.6-3.9c7.8,1,14.4,4.7,20.7,9.4c3.2,2.4,7.1,3.7,10.7,5.5c1,0.5,2.1,0.2,2.5-0.9
		c0.4-1.3-0.7-1.3-1.5-1.3c-3.6-0.4-1.7-2.1-0.7-3.2c0.8-0.9,2.1-1.4,3.1-2.2c3.5-2.5,7.1-4.9,10.6-7.4c0.9,0,1.9-0.2,2.5,0.8
		c1.3,2,1.8,3.8-0.7,5.5c-1,0.7-1.9,1.7-1.9,3.1c-2.9,1.1-5.1,3.1-7.7,5.2c4,0.6,6.8-1.5,7.7-5.2c3.7-0.7,4.8-4.8,8-6.1
		c2.7,1,5.4,2.1,7.8,3.8c-2.9,2.4-0.7,3.5,1.2,4.7c-1.2,0.9-2.3,1.7-3.5,2.6c-1.4,0.8-2.8,1.6-4.2,2.4c-0.2,0.1-0.5,0.2-0.8,0.2
		C276.5,460.2,276.2,461.7,275.9,463.1z"/>
	<path class="st0" d="M362.6,388.1c-0.2-1.3,0.6-2.1,1.4-2.9c5.4-5.9,12.4-8.8,20-10.2c7.6-1.4,12.1,3.5,16.4,8.7
		c0.1,0.8-0.1,1.9,0.3,2.5c2.7,4.1,2.3,8.4,1.5,13c-0.5,3-1.8,3.8-4.5,3.6c-0.3-1.8-0.9-3.1-3-1.6c-0.2-0.1-0.3-0.2-0.4-0.5
		c0.6-1.3-0.4-1.2-1.1-1.2c-0.5-0.5-1.1-0.9-1.6-1.4c-1.2-3.8-5.3-5.8-9.7-5.9c-6.8-0.1-10.6,4.5-14.7,8.6c-4,4.1-8.6,7-14.4,8.1
		c4.5-4,5.3-9.9,8.3-14.6C362.1,392.7,365.3,390.8,362.6,388.1z"/>
	<path class="st0" d="M95.4,135.3c11.2-12.4,23.3-23.7,38.2-31.7c0.3-0.1,0.7-0.1,1-0.2c0.1,0.2,0.3,0.4,0.5,0.5l-0.1,0.3l0.2,0.2
		c0.4,1.1,0.9,2.1,1.3,3.2c0.2,0.4,0.4,0.8,0.6,1.2c0.2,0.2,0.2,0.4,0.2,0.6c0,0.7-0.1,1.3-0.1,2c0,1.7,0,3.4-0.1,5.1
		c-2.4,1.2-4.8,2.3-7.2,3.4c-0.9,0.4-2.2,0.8-1.7,1.9c0.6,1.2,1.7,0.4,2.5-0.2c0.6-0.4,1.1-0.9,1.8-0.1c-0.3,1.8-2.1,2.5-3,3.8
		c-1.7,2.2-4.6,3.4-5.2,6.4c-0.3,0-0.6,0-0.8,0c-0.8,0.2-1.9,0-2.4,0.5c-4.6,3.9-10.2,6.2-15.5,8.9c-1.1,0-2.2-0.1-3.3,0.1
		c-2.3,0.3-5.2,2.1-6.6,0.7C94.5,140.9,95.4,137.6,95.4,135.3z M106.2,131.1c0.2,0.4,0.4,0.7,0.6,1.1c6-2.9,12-5.8,18-8.8
		C117.5,123.4,111.8,127.2,106.2,131.1z"/>
	<path class="st1" d="M362.6,388.1c2.7,2.7-0.5,4.7-1.4,6.1c-3,4.7-3.8,10.7-8.3,14.6c5.8-1,10.4-4,14.4-8.1
		c4.1-4.1,7.9-8.7,14.7-8.6c4.3,0.1,8.4,2,9.7,5.9c-3-1.9-5.3-1.3-7,1.9c-0.4,0.7-0.7,1.9-2.1,1.5c0.1-0.7,0.2-1.4,0.3-2.1
		c0.1-1.4,2.8-2.5,1.2-3.9c-1.6-1.3-4-1.8-6.1-0.9c-1.2,0.5-2.2,1.8-3.2,2.7c-6,5.1-10.9,11.7-19.1,13.5c-0.9,0.2-1.9,1.1-1.8,2.1
		c0.2,1.4,1.6,1.1,2.4,0.9c7-2.1,14.3-3.1,19.9-8.7c1.5-1.5,2.7-5.2,6.3-3.6c1,1-1.5,1.6-0.4,2.6c-0.2,0.3-0.5,0.7-0.7,1
		c-1.8-0.5-2.9,0.8-4.2,1.6c-6.2,4-12.3,7.9-19.9,9.1c-2.2,0.3-4.2,2.1-6.3,3.2c-5.6-2.9-8.5-2.6-12.4,1.5c-0.7,0.8-2.3,1.5-1.8,2.6
		c0.7,1.6,2.1,0.5,3.3,0.3c1-0.2,1.2,0.5,1.3,1.2c-1.9,1.7-4.1,2.5-6.7,2.9c-5.3,0.9-6.9,2.9-7.1,8.7c-2.6,1.4-5.2,2.7-7.8,4.1
		c-0.5-0.9-0.9-1.8-1.4-2.7c0.4-0.1,0.7-0.2,1.1-0.3c-0.1-0.1-0.1-0.2-0.2-0.3c-0.3,0.2-0.6,0.4-0.9,0.6c-3.2,0.3-5.9,2.9-9.1,2.5
		c-4-0.5-6.7,1.3-9,4.2c-0.8,1-2.5,1.6-1.9,3.4c0.6,1.9,2.2,1.9,3.7,2.1c-1.4,1.3-3.2,1.4-4.9,1.6c-0.3-0.8-1-1-1.8-1
		c0-1.3-0.6-2.1-1.8-2.6c0-0.6,0-1.1,0-1.7c0.8-0.3,1.7-0.4,2.2-1c4.4-4.8,9.2-9,14-13.3c2.4-2.2,5.7-4.5,5.1-8.7c1.7,0,3.4,0,5.1,0
		c-1.3,5.2-5.6,7.9-9.3,11c-0.6,0.5-1.7,0.8-1.4,1.8c0.3,1.1,1.4,0.9,2.2,0.7c4.7-0.9,9-2.5,12.9-5.5c6.7-5.2,11.4-12.3,18.1-17.4
		c4.5-3.4,9.2-6.5,12-11.6c0.8-1.4,2.5-3.1,1.6-4.6c-0.9-1.5-2.7,0.5-4.2,0.3c-0.2,0-0.4-0.3-0.7-0.5c1.8-0.8,3.7-1.7,5.5-2.5
		c1.7-0.8,2.8-2.1,2.9-4.1c1.6-0.2,1.2-1.8,1.8-2.6C362.1,388,362.3,388,362.6,388.1z"/>
	<path class="st0" d="M351.7,397.4c0.2,0.2,0.4,0.4,0.7,0.5c1.5,0.2,3.2-1.8,4.2-0.3c0.9,1.5-0.8,3.1-1.6,4.6
		c-2.8,5.1-7.5,8.2-12,11.6c-6.7,5-11.5,12.1-18.1,17.4c-3.9,3.1-8.2,4.6-12.9,5.5c-0.8,0.2-1.8,0.4-2.2-0.7c-0.3-1,0.7-1.3,1.4-1.8
		c3.7-3.2,7.9-5.9,9.3-11c2.5-2.3,4.2-5,4.3-8.5c0.2-0.3,0.5-0.6,0.7-0.9c1.6-0.4,3.6-0.2,3.1-2.9c0,0,0.1-0.1,0.1-0.1
		c2.5,0.6,3.4-0.9,3.8-3c1.4-2.6,5.3-2.6,6-5.9c1-0.4,3.6,0.5,1.7-2.2l0,0.1l0.2,0l0.1-0.2c-0.5,2.9,1.3,1.7,2.5,1.3
		C345.7,399.9,348.7,398.6,351.7,397.4z"/>
	<path class="st0" d="M155.9,438.4c-0.7,0.1-1.3-0.1-1.7-0.8c1.7-3.1-1.6-3.6-2.9-4.6c-2.8-2.2-5.5-4.6-7-7.7
		c-4.4-9.4-8.2-19-15.8-26.5c-1.8-1.7-0.7-2.4,0.9-2.7c2.2-0.5,4.1,0.8,6,1.5c0.9,3,3.4,1.1,5.1,1.7c0.3,0.1,0.6,0.1,0.9,0.2
		c0.1,0.7,0,1.6,0.4,2c4,4.9,8.4,9.4,11.7,15c2,3.5,4.1,6.9,5.9,10.6c2,4,2.4,8.9,5.9,12.2c-0.5,0.9-1.8,1.1-1.7,2.4
		c-0.6-0.3-1.1-0.6-1.7-0.8C160.6,437.5,158.3,436.5,155.9,438.4z"/>
	<path class="st2" d="M207,84c0.1,0.6-0.3,0.9-0.9,1c-1.1-1.2-1.7-0.5-2.7,0.3c-3.8,3.1-7.7,6.1-12.3,8c-1.1,0.5-2.6,1.7-3.9,0.2
		c-1-1.2,0-2.6,0.5-3.6c2.4-4.7,4-10,8.1-13.7c0.9-0.8,1.1-1.9,1-3.1c5.5-2.2,9.7-6.4,15.1-9c4.6-2.2,9.1-4.1,14.3-4.4
		c-1.7,2.8-3.1,5.7-3.6,8.9c-0.3,0.6-0.3,1,0.5,1.2c0.7,0.5,1.4,1,2.1,1.5c-0.1,0.3-0.2,0.5-0.3,0.8c-1,0.1-2,0.3-3,0.4
		c-0.3-1.1-0.8-2.6-2.2-1.5c-4.5,3.4-9,6.8-11.7,12C207.6,83.4,207.3,83.7,207,84z"/>
	<path class="st1" d="M196.8,73.1c0,1.2-0.1,2.3-1,3.1c-4.1,3.7-5.7,9-8.1,13.7c-0.5,1-1.5,2.3-0.5,3.6c1.3,1.5,2.8,0.2,3.9-0.2
		c4.6-1.9,8.5-4.9,12.3-8c1-0.8,1.6-1.5,2.7-0.3c-4.7,5-10.1,9.2-16.3,12.1c-1.5,0.7-2.9,1.5-3.9,3c-5-3.5-13.7,0.1-14.3,6.1
		c-0.1,0.6,0.9,1.3,1.4,1.9c-2.3,2.5-5.9,2.9-8.4,5.2c-0.8-0.6-0.8-1.4-0.9-2.3c-0.1-1.3-0.4-2.7,1.5-2.9c2.3-0.3,3.3-2.1,4.2-3.8
		c1.7-3.1,3.9-5.6,7.1-7c6.8-2.8,10-8.7,12.9-14.8c0.9-1.8,2.2-4.3-2.5-3.9c-3.7,0.3-5.6,3.1-8.8,4.2c-6.4,2.2-12.4,5.8-16.7,11
		c-5.7,6.9-13,12.1-19.1,18.5c-0.3-0.3-0.5-0.6-0.8-0.9c2.2-4.8,4-9.7,5.2-14.8c0.7,0,1.4,0.1,2.1,0.1c0.4,1-0.2,1.9-0.5,2.8
		c-0.3,0.7-1.1,1.6-0.1,2.2c0.5,0.3,1.6,0.1,1.9-0.3c2.1-2.4,5.5-4,5.8-7.8c1.1-0.9,2-2,3.2-2.6c7-3.6,12.9-8.8,18.9-13.7
		c1.3-0.2,1.6-1.2,1.9-2.2c1.8,0.4,2.9-1.1,4.5-1.3c4.2,2.5,4.5,2.3,4.6-2.6c1.5-0.9,2.7-2.4,4.7-2
		C194.4,70.8,190.7,75.6,196.8,73.1L196.8,73.1z"/>
	<path class="st3" d="M447.4,401.3c-3.6,3.6-7.4,7-10.6,10.9c-6.6,8-20.2,9.4-27.8,2.5c-1.9-1.7-4.3-2.8-5.7-5
		c1.2-0.6,1.2-1.7,1.2-2.7l0,0c2.9,0.1,4.3-1.4,4.2-4.3c1.8-2.6,3.4-0.7,4.9,0.3c2,1.4,3.8,3.1,5.7,4.7c1.3-2-2.3-4.3-0.4-6.6
		c2,0.2,4.5-0.8,4.6,3c0,1.9,3,1.8,4.3,1.6c4.3-0.9,8.5-2.4,12.8-3.7c0.8-0.5,1.7-1,2.5-1.5c1.3-0.5,2.6-0.5,4-0.3
		C447.2,400.5,447.3,400.9,447.4,401.3z M422.4,412.9c1.1-0.7,3.1-0.8,3.2-2.9c0.1-1.3-0.9-2-2.2-2c-1.9,0-3.2,1-3.5,2.9
		C419.9,412,420.8,412.7,422.4,412.9z"/>
	<path class="st4" d="M268.7,383.7c1.7,1.1,0.8,1.5-0.4,2.2c-1.9,1-1.9,1.7,0.4,2.5c4.5,1.6,9,3,13.4,4.6c4,1.4,8.6-1.5,12.8-2.7
		c3.8-1.1,7.5-2.7,11.2-4.1c0.3,0.8,0.1,1.4-0.4,1.6c-9.7,5.3-19.6,9.1-31.1,6.8c-2.8-0.6-6.2-1.8-8.6,1.3c-1.6-0.9-3.1-2.3-5.2-1.8
		c-0.8,0.4-1,1.1-1,1.9c-0.7,0-1.5,0.1-2.2,0.1c-0.4,0.2-0.8,0.3-1.2,0.5c-0.6,0-1.2,0-1.7,0c-0.4-0.2-0.8-0.3-1.2-0.5
		c-0.6,0.7-3.5-0.3-1.8,2.3c-3-0.8-4.7,2-7.2,2.8c-1.3,0.4-3.5,0.7-2.9,2.8c0.4,1.6,2.3,1.3,3.6,1.2c3.2-0.2,6.2,0.1,7.8,3.4l0,0
		c-4.6,0.1-9.7,0.8-13.3-2.3c-3-2.6-5.6-5.7-8.6-8.5c-2.2-2-4.7-3.6-6.1-6.2c0-0.4,0.1-0.8,0.1-1.1c1.8,0.8,3.4,2.6,5.7,1.6
		c-0.2,2.6,1.7,4,3.3,5.6c5,5,4.9,4.9,10.7,1c1.6-1.1,2.4-3.3,4.5-3.6c4.1-0.4,7.6-3,11.7-3.5c1-0.1,2.2,0,2-1.5
		c-0.2-1.3-1.5-1.1-2.4-1.1c-5.6,0.2-11.3-0.6-16.9,0.4c-1.1,0.2-1.5-0.2-1.7-1.2c5-1.5,10.2-2.3,15.2-1.5
		C261.8,387.6,265.3,386.3,268.7,383.7z M267.3,390.9c-0.4-0.3-0.7-0.7-1-0.7c-0.3,0-0.9,0.2-1,0.4c-0.2,0.6,0.3,1,0.9,0.9
		C266.5,391.5,266.8,391.1,267.3,390.9z"/>
	<path class="st1" d="M95.4,135.3c0,2.3-0.9,5.5,0.2,6.7c1.4,1.4,4.3-0.4,6.6-0.7c1.1-0.2,2.2-0.1,3.3-0.1c0,0.3,0,0.6,0,0.9
		c-0.9,1-3.8,0.3-3,2.6c0.7,1.8,2.4,0,3.7,0c2.5,0,4.9-1.2,7.5-0.9c1.2,0.2,2.6-0.2,2.9,1.6c-1.2,0.2-2.5,0.7-3.7,0.5
		c-3.9-0.4-4.2,1.1-3.5,4.6c0.9,4.5,1.2,9.2-0.6,13.7c-2-0.4-1.2-1.6-1-2.9c0.5-4.5,0.8-8.9-0.3-13.4c-0.5-1.9-1.1-2-2.5-1.2
		c-3.3,1.7-6.8,1.4-10.4,1.5c-1.9,0.1-3.5-3.2-5.2-0.9c-1.4,1.8,2.2,3,1.8,5.1c-0.7,0.4-0.9,1-0.9,1.7c-1.7-0.1-3.8,0.5-3.7,2
		c0.1,3-1.9,5.1-2.4,7.8c-1.2,6.6-0.5,13.2-0.7,19.8c-0.1,3.6-0.2,7.2,1.7,10.6c1.1,2,2.5,4.3,2.2,8.1c-4.2-6.2-4.5-1.9-5.5,1
		c-0.2,0.6-0.6,1.2-0.9,1.8c-0.2-0.1-0.4-0.1-0.6,0c2.3-9.4,1.7-18.9,1.4-28.4c-0.4-9.2,2.7-17.9,3.9-26.8
		C86.6,142.8,90.9,139.4,95.4,135.3z"/>
	<path class="st1" d="M270,444.5c-3.5,2.5-7.1,4.9-10.6,7.4c-1,0.7-2.3,1.3-3.1,2.2c-1.1,1.2-2.9,2.9,0.7,3.2
		c0.8,0.1,1.9,0.1,1.5,1.3c-0.4,1.1-1.5,1.4-2.5,0.9c-3.6-1.7-7.6-3.1-10.7-5.5c-6.2-4.7-12.9-8.4-20.7-9.4
		c-4.9-0.6-9.1,2.2-13.6,3.9c-3.5,1.3-6.6,3.6-10.6,3.6c-3.2,0-0.8,2.2-1.1,3.4l-0.2,0.3c-3-1.3-4.5-4.1-6.6-6.4c0-0.8,0-1.6,0-2.4
		c1.9-0.1,3.8-0.1,5.4,0.8c6.4,3.8,11.4-1.5,16.9-2.7c2.1-0.5,3.2-2.2,0.2-4c-2.5-1.4-5.2-2.6-7.1-4.8c4.7-0.9,8.3,1.9,12.2,3.7
		c2.6,1.2,5,2.6,8,1.8c0.9,0.1,1.8,0.2,2.7,0.3c2.9,1,6,1.9,8.2,4.1c2.6,2.6,5.6,3.5,9,3.8c0.1,0.8-0.1,1.8,0.2,2.5
		c0.8,1.7,2.1,2.7,4,2.2c1-0.3,2.4-0.5,2.2-2c-0.4-2-2-2.1-3.6-2.1c-0.4,0-0.7-0.4-1.1-0.5c4.2-0.9,8.5-1.9,12.7-2.8
		c1,0,1.5-0.6,1.8-1.4c1.3-1,2.9-1.1,4.4-1.4C269,444.2,269.5,444.3,270,444.5z"/>
	<path class="st1" d="M199.3,455.5c3.2-0.8,5.2,2.4,8.7,2.1c4.8-0.3,8.9-2.3,13.4-3.3c7.6-1.7,13.6,0.4,19.1,5.3
		c1.9,1.7,3.9,3.2,5.8,4.9c6.1,5.4,12.6,4.3,19.4,1.7c2.8-1.1,5.3-3.2,8.6-2.1c-5,3.6-11,5.2-16.2,8.2c-6.8,3.8-13.4,3.1-20.3,3
		c-0.8,0-1.7,0-2.3-0.8c1.1-0.2,2.3,0,3.1-1.1c0.6,0,1.1,0,1.7,0c0.4,0.7,1,0.8,1.7,0.8c1.1,0,2.3,0,3.4,0c1.5-0.3,3-0.5,4.5-0.9
		c1.1-0.2,2.7-0.4,2.6-1.6c-0.2-1.5-1.8-0.6-2.8-0.9c-1.2-3.3-4.1-5.3-7.1-5.7c-5.2-0.7-8.6-3.7-12-7.1c-1.7-1.7-8.9-2.5-11-0.9
		c-3,2.3-1.7,5.1-0.5,7.8l-0.2,0.2c-1.4-0.6-2.7-1.3-4.1-1.9c-0.4-1.4-1-2.7-2.6-3.2c-4.7,0-9.6,0.3-13-4L199.3,455.5z"/>
	<path class="st0" d="M95.3,389.9c0,0-0.1-0.3-0.1-0.3c0.6-3.8,0.2-7.3-3.8-9.1c-0.3-0.1-0.4-0.4-0.3-0.7c0.5-2.7-0.8-4.9-2.1-7
		c-2-3.3-0.7-3.9,2.4-3.5c0,0-0.1,0-0.1,0c-0.3,1.5,0.7,2.4,1.6,3.2c4.3,3.9,8.6,7.7,12.9,11.6c2,1.7,3,5,6.6,4.2
		c0.1,0.7-0.1,1.6,0.3,2c2.6,3.4,1.2,5-2.2,6.5c-1.5,0.7-4.6,0.3-4.2,3.6c-1.3-2.4-1.4-6-6.1-5.7c1,1.7,1.8,3,0.7,4.5
		c-0.7-0.3-1.4-0.6-2.2-0.8c-0.1-0.6,0-1.3-0.7-1.5c0-0.3,0-0.6,0-0.9c0.3-0.2,0.6-0.4,0.9-0.6c-0.4-0.1-0.8-0.2-1.1-0.3
		c0,0,0,0,0,0C97.8,393,98.8,390.3,95.3,389.9z"/>
	<path class="st3" d="M382.2,145c-0.8-0.6-0.6-1.1,0.1-1.7c-1.3-0.5-2.2-0.1-2.6,1.2l-0.2,0.1c0,0-0.2,0-0.2,0c-1.6-2.6-3.8-1.7-6-1
		c-1.2-0.3-2.3-0.5-3.5-0.8c-4.8-4.5-10.8-7.1-16.1-10.9c0-0.6,0-1.1,0-1.7c0.3,0,0.5,0,0.8,0c1.2,0,2.5,0,2.6-1.7
		c1.2,1.1,3.1,0.4,4.2,1.7c-0.9,0.9-0.4,1.8,0.6,1.6c5.4-1.1,8.3,2.4,11.5,5.7c1.4,1.4,3,1.7,4.6,0.5c-5.2-4.7-10.3-9.2-15.3-13.8
		c-1-0.9-2.3-1.8-2.2-3.5c1.3-0.1,2.3,0.4,3.4,1.3c2.6,2,5.5,2.5,8.4,0.5c0.3,0.2,0.7,0.3,1,0.5c0.1,0.9-0.6,2,0.5,2.8
		c2.9,5.5,7.7,9.7,10.5,15.4C382,141.8,382.3,143.5,382.2,145z"/>
	<path class="st5" d="M137.3,109.5c0.1-0.2,0-0.5-0.2-0.6c-0.2-0.4-0.4-0.8-0.6-1.2c-0.4-1.1-0.9-2.1-1.3-3.2c0.1-0.2,0-0.4-0.1-0.5
		c-0.2-0.1-0.4-0.3-0.5-0.5c-1.7-5.7-3.2-11.3,0.7-16.8c0.3-0.5,0-1.4,0-2.1c0,0,0-0.3,0-0.3c2.6-2.4,4.2-5.4,4.3-9
		c0.4-0.7,0.7-1.4,1.1-2.1c2,0.2,2.3,1.8,2.5,3.3c0.4,2.8,0.6,5.7,0.9,8.6c0,1.1,0.1,2.3,0.1,3.4c0.4,1,1.7,1.3,1.7,2.6
		c0.1,0.3,0.1,0.7,0.2,1c-0.1,0.3-0.1,0.5,0,0.8c-0.1,0.5-0.1,0.9-0.2,1.4c-1.7,4-3.3,8.1-5.1,12.1
		C140,107.6,140.2,110.3,137.3,109.5z"/>
	<path class="st2" d="M207.8,436.3c2,2.2,4.7,3.4,7.1,4.8c3.1,1.8,1.9,3.5-0.2,4c-5.6,1.3-10.5,6.5-16.9,2.7
		c-1.6-0.9-3.5-0.9-5.4-0.8c-1.2-2.7-1.4-5.7-1.8-8.6c0-0.2,0-0.5,0-0.7c4.8-0.6,9.9,1.2,14.5-1.7
		C206.1,436.1,207,436.2,207.8,436.3z"/>
	<path class="st1" d="M135.5,397.6c-2-0.7-3.8-2-6-1.5c-1.6,0.3-2.7,1-0.9,2.7c7.6,7.4,11.4,17.1,15.8,26.5c1.5,3.1,4.2,5.5,7,7.7
		c1.3,1,4.5,1.5,2.9,4.6c-5-2-8.9-5.2-11.2-10.2c-1.1-2.5-2.3-5-3.4-7.5c0.1-1.7-0.9-3-2.2-3.2c-3.4-0.5-5.9-3.5-9.6-3
		c0-0.6,0-1.1,0-1.7c2.2-0.3,5.1,1.1,6.3-0.8c1.7-2.7-2.1-3.8-2.9-5.9c-0.1-0.3-0.2-0.5-0.4-0.7c-3.8-3.6-7-8.2-13.2-7.9
		c-0.3-2.4,0.2-4.7,0.9-6.9c6.4,1.2,12.5,3.1,17.9,6.8C136.1,397,135.8,397.3,135.5,397.6z"/>
	<path class="st0" d="M241.9,388.3c0.2,1,0.6,1.4,1.7,1.2c5.6-1,11.2-0.2,16.9-0.4c0.9,0,2.2-0.2,2.4,1.1c0.2,1.4-1,1.4-2,1.5
		c-4.1,0.5-7.6,3.1-11.7,3.5c-2.1,0.2-2.9,2.5-4.5,3.6c-5.8,3.9-5.8,4-10.7-1c-1.6-1.6-3.5-3-3.3-5.6c0.2-0.4,0.4-0.8,0.6-1.3
		c0.7,0,1.1-0.6,1.3-1.1c2.5,2.7,4.4-1.1,6.7-0.7c0.7,0.7,0.7,0.1,0.8-0.4C240.7,388.5,241.3,388.4,241.9,388.3z"/>
	<path class="st4" d="M165.3,439.3c-3.4-3.3-3.9-8.2-5.9-12.2c-1.8-3.6-3.9-7.1-5.9-10.6c-3.3-5.6-7.7-10.1-11.7-15
		c-0.4-0.5-0.3-1.3-0.4-2c0.6,0,1.1,0,1.7,0.1c0.3,1.6,1.5,1.5,2.7,1.4c0,0,0,0,0,0c0.1,2.2,1.8,3.2,3.3,4.3
		c4.9,5.3,8,11.6,10.5,18.2c1.2,3.3,3.2,5.4,7.2,4.8c1.4-0.2,3.3-0.6,3.6,1.7c-1.2,0.5-2.8-0.4-4.1,1.1c3.5,3.4,7.7,4.7,12.4,4.3
		c0.6,2.3,4.3,0.1,4.4,3c-4.2-0.5-8.7,1.2-12.7-1.5c-0.7-0.4-1.8-0.4-2.3,0.4c-0.6,1,0.1,1.8,0.9,2.5c3,2.5,4.4,7.3,9.5,7
		c0.1,0,0.2,0.8,0.4,1.2c-4.5,0.6-8-1.5-11.2-4.2C167.8,441.8,166.4,440.7,165.3,439.3z M166.8,434.2c-0.4,0.3-0.6,0.5-0.9,0.7
		c0.3,0.3,0.5,0.7,0.8,0.8c0.2,0.1,0.5-0.3,0.8-0.5C167.2,434.8,167,434.5,166.8,434.2z"/>
	<path class="st3" d="M332.1,349.9c6.1-4.4,13.3-6.4,20.1-9.1c3-1.2,6.1-2.1,9.1-3.1c0.5-0.2,1-0.4,1.4-0.7c0.4-0.1,0.8-0.2,1.1-0.3
		c1.3,0.7,1.5,1.9,1.6,3.2c-0.3,1.9-2.3,2.1-3.2,3.3c-0.4,0.2-0.8,0.5-1.1,0.7c-0.2,0.2-0.4,0.2-0.7,0.1c-4.8,1.5-8.7,4.1-11.3,8.4
		c-2.8,0.7-5.7-1.2-8.5,0c-0.8,0-1.7,0-2.5,0C337.1,349.2,333.7,351.8,332.1,349.9z"/>
	<path class="st3" d="M127,335.1c12.9,0.5,24.8,3.6,34.6,12.6c1.1,1,2.3,1.9,2.9,3.5c0.5,1.2,1.8,2.6,2.9,2.9
		c7.8,1.6,13.9,6.5,20.7,10.3c1.8,1.4,3.5,2.8,5.3,4.2c-0.6,0.9-1.2,1.8-1.8,2.7c-1.1,0-2.3,0-3.4,0.1c-1.4-0.2-2.8,1.8-4.3,0
		c1.3-1.2,2.6-2.4,4.2-3.8c-4.1-2.7-7.9-6.7-12.2-7.4c-3.6-0.6-6.4-1.9-9.6-3.2c-3.3-1.3-3.2-4.3-5.1-6.1c-4.8-4.4-9.8-8.6-16-10.6
		c-5-1.6-10.2-4.9-15.8-1.3C127.1,338.6,126.8,337.1,127,335.1z"/>
	<path class="st1" d="M127,335.1c-0.2,1.9,0.1,3.5,2.5,3.7c0.6,0.6,1.1,1.3,1.8,1.7c12.9,9.3,23.1,20.9,30.6,34.9
		c-1.1,0-2.3,0-3.4,0c-0.1-3.3-1.6-6.4-4.8-6.6c-5.7-0.3-10.6-2.5-15.7-4.5c0-0.6,0-1.1,0-1.7c2.6,0.2,5,0.9,7.1,2.5
		c2.3,1.8,4.3,0.3,5.6-1c1.7-1.6-0.7-2.5-1.6-3.5c-5.6-6.5-13.1-10.8-18.7-17.2c-2.5-2.8-6.1-4.5-7.7-8l0,0c0.3-0.2,0.6-0.4,0.8-0.6
		C124.7,334.9,125.9,335,127,335.1z"/>
	<path class="st6" d="M127.8,412.1c0,0.6,0,1.1,0,1.7c-1.1,0.1-1.7,0.6-1.7,1.7c-3.4-0.3-6.5-1.6-9.4-3.3c0.8-1.3,1-2.8,0.9-4.4
		c0.6,0.1,1.5,0.8,1.6-0.3c0.2-4.3-4.3-7.6-9-6.5c3.5,1.4,7,2.6,7.4,6.8c-1,0-2-0.4-2.5-1.3c-1.9-3.3-5.3-3.8-8.6-4.7
		c0-0.5-0.1-1-0.1-1.6c-0.4-3.2,2.6-2.9,4.2-3.6c3.3-1.5,4.8-3.1,2.2-6.5c-0.4-0.5-0.2-1.3-0.3-2c0.3-1.3,0.6-2.5,0.9-3.8
		c0.5-1.4-0.2-2.6-0.7-3.9c0.3-0.1,0.6-0.2,0.9-0.4c2.4,2.8,1.6,7.3,4.9,9.6c-0.7,2.3-1.1,4.6-0.9,6.9
		C118.6,403.4,121.6,408.8,127.8,412.1z M120.7,409.8c0,0.1,0,0.2,0.1,0.3c0.1,0.1,0.2,0.1,0.3,0.1c0-0.2-0.1-0.3-0.1-0.5
		C120.9,409.8,120.8,409.8,120.7,409.8z"/>
	<path class="st3" d="M220.6,55.2c11.5-6.3,23.6-8.3,36.5-6c4.4,0.8,8,3.6,12.1,5.3c-0.6,2.2-2.7,1.9-4.2,2.4
		c-0.1-0.4-0.2-1.1-0.4-1.1c-4.7-0.1-8.6-1.4-12.6-4.3c-2.1-1.6-6.2-0.8-9.4-0.4c-3.3,0.5-7.8-0.3-8.3,5c-3.6-0.1-7.2-0.1-10.6,1.4
		C221.6,58.4,220.5,57.4,220.6,55.2z"/>
	<path class="st1" d="M96.1,342.5c0.5-0.3,0.9-0.8,1.4-0.9c1.3-0.2,2.1,2.3,3.2,1c1.2-1.4-0.6-2.8-1.2-4.1
		c-2.8-6.1-1.2-12.2-0.3-18.3c0.7-5,2.1-9.9,0-14.9c-0.6-1.4-0.8-3.1-2.9-3.1c-0.3-0.9,2.8-0.7,0.6-2.2c-1.4-0.9,0-1.9,0.2-2.9
		c3,2.6,3.6,6.2,4.2,9.8c0.8,4.8-0.2,9.5-0.1,14.3c0,1.4-0.5,2.9,1.7,3.1c2.5,0.2,5,0.6,7.5,0.9l0,0.1c4.1,3.1,8.2,6.2,12.3,9.3
		c0,0.3,0,0.5,0,0.8c0,0,0,0,0,0c-1.8-0.1-3.8,0.5-5.1-1.3c-3.1-4.7-8.3-5.3-13-6.7c-3.4-1-5,1.3-4.8,4.8c0.3,4.8,3.6,7.3,6.7,10
		c0,1.2,0,2.4-0.1,3.6C102.9,345,99.1,345,96.1,342.5z"/>
	<path class="st6" d="M158.4,119.3c-5.4,8-12.4,14.4-21.2,18.4c0.1-0.8-0.2-2,0.3-2.4c3.4-3.1,4.4-6.3,1.4-10.2
		c1.6,0.1,2.6-0.5,4-1.6c4.1-3.2,8.5-5.9,13.7-6.9C156.6,117.9,157.2,118.8,158.4,119.3z"/>
	<path class="st6" d="M149.1,405.3c-1.6-1.1-3.3-2.1-3.3-4.3c3.9-0.3,6.9,2.1,10.2,3.6c3,1.3,5.6,3.3,8.4,5c1.5,1.8,3,0.3,4.4-0.1
		c0.8,0.3,1.6,0.6,2.4,0.9c0.6,0.7,1.3,1.3,1.9,2c-0.8,1.3-2.8-0.1-3.6,1.6c2.8,1.9,4.7,4.4,6.8,6.9c2.9,3.4,5.6,6.9,9.4,9.3
		c0.2,2-2.4,3.6-0.8,5.8c0,0-0.1,0.1-0.1,0.1c-1.7-0.6-3.4-1.1-5.1-1.7c0.1-1.6-0.8-2.7-1.9-3.8c-0.1-1.4,1.7-2.7,0.3-4
		c-1.8-1.6-2.2,0.8-3.3,1.4c-1,0.5-1.9,0.5-2.8-0.3c-0.6-0.6-0.8-1.3,0.1-1.7c1.7-0.9,3-1.9,1.7-3.9c-0.9-1.4-1.6-3.4-3.5-3.4
		c-2.8,0-4.1-2.1-4.9-3.9c-1.5-3.6-4.6-5.2-7.6-6.8C155.2,406.5,152.5,404.3,149.1,405.3z"/>
	<path class="st3" d="M108.2,183.8c-0.6,3.4-1.3,6.8-1.9,10.3c-1.5,0.4-1.8,0.9-0.3,1.8c-0.4,1.4,0.2,3-1.2,4.1c-1.1,0-2.3,0-3.4,0
		c-0.8-3.5-2-6.9-2.7-10.5c-0.9-4.9,1.9-8.5,3.5-12.5c0-0.2,0-0.5,0-0.7c3.2-0.7,3.4-3.6,4.3-6l0,0c0.3,0,0.6,0,0.9,0
		c0.9,3.9-0.4,8,0.8,11.9C108.2,182.7,108.2,183.2,108.2,183.8z"/>
	<path class="st7" d="M367.2,157.1c0.8,0.3,1.8,0.4,2.3,1c4.8,4.9,10.6,7.5,17.6,7.9c-6.2,6.9-18.8,6.3-28.8-0.9
		c-1.5,1.1-1.6,3.3-4.1,4.3c0-6.7-0.5-13,0.7-19.4c0.5-0.1,1-0.2,1.5-0.3c2.1,0.2,4.2,0.2,6.2,0.8c1.7,0.5,5.4-0.3,3.1,3.8
		C365.4,154.8,366.7,156.1,367.2,157.1c-2.8,0.1-4.9-1.3-5.9-3.8c-0.5-1.3-1.1-1.8-2.4-1.8c-1.4,0-2.4,0.6-3,2
		c-1.2,2.8-0.8,5.7-0.4,8.5c2.1,0.3,0.7-2.6,2.6-2.2c6.4,10.2,14.6,12.8,23,7.1C375.3,165,370.1,162.6,367.2,157.1z"/>
	<path class="st8" d="M174.8,343.7c-1.4-3.5-4.3-6.5-4.2-10.8c12,2.4,19.2,10.9,12.4,19.4c-0.3,0.3-0.6,0.6-0.9,0.9
		c-2.7,0.4-4.6-0.7-5.8-3.2c0.1-1.1,0.1-2.1,0.7-3.1C178.5,344.5,177.4,343.6,174.8,343.7z"/>
	<path class="st9" d="M193.4,368.5c-1.8-1.4-3.5-2.8-5.3-4.2c0.6-1.3-1.2-2.1-0.8-3.3c0.6,0,1.3-0.1,1.9-0.1
		c2.8,2.4,5.7,4.7,8.2,7.3c2.3,2.4,5.3,3.4,8.2,3.6c8.1,0.6,14.2,5,20.2,9.8c1.1,0.9,2.2,1.7,3.8,2.9c0.3-3,1-5.4-0.3-7.7
		c-0.6-1.1-0.7-2.2,0.3-3c0.4-0.3,1.4-0.2,2,0c1.2,0.5,1,1.7,0.8,2.6c-1.1,4.5-0.4,9,0.2,13.4c-0.3,0.6-0.6,1.1-1.3,1.1
		c-0.6-1.8-1.7-3.2-3-4.6c-7.9-8.4-17.5-12.9-29.1-13.3C196.8,372.1,195.5,369.9,193.4,368.5z"/>
	<path class="st6" d="M158.4,375.5c1.1,0,2.3,0,3.4,0c0.3,0,0.6,0,0.9,0.1c0,1.6,0.9,2.4,2.5,2.5c-0.2,4.1,2.7,6.2,5.2,8.8
		c3.1,3.2,8.1,4.8,9.2,9.9c-0.3-0.1-0.6-0.2-0.7-0.4c-6.7-7.3-15.2-11.1-24.7-13.6c-3.7-1-7.3-3-11.2-3.8c1-2.5-2.6-2.4-2.6-4.3
		c1.2,0.1,2.8-0.3,3.7,0.3C148.9,378.3,153.6,378,158.4,375.5z M164.3,382.6c-0.5-1.4-1.7-1.7-2.9-1.9c-0.8-0.1-1.9,0.1-1.8,1.1
		c0.2,2,2.2,1.1,3.3,1.7C163.6,384,164.2,383.5,164.3,382.6z"/>
	<path class="st6" d="M97.1,290.3c0-0.8,0-1.7,0-2.5c1.6-2.5-1.5-3.4-1.7-5.4c-0.4-3.3-2.1-4.6-5.2-2.2l0,0
		c-0.2-3.5-2.6-6.7-4.5-8.6c-2.3-2.3-4.4-6.4-8.9-5.9c-0.6-2.5,0.6-5.2-1.2-7.5c2-3,1.8-6.9,4.2-9.6c0.3,2.1,0,4.2-0.5,6.2
		c-0.4,1.8-1,4.2,2.4,4.1c0,1.2,0,2.5,1.7,2.6c2.9,3.3,3.3,8.8,8.5,10.2c0,0.9-0.1,2,0.9,2.6c1.2,3.9,4.3,6.4,6.8,9.4
		c0,1-0.1,2,1,2.6c-0.1,0.8-0.2,1.6-0.3,2.5c-0.3,0.4-0.5,0.8-0.8,1.1c-0.7-0.3-1.1,0.3-1.7,0.6C97.7,290.3,97.4,290.3,97.1,290.3z"
		/>
	<path class="st1" d="M329.6,354.2c-4.2,2.2-3.6,7-5.8,10.3c-3,4.6-5.4,9.5-8.1,14.2c-0.5,0.9-1.1,2.5-2.5,1.5
		c-1.2-0.9,0-2.3,0.7-2.9c2.1-2,3.2-4.5,4.6-7.8c-4.7,1.2-8,4.2-11.9,5.7c-5.8,2.3-11.1,5.9-17.8,3.9c4.2-1.5,8.7-1.7,12.7-3.8
		c1.1-0.6,2.5-0.8,2.7-2.3c0.6-0.1,1.1-0.1,1.7-0.2c9.3-3.4,16.2-9.3,19.9-18.6c0.6-0.3,1.3-0.7,1.9-1
		C328.4,353.3,329.2,353.4,329.6,354.2z"/>
	<path class="st0" d="M178.9,448c-0.1-0.4-0.3-1.2-0.4-1.2c-5.1,0.3-6.5-4.4-9.5-7c-0.8-0.7-1.5-1.5-0.9-2.5
		c0.5-0.8,1.6-0.9,2.3-0.4c4,2.7,8.5,1,12.7,1.5c2.6,0.2,1.9,3.7,4.2,4.2l0,0c0,0.9-0.2,1.9,0.8,2.5c0,0.6,0,1.1,0,1.7
		c-0.4,0.2-1.5-0.4-0.8,0.8c0,0.3,0,0.5,0,0.8C184.5,448.8,181.7,449,178.9,448z"/>
	<path class="st3" d="M277.5,89.7c-8.8-5.4-18.1-10-25.7-17.3c2.8-0.4,5.5,0.2,8.2,0.8c3.3,0.7,6.3,2.9,9.9,2.5c0,0,0,0,0,0
		c-0.3,2.5,1.4,4.1,2.6,6C273.8,84.6,277.6,85.9,277.5,89.7z"/>
	<path class="st1" d="M220.6,55.2c-0.1,2.3,1,3.2,3.1,2.3c3.4-1.5,7-1.4,10.6-1.4c0,0.3,0.1,0.7,0.1,1c-1.1,0.8-2.2,1.7-3.2,2.5
		c-1.6-1.3-3.3-0.3-4.9,0l-0.1,0.1c-5.1,0.3-9.6,2.2-14.3,4.4c-5.3,2.5-9.6,6.8-15.1,9c0,0,0,0,0,0c0-2.6,5.1-3.3,2.5-6.8
		c0,0,0,0,0,0c2.1,0.5,4.8,2.1,4.3-2.3C208.7,59.9,215.1,58.5,220.6,55.2z"/>
	<path class="st7" d="M291.1,48.9c2.6-4,3.4-8.5,6-12.2c1.3,5.8,4.9,2.1,7.5,1.6c1.9-0.3,3.6-1.7,5.4-2.3c1.1-0.4,2.5-1.4,3.5-0.4
		c1.1,1,0.1,2.5-0.3,3.6c-0.9,2.2-2.2,4.3-3.6,6.4C304.4,53.5,297.2,47.8,291.1,48.9z M297.3,47.7c3.5-1,7.3-1.7,10.8-3.2
		c2-0.9,3.7-3.6,3-5.5c-0.8-2-3.2-0.3-4.9,0.1c-3.2,0.7-5.6,3.5-9.4,3.1c-1.6-0.2-2.9,2.3-2.8,4.2C294.2,48.2,296,47.4,297.3,47.7z"
		/>
	<path class="st10" d="M353.5,130.2c0,0.6,0,1.1,0,1.7c-0.1,0.1-0.3,0.1-0.4,0.2c-0.1,0-0.3-0.1-0.3-0.1c-1.3-2.4,1.7-5.8-1.9-7.7
		c0-2,0-3.9-0.1-5.9c-0.3-0.9-0.5-1.7-0.8-2.6c-0.1-2.9,1.4-5.6,0.9-8.4c0.8-0.3,1.5-0.7,2.3-1c0,0,0.3,0.1,0.3,0.1
		c0,0.6,0,1.1,0,1.7c-0.4,4.8,1.4,8,6.4,9.3c3,0.8,5.7,3,9.1,2.4c1.1,1,2.2,1.9,3.3,2.9c-2.9,2-5.8,1.5-8.4-0.5
		c-1.1-0.8-2.1-1.4-3.4-1.3c-2,0.2-3.6-1-5.2-1.9c-1.6-0.5-1.6-0.5-1.6,1.9c0,2.3,0,4.5,0,6.8C353.5,128.5,353.5,129.3,353.5,130.2z
		"/>
	<path class="st3" d="M91.4,369.4c-3.1-0.4-4.4,0.2-2.4,3.5c1.3,2.1,2.7,4.3,2.1,7c-0.5-0.7-1-1.4-1.6-2.1c-0.4-0.7-0.9-1.5-1.3-2.2
		c-1.5-5.4-5.3-8.8-9.9-11.6c-3.6-2.2-7.3-4.5-11.6-7.1C72.7,356,85.2,362.8,91.4,369.4z"/>
	<path class="st3" d="M333,373.7c0-0.5,0-1.1,0-1.6c0.3-0.3,0.6-0.6,0.9-0.9c0,0,0,0,0,0c3-1.7,3.5-4.7,4.3-7.7c0,0,0,0,0,0
		c3.1-1.7,4.8-4.9,7.7-6.8c1.5,0.2,3.3-0.6,4.4,1.2c-5.3,6.6-10.1,13.7-17.1,18.8C333.1,375.7,333,374.7,333,373.7z"/>
	<path class="st5" d="M447.1,400.1c-1.3-0.2-2.7-0.2-4,0.3c-3.2-0.7-5.6-3.3-8.9-3.6l0,0c0.1-0.8-0.1-1.4-0.9-1.7l0,0
		c0.1-0.8,0-1.4-0.9-1.7l-0.1,0.1c-0.1-3.3,2-4.2,4.8-4.3c1.7-0.1,1.4,2.8,3.4,2.5c2.9,1.2,6.4,1,8.3,4.1
		C449.5,397.7,445.9,398,447.1,400.1z"/>
	<path class="st6" d="M350.9,124.2c3.6,1.8,0.5,5.3,1.9,7.7c0,0.1,0.2,0.2,0.3,0.1c0.1,0,0.3-0.1,0.4-0.2
		c5.3,3.8,11.3,6.4,16.1,10.9c-5.8-1.2-10.1-5.4-15.3-7.6c-0.3-1.4-1.5-1.3-2.5-1.6c-5.5-5-11.4-9.3-17.9-12.9
		c4.6-0.5,7.6,3.3,11.6,4.4C347.6,125.6,349.5,126.8,350.9,124.2z"/>
	<path class="st7" d="M381.8,320.2c-1.7,5.9-5.3,8-9.4,9.5c-2.1,0.8-6-2.3-5.9-4.5c0-0.1,0-0.4,0.1-0.4c5.8-1.6,2.9-9.1,7.9-11.4
		c1.4-0.6,2.1-3.3,4-2.2c2,1.1,0.9,3.3,0.6,5c-0.1,0.8-0.4,1.6-0.5,2.5C378.1,320.9,376.9,324.1,381.8,320.2z M377.4,313.2
		c-4,2.8-6.2,6.2-6.2,11c0,1.2-1.7,2.9,0.6,3.5c2,0.5,4.2-1.1,4.2-2.6C376.1,321.2,378.2,317.6,377.4,313.2z"/>
	<path class="st3" d="M270,444.5c-0.5-0.1-1-0.2-1.5-0.3c10.6-4.2,19.1-11.8,28.7-17.7c0,0.3,0,0.6,0.1,1c-0.2,0.5-0.4,1.3-0.7,1.4
		c-4.6,1.4-7.2,5.3-10.8,7.9c-2.3,1.7-3,3.7-1.3,6.2c-3.4-0.5-6,0.4-7,4.1c-1.6-0.6-3.2-1.2-4.9-1.8
		C271.9,444.3,270.9,444.5,270,444.5z"/>
	<path class="st10" d="M283.6,418.2c0.6-2,3.2-1.8,4-3.9c-3.4-2.6-8-0.3-11.6-2.3c-0.2-1.4-0.5-2.9-2.2-3.3
		c-1.3-0.3-2.2-0.6-1.4-2.2c0.8-1.6,1.8-1,3.1-0.5c3.4,1.2,6.3,3.5,9.9,4.6c4,1.3,6.2-2.3,9.6-1.9
		C293.2,414.3,288.5,416.3,283.6,418.2z"/>
	<path class="st9" d="M293.3,454.6c6,4.8,12.6,5.6,19.6,2.7c0.7-0.3,1.5-1,2.2-0.1c-4.7,5-11,6.7-17.3,8.5c-1,0.3-2.2,0-3.1,0.8
		c0,0,0,0,0,0c0.2-1.9-1-2.2-2.5-2.6c-1.5-0.4-3.4-0.1-4.4-1.7c4.9-1.3,10.3,3.2,15.1-1.5c-4.3-0.5-7.7-2.8-11.1-5
		C292.1,455.1,292.6,454.7,293.3,454.6z"/>
	<path class="st3" d="M368.9,119.8c-3.4,0.5-6-1.6-9.1-2.4c-5-1.3-6.8-4.5-6.4-9.3c0-0.6,0-1.1,0-1.7
		C359.6,109.6,365.3,113.5,368.9,119.8z"/>
	<path class="st9" d="M305.9,372.8c-0.6,0.1-1.1,0.1-1.7,0.2c-0.6-8.2,3.8-14.1,8.8-19.7c1-1.2,2.1-2.2,3.2-3.3
		c0.2,0.4,0.5,0.9,0.7,1.3c0.2,1.9,1.7,2.4,3,1.8c2.9-1.3,6-0.7,8.9-1.4c-0.4,0.5-0.7,1-1.1,1.5c-0.6,0.3-1.3,0.7-1.9,1
		C315.8,352.6,306.3,361.4,305.9,372.8z"/>
	<path class="st7" d="M90.2,281.6c-1.3,2.3-3.5,3.1-5.7,4.1c-0.3-0.2-0.6-0.4-0.9-0.6c-1.2-3.2-4.6-1.8-6.7-3.3
		c-2.2-2.3-3.8-5.1-7.4-6.4c2.5-1.8,4.7-2,6.9-2.1c0.6,0.6,1.2,1.1,1.9,1.7c-0.4,1.1-2.7,0.6-2.2,2c0.5,1.5,1.3,3.4,3,3.8
		c2.1,0.5,5,1.3,6.3-0.5c1.3-1.9-2.8-1.2-2.6-3.3c1.7-1.6,2.8-0.3,3.8,0.9c1,1.2,1.7,2.6,3.6,2.4c0,0,0,0,0,0
		C90.2,280.7,90.2,281.1,90.2,281.6z"/>
	<path class="st9" d="M212.1,459.8c1.6,0.5,2.2,1.8,2.6,3.2c-3.2,1.2-5.7,3.3-8,5.7c-0.6-0.2-1.2-0.4-1.8-0.6
		c0.4-0.9,0.3-1.5-0.9-1.8c-8.5-2.3-12.2-8.8-14.1-16.8c0.6,0,1.3,0.1,1.9,0.1c0.6,4.7,3.6,8.2,6.6,11.5
		C202.3,465.3,209,464.6,212.1,459.8z"/>
	<path class="st2" d="M90.2,280.2c-1.9,0.2-2.6-1.2-3.6-2.4c-1-1.2-2.1-2.5-3.8-0.9c-0.3-0.2-0.6-0.3-0.9-0.5
		c-0.3-0.3-0.6-0.5-0.8-0.8c-0.8-0.7-1.8-0.6-2.8-0.7c-0.6-0.6-1.2-1.1-1.9-1.7c0.1-2.5,0.3-5.1,0.4-7.6c4.5-0.5,6.6,3.7,8.9,5.9
		C87.6,273.5,90.1,276.6,90.2,280.2z"/>
	<path class="st10" d="M419,401.1c-1.9,2.3,1.7,4.6,0.4,6.6c-1.9-1.6-3.7-3.3-5.7-4.7c-1.4-1-3.1-2.9-4.9-0.3
		c-1.7,1.1-3.1,2.5-4.2,4.3c0,0,0,0,0,0c-1.7-0.1-1.7-1.3-1.7-2.5l0.1-0.1c2.3-0.5,3.7-1.9,4.2-4.2l0,0c1.1,0,1.7-0.6,1.6-1.7
		c0.3-0.3,0.6-0.6,0.9-0.9c0.3-0.3,0.6-0.5,0.9-0.8l0.1-0.1c0.3-0.3,0.5-0.6,0.8-0.8c0.1-0.7,0.1-1.3,0.2-2c0.8-0.1,1.5-0.2,2.3-0.3
		c0.1,0.5,0.1,1.1,0.2,1.6C414.6,398,417.2,399.3,419,401.1z"/>
	<path class="st6" d="M248.2,72.2c0-2.8-2.6-1.6-3.8-2.5c0.1-0.7,0.4-1.7,1.2-1.5c3.3,0.5,5.1-1.9,7.3-3.6c1.8,0,1.8-1.3,1.8-2.6
		c0.6,0,1.1,0,1.7,0c0.3,0,0.6,0,0.9,0c0,0.8,0,1.6,0,2.4c-1.3,1.1-0.1,1.5,0.6,2.2c1.7,1.9,4.5,2.6,6.3,5.5
		c-2.2-0.5-4.1-1.6-5.4-1.2c-2.8,1-6.2-3.7-8.3,1.1c-0.2,0.1-0.5,0.2-0.8,0.3C249.2,72.4,248.7,72.3,248.2,72.2z"/>
	<path class="st3" d="M126.1,364.1c-3.4-1.6-5.1-5.4-8.5-7c-0.7-1-1.4-2.1-2.1-3.1c-2.2-2.1-4.3-4.3-6.5-6.4c0-0.4,0.1-0.7,0.1-1.1
		c6.6,1.1,10.2,6.8,15.3,10.2c-1.9,3.1-0.4,4.1,2.6,4.2C126.6,362,126.4,363.1,126.1,364.1z"/>
	<path class="st3" d="M409.6,397.6c-0.3,0.3-0.6,0.6-0.9,0.9c-1.1,0.1-1.6,0.6-1.6,1.7c0,0,0,0,0,0c-1.5-0.2-2.2,1.2-3.4,1.7
		c-0.3-3.3,1-6.4,1-9.7c0-2.8-2.7-4.8-1.7-7.7c3.8,2.2,6.5,5.6,8.5,9.4c-0.1,0.7-0.1,1.3-0.2,2c-0.3,0.3-0.5,0.6-0.8,0.8
		c0,0-0.1,0.1-0.1,0.1C410.2,397,409.9,397.3,409.6,397.6z"/>
	<path class="st3" d="M113.3,384.4c-0.3,1.3-0.6,2.5-0.9,3.8c-3.6,0.9-4.6-2.4-6.6-4.2c-4.3-3.8-8.6-7.7-12.9-11.6
		c-0.9-0.8-1.9-1.7-1.6-3.2c1.7,0.4,2.3,2.5,4.1,2.7c0.9,0.6,1.7,1.1,2.6,1.7C102.4,378.3,107.6,381.7,113.3,384.4z"/>
	<path class="st5" d="M88.8,345.6c0.3,0,0.5,0.1,0.7,0.3c1.4,0.8,2.8,1.8,4.2,2.6c1.8,1,4.6,1.8,3.3,5c-2.8,0.7-5.5,2.3-8.5,0.7
		c0,0,0,0,0,0c0.1-1.2-0.5-1.8-1.7-1.7c0,0,0,0,0,0c-0.2-0.6-0.2-1.5-0.7-1.9c-3.2-2.7-2.5-4.1,1.4-4.5
		C88,346.1,88.4,345.8,88.8,345.6z"/>
	<path class="st10" d="M257.3,64.5c0-0.8,0-1.6,0-2.4c2.8-1.4,5.2-3.2,7.7-5.1c1.6-0.6,3.6-0.2,4.2-2.4c2.6,1.3,4.5-1.8,7-1.3
		c-0.1,0.7,0,1,0.7,0.4c1.7-0.3,3.3-0.5,5-0.8c-0.2,1.4-2,2-1.6,3.6c-1.9-0.1-3.9-1.2-5.8,0.4c-0.6,0-1.2,0.1-1.9,0.1
		c-2-1.1-1.7,0.5-1.8,1.5c-4.2,1-7.7,3.3-11,6C258.9,64.6,258.1,64.5,257.3,64.5z"/>
	<path class="st3" d="M306.6,402.7c3.1-4.3,8.2-6.4,11.7-10.3c4.4-4.9,8.7-9.7,10.7-16.2c0.1-0.4,0.9-0.5,1.4-0.8
		c0.1,1,0.5,1.6,1.4,2c-5,5.9-8.6,12.9-14.5,18.2c-3.4,3-6.9,5.8-10.8,8C306.6,403.3,306.6,403,306.6,402.7z"/>
	<path class="st4" d="M257.3,64.5c0.8,0,1.7,0,2.5,0.1c3,2.8,5.9,5.6,8.9,8.2c1,0.8,1.4,1.7,1.3,2.9c-3.6,0.4-6.6-1.8-9.9-2.5
		c-2.7-0.6-5.4-1.2-8.2-0.8c-0.5-0.1-0.9-0.2-1.4-0.3c2.1-4.8,5.5-0.1,8.3-1.1c1.3-0.5,3.1,0.6,5.4,1.2c-1.8-2.9-4.6-3.6-6.3-5.5
		C257.2,66,256,65.6,257.3,64.5z"/>
	<path class="st11" d="M136.3,139.6c0.4,10.2-3,19.2-8.9,27.3c-1.1,1.5-2.3,2.8-3.4,4.2c-0.2,0-0.5,0-0.7,0
		c-0.5-1.8-0.1-3.9-1.6-5.4c0.1-0.5,0.1-0.9,0.2-1.4c0.6,0,1.1,0,1.7,0c0.4,0.7-0.3,2,0.7,2.2c1.1,0.2,1.7-0.9,2.2-1.6
		c3.3-5,6.4-10.1,7.5-16.3c0.5-2.7,0-5.7,1.5-8.2C135.4,139.7,135.9,139.6,136.3,139.6z"/>
	<path class="st9" d="M108.2,183.8c0-0.6,0-1.1,0-1.7c3.3-4.3,8.4-6.2,12.2-9.9c1.3,1.6,1.6-0.6,2.4-0.7c0.4,0.6,0.9,1,1.6,1
		c2.5,0.1,5.1,0.2,7.6,0.3c0,0.4,0,0.9,0,1.3c-7.1-0.4-13.5,0.9-18.4,6.7C112.3,182.4,110.3,183.4,108.2,183.8z"/>
	<path class="st3" d="M172.9,108.1c-0.5-0.6-1.4-1.3-1.4-1.9c0.7-5.9,9.4-9.6,14.3-6.1C181.9,103.2,177.4,105.7,172.9,108.1z"/>
	<path class="st1" d="M353.2,106.2c-0.8,0.3-1.5,0.7-2.3,1c-5.2-2.2-10.4-4.5-15.8-6.4c-1.6-0.6-3.6-0.3-5.4-0.4
		c-0.8-0.1-1.9,0.3-2.2-0.8c-0.3-1.3,0.8-1.6,1.8-1.7c1.1-0.1,1.9-0.6,1.9-1.8c0.2-0.2,0.3-0.3,0.5-0.5c0.4,0.2,0.8,0.3,1.2,0.5
		c0.3,0.8,0.5,1.8,1.7,1.7c4.4,3,9.5,4.3,14.5,5.8c0.9,0.3,1.7,0.6,2.6,0.9C352.2,105.1,352.7,105.6,353.2,106.2z"/>
	<path class="st10" d="M288.7,104.6c-1.9-4.1-4.9-7.6-6.4-12c2.4,0.8,3.7,3.4,6.4,3.5c0,0,0,0,0,0c0.1,1.7,0.2,2.8,2.7,3.2
		c1.7,0.3,4.9,0.4,5,3.6c-0.7,1.4-3.2-1.4-3.2,1.4c-0.1,0.4-0.1,0.8-0.2,1.2C291.7,104.6,289.8,106.3,288.7,104.6z"/>
	<path class="st3" d="M341.5,424.7c-0.2-0.7-0.3-1.4-1.3-1.2c-1.2,0.2-2.6,1.3-3.3-0.3c-0.5-1.2,1-1.9,1.8-2.6
		c3.9-4.1,6.8-4.5,12.4-1.5C348.3,421.5,345.2,423.6,341.5,424.7z"/>
	<path class="st9" d="M117.2,364.4c1.4-1.3,1.8,0,2.6,0.8c2.1,2.5,4.2,4.9,7.2,6.3c1.5,0.7,2.1,0.3,1.9-1.3c1.3,1,0.1,4.2,3.2,3.4
		c1.9,0.1,3,1.8,4.8,2.1c1.3,0.2,1.8,0.4,1.8-1c0.6,0,1.2-0.1,1.8-0.1l0,0c0,1.9,3.5,1.8,2.6,4.3
		C132.8,377.1,123.3,373.8,117.2,364.4z"/>
	<path class="st12" d="M106.4,400.3c0,0.5,0.1,1,0.1,1.6c0,0,0,0,0,0c-0.6,0-1.1,0-1.7-0.1c-0.3-0.7-0.6-0.9-0.9,0
		c-0.6,1.3,0.2,2.2,1,3c-4.8,1.1-7.9-2-11.3-4.5c0.1-1.1,0.5-2,1.8-1.9c0.9,4.1,3.9,2.6,6.2,2.1c0.8-0.2-0.2-1-0.7-1.4
		c1.2-1.5,0.4-2.8-0.7-4.5C105,394.3,105.1,398,106.4,400.3z"/>
	<path class="st4" d="M83.7,285.1c0.3,0.2,0.6,0.4,0.9,0.6c-0.6,4.5-3.3,8.3-4.1,12.8c-0.8,4.3-2.2,8.4-2.1,12.9
		c0,1-0.4,1.6-1.4,1.8c-1.3-6,0.5-11.9,0.3-17.8c3.5-1.6,4.7-4.6,4.1-8C81.1,285,82.3,285.3,83.7,285.1z"/>
	<path class="st4" d="M124.4,356.7c-5.1-3.4-8.6-9.1-15.3-10.2c-0.6,0-1.2,0-1.8,0c-0.3-0.2-0.5-0.5-0.8-0.7c0-1.2,0-2.4,0.1-3.6
		c2,0.1,3.8,0.8,5.5,1.7c5.1,2.8,8.4,7.8,13.4,10.7C126.8,355.4,125.8,356.5,124.4,356.7z"/>
	<path class="st1" d="M288.7,96.1c-2.7-0.1-4.1-2.7-6.4-3.5c-1.6-1-3.2-2-4.8-3c0.1-3.8-3.7-5.1-5-8c0.6,0,1.1,0,1.7,0
		C280.3,85.2,284.8,90.4,288.7,96.1z"/>
	<path class="st11" d="M179.9,75.1c-0.4,1-0.7,2.1-1.9,2.2c-1.5-1.7-3.4-0.9-5.1-0.6c-5.5,0.9-10.3,3.3-15.1,5.9
		c-0.2-0.2-0.5-0.5-0.7-0.7c0.7-0.5,1.3-1.2,2-1.5c6-2.9,12.6-4.9,16.8-11.3c1,3-1.3,3.6-1.8,5.3C175.8,75.6,178.1,74.1,179.9,75.1z
		"/>
	<path class="st10" d="M138.9,125.1c3,3.9,1.9,7.2-1.4,10.2c-0.5,0.4-0.2,1.6-0.3,2.4c0,0-0.2,0.3-0.2,0.3s-0.3,0-0.3,0
		c-1.7-0.1-2.8-0.9-2.9-2.7c2-3.4,3.1-7,2.5-11.1c0.1-0.9-0.1-1.9,0.9-2.6c0.6,0.6,1.1,1.2,1.7,1.8
		C138.9,124,138.9,124.5,138.9,125.1z"/>
	<path class="st9" d="M230.7,442c-0.9-0.1-1.8-0.2-2.7-0.3c0.5-1.3,1.1-2.5-0.8-3.3c-1.6-0.7-3.1-1.8-4.6-2.7c0.3-0.7,0.6-1.3,0.9-2
		c0.9,0.4,2,1.9,2.2-0.5c0.1-1-0.3-1.9-0.3-2.9c-0.1-1,0.1-2.1,1.4-2c1.2,0.1,1,1.2,1,2c0,2.1-0.1,4.3,1.3,6.1
		c0.9,1.1,2.2,1.1,3.5,0.6c0,0.5,0,1.1,0,1.6C231.8,439.6,230.5,440.4,230.7,442z"/>
	<path class="st4" d="M219.2,76.9c-0.4,0.4-0.9,0.8-1.3,1.2c-2.4,0.1-3.6,1.9-5,3.5c-1.5,0.1-2.3,0.9-2.6,2.3
		c-0.8-0.1-1.6-0.3-2.5-0.4c0,0,0-0.3,0-0.3c2.7-5.2,7.3-8.5,11.7-12c1.4-1.1,1.9,0.4,2.2,1.5C220.9,74.1,218.9,74.8,219.2,76.9z"/>
	<path class="st9" d="M173.1,412.3c-0.6-0.7-1.3-1.3-1.9-2c6.1-0.6,9.8,2.9,13,7.4c1.1,1.5,2.1,3,3.1,4.5c0.2,0.2,0.5,0.4,0.7,0.6
		c0.1-0.3,0.2-0.7,0.3-1c0.2-0.7,0.5-1.4,0.7-2.1c0.6,0.4,1.1,0.8,1.7,1.2c-0.6,1.6-1.2,3.2-1.8,4.7c-0.9-0.5-1.9-1.1-2.8-1.6
		c-0.6-1.1-1.2-2.2-1.9-3.3C181.5,416.6,178.7,412.6,173.1,412.3z"/>
	<path class="st0" d="M83.7,285.1c-1.4,0.2-2.6-0.1-2.2,2.3c0.6,3.4-0.6,6.5-4.1,8c-1.6-4.5,0.4-9.1-0.3-13.6
		C79,283.3,82.5,281.9,83.7,285.1z"/>
	<path class="st9" d="M265.8,416.4c0.5,2.7,2.6,2.4,4.4,2.4c2.8,0,5.4,0.6,7.5,2.6c-3.8,0.5-7.4-1.1-11.3-0.3
		c-2.1,0.4-4.1,0.8-5.9,2c-0.3-0.5-0.5-1-0.8-1.5c0.6-1.3,4.6-1,1.7-3.9c0.3-0.4,0.6-0.9,0.9-1.3c0,0,0,0,0,0
		C263.5,416.4,264.6,416.4,265.8,416.4z"/>
	<path class="st10" d="M327.7,353.2c0.4-0.5,0.7-1,1.1-1.5c0.6-0.3,1.1-0.6,1.7-0.9c2.5,0.9,5,1.7,7.6,1.6c0.8,0,1.7,0,2.5,0
		c3.4,2.2,8.1,0.6,11.3,3.5c-0.1,0.2-0.1,0.5-0.2,0.7c-0.5,0.4-1,0.8-1.5,1.2c-1.1-1.8-2.9-1-4.4-1.2c-0.9-1.2-2.3-0.7-3.5-0.8
		c-4-2.1-8.4-1.7-12.8-1.7C329.2,353.4,328.4,353.3,327.7,353.2z"/>
	<path class="st11" d="M381.4,405c0.2-0.3,0.5-0.7,0.7-1c1.5,0.4,2.9,0.9,4.4,1.2c4,0.9,7.9,2.7,12.1,0.8c0.2,0,0.5,0.1,0.7,0.1
		c0,0.6-0.1,1.2-0.1,1.9c-0.3,0-0.6,0.1-0.8,0.1c-7.2,1.2-7.2,1.2-2.8,7.2c0,0,0.1-0.1,0.1-0.1c-1.1-0.5-3,0-3.3-1.3
		C391.1,407.9,385.6,407.3,381.4,405z"/>
	<path class="st1" d="M308.3,106c0.9-2.6,2.6-0.3,3.9-0.5c3.4-0.4,6.6,0.7,9.8,1.5c0.8,0.2,2.3-0.2,2,1.4c-0.2,1.1-1.4,1.4-2.4,1
		c-4.5-1.9-3,1-2.4,3.1C315.6,110.4,311.9,108.2,308.3,106z"/>
	<path class="st3" d="M100.7,286.1c-1.1-0.6-1-1.6-1-2.6c5.6-6.1,7.3-13.8,9.3-21.4c0.3-1.1,0.1-2.3,1.7-2.5
		C108.7,269,107.2,278.5,100.7,286.1z"/>
	<path class="st11" d="M115.5,354c0.7,1,1.4,2.1,2.1,3.1c-0.6,2.1,1.4,5.3-2.6,5.9c-3.8-4.9-9.8-6.6-14.4-10.2c0,0,0,0.1,0,0.1
		c4.4-0.3,7.7,2,10.9,4.5c1.1,0.8,1.5,2.9,3.1,2.4c1.8-0.6,0.2-2.5,0.7-3.7C115.5,355.5,115.4,354.7,115.5,354z"/>
	<path class="st13" d="M230.9,86.3c2.2-1,4.5-1.5,6.9-1.7c1.4-0.1,3.2-0.7,3.5,1c0.3,1.7-0.9,3.1-2.8,3.7c-2.6,0.8-5.2,0.8-7.7-0.3
		C229.9,88.1,230.8,87.2,230.9,86.3z"/>
	<path class="st9" d="M98,373.8c-0.9-0.6-1.7-1.1-2.6-1.7c1.9-0.2,4,0.6,5.7-1.2c-1.3-2.4-2.7-4.9-4.1-7.4c-0.3-0.5-2.2-0.2-0.8-1.5
		c0.5-0.5,1.1-1,1.7-1c0.9,0,1.6,0.6,1.6,1.6c0,6,4.5,8.9,8.5,12.1c0,0.3,0,0.6-0.1,0.9C104.7,375.2,101.9,371.9,98,373.8z"/>
	<path class="st0" d="M117.6,407.8c0.1,1.5-0.1,3-0.9,4.4c-2.8-1.3-5.6-2.6-7.7-5.1c0.9-2.6-2.3-3.2-2.5-5.2c0,0,0,0,0,0
		c3.2,0.9,6.6,1.4,8.6,4.7C115.6,407.4,116.5,407.8,117.6,407.8L117.6,407.8z"/>
	<path class="st10" d="M365.5,339.9c-0.1-1.3-0.3-2.5-1.6-3.2c3.9-1.3,7.1-4.7,12-4c-1.1,2.9-5.2,3.5-5.6,6.9
		c-0.9,0.1-1.7,0.2-2.6,0.4C367,339.9,366.3,339.9,365.5,339.9z"/>
	<path class="st9" d="M247.9,435c5.5,2.1,10.8,4.6,14.5,9.5c0,0,0.1,0,0.1,0c-4.9-1.5-9.7-3.7-15-1.4c-0.7-0.3-1.1-0.7-1.2-1.5
		c2.3-0.9,5,0,7.3-2c-2-1.3-3.8-2.4-5.7-3.6C247.9,435.6,247.9,435.3,247.9,435z"/>
	<path class="st4" d="M399.4,406.1c-0.2,0-0.5-0.1-0.7-0.1c-0.7-1.1-1.5-2.1-2.2-3.2c0.4,0,0.8-0.1,1.3-0.1c2.7,0.2,3.9-0.6,4.5-3.6
		c0.8-4.6,1.2-8.9-1.5-13c-0.4-0.6-0.2-1.6-0.3-2.5c0.9,0.3,2-0.2,2.6,0.9c-1,2.9,1.7,4.9,1.7,7.7c0,3.3-1.3,6.4-1,9.7
		c-0.3,0.9-0.5,1.7-0.8,2.6c0,0-0.1,0.1-0.1,0.1C401.3,404.3,400.6,405.7,399.4,406.1z"/>
	<path class="st1" d="M101.4,200c1.1,0,2.3,0,3.4,0c-2.2,5.2-1.3,10.3,0.8,15.3c-1.9-0.1-2.6,1-2.9,2.6c-0.5-0.4-0.9-0.7-1.4-1.1
		c1.7-5.1-0.7-10.1-0.7-15.1C101.2,201.4,101.4,200.7,101.4,200z"/>
	<path class="st6" d="M191.8,449.7c-0.6,0-1.3-0.1-1.9-0.1c-0.8-0.3-1.7-0.6-2.5-0.9c0-0.3,0-0.5,0-0.8c0.3-0.3,0.5-0.6,0.8-0.8
		c0-0.6,0-1.1,0-1.7c0-0.9,0.2-1.9-0.8-2.5c0,0,0,0,0,0c0.8-2.9-0.8-4.9-2.6-6.8c0,0,0.1-0.1,0.1-0.1c2.6-0.7,3.3,3.1,5.9,2.5
		c0.3,2.9,0.6,5.8,1.8,8.6c0,0.8,0,1.6,0,2.4C192.3,449.6,192.1,449.7,191.8,449.7z"/>
	<path class="st10" d="M190.7,438.4c-2.6,0.6-3.2-3.3-5.9-2.5c-1.6-2.2,1-3.8,0.8-5.8c1.4-1.9,0.9-4,0.3-6c0.9,0.5,1.9,1.1,2.8,1.6
		c-0.1,2.7-0.1,5.3,1.1,7.7c-0.2,1.5,0,3,0.8,4.3C190.8,437.9,190.8,438.2,190.7,438.4z"/>
	<path class="st1" d="M190.8,437.7c-0.8-1.3-1-2.8-0.8-4.3c3.2,2.7,7.3,0.8,10.8,2c1.4,0.5,3,0.4,4.5,0.6
		C200.7,438.9,195.6,437.1,190.8,437.7z"/>
	<path class="st11" d="M357.7,90.5c1.8-1.4,1.8-1.4,2.1,0.6c0.2,1.1,1.1,1.1,1.9,1.3c3.9,1.3,7.7,2.5,11.6,3.8
		c0,0.6-0.1,1.2-0.1,1.7c-5.2-1.6-10.4-3.1-15.6-4.7C357.6,92.4,357.6,91.4,357.7,90.5z"/>
	<path class="st9" d="M65.1,231.5c-0.8-3.6-1.6-7.2-1.5-11c0.4,0,0.8,0,1.1,0c0.5,2.5,1,4.9,1.5,7.4c1.7-0.1,1.6-1.5,2.2-2.3
		c0.5,0,0.9,0,1.4-0.1c-0.7,3.7-1.8,7.3-1.7,11c-0.5,0-1,0-1.5,0c-0.1-1.1-0.1-2.2-0.2-3.2C66.6,232.3,66.2,231.6,65.1,231.5z"/>
	<path class="st9" d="M168.8,409.4c-1.5,0.4-2.9,1.9-4.4,0.1c1.3-3.4-1.2-5-3-7c-0.8-0.8-2.4-1.4-1.6-3c0.3-0.5,1.1-1,1.6-1.1
		c1.5-0.1,2.5,1,2.6,2.3C164.4,404.4,167,406.7,168.8,409.4z"/>
	<path class="st12" d="M132,174.2c0-0.4,0-0.9,0-1.3c2.7-2.4,6.5-3,9.2-6.6c0.2,4.2-0.2,7.1-3.3,8.9
		C135.8,176.4,133.7,176.3,132,174.2z M133.8,173.8c3.8,0.6,3.8,0.6,4.2-2.5C136.6,171.7,135.2,172.2,133.8,173.8z"/>
	<path class="st12" d="M287.9,473.4c-0.7,4.4-4.5,4.9-8.3,6.8c1.4-4.5,2.6-8.1,7.4-8.6C287.1,472.4,287.2,473.1,287.9,473.4z"/>
	<path class="st11" d="M69.7,225.6c-0.5,0-0.9,0-1.4,0.1c2-6.9,5.2-13.2,10.9-17.9c0.2,0.2,0.3,0.3,0.5,0.5
		c-0.2,1.3-0.5,2.6-0.7,3.9c-2.2-0.4-2.9,1.4-3.8,2.7C72.9,218.1,71.6,222,69.7,225.6z"/>
	<path class="st11" d="M351.8,133.5c1,0.3,2.2,0.1,2.5,1.6c-0.6,5,0.7,9.8,2,14.6c-0.5,0.1-1,0.2-1.5,0.3
		C352.7,144.7,351.3,139.3,351.8,133.5z"/>
	<path class="st3" d="M324.5,414.7c-0.1,3.5-1.7,6.2-4.3,8.5c-1.7,0-3.4,0-5.1,0c-0.6,0-1.1,0-1.7,0c-1.2-0.1-2.5,0.4-3.4-0.8
		c0.8-0.2,1.6-0.6,2.4-0.7C317.7,421.4,321.9,419.4,324.5,414.7z"/>
	<path class="st10" d="M126.1,415.5c0-1.1,0.7-1.6,1.7-1.7c3.6-0.5,6.2,2.4,9.6,3c1.4,0.2,2.3,1.5,2.2,3.2
		C135.1,418.4,130.6,416.9,126.1,415.5z"/>
	<path class="st12" d="M144.1,85c-0.3-2.9-0.5-5.7-0.9-8.6c-0.2-1.5-0.5-3.1-2.5-3.3c-1.2-2,1.1-2.8,1.4-5.3
		c2.9,6.1,3.8,11.5,3.3,17.2C144.9,85.1,144.5,85.1,144.1,85z"/>
	<path class="st11" d="M66.5,236.6c0.5,0,1,0,1.5,0c0.2,5.8,2.3,11,4.5,16.2c-0.1,0.1-0.3,0.2-0.4,0.3
		C68.6,248.2,65.2,243.2,66.5,236.6z"/>
	<path class="st1" d="M234.2,474.2c-5.9-1.8-11.4-4.3-15.4-9.2c0,0,0.2-0.2,0.2-0.2c1.7,0.4,3.3,1.2,5.1,0.9
		c1.5,2.7,3.1,5.1,6.8,4.3c0.3,0.3,0.6,0.6,0.8,0.8C231.6,472.7,233.8,472.8,234.2,474.2z"/>
	<path class="st12" d="M280.7,40.7c0.4,4.3-2.8,6.1-3.8,8.9c-0.2,0.6-1.5,0.2-1.5-0.6c0-1.9-2.5-3.9,0.2-5.6
		C277.1,42.3,279.1,42.7,280.7,40.7z"/>
	<path class="st9" d="M88.2,375.5c0.4,0.7,0.9,1.5,1.3,2.2c-5.7,1.4-10.5,0.2-13.8-5.1c0.1-1.1,0.6-1.8,1.5-2.3
		C78.5,375.5,83.1,377.7,88.2,375.5z"/>
	<path class="st12" d="M135.3,84.6c0,0.7,0.3,1.6,0,2.1c-3.9,5.5-2.4,11.2-0.7,16.8c-0.3,0.1-0.7,0.1-1,0.2
		c-3.3-5.1-1.4-10.8-1.7-16.2C131.7,85.4,134.8,86.4,135.3,84.6z"/>
	<path class="st7" d="M158.4,119.3c-1.2-0.5-1.8-1.4-1.8-2.7c2.7-1.4,4.7-3.8,7.1-5.6c0.1,0.9,0.1,1.7,0.9,2.3
		C163.5,116.4,162.5,119.4,158.4,119.3z"/>
	<path class="st5" d="M379.9,343.7c0.3-0.9,0.8-1.2,1.7-1.2c0.6,0.5,1.3,0.4,1.9,0c2.8-1.6,4.5-1.7,3.2,2.3c-0.2,0.5,0,1.1,0,1.6
		c0,0,0,0,0,0c-1.4,0-3-0.3-4.2,0.2C378.5,348.3,379.4,345.9,379.9,343.7z"/>
	<path class="st11" d="M414,395.2c-0.1-0.5-0.1-1.1-0.2-1.6c4.7-4.1,10.5-4.4,16.3-4.7c0,0.7,0,1.4,0,2.1
		C424.2,390.3,419,392.3,414,395.2z"/>
	<path class="st12" d="M430.1,390.9c0-0.7,0-1.4,0-2.1c2.9-0.7,5.8-1.8,8.8-1.9c4.4-0.1,0.9,3.2,1.6,4.7c-2,0.3-1.6-2.6-3.4-2.5
		c-2.8,0.1-4.9,1-4.8,4.3C431.6,392.6,430.9,391.8,430.1,390.9z"/>
	<path class="st11" d="M327.9,90.5c4.5-2.1,12.4-0.9,15.3,2.3c0,0,0.1,0,0.1,0c-5,0.6-9.6-2-14.6-1.6
		C328.1,91.3,327.9,91,327.9,90.5z"/>
	<path class="st12" d="M190.7,420.9c-0.6-0.4-1.1-0.8-1.7-1.2c-1.1-2.3-0.5-5.1-2.8-7.2C192.4,412.8,193.6,415.3,190.7,420.9z"/>
	<path class="st4" d="M306.6,402.7c0,0.3,0,0.6,0,0.9c-3.3,2.6-6.9,4.5-11.1,5c2-3,4-6,6.1-9c0.9,0.9,0.6,1.4,0.4,1.9
		c-0.3,0.8-1.8,1.5-0.7,2.5c1,0.9,2,0.2,2.9-0.6C304.9,402.9,305.8,402.9,306.6,402.7z"/>
	<path class="st9" d="M80,248.5c-2.5,2.8-2.3,6.7-4.2,9.6c-0.6-0.6-1.1-1.2-1.7-1.8c0.3-0.3,0.7-0.7,1-1c1.6-0.7,1.1-2.4,1.4-3.6
		c0.8-3.2,1.3-6.5,3.5-9.1C82,244.6,79.2,246.5,80,248.5L80,248.5z"/>
	<path class="st3" d="M106.5,233.2c1.2-4.7-1.9-9.1-0.8-13.8c0.1-0.5,0.5-1,0.7-1.5c2.7,5.2,2.3,10.7,0.9,16.1
		C107,233.8,106.8,233.5,106.5,233.2z"/>
	<path class="st12" d="M108.9,287.3c-0.2-2.4-1.2-4.6-0.8-7.1c0.2-1,0.1-2.2,1.6-1.6c2.4,1,2.7,3.2,2.5,5.3
		C112.1,285.7,112.1,288.3,108.9,287.3C108.9,287.2,108.9,287.3,108.9,287.3z"/>
	<path class="st9" d="M189.3,61.1c-3.1,0.1-5.6,2.2-8.8,2.5c-1.8,0.2-3,2.3-3,3.8c2-4.6,6.9-6.6,11.6-8.6
		C189.2,59.5,189.2,60.3,189.3,61.1z"/>
	<path class="st4" d="M106.5,233.2c0.3,0.3,0.5,0.6,0.8,0.8c0,0.6,0.1,1.1,0.1,1.7c0,0.6,0,1.1-0.1,1.7c-1.8,0.2-2,1.7-2.5,3
		c-1.2,3-2.4,5.9-5.5,9.1C100.8,242.9,104,238.2,106.5,233.2z"/>
	<path class="st6" d="M205.2,412.1c5.7,0.4,10.9,2,15.4,5.6C215.1,416.9,210,414.9,205.2,412.1z"/>
	<path class="st12" d="M379.5,123.8c0.9-1.9,2.8-2.3,4.5-3.1l0.3,0.3c-2.3,3.5-1.9,4.3,2.4,4.9c3.3,0.5,6.3-0.8,9.4-1.7
		c0.1,0.2,0.3,0.3,0.4,0.5c-4.7,3.7-9.9,2.1-14.9,1.3C381.3,124.8,380.4,124.3,379.5,123.8z"/>
	<path class="st9" d="M351.8,356.7c0-0.3,0.1-0.5,0.2-0.7c1.7-0.3,1.5-1.5,1.3-2.7l0.4-0.1l0.4,0.1c2.8,2.8,4.7-0.1,6.9-1l0.2,0.3
		c0,2.3,2.8,0.9,3.4,2.5C360.4,356.7,356.1,356.5,351.8,356.7z"/>
	<path class="st12" d="M100.5,352.9C100.5,352.9,100.6,352.9,100.5,352.9c-0.7,1.2-1.4,2.6-3.3,2.3c-0.1-0.6-0.1-1.1-0.2-1.7
		c1.2-3.2-1.6-4-3.3-5c-1.5-0.8-2.8-1.7-4.2-2.6c2.1-1.3,3.9,0.1,5.4,1.1C97.1,348.6,99.3,350.4,100.5,352.9z"/>
	<path class="st12" d="M88.8,345.6c-0.4,0.2-0.7,0.5-1.1,0.5c-3.9,0.4-4.6,1.8-1.4,4.5c0.4,0.4,0.5,1.2,0.7,1.9
		c-2.9-1.2-4.6-3.9-7.6-5.6C82.6,345.4,85.5,344.3,88.8,345.6z"/>
	<path class="st3" d="M199.3,66.3c2.5,3.5-2.5,4.3-2.5,6.8c-6,2.5-2.4-2.4-3-3.9c0,0,0,0,0,0c0.8,0.3,1-0.3,1.2-0.9
		C196.4,67.6,197.8,66.9,199.3,66.3z"/>
	<path class="st4" d="M226.7,417.9c1.4-1.3,3.2-0.5,4.8-0.7c1.1-0.1,2.2,0.1,3.2-0.5c3.4-2.2,5.7-1.4,7.1,2.6
		c-2.3-0.2-4.5-0.4-6.8-0.6C232.3,417.3,229.4,418.4,226.7,417.9z"/>
	<path class="st12" d="M384,120.7c2.5-2.9,5.3-3.4,8.6-1.1c1.1,0.8,2.7,0.9,3.9,1.4c2.6,1.2,2.5,2.5-0.1,3.6
		c-0.1-0.2-0.3-0.3-0.4-0.5c0-1.3-0.7-1.9-1.8-2.5c-3.2-1.7-6.5-2.2-9.9-0.7L384,120.7z"/>
	<path class="st10" d="M210.3,83.9c0.3-1.4,1.1-2.2,2.6-2.3c0.3,1.2,0.9,1.9,2.2,1.3c3.1,0.3,6.3,0.6,9.4,0.1
		c-1,0.8-1.3,1.9-1.4,3.1C218.9,85.4,214.6,84.6,210.3,83.9z"/>
	<path class="st12" d="M386.6,346.5c0-0.6-0.1-1.1,0-1.6c1.3-4.1-0.4-4-3.2-2.3c-0.6,0.4-1.3,0.5-1.9,0c1.4-2.8,4.4-2.7,6.8-3.4
		c1.4-0.4,1.8,0.4,1.3,1.6C388.9,342.8,388.7,345.1,386.6,346.5z"/>
	<path class="st9" d="M338.9,397.9c0.7,0.4,1.2,1,0.9,1.8c0,0,0-0.1,0-0.1c-0.4,0.7-1.1,0.7-1.8,0.7c-2.5-0.2-4.3,2.1-6.8,2
		c0-0.4,0-0.8,0.1-1.1c1.5-1,4-1.8-0.5-4.3C334.5,397.5,336.6,398.6,338.9,397.9z"/>
	<path class="st7" d="M373.2,98c0-0.6,0.1-1.2,0.1-1.7c0.1,0,0.3,0,0.4-0.1c1.9-0.4,4.1-2,5.3,1.1c0.4,0.9,0.5,2-0.6,2.6
		C375.9,101.3,374.5,99.8,373.2,98z"/>
	<path class="st9" d="M343.2,92.7c2.1-1.6,4.6-0.7,6.9-0.7c0,0.3,0,0.6,0,1c-2.2,0.8-3.8,1.9-1.5,4.3c0.6,0.6,0.9,1.4,0.6,2.3
		c-0.3,0-0.6,0-0.9,0C347.4,96.7,343.7,95.9,343.2,92.7L343.2,92.7z"/>
	<path class="st9" d="M293,105.6c0.1-0.4,0.1-0.8,0.2-1.2c3.7,1.8,7.5,3.1,11.4,0.6c0.7,0.1,1.4,0.3,2,0.4c0,0.3,0,0.7,0,1
		c-4.6,3.3-9.1,1.8-13.7,0C293,106.1,293,105.9,293,105.6z"/>
	<path class="st9" d="M284.9,60.4c-2.3-0.4-2.8-2.9-4.7-3.9c-0.4-1.6,1.5-2.2,1.6-3.6c1.9-0.7,3.8-1.4,5.9-2.2
		c-0.1,0.7,0,1.2-0.1,1.2C282.6,53.4,281.9,56.3,284.9,60.4z"/>
	<path class="st12" d="M379.9,343.7c-0.4,2.1-1.3,4.5,2.6,2.9c1.2-0.5,2.8-0.2,4.2-0.2c-1.2,2.1-3.2,1.6-4.9,1.5
		c-2.9-0.2-5.4,0.3-8.1,1.8C375.7,347.7,378.1,346,379.9,343.7z"/>
	<path class="st7" d="M259.8,421.6c0.3,0.5,0.5,1,0.8,1.5c-1,1.5-1,4.8-4.1,2.3c-1-0.8-1.6-2.1-0.8-3.3
		C256.7,420.6,258.3,421.2,259.8,421.6z"/>
	<path class="st12" d="M395.7,415.3C395.7,415.3,395.6,415.4,395.7,415.3c1.6,0.5,3.3,0.9,4.9,1.5c0.8,0.3,1.4,1,1.3,1.9
		c-0.2,1.1-1.1,1.1-1.9,1.1c-1.9,0.1-3.6-0.3-4.9-1.8C394,416.8,394.9,416,395.7,415.3z"/>
	<path class="st11" d="M364.5,355c-0.6-1.6-3.3-0.2-3.4-2.5c1.8,0.5,2.7-0.9,3.9-1.8c1.6,3.4,4.1-0.9,6.2,0.8
		C369.6,354,366.7,353.9,364.5,355z"/>
	<path class="st11" d="M189.3,360.9c-0.6,0-1.3,0.1-1.9,0.1c-2.5-2.1-3.5-5.1-5.2-7.7c0.3-0.3,0.6-0.6,0.9-0.9
		C186.4,354.2,186.6,358.5,189.3,360.9z"/>
	<path class="st1" d="M327.9,90.5c0,0.5,0.2,0.8,0.8,0.6c-0.5,1.4,1,2,1.2,3.1l-0.3,0.3c-4.3-1-7.3-3.5-8.4-7.9
		C323.7,87.4,324.7,90.8,327.9,90.5z"/>
	<path class="st6" d="M382.2,145c0.1-1.5-0.1-3.2,1.9-3.8c1.7,1.8,3.4,3.5,5.1,5.3c-0.3,0.3-0.7,0.5-1,0.8
		C386,147,384.1,145.9,382.2,145z"/>
	<path class="st1" d="M319.4,85c-5.1-1-8.2-4.6-11.1-8.4C312.5,78.7,316.1,81.7,319.4,85z"/>
	<path class="st13" d="M447.1,400.1c-1.2-2.1,2.4-2.4,1.7-4.4c1.6,0.3,3.7-0.5,4,2.3c0.3,2.9-2.4,1.5-3.4,2.6
		c-0.4,0.4-1.3,0.4-2,0.6C447.3,400.9,447.2,400.5,447.1,400.1z"/>
	<path class="st11" d="M247.9,435c0,0.3,0,0.6,0,0.9c-5.4-0.6-10.7-1.3-15.3,2.6c0-0.5,0-1.1,0-1.6
		C237.2,432.8,242.5,433.8,247.9,435z"/>
	<path class="st11" d="M367.7,339.9c0.9-0.1,1.7-0.2,2.6-0.4c-0.7,3.4-1.5,6.8-4,9.5c-0.4-0.1-0.8-0.2-1.3-0.2
		C365.1,345.6,367.8,343.2,367.7,339.9z"/>
	<path class="st11" d="M293,105.6c0,0.2,0,0.5,0,0.7c-2.7,2.5,0.5,5.2-0.2,7.8c-0.6-0.1-1.2-0.2-1.8-0.2c0-3.3-2.4-5.9-2.3-9.2
		C289.8,106.3,291.7,104.6,293,105.6z"/>
	<path class="st6" d="M194.2,406c4.4,0.7,8.4,2.2,11,6.1C201.2,410.7,197.7,408.5,194.2,406z"/>
	<path class="st7" d="M291.1,113.9c0.6,0.1,1.2,0.2,1.8,0.2c0.6,1.2,2.8,2.2,0.9,3.7c-1,0.8-2.9,1.5-3.8,0.3
		C288.7,116.7,289.8,115.1,291.1,113.9z"/>
	<path class="st9" d="M361.9,388.2c-0.6,0.8-0.2,2.4-1.8,2.6c-3.4-1.4-6.7,0.8-10.1,0c0-0.3,0-0.6,0-0.9
		C354,389.4,357.9,388.8,361.9,388.2z"/>
	<path class="st7" d="M363,87.5c-1.4-1.2-1.5-2.6-0.3-4c0.5-0.6,1.1-1.3,2.1-1c0.9,0.3,1.3,0.9,1.6,1.8c0.3,0.9,0.1,1.7-0.8,2.1
		C364.7,86.8,363.8,87.1,363,87.5C362.9,87.4,363,87.5,363,87.5z"/>
	<path class="st7" d="M77.3,370.3c-0.9,0.5-1.5,1.3-1.5,2.3c-0.5-0.2-1-0.4-1.6-0.6c-1.2-0.5-1.7-1.4-1.6-2.7c0.2-1.1,1-1.7,2.1-1.8
		C76.6,367.5,77,369,77.3,370.3z"/>
	<path class="st3" d="M110.7,257.9c-1-3.7-1.6-7.4,0-11C111.5,250.6,111.9,254.2,110.7,257.9z"/>
	<path class="st11" d="M106.5,302.2c2.4,3.3,2.2,7.4,3.3,11.1c-0.5,0-1,0-1.5,0.1c-0.9-3.6-1.9-7.3-2.8-10.9
		C105.8,302.4,106.1,302.3,106.5,302.2z"/>
	<path class="st7" d="M114.1,290c0.1-0.1,0.1-0.3,0.2-0.4c1.1-0.9,1.6-3,3.6-2c0.9,0.4,1.3,1.2,0.8,2.1c-1,1.7-2.4,2.9-4.5,1.5
		C114.2,290.8,114.2,290.4,114.1,290z"/>
	<path class="st10" d="M106.5,302.2c-0.3,0.1-0.7,0.1-1,0.2c-0.7-2.1-1.5-4.1-2.2-6.2c0.2-0.2,0.5-0.4,0.7-0.6
		c1.9,0.1,2.3-1.3,2.8-2.7c0.3,0,0.6-0.1,0.8-0.1c0,0.4,0,0.9,0,1.3c-0.1,1-0.2,1.9-0.3,2.9C106.2,298.6,106.6,300.5,106.5,302.2z"
		/>
	<path class="st9" d="M287.9,473.4c-0.8-0.4-0.8-1-0.9-1.8c2.8-1.4,3.7-5.6,7.7-5.1c0,0,0,0,0,0
		C292.5,468.9,290.2,471.1,287.9,473.4z"/>
	<path class="st11" d="M227.4,83.4c2.9-2.6,6.3-3.8,10.2-2.6C234.4,82.5,231,83.3,227.4,83.4z"/>
	<path class="st9" d="M145.8,94.2c0.1-0.5,0.1-0.9,0.2-1.4c0.4-0.3,0.8-0.5,1.2-0.8c0.8-0.4,1.1-1.1,1-2c1.3-1.3,2.5-2.6,3.8-3.9
		c0.3,0.3,0.5,0.6,0.8,0.8c-1.6,2.5-3.3,5-4.9,7.5C147.1,94.4,146.5,94.3,145.8,94.2z"/>
	<path class="st1" d="M319.1,112.5c4.1-0.2,6.8,2.3,9.6,4.8c-0.3,0.1-0.5,0.1-0.8,0.1C324.6,116.4,321.7,114.7,319.1,112.5z"/>
	<path class="st6" d="M133.7,135.3c0.1,1.8,1.2,2.5,2.9,2.7c-0.1,0.5-0.2,1.1-0.3,1.6c-0.4,0.1-0.9,0.1-0.8,0.7
		c-1.7-0.7-2.7,1-4.2,1C131.8,139.2,131.1,136.5,133.7,135.3z"/>
	<path class="st7" d="M180.2,59.3c-0.3-2-3.1-3.3-1.1-5.4c0.6-0.7,1.7-0.5,2.3,0.2C183.1,56,181.8,57.4,180.2,59.3z"/>
	<path class="st13" d="M97.1,353.5c0.1,0.6,0.1,1.1,0.2,1.7c-2.8,2.2-6.3,1.8-8.7-1C91.5,355.8,94.3,354.2,97.1,353.5z"/>
	<path class="st3" d="M91.4,380.6c4.1,1.9,4.4,5.3,3.8,9.1C94,386.6,92.7,383.6,91.4,380.6z"/>
	<path class="st7" d="M189.3,61.1c0-0.8-0.1-1.6-0.1-2.4c1.1-0.9,2-2.2,3.6-1.1c0.8,0.6,0.8,1.5,0.1,2.2
		C191.9,61,191.1,62.6,189.3,61.1z"/>
	<path class="st3" d="M298.7,425.6c2.9-2.1,6.1-2.9,9.6-2.9c-0.3,0.5-0.5,0.9-0.8,1.4c-2.4,1.1-4.9,1.8-7.6,1.7
		C299.4,425.7,299.1,425.6,298.7,425.6z"/>
	<path class="st7" d="M61.3,212.9c-1.5-0.5-2.6-1.3-2-3c0.3-0.9,1.2-1.8,2.3-1.4c2.2,0.8,1.5,2.7,1.3,4.3
		C62.4,212.8,61.9,212.8,61.3,212.9z"/>
	<path class="st9" d="M108.3,313.4c0.5,0,1,0,1.5-0.1c0,4,2.1,7.9,0.5,12c0,0,0-0.1,0-0.1C108.1,321.6,109.4,317.3,108.3,313.4z"/>
	<path class="st9" d="M379.5,123.8c0.9,0.5,1.8,1,2,2.2c-2.6,0.5-5.2-1.5-7.9-0.1c-1.1-0.8-0.3-1.8-0.5-2.8
		C375.3,123.3,377.4,123.6,379.5,123.8z"/>
	<path class="st9" d="M107.3,297.1c0.1-1,0.2-1.9,0.3-2.9c3-0.1,4-3.3,6.5-4.2c0,0.4,0.1,0.8,0.1,1.2
		C111.6,292.8,110.4,296,107.3,297.1z"/>
	<path class="st6" d="M399.4,406.1c1.2-0.5,2-1.8,3.5-1.7c0,1.2,0,2.4,1.7,2.5c0,1.1,0,2.2-1.2,2.7c-1.4-0.6-2.8-1.1-4.1-1.7
		C399.3,407.4,399.3,406.8,399.4,406.1z"/>
	<path class="st10" d="M316.9,351.3c-0.2-0.4-0.5-0.9-0.7-1.3c0.1-1.4,0.2-2.7,0.3-4.1c0,0,0.1,0.1,0.1,0.1c0.8,0.6,1.3,2.2,2.8,1.1
		c0.7-0.6,1.4-0.7,2.5-0.3c-0.7,1.6-2.3,2.2-3.5,3.1c-0.5,0-0.7,0.3-0.7,0.8C317.4,350.8,317.1,351.1,316.9,351.3z"/>
	<path class="st7" d="M223.5,433.7c-0.3,0.7-0.6,1.3-0.9,2c-0.4-0.1-0.8-0.3-1.2-0.3c-1.4-0.1-2.5-0.7-2.5-2.2c0-1.1,0.5-2,1.7-2
		C222.2,431.1,223.7,431.4,223.5,433.7z"/>
	<path class="st7" d="M316.5,345.9C316.5,345.9,316.5,345.8,316.5,345.9c-0.2-0.5-0.4-0.9-0.5-1.3c-0.1-1.5,0.4-2.8,2-3.3
		c0.8-0.2,1.4,0.1,1.7,0.8c0.6,1.7-0.3,2.6-1.6,3.4C317.6,345.7,317.1,345.8,316.5,345.9z"/>
	<path class="st7" d="M174.8,343.7c2.6-0.1,3.7,0.8,2.2,3.3c-0.6,1-0.6,2-0.7,3.1c-1.6-0.8-2.3-2.3-2.9-3.9c0,0,0-0.4,0-0.4
		C174,345.3,174.7,344.7,174.8,343.7z"/>
	<path class="st6" d="M106.5,401.9c0.2,2,3.4,2.6,2.5,5.2c-1.4-0.7-2.7-1.5-4.1-2.2c-0.8-0.9-1.6-1.7-1-3c0.3,0,0.6,0,0.9,0
		C105.4,401.9,105.9,401.9,106.5,401.9z"/>
	<path class="st11" d="M321.1,451.3c1-3.6,2.1-7.2,5.5-9.4C324.6,444.9,324.8,449.2,321.1,451.3z"/>
	<path class="st11" d="M61.3,212.9c0.6,0,1.1-0.1,1.7-0.1c0.6,2.6,1.1,5.1,1.7,7.7c-0.4,0-0.8,0-1.1,0
		C62.8,218,62.1,215.4,61.3,212.9z"/>
	<path class="st7" d="M204.8,468.1c0.6,0.2,1.2,0.4,1.8,0.6c0,0.3-0.1,0.5-0.1,0.8c-0.2,1.5-0.9,2.7-2.5,2.8
		c-0.9,0.1-1.6-0.8-1.6-1.6C202.2,469.1,203.2,468.3,204.8,468.1z"/>
	<path class="st12" d="M139.5,75.3c-0.1,3.6-1.6,6.6-4.3,9C135.9,80.9,137.1,77.8,139.5,75.3z"/>
	<path class="st9" d="M103.9,295.7c-0.2,0.2-0.5,0.4-0.7,0.6c-1.7-1.9-2.7-4.2-3.6-6.6c0.3-0.4,0.5-0.8,0.8-1.1
		C102.2,290.6,103.2,293.1,103.9,295.7z"/>
	<path class="st0" d="M234.2,474.2c-0.4-1.5-2.6-1.5-2.6-3.4c2.5,0.3,4.9,0.7,6.8,2.6c-0.8,1.1-2,0.8-3.1,1.1
		C235,474.4,234.6,474.3,234.2,474.2z"/>
	<path class="st10" d="M350.1,93c0-0.3,0-0.6,0-1c2.5-0.5,5.1-1,7.6-1.5c0,0.9-0.1,1.9-0.1,2.8C355.1,93.2,352.6,93.1,350.1,93z"/>
	<path class="st11" d="M223.2,86.2c0.1-1.2,0.4-2.3,1.4-3.1c1,0.1,2,0.2,2.9,0.3c-3.3,1.4-0.1,2.7,0.1,4.1c-0.2,0.2-0.3,0.4-0.5,0.6
		C225.8,87.4,224.5,86.8,223.2,86.2z"/>
	<path class="st9" d="M283.5,458.9c-0.3,2.7,3.5,1.1,3.6,3.5c-2.6-0.4-5.2-0.7-7.8-1.1C280.7,460.5,282.1,459.7,283.5,458.9z"/>
	<path class="st11" d="M248.2,72.2c0.5,0.1,1,0.1,1.5,0.2c-2.3,2.2-4.5,4.6-7.8,5.2C243.4,75.2,246,73.9,248.2,72.2z"/>
	<path class="st6" d="M182.1,398.5c3,0.3,5.8,0.9,7,4.3C186.3,402.1,184.1,400.4,182.1,398.5z"/>
	<path class="st1" d="M287,379.5c-2.7,1.9-5.6,1.4-8.6,0.9C281.3,379.8,284.1,378.9,287,379.5z"/>
	<path class="st11" d="M331.4,401.3c0,0.4,0,0.8-0.1,1.1c-0.1,0.1-0.2,0.2-0.3,0.3c-1.3,0.5-2.5,1.5-4,0.6c-0.5-0.3-0.7-1-0.4-1.5
		c1.1-1.7,2.6-0.2,3.9-0.4C330.8,401.3,331.1,401.3,331.4,401.3z"/>
	<path class="st3" d="M189,71.1c-0.1,4.9-0.5,5.1-4.6,2.6C185.7,72.5,187.3,71.6,189,71.1z"/>
	<path class="st11" d="M95.5,398.5c-1.3-0.1-1.7,0.8-1.8,1.9c-1.7-0.7-2.3-1.7-0.3-2.8c1.5-0.8,3.2-0.8,4.8-0.8
		c0.7,0.3,0.6,1,0.7,1.5c0,0-0.1,0.2-0.1,0.2c-0.3-0.1-0.6-0.1-0.8,0C97.1,398.5,96.3,398.5,95.5,398.5z"/>
	<path class="st1" d="M155.9,438.4c2.4-1.9,4.8-0.9,6,2.5C159.6,440.6,157.8,439.3,155.9,438.4z"/>
	<path class="st11" d="M108.1,375.7c0-0.3,0-0.6,0.1-0.9c3.2,0.4,4.4,2.8,5.4,5.5c-0.3,0.1-0.6,0.2-0.9,0.4
		c-1.2-1.4-2.4-2.8-3.6-4.1c-0.3-0.3-0.6-0.6-0.9-1L108.1,375.7z"/>
	<path class="st1" d="M165.3,439.3c1.1,1.3,2.5,2.5,2.5,4.5c-1.6-0.2-3-1-4.1-2.1C163.5,440.5,164.8,440.2,165.3,439.3z"/>
	<path class="st6" d="M226.7,417.9c2.8,0.5,5.7-0.6,8.4,0.7c-2.8,0.6-5.7,0.8-8.5-0.1C226.6,418.4,226.6,418.1,226.7,417.9z"/>
	<path class="st6" d="M338.2,352.4c-2.7,0.1-5.2-0.7-7.6-1.6c0.5-0.3,1.1-0.7,1.6-1C333.7,351.8,337.1,349.2,338.2,352.4z"/>
	<path class="st9" d="M107.6,292.9c-0.3,0-0.6,0.1-0.8,0.1c0.1-2.1,1.6-3.7,2.2-5.6c0,0,0-0.1,0-0.1
		C108,289,109.3,291.3,107.6,292.9z"/>
	<path class="st3" d="M203.6,64c0.4,4.4-2.2,2.7-4.3,2.3C200.4,64.9,202,64.5,203.6,64z"/>
	<path class="st6" d="M135.5,397.6c0.3-0.3,0.6-0.6,0.9-1c1.6,0.5,3,1.5,4.2,2.7C138.9,398.7,136.3,400.7,135.5,397.6z"/>
	<path class="st9" d="M365.1,348.8c0.4,0.1,0.8,0.2,1.3,0.2c-0.4,0.6-0.8,1.1-1.2,1.7c-1.2,0.9-2.1,2.2-3.9,1.8c0,0-0.2-0.3-0.2-0.3
		C362,350.7,363.4,349.6,365.1,348.8z"/>
	<path class="st3" d="M95.3,389.9c3.5,0.4,2.5,3.1,2.6,5.2C96.7,393.6,95.9,391.8,95.3,389.9z"/>
	<path class="st11" d="M230.9,86.3c-0.1,0.9-1,1.8-0.1,2.7c-1.4,0.2-2.7,0-3.7-1c0.2-0.2,0.3-0.4,0.5-0.6
		C228.8,87.3,229.3,85.2,230.9,86.3z"/>
	<path class="st6" d="M373.1,143.6c2.2-0.7,4.4-1.6,6,1C377,144.9,375.1,144.2,373.1,143.6z"/>
	<path class="st1" d="M307.5,424c0.3-0.5,0.5-0.9,0.8-1.4c0.6-0.1,1.2-0.2,1.8-0.3c0.9,1.2,2.2,0.7,3.4,0.8
		C311.9,426.9,309.3,422.7,307.5,424z"/>
	<path class="st1" d="M262.4,416.4c-0.3,0.4-0.6,0.9-0.9,1.3c-1.1,0.1-2.3,0.3-3.4,0.4c-0.3-0.3-0.6-0.6-0.9-0.9l0,0
		C258.8,415.7,260.7,416.5,262.4,416.4z"/>
	<path class="st12" d="M145.8,91c0-1.2-1.3-1.6-1.7-2.6c1.7-0.1,1.4-1.5,1.6-2.6c1.1,0.1,1.6,0.7,1.5,1.9
		C146.7,88.8,146.3,89.9,145.8,91z"/>
	<path class="st13" d="M145.8,91c0.5-1.1,0.9-2.2,1.4-3.2c0.3,0.8,0.7,1.5,1,2.3c0.1,0.9-0.2,1.6-1,2c-0.4,0-0.8,0-1.2,0
		C145.9,91.6,145.9,91.3,145.8,91z"/>
	<path class="st3" d="M332.2,407.8c-0.4,2.1-1.3,3.6-3.8,3C329.4,409.5,330.6,408.4,332.2,407.8z"/>
	<path class="st3" d="M328.3,410.8c0.6,2.7-1.5,2.5-3.1,2.9C325.8,412.3,327.1,411.6,328.3,410.8z"/>
	<path class="st13" d="M145.7,85.8c-0.1,1.1,0.2,2.5-1.6,2.6c0-1.1-0.1-2.3-0.1-3.4c0.4,0,0.8,0.1,1.2,0.1
		C145.5,85.3,145.6,85.6,145.7,85.8z"/>
	<path class="st3" d="M107.3,237.5c0-0.6,0-1.1,0.1-1.7c1.3,0.8,1.3,2.2,1.4,3.5C107.7,239.1,107.4,238.4,107.3,237.5z"/>
	<path class="st1" d="M275.9,463.1c0.3-1.5,0.5-2.9,2.6-1.7C277.9,462.4,277,462.9,275.9,463.1z"/>
	<path class="st4" d="M331.9,377.4c-0.9-0.3-1.4-1-1.4-2c1.3,0.1,1.7-1.2,2.6-1.7c0,1,0,2,0,3C332.7,376.9,332.3,377.2,331.9,377.4z
		"/>
	<path class="st9" d="M152,86.2c0.5-0.9,1.1-1.7,2.2-2c0.4,0,0.9,0.1,1.3,0.1c-0.9,0.9-1.8,1.8-2.7,2.7
		C152.5,86.7,152.2,86.4,152,86.2z"/>
	<path class="st1" d="M298.7,425.6c0.4,0,0.8,0.1,1.2,0.1c-0.1,1.7-1.3,1.7-2.6,1.7c0-0.3,0-0.6-0.1-1
		C297.7,426.2,298.2,425.9,298.7,425.6z"/>
	<path class="st6" d="M327.9,117.4c0.3,0,0.5-0.1,0.8-0.1c1.2,0.2,2.6,0.1,2.6,1.8C330.1,118.6,328.8,118.5,327.9,117.4z"/>
	<path class="st3" d="M110.5,244.3c-2.3-0.7-1.2-2.5-1.3-4C110.1,241.5,110.4,242.9,110.5,244.3z"/>
	<path class="st6" d="M145.8,400.9c-1.2,0.1-2.4,0.3-2.7-1.4C144.4,399.2,145.6,399.1,145.8,400.9z"/>
	<path class="st1" d="M254.7,418.7c0.2-1.6,1.4-1.5,2.5-1.5c0,0,0,0,0,0c0,0.4,0.1,0.8,0.1,1.2C256.5,419,255.6,419,254.7,418.7z"/>
	<path class="st11" d="M80.4,205.1c0.2-0.1,0.4-0.1,0.6,0c0.5,1-0.5,1.7-0.6,2.6c-0.2,0.1-0.4,0.3-0.5,0.5c-0.2-0.2-0.3-0.3-0.5-0.5
		C79.7,206.9,80,206,80.4,205.1z"/>
	<path class="st6" d="M189,402.8c1.3-0.1,2.5-0.1,2.6,1.7C190.8,403.9,189.9,403.3,189,402.8z"/>
	<path class="st9" d="M264.1,445.6c-0.3,0.9-0.8,1.5-1.8,1.4c0.2-0.9-0.7-1.7,0.1-2.6c0,0-0.1,0-0.1,0
		C262.9,444.8,263.5,445.2,264.1,445.6z"/>
	<path class="st9" d="M243.6,419.7c0.6-1,1.1-1,1.6,0C244.7,420.5,244.2,420.5,243.6,419.7z"/>
	<path class="st9" d="M316.5,345.9c0.5-0.1,1.1-0.2,1.6-0.3c0.4,0.5,0.8,1,1.2,1.5C317.8,348.2,317.4,346.6,316.5,345.9z"/>
	<path class="st11" d="M65.1,231.5c1.2,0.2,1.5,0.8,1.3,1.9C65.6,233,64.7,232.7,65.1,231.5z"/>
	<path class="st12" d="M86.8,352.5c1.2,0,1.8,0.5,1.7,1.7C87.4,354.2,87,353.5,86.8,352.5z"/>
	<path class="st1" d="M105.9,195.9c-1.5-0.9-1.1-1.5,0.3-1.8C106.5,194.7,106.5,195.4,105.9,195.9z"/>
	<path class="st3" d="M388.2,147.3c0.3-0.3,0.7-0.5,1-0.8c0.7,0.1,1,0.8,0.7,1.1C389.3,148.3,388.6,148,388.2,147.3z"/>
	<path class="st11" d="M363,87.5C363,87.5,362.9,87.4,363,87.5c-0.1,0.2-0.1,0.4-0.2,0.6c0,0.1-0.2,0.1-0.3,0.1
		C362.7,88,362.8,87.8,363,87.5z"/>
	<path class="st11" d="M75.1,255.3c-0.3,0.3-0.7,0.7-1,1c-0.7-0.4-0.8-1-0.9-1.7c0.2-0.2,0.4-0.4,0.6-0.6
		C74.2,254.5,74.6,254.9,75.1,255.3z"/>
	<path class="st11" d="M155.8,83.2c0.4-0.4,0.9-0.8,1.3-1.2c0.2,0.2,0.5,0.5,0.7,0.7c-0.5,0.4-0.9,0.8-1.4,1.3
		C156.2,83.7,156,83.4,155.8,83.2z"/>
	<path class="st11" d="M155.4,84.3c-0.4,0-0.9-0.1-1.3-0.1c0.3-0.8,1-0.8,1.6-1c0.2,0.2,0.4,0.5,0.6,0.7
		C156.1,84.1,155.8,84.2,155.4,84.3z"/>
	<path class="st4" d="M379.6,144.5c0.5-1.3,1.4-1.7,2.6-1.2C381.9,145,380.9,145,379.6,144.5z"/>
	<path class="st11" d="M318.6,453.8c0.2-1.1,0.6-1.6,1.7-0.9C320,453.8,319.7,454.6,318.6,453.8z"/>
	<path class="st11" d="M320.2,453c-0.5-1-0.1-1.5,0.9-1.8C321.6,452.2,321,452.7,320.2,453z"/>
	<path class="st12" d="M188.3,421.8c-0.1,0.3-0.2,0.7-0.3,1c-0.2-0.2-0.5-0.4-0.7-0.6C187.6,422.1,188,422,188.3,421.8z"/>
	<path class="st12" d="M124.4,172.6c-0.7,0-1.2-0.4-1.6-1c0.2-0.2,0.3-0.4,0.4-0.6c0.2,0,0.5,0,0.7,0
		C124.1,171.6,124.3,172.1,124.4,172.6z"/>
	<path class="st3" d="M97.9,395.1c0.4,0.1,0.8,0.2,1.1,0.3c-0.3,0.2-0.6,0.4-0.9,0.6C98.1,395.6,98,395.4,97.9,395.1z"/>
	<path class="st1" d="M107.2,346.5c0.6,0,1.2,0,1.8,0c0,0.4-0.1,0.7-0.1,1.1C108.3,347.4,107.5,347.5,107.2,346.5z"/>
	<path class="st11" d="M73.2,254.6c-0.4-0.5-0.7-1-1.1-1.6c0.1-0.1,0.3-0.2,0.4-0.3c0.4,0.4,0.8,0.8,1.3,1.3
		C73.6,254.2,73.4,254.4,73.2,254.6z"/>
	<path class="st6" d="M257.4,418.4c0-0.4-0.1-0.8-0.1-1.2c0.3,0.3,0.6,0.6,0.9,0.9C257.8,418.2,257.6,418.3,257.4,418.4z"/>
	<path class="st1" d="M194.9,68.3c-0.1,0.6-0.3,1.2-1.2,0.9C193.9,68.5,194.3,68.2,194.9,68.3z"/>
	<path class="st4" d="M240.1,388.6c-0.1,0.5-0.1,1.1-0.8,0.4C239.6,388.9,239.8,388.8,240.1,388.6z"/>
	<path class="st10" d="M207.8,83.2c0,0,0,0.3,0,0.3c-0.3,0.2-0.6,0.4-0.9,0.6C207.3,83.7,207.6,83.4,207.8,83.2z"/>
	<path class="st11" d="M317.7,454.7c-0.1-0.7,0.2-1,0.9-0.8C319,454.9,318.5,455,317.7,454.7z"/>
	<path class="st11" d="M316.4,455.5c0.4-0.3,0.9-0.6,1.3-0.9C317.7,455.7,317.4,456.2,316.4,455.5z"/>
	<path class="st9" d="M315.1,457.3c-0.5-1,0.3-1.1,0.9-1.4C316.5,456.9,315.9,457.1,315.1,457.3z"/>
	<path class="st9" d="M317.6,350.6c-0.1-0.5,0.2-0.8,0.7-0.8C318.1,350.1,317.9,350.4,317.6,350.6z"/>
	<path class="st1" d="M321.3,86.6c-0.4-0.3-0.7-0.6-1.1-0.8C320.6,86.1,321,86.3,321.3,86.6z"/>
	<path class="st9" d="M276.8,53.7c-0.7,0.5-0.8,0.2-0.7-0.4C276.4,53.4,276.6,53.6,276.8,53.7z"/>
	<path class="st6" d="M224,418.3c0.2-0.2,0.3-0.4,0.5-0.5c0.1,0.2,0.2,0.4,0.3,0.6C224.5,418.4,224.2,418.3,224,418.3z"/>
	<path class="st6" d="M222.3,418c0.4-0.6,0.7-0.4,0.9,0.2C222.9,418.1,222.6,418,222.3,418z"/>
	<path class="st8" d="M173.4,345.9c0,0,0,0.4,0,0.4c0,0-0.3-0.2-0.3-0.2L173.4,345.9z"/>
	<path class="st3" d="M122.7,335.4c0-0.3,0-0.5,0-0.8c0.3,0.1,0.6,0.1,0.8,0.2C123.2,335,123,335.2,122.7,335.4z"/>
	<path class="st10" d="M362.8,337.1c-0.5,0.2-1,0.4-1.4,0.7C361.8,337.5,362.3,337.3,362.8,337.1z"/>
	<path class="st4" d="M272.5,58.6c6.3,4,11.7,9.1,17.1,14.2c7.6,7.1,15.1,14.5,23.8,20.2c1.6,1.1,3.6,1.5,5.5,2.3
		c0.7,0.3,1.3,0.7,1,1.5c-0.3,1-1,0.6-1.7,0.4c-5.5-1.5-10-4.7-14-8.4c-4.9-4.6-10.3-8.4-15-13c-5.3-5.1-10.3-10.4-16.3-14.7
		c-0.8-0.6-1.3-1.5-1.4-2.5C271.9,58.6,272.2,58.6,272.5,58.6z"/>
	<path class="st4" d="M350.1,115.7c0.3,0.9,0.5,1.7,0.8,2.6c-8.4-1.7-15.7-6.6-24.9-8.2c3.4-2.2,6.1-0.8,8.7,0.1
		C339.8,112,344.7,114.6,350.1,115.7z"/>
	<path class="st1" d="M298.9,102.9c-0.8,0-1.7,0-2.5,0.1c-0.1-3.3-3.4-3.4-5-3.6c-2.5-0.4-2.6-1.5-2.7-3.2c3.8,0.8,6.9,4.1,11.5,3.1
		C300,100.6,298.5,101.5,298.9,102.9z"/>
	<path class="st4" d="M274.3,81.6c-0.6,0-1.1,0-1.7,0c-1.2-1.9-2.8-3.5-2.6-6C272.3,77.1,273.5,79.2,274.3,81.6z"/>
	<path class="st1" d="M304.6,105c-1.4-0.5-2.8-1-4.2-1.4c2.8-1.9,4.5,0,6.2,1.8C306,105.2,305.3,105.1,304.6,105z"/>
	<path class="st3" d="M272.5,58.6c-0.3,0-0.6,0-0.9,0c-0.3,0-0.6-0.1-0.9-0.1c0.1-1.1-0.2-2.6,1.8-1.5
		C272.5,57.5,272.5,58.1,272.5,58.6z"/>
	<path class="st1" d="M331.3,96.1c-1.1,0-1.7-0.6-1.7-1.7c0,0,0.3-0.3,0.3-0.3c0.8,0.3,1.5,0.7,1.9,1.5
		C331.7,95.8,331.5,95.9,331.3,96.1z"/>
	<path class="st4" d="M206.2,391c2.8,3.3,2.9,6.8,6,8.5c1.8,0.9-1.8,1.2-1.4,2.7c6.6,2.6,12.9,6.1,20,7.6c1.1,0.2,2.4,1.1,2.1,2.3
		c-0.5,1.7-1.8,0.6-2.7,0.2c-7.1-3.5-15.3-4.3-21.9-8.8c-1.2-0.8-4.9-1.2-1-3.6c0.7-0.5,0-1.3-0.1-2
		C206.9,395.9,206.6,394,206.2,391z"/>
	<path class="st1" d="M265.8,416.4c-1.1,0-2.2,0-3.3,0.1c0.2-3.1-0.9-4.5-4.3-4.5c-2,0-4.4-0.6-5.2-3.3c0,0,0,0,0,0
		c3.5,1.2,5.4-2.7,8.5-2.6c0.2,0.2,0.6,0.5,0.5,0.6c-1.5,4.8,1.8,4.3,4.8,4.6c2.2,0.3,5-1.6,6.6,1.5
		C270.5,413.2,268.4,415.4,265.8,416.4z"/>
	<path class="st10" d="M165.3,378c-1.6-0.1-2.5-0.9-2.5-2.5c5.5-1.8,11.1-3.6,17-3.5c0.9,0,1.9,0.2,2.6-0.8c0.6,0,1.1,0,1.7,0
		c1.4,1.8,2.8-0.2,4.3,0c-0.2,2.1-1.4,3.1-3.4,3.4C178.2,375.1,171.6,375.9,165.3,378z"/>
	<path class="st1" d="M199.2,373c1.5,3.9,4.5,6.8,7.1,9.9c1.9,2.3,5.8-0.1,7.7,2.7c-1.8,0-3.6,0.2-5.4-0.4c-1.3-0.4-3.6-1.5-2,1.7
		c0.3,0.6-0.1,1.1-0.8,1.1c-0.9,0.1-1.2-0.5-1.6-1.2c-1.5-3-2.6-6.2-4.7-8.9c-1.3-1.7-2.5-2.9-4.5-3.4c0.3-1.9-0.7-2.7-2.5-2.6
		c-0.3-0.3-0.6-0.6-0.9-0.9c0.6-0.9,1.2-1.8,1.8-2.7C195.5,369.9,196.8,372.1,199.2,373z"/>
	<path class="st5" d="M186.2,378.7c1.6,4.7-1.6,6.9-4.6,9.4c-0.8-5.2,0.5-8.1,4.3-9.5C185.9,378.5,186.2,378.7,186.2,378.7z"/>
	<path class="st4" d="M197.9,394.6c-3.1-1.8-5.7-3.9-6.6-7.5C194.6,388.6,197.4,390.6,197.9,394.6z"/>
	<path class="st6" d="M186.2,378.7c0,0-0.4-0.1-0.4-0.1c-0.5-1.3-1.2-2.5-1-3.9c2-0.3,3.2-1.3,3.4-3.4c1.1,0,2.3,0,3.4-0.1
		c0.3,0.3,0.6,0.6,0.9,0.9c-1.7,2-4.8,2.5-6,5.2C186.5,377.7,186.4,378.2,186.2,378.7z"/>
	<path class="st10" d="M186.6,377.2c1.1-2.7,4.3-3.2,6-5.2c1.9-0.1,2.8,0.6,2.5,2.6C191.7,373.8,189.8,377.6,186.6,377.2z"/>
	<path class="st1" d="M215.5,385.8c2.5,0.3,4.5,1.7,6.4,3.2C219.2,389,216.8,388.5,215.5,385.8z"/>
	<path class="st1" d="M222.3,389.1c0.9,0.4,1.8,0.9,2.6,1.3c0,0.4-0.1,0.8-0.1,1.1C223,391.8,222.1,391,222.3,389.1z"/>
	<path class="st4" d="M202.9,399c-0.2-0.1-0.6-0.2-0.7-0.3c-0.1-0.2,0.2-0.5,0.3-0.7c0.2,0.1,0.6,0.2,0.7,0.3
		C203.3,398.5,203,398.8,202.9,399z"/>
	<path class="st4" d="M190.2,385.4c-0.2-0.1-0.6-0.2-0.7-0.3c-0.1-0.2,0.2-0.5,0.3-0.7c0.2,0.1,0.6,0.2,0.7,0.3
		C190.5,384.9,190.3,385.1,190.2,385.4z"/>
	<path class="st5" d="M254.6,396.6c0.6,0,1.2,0,1.7,0c0.4-0.2,0.8-0.3,1.2-0.5c0.7,0,1.5-0.1,2.2-0.1c0.4,0.5,1,0.8,1.3,0.3
		c0.6-0.7,0.1-1.5-0.3-2.2c2.1-0.5,3.5,0.8,5.2,1.8c1.3,1.8,2.8,3.5,3.7,5.4c0.5,1.1,2.4,3,0.4,4c-1.8,0.9-4.5,2-6.2-0.4
		c-0.7-1-1.4-1.1-2.4-1.1c-3.3-1.7-7.3-2.2-9.9-5.3c-1.7-2.6,1.2-1.6,1.8-2.3C253.8,396.2,254.2,396.4,254.6,396.6z"/>
	<path class="st2" d="M251.6,398.4c2.6,3.1,6.5,3.7,9.9,5.3c0,0.8,0,1.6,0,2.4c-3.1-0.1-5,3.8-8.5,2.6c-1.6-3.3-4.6-3.6-7.8-3.4
		c-1.4,0.1-3.2,0.4-3.6-1.2c-0.5-2.1,1.6-2.4,2.9-2.8C246.9,400.3,248.6,397.6,251.6,398.4z"/>
	<path class="st4" d="M342.4,355.9c1.2,0.1,2.5-0.4,3.5,0.8c-2.9,1.9-4.6,5.2-7.7,6.8C338,360.2,341.3,358.6,342.4,355.9z"/>
	<path class="st4" d="M338.1,363.5c-0.8,2.9-1.2,6-4.3,7.7C334.7,368.3,335,365.2,338.1,363.5z"/>
	<path class="st4" d="M333.9,371.2c-0.3,0.3-0.6,0.6-0.9,0.9C333.3,371.8,333.6,371.5,333.9,371.2z"/>
	<path class="st5" d="M101.2,216.9c0.5,0.4,0.9,0.7,1.4,1.1c1.4,3.8,1.3,7.5-2.8,9.4c-2.6,1.2,1.2,3.7-1.3,4
		c-1.6,0.2-3.3-1.1-5.1-0.8c-1.6,0.2-1.2,1.7-1.7,2.6c-0.2-0.1-0.4,0-0.6,0.1c-1.1-0.3-2.2-0.7-3.3-1c0-0.2,0-0.5-0.2-0.7
		c0.4-1.3,0.9-2.6,1.3-3.8c1.1-1.8,2.3-3.6,3.8-6.1c0.5,3.8,1.8,3.1,3.3,1.4C97.9,221,99.5,219,101.2,216.9z"/>
	<path class="st4" d="M92.9,274.2c-1-0.6-0.8-1.6-0.9-2.6c3.2-2.7,5.4-5.9,5.1-10.4c-0.2-3.5,0.5-6.8,2.1-10.9
		C100.6,259.8,99.7,267.8,92.9,274.2z"/>
	<path class="st4" d="M83.5,261.4c-1.7-0.1-1.7-1.3-1.7-2.6c0.3-0.6,0.6-1.2,1-1.8c2.3-3.8,2.6-8.5,5.8-11.9l0,0
		c-0.1,4.5-2.5,8.2-4.2,12.2C83.8,258.7,83.5,260,83.5,261.4z"/>
	<path class="st4" d="M91.2,233.2c0.2-0.1,0.4-0.2,0.6-0.1c1.4,0.2,2,0.8,1.4,2.3c-1.4,3.3-2.1,7-4.5,9.8c0,0,0,0,0,0
		C88,240.9,91,237.3,91.2,233.2z"/>
	<path class="st4" d="M97.1,290.3c0.3,0,0.6,0,0.8,0c-0.3,2.3-1.3,4.5-0.8,6.8c-0.2,1-1.6,1.9-0.2,2.9c2.2,1.5-0.9,1.3-0.6,2.2
		c-1.9,3.8-4.4,7.4-5.4,11.7c-0.5-0.2-1-0.3-1.4-0.5C92,305.7,94.5,298,97.1,290.3z"/>
	<path class="st10" d="M90.2,281.6c0-0.5,0-0.9,0-1.4c3-2.4,4.8-1.1,5.2,2.2c0.2,2,3.3,2.9,1.7,5.4
		C95.2,285.3,91.9,284.3,90.2,281.6z"/>
	<path class="st8" d="M277.4,447c1-3.7,3.6-4.6,7-4.1c1.3,0.7,2.4,2.2,3.9,2.1c1.1-1.4-0.9-2.6,0.5-3.8c2.3,0.9,3.3,3.2,4.9,4.8
		c0,0.6,0,1.1,0,1.7c-0.3,0.6-0.6,1.2-0.9,1.8c-1.3,1.1-2.5,2.2-3.8,3.4c-2.2,2-3,0.7-3.4-1.4c-2.4-1.7-5-2.9-7.8-3.8
		C277.8,447.5,277.6,447.3,277.4,447z"/>
	<path class="st7" d="M285.8,451.5c0.4,2.2,1.1,3.5,3.4,1.4c1.2-1.1,2.5-2.2,3.8-3.4c0.3,0.3,0.6,0.5,0.9,0.8c0,0.7,0.1,1.5,0.1,2.2
		c-0.2,0.6-0.4,1.3-0.6,1.9c-0.7,0.1-1.2,0.6-1.5,1.3c-1.6,0.1-3.3,0.3-4.9,0.4C285.1,455.1,282.8,454,285.8,451.5z"/>
	<path class="st4" d="M277.4,447c0.2,0.2,0.4,0.5,0.6,0.7c-3.3,1.2-4.4,5.4-8,6.1l0,0c0-1.4,0.8-2.4,1.9-3.1c2.5-1.6,2-3.4,0.7-5.5
		C274.2,445.9,275.8,446.5,277.4,447z"/>
	<path class="st4" d="M270,453.8c-0.8,3.7-3.7,5.8-7.7,5.2C264.9,456.9,267.1,454.9,270,453.8C270,453.8,270,453.8,270,453.8z"/>
	<path class="st1" d="M396.5,402.8c-0.6-0.6-1.2-1.2-1.7-1.8c2.1-1.4,2.7-0.1,3,1.6C397.3,402.8,396.9,402.8,396.5,402.8z"/>
	<path class="st1" d="M394.3,400.6c-0.4-0.4-0.7-0.8-1.1-1.2C394,399.5,395,399.3,394.3,400.6z"/>
	<path class="st2" d="M133.7,135.3c-2.7,1.2-1.9,3.9-2.5,6c-0.1,0.2-0.2,0.3-0.4,0.2c-1.8-0.2-3.7-0.7-4.8,1.5
		c-2.3,1-5.3,0.7-6.8,3.4c-0.8-0.3-1.7-0.6-2.5-0.9c-0.3-1.8-1.7-1.5-2.9-1.6c-2.6-0.3-5,0.8-7.5,0.9c-1.3,0-3,1.9-3.7,0
		c-0.8-2.3,2.1-1.5,3-2.6c6.9-0.5,12.1-4.6,17.5-8.3c0.4-0.3,0.3-1.3,0.4-2c0.3,0,0.6,0,0.8,0c3.8-1.7,7-4.4,9.6-7.6
		c1.1-1.4,1.5-0.9,2.3-0.1C136.9,128.2,135.7,131.9,133.7,135.3z"/>
	<path class="st4" d="M136.3,124.2c-0.8-0.9-1.2-1.3-2.3,0.1c-2.6,3.2-5.7,5.9-9.6,7.6c0.6-3.1,3.5-4.3,5.2-6.4c1-1.3,2.7-2,3-3.8
		c-0.7-0.8-1.3-0.3-1.8,0.1c-0.8,0.6-1.9,1.3-2.5,0.2c-0.5-1.1,0.8-1.5,1.7-1.9c2.4-1.1,4.8-2.3,7.2-3.4c0,1.7,0,3.4,0,5.1
		C136.2,122.3,136.3,123.3,136.3,124.2z"/>
	<path class="st10" d="M145.8,94.2c0.7,0.1,1.4,0.2,2.1,0.3c-0.3,0.8-1.4,1.1-1.1,2.2c-1.2,5.1-3,10-5.2,14.8c-1.4,0-2.8,0-4.3,0
		c0-0.7,0.1-1.3,0.1-2c2.9,0.9,2.7-1.8,3.3-3.2C142.5,102.3,144.1,98.2,145.8,94.2z"/>
	<path class="st4" d="M123.5,131.9c-0.1,0.7,0,1.7-0.4,2c-5.4,3.7-10.6,7.7-17.5,8.3c0-0.3,0-0.6,0-0.9c5.3-2.7,10.9-4.9,15.5-8.9
		C121.7,131.9,122.7,132,123.5,131.9z"/>
	<path class="st6" d="M137.2,111.4c1.4,0,2.8,0,4.3,0c0.3,0.3,0.5,0.6,0.8,0.9c-2,3.4-1.1,7.8-3.5,11.1c-0.6-0.6-1.1-1.2-1.7-1.8
		c0-1.7,0-3.4,0-5.1C137.2,114.8,137.2,113.1,137.2,111.4z"/>
	<path class="st4" d="M106.2,131.1c5.7-3.8,11.3-7.6,18.7-7.6c-6,2.9-12,5.8-18,8.8C106.6,131.8,106.4,131.4,106.2,131.1z"/>
	<path class="st12" d="M135.1,104c0.2,0.1,0.2,0.3,0.1,0.5c0,0-0.2-0.2-0.2-0.2L135.1,104z"/>
	<path class="st10" d="M136.5,107.7c0.2,0.4,0.4,0.8,0.6,1.2C137,108.4,136.7,108.1,136.5,107.7z"/>
	<path class="st0" d="M293.8,446.2c-1.6-1.6-2.6-3.9-4.9-4.8c-1.3,1.2,0.6,2.4-0.5,3.8c-1.6,0-2.6-1.4-3.9-2.1
		c-1.7-2.5-1-4.5,1.3-6.2c3.6-2.6,6.2-6.6,10.8-7.9c0.4-0.1,0.5-0.9,0.7-1.4c1.3,0,2.5,0,2.6-1.7c2.7,0.1,5.2-0.6,7.6-1.7
		c1.8-1.3,4.5,2.9,6-0.9c0.6,0,1.1,0,1.7,0c0.5,4.2-2.8,6.5-5.1,8.7c-4.8,4.3-9.6,8.5-14,13.3C295.5,445.7,294.5,445.8,293.8,446.2z
		"/>
	<path class="st0" d="M382.5,401.4c-3.6-1.6-4.8,2-6.3,3.6c-5.6,5.6-12.9,6.6-19.9,8.7c-0.8,0.2-2.2,0.5-2.4-0.9
		c-0.1-1.1,0.9-1.9,1.8-2.1c8.3-1.9,13.1-8.5,19.1-13.5c1.1-0.9,2-2.2,3.2-2.7c2.1-0.8,4.5-0.4,6.1,0.9c1.6,1.4-1.1,2.5-1.2,3.9
		C382.8,400,382.7,400.7,382.5,401.4C382.6,401.4,382.5,401.4,382.5,401.4z"/>
	<path class="st3" d="M316.2,442.8c-4.2,3.4-9,5.4-14,7c-1.5-0.2-3.2-0.3-3.7-2.1c-0.5-1.8,1.1-2.4,1.9-3.4c2.3-2.9,5-4.6,9-4.2
		c3.3,0.4,5.9-2.2,9.1-2.5h0c0.5,0.9,0.9,1.8,1.4,2.7c0,0,0,0,0,0c-1.4-1.4-2.9-0.6-3.9,0.3c-0.8,0.7,0.5,1.2,1,1.8
		C316.8,442.7,316.6,442.8,316.2,442.8c-0.1-0.2-0.3-0.4-0.4-0.5C315.9,442.5,316.1,442.6,316.2,442.8z"/>
	<path class="st3" d="M293.9,452.6c0-0.7-0.1-1.5-0.1-2.2c0.6,0,1.2,0,1.8,0c0.8,0,1.4,0.2,1.8,1
		C296.3,452.1,295.2,452.8,293.9,452.6z"/>
	<path class="st0" d="M295.5,450.4c-0.6,0-1.2,0-1.8,0c-0.3-0.3-0.6-0.5-0.9-0.8c0.3-0.6,0.6-1.2,0.9-1.8
		C294.9,448.3,295.5,449.1,295.5,450.4z"/>
	<path class="st3" d="M318.5,437.6c0.3-0.2,0.6-0.4,0.9-0.6c0.1,0.1,0.1,0.2,0.2,0.3C319.3,437.4,318.9,437.5,318.5,437.6
		C318.5,437.6,318.5,437.6,318.5,437.6z"/>
	<path class="st5" d="M226.1,59.7C226.1,59.7,226.2,59.7,226.1,59.7c0.4,0.4,0.7,0.8,1,1.2c-0.6,0.8-1.4,1.8-0.1,2.4
		c0.5,0.2,0.7-1,0.9-1.7c1.1-0.6,2.4-0.8,3.1-2c1.1-0.8,2.2-1.7,3.2-2.5c0.7-0.5,1.4-1,2-1.6c0.7-0.7,1.3-1.9,2.3-1.4
		c1.4,0.7,0.3,1.9,0.2,3c-0.7,5.3-3.3,9.2-8.6,11.2c0.9,1.1,2,1.3,3.1,1.6c0,0.6,0.1,1.1,0.1,1.7c0,0,0-0.1,0-0.1
		c-2.8,0.7-5.7,1.3-8.5-0.1c-0.7-0.5-1.4-1-2.1-1.5c-0.2-0.4-0.3-0.8-0.5-1.2C223,65.4,224.4,62.5,226.1,59.7z"/>
	<path class="st9" d="M219.2,76.9c-0.3-2.1,1.7-2.8,2.6-4.2c1-0.1,2-0.3,3-0.4c0.1,0.2,0.1,0.5,0.1,0.8
		C222.1,73,221.5,76.2,219.2,76.9z"/>
	<path class="st13" d="M224.8,73c0-0.3,0-0.5-0.1-0.8c0.1-0.3,0.2-0.5,0.3-0.8c2.8,1.4,5.7,0.8,8.5,0.1
		C231.1,74.6,227.8,72.8,224.8,73z"/>
	<path class="st13" d="M222.5,68.7c0.2,0.4,0.3,0.8,0.5,1.2C222.2,69.7,222.1,69.3,222.5,68.7z"/>
	<path class="st2" d="M138.8,123.4c2.4-3.3,1.4-7.7,3.5-11.1c6.2-6.4,13.4-11.6,19.1-18.5c4.3-5.2,10.3-8.9,16.7-11
		c3.1-1.1,5-3.9,8.8-4.2c4.7-0.4,3.3,2.2,2.5,3.9c-2.9,6.1-6.1,12-12.9,14.8c-3.2,1.3-5.4,3.9-7.1,7c-0.9,1.6-1.9,3.5-4.2,3.8
		c-1.9,0.2-1.5,1.7-1.5,2.9c-2.4,1.8-4.3,4.2-7.1,5.6c-5.2,1-9.6,3.8-13.7,6.9c-1.3,1-2.4,1.7-4,1.6
		C138.9,124.5,138.9,124,138.8,123.4z"/>
	<path class="st3" d="M149.9,96.1c1.8-1.3,3.5-2.7,6-2.4c-0.3,3.8-3.7,5.4-5.8,7.8c-0.3,0.4-1.5,0.5-1.9,0.3c-1-0.6-0.3-1.5,0.1-2.2
		c0.4-0.9,0.9-1.8,0.5-2.8c0,0,0.1,0,0.1,0C149.2,96.5,149.6,96.3,149.9,96.1z"/>
	<path class="st2" d="M422.4,412.9c-1.6-0.1-2.6-0.8-2.4-2.1c0.3-1.9,1.6-2.9,3.5-2.9c1.3,0,2.2,0.7,2.2,2
		C425.6,412.1,423.5,412.1,422.4,412.9z"/>
	<path class="st12" d="M440.6,402c-1.9-2-6-1.3-6.4-5.2c3.3,0.4,5.7,2.9,8.9,3.6C442.3,401,441.5,401.5,440.6,402z"/>
	<path class="st6" d="M404.5,407c1.1-1.7,2.5-3.1,4.2-4.3C408.9,405.6,407.5,407,404.5,407z"/>
	<path class="st3" d="M260.8,394.1c0.4,0.7,0.9,1.5,0.3,2.2c-0.4,0.4-1,0.2-1.3-0.3C259.8,395.2,260,394.5,260.8,394.1z"/>
	<path class="st0" d="M267.3,390.9c-0.5,0.3-0.8,0.6-1.1,0.6c-0.6,0-1.1-0.3-0.9-0.9c0.1-0.2,0.7-0.4,1-0.4
		C266.6,390.2,266.9,390.5,267.3,390.9z"/>
	<path class="st3" d="M257.6,396.1c-0.4,0.2-0.8,0.3-1.2,0.5C256.8,396.4,257.2,396.2,257.6,396.1z"/>
	<path class="st3" d="M254.6,396.6c-0.4-0.2-0.8-0.3-1.2-0.5C253.8,396.2,254.2,396.4,254.6,396.6z"/>
	<path class="st2" d="M101.2,216.9c-1.7,2-3.4,4.1-5.1,6.1c-1.5,1.8-2.8,2.5-3.3-1.4c-1.5,2.4-2.6,4.3-3.8,6.1
		c-1.1-0.7-1.1-1.8-1.3-2.9c-0.6-3-0.4-6.1-1.9-8.9c0.7-1.8,1.4-3.7,0.9-5.7c-0.2-0.9-0.3-2.1-1.6-2.1c-1.2,0-1.6,1.1-1.5,2.1
		c0,1.8,0.2,3.6,0.2,5.4c-0.2,3.3-0.4,6.6-0.6,10.7c-2.5-5.8-2.7-11.1-2-16.4c0.1-1,0.7-1.9-0.9-2.2c0.1-0.9,1.1-1.6,0.6-2.6
		c0.3-0.6,0.7-1.2,0.9-1.8c0.9-2.9,1.3-7.2,5.5-1c0.3-3.7-1.1-6-2.2-8.1c-1.9-3.5-1.8-7-1.7-10.6c0.2-6.6-0.5-13.2,0.7-19.8
		c0.5-2.7,2.5-4.8,2.4-7.8c-0.1-1.5,2-2.1,3.7-2c4.6,7,8.6,14.2,7.7,23c0,0.6,0,1.1,0,1.7c-0.1,0.8-0.2,1.6-0.4,2.5
		c-1.1,7.2-0.9,14.1,2.9,20.6C100.5,206.8,103,211.8,101.2,216.9z M88.9,202.9c-1.8,0.6-1.4,2.3-0.9,3.1c2.1,3.6,2.7,7.7,4,11.5
		c0.4,1.1,0.4,3,2.2,2.4c1.6-0.5,1.7-2.7,1-3.6c-2.6-3.2-2.8-7.3-4.1-10.9C90.7,204.2,90.1,203.4,88.9,202.9z"/>
	<path class="st0" d="M108.9,164.3c0.2,0.7,0,1.3-0.6,1.7c-0.3,0.3-0.6,0.6-0.9,0.8c-1.3,0.9-0.7,2.2-0.9,3.4c0,0,0,0,0,0
		c-2.6,1.2-3.7,3.4-4.3,6c0,0.2,0,0.5,0,0.7c-1.6,0.1-2.4,2.3-4.3,1.7c0-0.6,0-1.1,0-1.7c2.1-0.3,1.6-2,1.7-3.3
		c0.4-8.4-3.8-15-8.5-21.4c0.4-2.1-3.1-3.2-1.8-5.1c1.7-2.3,3.3,0.9,5.2,0.9c3.5-0.1,7.1,0.3,10.4-1.5c1.4-0.8,2-0.6,2.5,1.2
		c1.1,4.5,0.8,9,0.3,13.4C107.7,162.6,106.9,163.8,108.9,164.3z"/>
	<path class="st4" d="M91.2,152.3c4.7,6.4,8.9,13,8.5,21.4c-0.1,1.3,0.4,3-1.7,3.3c0.9-8.8-3.1-16-7.7-23
		C90.3,153.3,90.5,152.7,91.2,152.3z"/>
	<path class="st3" d="M247.8,449.8c0.6,0,1.2,0,1.8,0c0.4,0.2,0.7,0.5,1.1,0.5c1.6,0.1,3.2,0.1,3.6,2.1c0.3,1.6-1.2,1.8-2.2,2
		c-1.9,0.5-3.3-0.5-4-2.2C247.8,451.6,247.9,450.7,247.8,449.8z"/>
	<path class="st1" d="M317,442.4c-0.5-0.6-1.8-1.1-1-1.8c1-0.9,2.5-1.7,3.9-0.3C319.2,441.4,318.2,442,317,442.4z"/>
	<path class="st1" d="M316.2,442.8c-0.1-0.2-0.3-0.3-0.4-0.5C316,442.5,316.1,442.6,316.2,442.8
		C316.3,442.7,316.2,442.8,316.2,442.8z"/>
	<path class="st2" d="M238.5,473.4c-1.9-1.8-4.3-2.3-6.8-2.6c-0.3-0.3-0.6-0.6-0.8-0.8c-0.8-5-0.8-5-6.8-4.3
		c-1.8,0.3-3.4-0.5-5.1-0.9c-1.3-2.7-2.5-5.5,0.5-7.8c2.1-1.6,9.3-0.8,11,0.9c3.3,3.5,6.8,6.4,12,7.1c3.1,0.4,5.9,2.4,7.1,5.7
		c-0.8,1.9-4,0.9-4.3,3.4c-1.1,0-2.3,0-3.4,0c-0.2-1.1-0.4-2.1-1.7-0.8C239.6,473.4,239.1,473.4,238.5,473.4z"/>
	<path class="st0" d="M245.3,474.2c0.3-2.5,3.4-1.5,4.3-3.4c1,0.2,2.7-0.6,2.8,0.9c0.1,1.3-1.5,1.4-2.6,1.6
		C248.3,473.7,246.8,473.9,245.3,474.2z"/>
	<path class="st0" d="M240.2,473.4c1.3-1.3,1.5-0.2,1.7,0.8C241.2,474.2,240.6,474.1,240.2,473.4z"/>
	<path class="st5" d="M95.5,398.5c0.8,0,1.7,0,2.5,0c0.3,0.4,0.5,0.5,0.8,0c0,0,0.1-0.2,0.1-0.2c0.7,0.3,1.4,0.5,2.2,0.8
		c0.5,0.4,1.5,1.3,0.7,1.4C99.4,401.1,96.4,402.6,95.5,398.5z"/>
	<path class="st4" d="M355.1,119c1.6,0.9,3.2,2,5.2,1.9c-0.1,1.7,1.2,2.5,2.2,3.5c5,4.6,10.1,9.1,15.3,13.8
		c-1.6,1.2-3.3,0.9-4.6-0.5c-3.2-3.3-6.1-6.8-11.5-5.7c-1,0.2-1.5-0.7-0.6-1.6c2.1,0,3.3-0.5,1.3-2.5c-2.4-2.4-4.9-4.6-7.3-6.9
		C355.1,120.2,355.1,119.6,355.1,119z"/>
	<path class="st0" d="M355.1,120.8c2.4,2.3,5,4.5,7.3,6.9c2,2,0.8,2.5-1.3,2.5c-1.1-1.3-3-0.6-4.2-1.7c-0.9,0-1.7,0-2.6,0
		c-0.3-0.3-0.5-0.6-0.8-0.8c0-2.3,0-4.5,0-6.8C354,120.8,354.6,120.8,355.1,120.8z"/>
	<path class="st4" d="M354.3,128.5c0.9,0,1.7,0,2.6,0c-0.1,1.7-1.3,1.7-2.6,1.7C354.3,129.6,354.3,129,354.3,128.5z"/>
	<path class="st6" d="M354.3,128.5c0,0.6,0,1.2,0,1.7c-0.3,0-0.5,0-0.8,0c0-0.9,0-1.7,0-2.6C353.8,127.9,354,128.2,354.3,128.5z"/>
	<path class="st10" d="M146,92c0.4,0,0.8,0,1.2,0c-0.4,0.3-0.8,0.5-1.2,0.8C145.9,92.5,145.9,92.3,146,92z"/>
	<path class="st2" d="M233.3,69.9c-1.1-0.3-2.2-0.5-3.1-1.6c5.3-2,7.9-5.8,8.6-11.2c0.1-1,1.2-2.3-0.2-3c-1-0.5-1.7,0.7-2.3,1.4
		c-0.6,0.6-1.3,1-2,1.6c0-0.3-0.1-0.7-0.1-1c0.6-5.3,5.1-4.5,8.3-5c3.1-0.4,7.3-1.2,9.4,0.4c4,2.9,7.9,4.2,12.6,4.3
		c0.1,0,0.3,0.7,0.4,1.1c-2.4,1.9-4.9,3.8-7.7,5.1c-0.3,0-0.6,0-0.9,0c0-1.2-0.9-1.6-1.7-2.1c-3.9-2.6-8.1-3.4-12.7-3
		c-0.6,0.3-0.7,0.5,0,0.9l0,0c-0.2,1.8,0.7,2.3,2.4,2.7c3.1,0.9,6.4,1.5,8.7,4.1c-2.2,1.6-4,4.1-7.3,3.6c-0.8-0.1-1,0.8-1.2,1.5
		c-3.2-0.4-6.2,0.8-9.3,1.2C234.9,70,234.2,69.7,233.3,69.9z"/>
	<path class="st9" d="M215.1,82.9c-1.4,0.6-1.9-0.1-2.2-1.3c1.4-1.6,2.6-3.3,5-3.5C217.7,80.1,214,80.1,215.1,82.9z"/>
	<path class="st13" d="M233.3,69.9c0.9-0.2,1.5,0.1,1.8,1c-0.4,0.7-1.1,0.6-1.7,0.7C233.4,71,233.4,70.5,233.3,69.9z"/>
	<path class="st2" d="M127.8,412.1c-6.2-3.2-9.2-8.6-10.2-15.3c6.2-0.4,9.4,4.2,13.2,7.9c0.2,0.2,0.3,0.5,0.4,0.7
		c0.8,2.1,4.6,3.2,2.9,5.9C132.9,413.2,129.9,411.8,127.8,412.1z"/>
	<path class="st2" d="M149.1,405.3c3.5-1,6.1,1.2,8.8,2.6c3,1.5,6.1,3.2,7.6,6.8c0.8,1.8,2,3.9,4.9,3.9c1.8,0,2.6,2,3.5,3.4
		c1.3,2,0,3-1.7,3.9c-0.8,0.4-0.7,1.1-0.1,1.7c0.8,0.7,1.8,0.8,2.8,0.3c1.1-0.6,1.5-3,3.3-1.4c1.4,1.2-0.4,2.6-0.3,4
		c-2.4-2.1-5,0.3-7.4-0.4c-0.4-2.3-2.2-1.9-3.6-1.7c-4,0.6-6-1.5-7.2-4.8C157.1,416.8,154,410.5,149.1,405.3z"/>
	<path class="st8" d="M170.4,430.1c2.4,0.7,5.1-1.7,7.4,0.4c1.1,1,2,2.2,1.9,3.8c-0.3,0.4-0.6,0.8-1,1.2c-4.8,0.4-8.9-1-12.4-4.3
		C167.6,429.6,169.2,430.6,170.4,430.1z"/>
	<path class="st2" d="M178.7,435.5c0.3-0.4,0.6-0.8,1-1.2c1.7,0.6,3.4,1.1,5.1,1.7c1.8,1.9,3.4,3.9,2.6,6.8c-2.3-0.5-1.7-4-4.2-4.2
		C183,435.6,179.3,437.8,178.7,435.5z"/>
	<path class="st0" d="M166.8,434.2c0.3,0.4,0.5,0.7,0.7,0.9c-0.3,0.2-0.6,0.6-0.8,0.5c-0.3-0.1-0.5-0.5-0.8-0.8
		C166.1,434.6,166.4,434.4,166.8,434.2z"/>
	<path class="st1" d="M360.5,344c-2.2,3.1-4.3,6.1-6.5,9.2c0,0-0.4-0.1-0.4-0.1s-0.4,0.1-0.4,0.1c-1.4-0.1-3,0.6-4.1-0.8
		C351.8,348.1,355.7,345.5,360.5,344z"/>
	<path class="st6" d="M349.2,352.5c1.1,1.4,2.7,0.7,4.1,0.8c0.2,1.2,0.4,2.4-1.3,2.7c-3.2-3-7.8-1.3-11.3-3.5
		C343.5,351.2,346.3,353.1,349.2,352.5z"/>
	<path class="st1" d="M362.3,343.2c-0.2,0.5-0.5,0.8-1.1,0.7C361.5,343.6,361.9,343.4,362.3,343.2z"/>
	<path class="st2" d="M184,371.2c-0.6,0-1.1,0-1.7,0c-2.6-3-4.5-6.7-8.6-9.2c0.7,4.7,5.1,6.3,6,10c-5.9-0.1-11.5,1.6-17,3.5
		c-0.3,0-0.6,0-0.9-0.1c-7.5-14-17.7-25.6-30.6-34.9c-0.7-0.5-1.2-1.2-1.8-1.7c5.6-3.6,10.8-0.3,15.8,1.3c6.2,2,11.2,6.2,16,10.6
		c1.9,1.8,1.8,4.7,5.1,6.1c3.2,1.3,5.9,2.6,9.6,3.2c4.3,0.7,8.1,4.7,12.2,7.4C186.6,368.9,185.3,370.1,184,371.2z"/>
	<path class="st2" d="M124.4,356.7c1.4-0.2,2.5-1.3,1.1-2.1c-5-2.9-8.3-7.9-13.4-10.7c-1.7-1-3.5-1.6-5.5-1.7
		c-3.2-2.7-6.4-5.2-6.7-10c-0.2-3.5,1.5-5.8,4.8-4.8c4.7,1.4,9.9,2,13,6.7c1.2,1.8,3.3,1.3,5.1,1.3c1.7,3.5,5.3,5.2,7.7,8
		c5.6,6.4,13.1,10.8,18.7,17.2c0.9,1,3.3,1.9,1.6,3.5c-1.4,1.3-3.3,2.8-5.6,1c-2-1.6-4.5-2.3-7.1-2.5c-0.7-2-2-2.6-4.1-2.6
		c-2.4,0.1-4.7,0.2-6.9,0.9C124,360.8,122.4,359.8,124.4,356.7z"/>
	<path class="st2" d="M158.4,375.5c-4.8,2.5-9.5,2.8-14.2-0.5c-0.9-0.6-2.4-0.2-3.7-0.3c0,0,0,0,0,0c0.1-3.7-2.5-2.4-4.4-2.4l0,0
		c0-1.9-0.7-3.5-2.4-4.4c0-1.1,0-2.3,0-3.4c1.4,0,2.8,0,4.2,0c5.1,2,10,4.2,15.7,4.5C156.8,369.1,158.3,372.2,158.4,375.5z"/>
	<path class="st6" d="M133.7,367.8c1.7,1,2.4,2.5,2.4,4.4c-1.5-0.1-2.4-2.4-4-1.5c-1,0.5-0.4,2,0,3c-3.1,0.7-1.9-2.5-3.2-3.4
		c0-2.5-0.9-4.6-2.8-6.2c0.3-1,0.6-2.1,0.8-3.1c2.3-0.7,4.6-0.8,6.9-0.9c2.1-0.1,3.5,0.6,4.1,2.6c0,0.6,0,1.1,0,1.7
		c-1.4,0-2.8,0-4.2,0c-0.1-0.8,0.2-1.9-0.8-2.1c-1-0.2-1.5,0.6-1.6,1.5C131,365.7,131.1,367.5,133.7,367.8z"/>
	<path class="st10" d="M117.6,407.8c-0.4-4.2-3.9-5.4-7.4-6.8c4.7-1.2,9.2,2.2,9,6.5C119.1,408.6,118.2,407.9,117.6,407.8
		C117.6,407.8,117.6,407.8,117.6,407.8z"/>
	<path class="st10" d="M120.7,409.8c0.1,0,0.2-0.1,0.3-0.1c0,0.2,0.1,0.3,0.1,0.5c-0.1,0-0.2,0-0.3-0.1
		C120.7,410.1,120.7,409.9,120.7,409.8z"/>
	<path class="st4" d="M98,178.7c1.9,0.6,2.7-1.6,4.3-1.7c-1.6,4-4.4,7.6-3.5,12.5c0.7,3.6,1.9,7,2.7,10.5c0,0.7-0.2,1.4-0.9,1.8
		c-3.8-6.5-4-13.4-2.9-20.6C97.7,180.4,97.9,179.5,98,178.7z"/>
	<path class="st4" d="M102.2,176.2c0.6-2.6,1.7-4.8,4.3-6C105.6,172.6,105.5,175.5,102.2,176.2z"/>
	<path class="st4" d="M106.5,170.2c0.1-1.2-0.4-2.5,0.9-3.4c0,0,0.4,0,0.4,0l0.4,0c-0.2,1.1-0.4,2.3-0.6,3.4
		C107.1,170.2,106.8,170.2,106.5,170.2z"/>
	<path class="st8" d="M367.2,157.1c2.9,5.6,8.1,7.9,13.9,9.8c-8.3,5.8-16.5,3.1-23-7.1c-1.9-0.4-0.6,2.5-2.6,2.2
		c-0.4-2.8-0.8-5.7,0.4-8.5c0.6-1.3,1.5-2,3-2c1.3,0,1.8,0.6,2.4,1.8C362.3,155.8,364.3,157.2,367.2,157.1
		C367.2,157.1,367.2,157.1,367.2,157.1z"/>
	<path class="st0" d="M164.3,382.6c-0.1,0.9-0.6,1.4-1.4,1c-1.1-0.6-3.1,0.3-3.3-1.7c-0.1-1.1,1-1.3,1.8-1.1
		C162.6,380.8,163.8,381.2,164.3,382.6z"/>
	<path class="st0" d="M91.2,233.2c-0.2,4.1-3.1,7.7-2.6,11.9c-3.2,3.3-3.5,8.1-5.8,11.9c-0.4,0.6-0.7,1.2-1,1.8
		c-3.3,0.1-2.8-2.3-2.4-4.1c0.5-2.1,0.8-4.1,0.5-6.2c0,0,0,0.1,0,0.1c1.5-1.1,1.8-2.8,2.6-4.3c0.9-1.7,0.2-4.2,2.3-5.2
		c3-1.5,3.1-4.1,3-6.8C89,232.6,90.1,232.9,91.2,233.2z"/>
	<path class="st2" d="M187.4,442.7c1,0.6,0.8,1.6,0.8,2.5C187.2,444.7,187.4,443.7,187.4,442.7z"/>
	<path class="st2" d="M188.2,447c-0.3,0.3-0.5,0.6-0.8,0.8C186.7,446.6,187.9,447.2,188.2,447z"/>
	<path class="st2" d="M227.1,60.9c-0.3-0.4-0.6-0.8-0.9-1.2c1.6-0.3,3.2-1.4,4.9,0c-0.7,1.2-2,1.5-3.1,2
		C227.7,61.4,227.4,61.2,227.1,60.9z"/>
	<path class="st8" d="M297.3,47.7c-1.3-0.3-3.2,0.5-3.3-1.4c-0.1-1.9,1.2-4.4,2.8-4.2c3.8,0.4,6.2-2.3,9.4-3.1
		c1.7-0.4,4.1-2.1,4.9-0.1c0.7,2-0.9,4.6-3,5.5C304.6,45.9,300.8,46.7,297.3,47.7z"/>
	<path class="st6" d="M355.1,120.8c-0.5,0-1,0-1.6,0c0-2.4,0-2.4,1.6-1.9C355.1,119.6,355.1,120.2,355.1,120.8z"/>
	<path class="st12" d="M434.3,396.8c-0.9-0.3-1.1-0.9-0.9-1.7C434.2,395.4,434.3,396.1,434.3,396.8z"/>
	<path class="st12" d="M433.4,395.1c-0.9-0.3-1.2-0.8-0.9-1.7C433.4,393.7,433.5,394.4,433.4,395.1z"/>
	<path class="st8" d="M377.4,313.2c0.8,4.5-1.4,8-1.5,11.9c0,1.5-2.2,3.1-4.2,2.6c-2.3-0.6-0.6-2.3-0.6-3.5
		C371.2,319.4,373.4,316,377.4,313.2z"/>
	<path class="st8" d="M82,276.4c0.3,0.2,0.6,0.3,0.9,0.5c-0.2,2.1,4,1.5,2.6,3.3c-1.3,1.8-4.2,1-6.3,0.5c-1.7-0.4-2.5-2.3-3-3.8
		c-0.5-1.5,1.8-1,2.2-2c1,0.1,2,0,2.8,0.7C81.4,275.9,81.7,276.1,82,276.4z"/>
	<path class="st7" d="M82,276.4c-0.3-0.3-0.6-0.5-0.8-0.8C81.4,275.9,81.7,276.1,82,276.4z"/>
	<path class="st6" d="M402.9,404.4c0.3-0.9,0.5-1.7,0.8-2.6c1.2-0.5,1.9-1.8,3.4-1.7C406.6,402.5,405.2,403.9,402.9,404.4z"/>
	<path class="st6" d="M407.1,400.1c0-1.1,0.6-1.6,1.6-1.7C408.8,399.5,408.3,400.1,407.1,400.1z"/>
	<path class="st6" d="M409.6,397.6c0.3-0.3,0.6-0.5,0.9-0.8C410.2,397,409.9,397.3,409.6,397.6z"/>
	<path class="st6" d="M410.5,396.7c0.3-0.3,0.5-0.6,0.8-0.8C411.1,396.2,410.8,396.4,410.5,396.7z"/>
	<path class="st4" d="M252.9,64.6c-2.3-2.6-5.6-3.2-8.7-4.1c-1.6-0.5-2.6-0.9-2.4-2.7c4.5,0.6,8.7,2.2,12.8,4.3
		C254.7,63.3,254.7,64.6,252.9,64.6z"/>
	<path class="st3" d="M254.7,62c-4.1-2.1-8.3-3.7-12.8-4.3c0,0,0,0,0,0c0-0.3,0-0.6,0-0.9c4.6-0.5,8.8,0.4,12.7,3
		c0.8,0.5,1.7,1,1.7,2.1C255.8,62,255.3,62,254.7,62z"/>
	<path class="st10" d="M120.4,172.3c0.8-2.1,0-4.6,1.2-6.6c1.6,1.5,1.1,3.6,1.6,5.4c-0.1,0.2-0.3,0.4-0.4,0.6
		C122,171.7,121.7,173.8,120.4,172.3z"/>
	<path class="st10" d="M124.2,158.4c0.6,2.1-1.4,3.8-0.7,5.9c-0.6,0-1.1,0-1.7,0c0.2-2,0.5-4,0.7-5.9
		C123.1,158.3,123.7,158.4,124.2,158.4z"/>
	<path class="st6" d="M138.7,374.8c-1.6-0.2-1.7-1.7-2.6-2.6c1.9,0.1,4.5-1.2,4.4,2.4C139.9,374.7,139.3,374.7,138.7,374.8z"/>
	<path class="st0" d="M104.8,401.8c-0.3,0-0.6,0-0.9,0C104.2,400.9,104.5,401.1,104.8,401.8z"/>
	<path class="st7" d="M247.4,443c-4,5.5-7.2,0.4-11.7-0.9c4.1-1.2,7.2-2.5,10.5-0.6C246.3,442.3,246.8,442.7,247.4,443z"/>
	<path class="st5" d="M133.8,173.8c1.4-1.6,2.7-2.1,4.2-2.5C137.7,174.3,137.6,174.4,133.8,173.8z"/>
	<path class="st6" d="M80,242.6c3.1-5.8,3.4-11.6,0.9-17.8c-1.6-4-2.5-8.3-1.8-12.7c0.2-1.3,0.5-2.6,0.7-3.9
		c0.2-0.2,0.4-0.3,0.6-0.5c1.5,0.3,1,1.2,0.9,2.2c-0.7,5.3-0.5,10.6,2,16.4c0.3-4.2,0.4-7.4,0.6-10.7c0.5,0.1,0.9,0.3,1.4,0.4
		c0,4.1,0.1,8.2-0.2,12.2c-0.2,2.2,0.8,3,2.6,3.3c0.1,0.2,0.2,0.4,0.2,0.7c0.1,2.7-0.1,5.3-3,6.8c-2,1-1.4,3.5-2.3,5.2
		c-0.8,1.5-1.1,3.2-2.6,4.3C79.2,246.5,82,244.6,80,242.6z"/>
	<path class="st0" d="M224,465.7c6-0.8,6-0.8,6.8,4.3C227.1,470.8,225.5,468.4,224,465.7z"/>
	<path class="st5" d="M384.2,121c3.4-1.4,6.7-0.9,9.9,0.7c1.1,0.6,1.8,1.2,1.8,2.5c-3.1,0.8-6,2.1-9.4,1.7
		C382.3,125.3,381.9,124.5,384.2,121z"/>
	<path class="st12" d="M98.8,398.6c-0.3,0.5-0.6,0.4-0.8,0C98.2,398.5,98.5,398.5,98.8,398.6z"/>
	<path class="st9" d="M109,376.4c-0.5-0.1-0.9-0.3-0.9-1C108.4,375.8,108.7,376.1,109,376.4z"/>
	<path class="st3" d="M179.7,372c-0.9-3.7-5.3-5.3-6-10c4.1,2.5,6,6.2,8.6,9.2C181.7,372.2,180.7,372,179.7,372z"/>
	<path class="st10" d="M87.7,231.5c-1.8-0.3-2.8-1.1-2.6-3.3c0.3-4.1,0.1-8.2,0.2-12.2c0.2,0,0.4-0.1,0.6-0.1
		c1.5,2.8,1.3,5.9,1.9,8.9c0.2,1.1,0.3,2.2,1.3,2.9C88.6,229,88.2,230.3,87.7,231.5z"/>
	<path class="st3" d="M130.9,141.5c-1,2.4-1.7,5.6-4.8,1.5C127.1,140.8,129.1,141.3,130.9,141.5z"/>
	<path class="st2" d="M227.9,61.6c-0.2,0.7-0.4,1.9-0.9,1.7c-1.3-0.6-0.5-1.6,0.1-2.4C227.4,61.2,227.7,61.4,227.9,61.6z"/>
	<path class="st1" d="M149.9,96.1c-0.4,0.2-0.8,0.4-1.1,0.7C149.2,96.5,149.6,96.3,149.9,96.1z"/>
	<path class="st1" d="M88.9,202.9c1.2,0.5,1.8,1.3,2.2,2.5c1.3,3.7,1.4,7.7,4.1,10.9c0.7,0.9,0.6,3.1-1,3.6
		c-1.7,0.6-1.8-1.4-2.2-2.4c-1.3-3.8-1.9-7.9-4-11.5C87.5,205.1,87.1,203.5,88.9,202.9z"/>
	<path class="st7" d="M85.8,215.9c-0.2,0.1-0.4,0.1-0.6,0.1c-0.5-0.1-0.9-0.3-1.4-0.4c-0.1-1.8-0.2-3.6-0.2-5.4c0-1,0.3-2.1,1.5-2.1
		c1.3,0,1.4,1.2,1.6,2.1C87.2,212.2,86.5,214.1,85.8,215.9z"/>
	<path class="st11" d="M124.2,158.4c-0.6,0-1.1,0-1.7-0.1c-0.8-3.4,0-7.1-2-10.3c3.7,0.5,1.8,5.8,5.5,6.5
		C126.6,154.6,125.2,157.2,124.2,158.4z"/>
	<path class="st1" d="M108.1,166.8l-0.4,0c0,0-0.4,0-0.4,0c0.3-0.3,0.6-0.6,0.9-0.8C108.2,166.3,108.2,166.5,108.1,166.8z"/>
	<path class="st4" d="M241.9,56.9c0,0.3,0,0.6,0,0.9C241.3,57.5,241.3,57.2,241.9,56.9z"/>
	<path class="st10" d="M133.7,367.8c-2.6-0.2-2.7-2.1-2.4-4c0.1-0.9,0.6-1.8,1.6-1.5c1,0.2,0.7,1.4,0.8,2.1
		C133.7,365.5,133.7,366.7,133.7,367.8z"/>
</g>
</svg>
