<?xml version="1.0" encoding="utf-8"?>
<!-- Generator: Adobe Illustrator 26.5.0, SVG Export Plug-In . SVG Version: 6.00 Build 0)  -->
<svg version="1.1" id="Layer_1" xmlns="http://www.w3.org/2000/svg" xmlns:xlink="http://www.w3.org/1999/xlink" x="0px" y="0px"
	 viewBox="0 0 618.5 550.9" style="enable-background:new 0 0 618.5 550.9;" xml:space="preserve">
<style type="text/css">
	.st0{fill:#F5A385;}
	.st1{fill:#E44C21;}
	.st2{fill:#FAE2DD;}
	.st3{fill:#BE6A4A;}
	.st4{fill:#FDC863;}
	.st5{fill:#62210E;}
	.st6{fill:#FDE8E3;}
	.st7{fill:#DDBCB5;}
	.st8{fill:#0B0705;}
</style>
<path class="st0" d="M276.1,517.6c-30.2,0.4-57.9-4.6-84.6-15.3c-19.9-8-38-18.9-54-33.2c-31.6-28.2-50.3-63.7-58.5-105
	c-3.5-17.8-4.3-35.8-3.6-53.9c0.2-4.8,0.9-9.6,0.9-14.4c0-13.4-6.1-24-15.8-32.7c-21-18.7-35.5-41.1-40.1-69.2
	c-5.4-32.6,3.8-61.4,23.7-87.1c16.1-20.8,36.9-35.4,60.9-45.8c14.6-6.3,29.7-10.5,45.4-12.8c15.9-2.3,31.8-2.6,47.8-1
	c10.8,1.1,21.2,3.6,31.7,6c8.2,1.9,16.4,0.8,24.1-2.8c12.3-5.8,24.4-11.9,37.3-16.5c18.7-6.7,37.9-11.9,57.5-14.9
	c14.2-2.2,28.5-3.3,42.8-3.1c33.1,0.6,64.8,7.2,94.5,22.3c33.9,17.2,60.1,42.4,78.2,76c11.1,20.6,17.8,42.5,21.2,65.6
	c2.2,14.7,2.7,29.5,1.9,44.2c-1.8,32.5-9.8,63.7-22.7,93.6c-12.1,28.1-28.1,53.9-47.4,77.5c-15,18.4-31.8,35-50.3,50
	c-19.4,15.8-40.3,29.4-62.7,40.5c-26.4,13.2-54.2,22.7-83.3,27.9c-7.7,1.4-15.4,2.4-23.1,3.1C290,517.5,282.3,517.7,276.1,517.6
	L276.1,517.6z M81.8,188.6c0.7-0.1,1.2-0.3,1.4-1c0.1-0.3-0.2-0.5-0.5-0.4c-0.7,0.1-1,0.6-1.1,1.3c-0.8,0-1.5,0.1-1.7,1.1
	c-4.2,1.1-7.7,4.1-12.1,4.5c4.7,0.1,8.6-1.6,12.2-4.4C80.9,189.6,81.5,189.3,81.8,188.6L81.8,188.6z M430,292.6
	c0-0.8-0.4-1.4-1.1-1.6l0,0c-6.1-8.9-9.9-19-14.1-28.9c-0.7-1.6-0.6-3,0.2-4.5c3.8-8,7.6-16,11.1-24.1c4.1-9.4,7.4-19.1,11.1-28.7
	c7.4-19.4,14.6-38.9,21-58.7c4.2-13.1,5.6-26.3,3.9-39.9c-0.3-2.6-0.5-5.7-3.3-6.9c-5.3-2.2-10.9-2.4-16.4-1.2
	c-4,0.9-7.9,2.1-11.8,3.2c-0.2-2.2-0.6-4.4-3-5.3c-5.3-2.1-10.8-2.5-16.2-1.1c-18,4.8-35.2,11.7-51.6,20.7c-0.6-2.7-1-5.4-1.8-8
	c-1.4-4.3-2-8.9-5.4-12.3c-0.1-0.1-0.2-0.2-0.4-0.4c-2.8-2.6-5.7-1-10,2.7v0c-1.1,0.1-1.7,0.8-2.2,1.7l0,0c-2.1,1-3.5,2.8-5.1,4.4
	c-0.5,0.4-1,0.9-1.5,1.4c-1.8,1.6-3.6,3.1-5.4,4.7c-0.2-1-0.4-1.9-0.6-2.9c-1-4.2-2.1-8.4-4-12.3c-1.7-3.4-4.9-4.9-7.5-3.4
	c-3.7,2.1-7.2,4.6-10.3,7.5c-10,9.5-20.1,18.8-29.8,28.7c-0.2,0.3-0.5,0.5-0.8,0.7c-4.4,3.6-8.5,7.5-11.5,12.2
	c-4.8,7.6-12.3,11.3-20.8,14.9c1.1-2.2,1.9-3.9,2.7-5.6c0.2-0.5,0.5-1.1-0.1-1.4c-0.5-0.3-0.8,0.2-1.1,0.5
	c-6.7,6.5-14.9,10.5-23.2,14.3c-4,1.8-8.3,3.3-11.8,6.1c-7.9,6.5-15.9,13.1-23.4,20.1c-5,4.6-10.6,6.2-17.1,5.5
	c-11.1-1.1-22.2-0.3-33.3,0.5c-2.2,0.2-4.3,0.5-6.6-0.4c-5.2-1.9-10.6-3.2-16.2-1.9c0.8-1.9,3.4-2,4-4.2c-5.6,3.7-11,7.8-18,8.6
	c1,0.7,1.9,0.5,2.8,0.3c3.3-0.7,6.1-2.5,9.2-3.7c-1.1,3.7-2,7.6-0.8,11.1c1.8,5.2,0.6,10.1,0.3,15.2c-0.2,4.2-0.2,8.3,1.4,12.2
	c1.5,3.8,4.7,6.1,7.8,8.4c3.2,2.4,6.8,3.9,9,7.9c3.1,5.8,9.4,8,15.5,9.5c7.4,1.8,15.1,2.3,22.5,4.4c12.5,3.6,24.4,8.2,31.9,19.9
	c3.2,5,5.8,10.1,4,16.4c-3.8,12.8-11.5,22.3-22.9,29c-0.5,0.3-1.7,0.2-1.2,1.2c0.4,0.8,1.2,0.3,1.9,0.1c2.8-1,5.6-1.9,8.4-2.9
	l0.1,0.1c0.1,0.8-0.3,1.4-0.7,2c-3.6,5.7-6.4,11.7-8,18.3c-2.2,9.1-2.2,18,0.5,27c0.2,0.6,0.3,1.5,1.6,1.5
	c-0.9-6.4-0.5-12.6,2.7-18.3c-0.7,7-0.5,13.7,3.5,20c3.1,4.9,7,9,11.1,12.9c0.8,0.8,2,1.6,3.2,1.4c4.3-0.5,7,2.3,10.2,4.3
	c4.2,2.6,7.8,6.5,13.2,7.1c1.2,0.1,2.5,0.2,3.1-1c0.6-1.4-0.8-1.7-1.6-2.4c-5.8-4.3-10.9-9.3-11.4-17c-0.2-2.6-2.1-5.4,0.3-8
	c0.7,0.5,0.4,1.3,0.5,2c0.1,0.6,0.1,1.5,1.2,1c1.6,0.2,0.9,2.6,2.5,2.7c0.1,2.5,1.9,4.2,3.4,5.9c1.1,4.5,4.3,7.5,7.7,10.5
	c1.8,1.5,3.6,2.9,5.8,1.9c1.7-0.7,3-0.5,4.5,0c0.2,0,0.4,0.1,0.5,0.1c0.4,2.6,3,2.9,4.5,4.3c3.3,3.3,7.8,4.1,12,5.4
	c1.9,0.6,3.8-0.1,4.5-2c0.8-2-0.4-3.4-2.3-4.3c-1.8-0.8-3.7-1.4-5.1-3c-2.7-2.9-5-6-6.5-9.6c-0.3-0.7-0.4-1.5-1.2-1.6
	c-2-0.5-2.4-2.2-2.6-3.8c-0.2-2.4-0.1-4.9-0.1-7.3c0-0.5,0-1.2,0.6-1.3c0.8-0.2,1.2,0.3,1.4,1c0.6,2.3,1.7,4.4,1.7,6.8
	c-0.1,2.3,1,3.9,2.4,5.5c1.9,2.1,4.1,3.5,6.7,4.4c2.9,1,4.8,0,4.5-3.1c-0.7-7.5,3-13.6,6.2-19.9c0.4-0.7,1-1.3,1.7-1.7
	c0.6-0.4,1.5-0.3,1.2,0.6c-0.7,2.2-0.3,4.6-1.4,6.8c-0.7,0.1-0.6-2.6-1.6-0.8c-2.6,4.5-5.3,9.2-4.1,14.8c0.5,2.2,0,3.5-2,4.3
	c-1,0.4-1.7,1-1.5,2.3c0.1,0.8,0.6,1.3,1.3,1.6c1.2,0.5,2-0.5,2.4-1.2c1.7-2.7,4.2-5.1,3.9-8.7c-0.1-0.7,0.2-1.2,1-1.4
	c0,1.9,0.1,3.8,0.1,5.7c0,4.2,1.9,7,5.7,8.6c1,0.4,2.1,0.8,3-0.1c0.8-0.8,1.2-1.8,0.9-3c-1.1-3.6-0.8-6.7,1.2-10.2
	c4.3-7.4,9.7-13.3,17.6-16.9c-1.6,3.5-3.9,6.6-6.2,9.8c-2.9,3.9-6.9,6.6-10.7,9.3c-1.3,0.9-2.1,1.9-1.4,3.4c0.6,1.4,1.9,1.2,3.3,1
	c3.3-0.6,6.4-1.8,9.5-2.8c-0.4,2.6-1.5,5-1.6,7.7c0,1.8,0.3,3.6,2.2,4.2c1.7,0.5,2.7-1,3.7-2.2c2.8-3.6,5.1-7.4,8.3-10.7
	c1.5-1.5,2.5-3.7,2.5-6.1c1-2.3,3.5-3,5-4.9c1.1,0.1,1.6-0.5,1.7-1.6c0.9,0,1.4-0.7,2.1-1.2c0.8,0.1,1.2-0.2,1.2-1
	c2.1-0.4,3.5-2.1,5.4-2.8c1.4-0.2,2.8-0.5,3.4-2c0.7-0.2,1.4-0.4,2.1-0.6c0.6,1.1,0.9,2.2,0.3,3.4c-2.7,5.2-5.5,10.3-10.2,14.1
	c-1.1,0.9-2.4,1.7-2.6,3.3c-0.2,0-0.3,0.1-0.5,0.1c-0.6,0.2-1.2,0.3-1.7,0.5c0-1.5,0.9-2.7,1.6-4c2.2-4.1,5-7.7,8-11.2
	c0.3-0.4,0.9-0.8,0.5-1.4c-0.4-0.5-1-0.3-1.5,0c-1.8,1-3.6,2.1-5.4,3.2c-4,2.5-5.7,6.4-6.5,10.8c-0.4,2,0.2,3.5,2.7,3
	c-0.5,1.1-0.8,2.1-2,2.8c-1.3,0.7-0.8,1.7,0.4,2.1c2.3,1,9.8-1.1,11.5-3.1c0.9-0.2,1.8-0.5,2.7-0.7c0.9-0.1,1.9-0.6,2.6-0.4
	c3.1,1.2,5.2-0.3,7.1-2.5c3.4-3.8,6.9-7.6,10.4-11.4c0.4-0.5,0.8-1,1.6-0.9c0.6,0.1,0.6,0.6,0.6,1c-0.1,0.6-0.9,1.5,0.1,1.8
	c0.8,0.3,1.2-0.7,1.7-1.1c1.9-1.9,3.1-4.5,6-5.2c0,1-0.8,1.6-1.4,2.2c-2.2,2.1-3.9,4.5-5.4,7c-0.4,0.6-1.2,1.2-0.5,1.8
	c0.8,0.6,1.3-0.4,1.6-0.9c1-1.6,2.5-2.6,3.6-4c1.9-2.2,4.8-3.5,6.4-6c2.5-1.5,5.1-3,7.6-4.6c0.5,0.1,0.9,0,1-0.5
	c0.9,0.6,0.6,1.6,0.6,2.4c0.1,2.1,0.1,4.2,0.1,6.4c0,1.9-0.4,4,1.4,5.4c0,0.8,0.1,1.5,0.1,2.2c-0.6,0.4-0.6,0.7,0.1,1
	c0,0.4,0,0.8,0.1,1.1c0.1,1.6,1.1,2.5,2.5,2.6c1.4,0.2,2-1.1,2.5-2.1c0.7-1.6,1.4-3.1,2-4.7c1.3-3.6,3.9-6.4,5.3-9.9
	c1.6-2.5,3.4-4.6,6.6-5c5.8,2.2,11.9,3.2,18,4.4c0.9,0.2,2.1,0.3,2.6-0.9c0.6-1.2-0.3-2-1-2.8c-1-1.2-3-1.5-3.2-3.4
	c1.8,0.7,3.6,1.2,5.2,2.1c8.1,4.7,17.3,6.1,26.2,8.2c1,0.2,2,0.2,3,0c1.6-0.2,2.1-1.2,1-2.4c-0.9-1.1-2-2-3.2-3
	c-2.9-2.4-5.5-4.9-6.8-8.6c-0.8-2.3-0.4-3,2.1-2.8c2.1,0.2,4.1,0.5,6.1,1c8.8,2,17.8,2.2,26.7,1.5c4-0.3,8.1,0.3,12.1-0.9
	c1.5-0.4,3.2-0.6,3.2-2.7c-0.1-2.1-1.8-2.5-3.4-2.8c-7-1.1-13.3-4.3-19.5-7.6c-1.5-2.2-3.6-3.8-5.4-5.8c0-0.2-0.1-0.2-0.2-0.2
	c-9.5-11.8-15.5-25.5-21.3-39.9c1.2,0.6,1.9,1,2.5,1.3l0,0c3.5,3.5,7.5,6.2,12.4,7.5c-3-2.5-5.4-5.5-8.5-7.8
	c-0.6-0.6-1.2-1.3-1.9-1.9c-1-1.2-2-2.4-3-3.5c0-0.2-0.1-0.3-0.2-0.3c-0.7-1-1.3-2.2-2.5-2.7l0,0C431.5,293.8,431,293,430,292.6
	L430,292.6L430,292.6z M171.2,168.4L171.2,168.4c1.3-0.2,2.1-1.1,2.7-2.2l-0.1,0.1c1.1-0.2,1.8-0.9,2.5-1.7c0.4-0.4,0.9-0.9,1.3-1.3
	c0.4-0.8,2.4-0.6,1.6-2.2c0.1-0.1,0.1-0.2,0.2-0.2c2.1,0.3,2.7-1.7,4.2-2.4c-5.4,1-10.2-0.3-14.8-2.6l0.1,0.1
	c-0.5-1.5-2.4-1.3-3.1-2.4c0.9-0.8,1.7-1.4,2.5-2.1c4.2-3.8,4.9-9.4,7.1-14.3c0.2-0.5,0.3-1.3-0.8-1.3c-1,0-2,0-3,0l0,0
	c0.2-1-0.1-1.4-1.1-1.1l0,0c0.5-1.7-1-3.1-0.7-5c0.5-3.2,1.4-6.2,2.5-9.2c0.9-2.6,2.6-4.7,4.1-6.9c-4.8,3.1-9.8,5.5-14.1,9.2l0.1,0
	c-6.8,4-14.5,5.9-21.3,9.8c-1.8-1.9-2.5-4-2.2-6.7c0.2-1.9,0.7-3.7,1.3-5.5c1.2-3.5,2.5-7,5.2-9.8c-6.4,3.4-12,7.7-18.3,11.1
	c-0.2-0.7-0.2-1.6-1.1-0.5c-0.6,0.7-1.1,1.5-1.7,2.2c-7.6,2.3-14.9,5-19.8,11.5c-3.7-5.5-8.8-10.2-8.9-17.5c-3.4,4-5,8.3-5.3,13.3
	c-2.6-1.7,0-4.2-1.3-5.9c-0.7,0-0.7,0.4-0.8,0.7c-1.3,6.5-3.1,13-1.3,19.7c0.4,1.7,0.6,3.5,0.9,5.3l-0.1,0.1
	c-5.9-0.2-10.1-3.6-13.8-7.7c-0.4-0.4-0.6-1.3-1.4-1c-0.9,0.4-0.3,1-0.2,1.6c0.4,3.5,1.6,6.8,3.3,9.9c0.2,0.4,1,1.5,0.3,1.5
	c-2.5,0.2-0.7,1.4-0.5,1.9c1.5,3.4,3.8,6.1,7.2,7.9c-4.1,2.8-8.3,4.9-13.5,4.3c1.9,1,4,1.6,5.6,3.1c1.9,1.8,4.4,2.4,6.5,3.7
	c3.1,1.9,7.2,0.2,9.8,3.2c0,0,0.4-0.2,0.6-0.4c0.8-1.2,1.1-0.4,1.7,0.2c2.8,2.8,5.6,5.6,9,7.7c2.7,1.5,5.5,1.9,8.6,1.7
	c-0.8-0.8-1.8-1.3-2.7-1.9c-2.8-2-3.4-7.3-1.2-9.5l0.1,0.1c-0.8,1.5,0.8,1.7,1.3,2.1c3.3,2.7,7.2,4.1,11.3,5.2
	c-0.7,1.4-2.4,2.1-2.7,4c1.2-0.2,1.7-1.2,2.3-1.8c0.7-0.7,1.2-1.5,1.9-2.2c0.5-0.6,1.1,0,1.7,0c-0.1,0-0.2,0-0.3-0.1
	c-0.9-0.4-0.9-0.9-0.4-1.7c0.4-0.8,1.1-1.2,1.9-1.5l0,0c0.3,1.9,3.4,4.9,5.2,4.9c0.1,0.1,0.2,0.1,0.2,0.2c-0.8,1.4,0.6,1.6,1.2,2.1
	c3.2,2.5,8.4,4.3,11.2,3.2c-5.1-3.5-6.3-6-4.9-10.6c0.8,0.4,1.5,0.9,2.2,1.4l-0.1-0.1c4.4,4,9.8,5.4,15.5,5.8
	c-1.2-1.5-3.3-1.7-4.4-3.5c8.4,0.2,14.8-4.1,21.7-8.1c-3.9-0.7-7.6-1.3-11.7-2c3-0.5,5.1-1.8,7.3-3.1c0.5-0.3,1.6-0.5,1.1-1.6l0,0
	C170.1,170,170.7,169.3,171.2,168.4L171.2,168.4z M88.6,182.3c-0.5-0.3-0.8,0.1-1.1,0.4c-0.3,0.4-0.9,0.7-0.5,1.3
	c0.5,0.3,0.8-0.1,1.1-0.4C88.4,183.2,88.9,182.9,88.6,182.3L88.6,182.3z M90.1,179.9c-0.3,0.2-0.5,0.4-0.6,0.6
	c-0.1,0.2,0,0.6,0.1,0.7c0.4,0.1,0.6-0.2,0.7-0.5C90.3,180.4,90.2,180.2,90.1,179.9L90.1,179.9z M84.6,186.8
	c0.1-0.2,0.3-0.4,0.3-0.6c0,0-0.3-0.3-0.3-0.2c-0.2,0.1-0.3,0.3-0.4,0.4C84.2,186.6,84.4,186.7,84.6,186.8z"/>
<path class="st1" d="M459.9,348.2c6.2,3.4,12.4,6.5,19.5,7.6c1.7,0.3,3.4,0.7,3.4,2.8c0.1,2-1.7,2.2-3.2,2.7
	c-4,1.2-8.1,0.6-12.1,0.9c-8.9,0.6-17.9,0.4-26.7-1.5c-2-0.5-4.1-0.8-6.1-1c-2.5-0.2-2.9,0.5-2.1,2.8c1.2,3.7,3.8,6.3,6.8,8.6
	c1.1,0.9,2.2,1.9,3.2,3c1.1,1.3,0.6,2.2-1,2.4c-1,0.1-2,0.2-3,0c-9-2.1-18.1-3.5-26.2-8.2c-1.6-0.9-3.5-1.4-5.2-2.1
	c-6.7-3.5-12.4-2.6-16.3,2.7c-3.2,0.3-5,2.5-6.6,5c-0.3,0.1-0.8,0.1-1,0.4c-2.9,3.8-6,7.5-7.3,12.1c-0.7,2.4-1.8,3.2-4,1.6
	c0-0.4,0-0.8-0.1-1.1c0.5-0.4,0.5-0.7-0.1-1c0-0.8-0.1-1.5-0.1-2.2c-0.3-1.8,0.2-3.9-1.4-5.4c0-2.1-0.1-4.2-0.1-6.4
	c0-0.9,0.3-1.8-0.6-2.4c-0.8-0.7-0.9-0.2-1,0.5c-2.5,1.5-5.1,3-7.6,4.6c-0.7-0.3-1.4,0.8-1.9,0c-0.4-0.6,0.3-1.3,0.6-1.8
	c0.3-0.5,0.8-1,0.6-1.6c0.1-0.2,0.2-0.3,0.3-0.5c0.7,0,1-0.4,0.9-1.1c0.1-0.2,0.2-0.4,0.3-0.5c2.8-0.8,1.8-3.2,2.3-5
	c0.1-0.5,0.3-1,0.5-1.5c2-0.7,1.5-2.5,1.7-4c0.2-0.9,0.4-1.7,0.5-2.5c0.6-0.2,1-0.4,0.3-1c0.1-0.4,0.2-0.8,0.2-1.2
	c0.6-0.2,1-0.4,0.3-1c0-0.7,0-1.5,0-2.2c0.1-0.1,0.1-0.3,0.2-0.5c0.7-0.3,1-0.6,0.2-1.2c0.1-0.7,0.1-1.5,0.2-2.2
	c1.5-0.5,0.9-1.8,0.9-2.8c0.3-11.9-2-23.1-7.4-33.8c-0.5-1-1.1-2,0.5-2.5c0.5,0.5,1.1,1,1.6,1.4c0.7,1.7,2.1,2.9,3.1,4.4
	c0,1.1,0.7,2,1.2,3c2.1,3.8,4.5,7.4,5.2,11.8c0.3,2.2,0.9,4.4,1.5,6.6c0.1,0.5,0.3,1.1,0.9,1.2c0.8,0.2,0.8-0.6,0.9-1
	c0.1-0.5,0.4-0.8,1-0.6c1.2,2.6,0.6,5.4,1.1,8.2c2.5-1.9,3-3.3,2.4-5.8c0-0.3,0.1-0.6,0.1-1c1-0.7,1.6-1.6,0.9-2.9
	c0-0.4,0-0.7,0-1.1l0.1,0c1.2-0.5,1.1-1.3,0.4-2.2c0-0.7,0-1.5,0-2.2c1.1-2.2-0.1-4.6,0.8-6.8c0.6-1.5-0.1-2.3-1.6-2.6
	c0-0.9-0.1-1.7-0.2-2.6c0.6-1,0.6-2-0.4-2.9c0-0.3-0.1-0.6-0.1-0.9c0.6-0.6,0.2-1.1,0.1-1.8c-0.9-4.4-2.7-8.6-4.5-12.7
	c-0.9-2-1.3-4.3-3.1-5.9c-0.7-1.4-1.4-2.7-2-4.1c-0.1-1.4-0.5-2.7-2-3.4c-0.1-0.1-0.1-0.3-0.2-0.4c0.2-0.7-0.1-1.1-0.9-1.2
	c-0.1-0.1-0.1-0.3-0.2-0.4c-2.5-5.4-6.4-9.7-11.2-13.2c-1.3-1.4-2.7-2.8-4-4.2c0.1-1.1-0.5-1.6-1.5-1.7c-0.2-0.3-0.5-0.6-0.8-1
	c0.1-1.1-0.5-1.6-1.4-1.8c-0.1-0.1-0.1-0.3-0.2-0.4c-2.2-4.3-4.4-8.6-4.9-13.5c0-0.6-0.4-1-1-1.1c-0.8-0.1-1,0.7-1.2,1.2
	c-0.9,2.7-0.7,5.5-0.5,8.3c0.2,3.6,2.3,6.4,3.2,9.7c-0.1,0.1-0.2,0.2-0.4,0.4c-2.2-0.9-3.6-2.7-4.9-4.5c-2.6-3.8-4.9-7.8-7.7-11.5
	c-5.1-6.7-10.1-13.6-18.3-16.9c-6.1-2.5-12.3-5-19.1-4c-11,1.6-20.7,6.2-28.9,13.8c-3,2.7-3,2.7-6.2,0.3c-0.6-0.5-1.1-1.3-2.1-1
	c-0.1-0.1-0.2-0.2-0.4-0.3c-0.6-1.8-2.1-2.6-3.4-3.7c-7.4-6.3-15.9-10.8-24.7-14.5c-12.9-5.5-26.2-9.1-40.4-9.6
	c-4.6-0.2-9.4,0.5-13.9-1.4c-0.1-0.1-0.2-0.2-0.4-0.2c-1.4-2.4-3.6-3.8-6.1-4.8c-0.1-2.5-1.6-4.4-3.1-6.5c5.3-1.1,10.5-0.8,15.6-1
	c8.9-0.4,17.9-0.1,26.9-0.1c2.6,0,5.2-0.5,6.4-3.3l0,0c1.4,0.3,2.2-0.2,2.2-1.7l0,0c2.5-0.5,4-2.1,4.9-4.4l0,0
	c1.5,0,2.6-0.6,2.8-2.2l0,0c1.7,0,2.6-1,3.3-2.4c0.2-0.2,0.4-0.4,0.6-0.6c1.7-0.3,2.7-1.7,3.9-2.7c5.5-4.8,10.8-9.8,17.7-12.7
	c9.1-3.9,18.2-7.8,25.9-14.4c-1.7,3.2-3.5,6.4-5.2,9.6c0.2,0.1,0.4,0.2,0.6,0.4c2.1-3.4,5.4-5.2,8.7-7c4.5-2.3,9.1-4.6,13.6-7
	c0.2,0.2,0.3,0.4,0.5,0.6c-1.8,1.7-2.4,4.4-4.5,5.9c-0.3,0.2-0.7,0.6-0.2,1.1c0.4,0.4,0.5,0,0.8-0.2c5.2-4.3,11.2-7.1,17.4-9.6
	c0.7-0.3,1.5-1.1,2.4-0.3c-0.1,1.2-1.5,1.6-1.9,3.1c5.6-0.4,10.5-1.9,14.7-5.5l0,0c0.4,0,0.7,0,1.1,0l0-0.1c0.2,1.6-0.9,2.5-1.9,3.4
	c-1,1-2,1.9-2.5,3.7c5.4-2.7,10.7-4,16.7-4.4c-1.7,1.5-4,1.9-4.6,4.3c3.3-1.2,5.5,1,8.2,1.7c-1.9,1.6-4.7,1.6-5.7,4.2
	c2.6-2.3,6.3-2.4,9-4.4c4-3,8.3-5.7,12.5-8.6c-0.1,1.6,0,3.1,0.9,4.6c2.2,3.9,5.9,3.9,9.6,3.6c-1.3,1.4-0.5,1.9,0.9,1.7
	c1.8-0.3,3.6-0.9,5.3-1.6c1.5-0.6,2.4-0.6,2.4,1.3c-0.2,0.6-0.7,1-1.3,1.3c-1.1-1-1.6,0.1-2.2,0.6c-4.3,3.8-9.3,6.3-14.7,8.1
	c-0.5,0.2-1.1,0.2-1,1.1c1.6,0,3.2-0.1,4.8,0c1.6,0.1,3.2,0.4,4.8,0.5c1.5,0,3,0.2,4.6,0.9c-0.5,0.3-0.8,0.5-1.2,0.6
	c-7.1,1.4-14.2,3-20.7,6.4c-0.7,0.4-2-0.3-2,1.2c-0.4,0.1-0.8,0.1-1.1,0.2c-2.1,0.5-3.1,2.6-4.9,3.6c-0.8,0.4-0.8,1.6-0.4,2.2
	c1.5,2.2,0,4.5-0.3,6.3c-0.4,2.1-0.8,3,1,4.5c1.1,0.9,2,1.2,3.3,1.2c1,0,1.9-0.1,2.6,1.3c0.6,1.4,2.1,1.5,3-0.1c1.5-0.3,3-0.7,4.5-1
	c1.6,0.1,3.2,0.2,4.8,0.3c0.4,1.2,1.6,1.1,2.5,1.5c5.8,2.6,10.9,6.3,16.2,10.4c-2.3,0.4-3.7-1.1-5.5-1c-1.2,0-2.2,0.4-3.2,1.1
	c0.7,0.9,0.8,2.1,2.1,2.7c4.6,2.5,9.4,4.3,14.9,5.9c-2.9,1.1-5.3,1.4-7.8,0.9c-0.6-0.1-1.6-0.6-1.9,0.4c-0.2,0.9,0.7,1.1,1.4,1.4
	c2.7,0.8,5,2.5,7.4,3.9c2.1,1.2,3.2,3.6,5.5,4.4h0c0.2,2.1-0.5,2.9-2.6,1.6c-0.5-0.3-1.2-0.3-1.8-0.4c-1.7-0.2-4-0.4-4.6,1.2
	c-0.4,1.1,1.7,2.2,3,3c4,2.6,8.1,5,12.8,7.1c-3.5,0.9-6.5,0.8-9.6-0.1c2.7,1.6,5.5,3,8,4.7c1,1.2,2.1,2.3,3.3,3.2
	c0.2,0.2,0.4,0.4,0.5,0.6c0.2,0.2,0.4,0.4,0.5,0.6c0.2,0.2,0.3,0.4,0.5,0.6c0.4,0.7,0.9,1.3,1.3,2c0.9,2.1,1.8,4.2,2.7,6.4
	c0.1,1,0.1,2,0.2,3c-0.1,0.4-0.1,0.7-0.2,1c-1-0.1-1.4,0.6-2,1.2c-0.5,0.5-0.8,1-0.5,1.7c0.3,0.6,1,1,1.6,0.8
	c3.2-1.1,3.4,0.9,3.7,3.2c0.2,1.9,1.5,3.3,3.3,3.3c2.3,0,3.6,1.1,5,2.7c1.6,1.9,2.6,1.7,4.2-0.4c2.7,5.9,5.2,12,9.1,17.2
	c0.5,0.6,0.5,1.8,1.8,1.3l0,0c-0.2,0.9-0.4,1.8,1.1,1.6l0,0c-0.3,1.3,0.1,2.2,1.6,2.2l0,0c0.3,2.1,0.6,2.5,2.5,2.7
	c0.2,0,0.2,0.1,0.2,0.3c0.1,2.2,1.1,3.3,3,3.5c0.6,0.6,1.2,1.3,1.9,1.9c-1,0.5,0.7,1.3-0.2,1.9c-1.5,0.1-1.9-2.3-3.7-1.6l0,0
	c-0.6-2.8-3.8-3.1-5-5.4c1.8,5.1,3.9,9.9,6,14.8c4.2,9.7,8.9,19,15.1,27.5c0.6,0.8,1.1,2.3,2.8,1.7c0.2,0,0.2,0.1,0.2,0.2
	C454.6,344.5,457,347.1,459.9,348.2L459.9,348.2z M289.1,209.6c0.2,0.2,0.3,0.8,0.7,0.4c0.3-0.2,0.1-0.6-0.3-0.8
	c-1.6-2.7-3.3-5.3-4.9-8c-2.2-3.7-4.1-7.7-7-10.9c-4-4.3-11-8.1-16.5-3.5c-1.2,1.1-2.5,2.1-3.5,3.4c-4.1,4.8-8.2,9.4-13.6,12.7
	c-0.4,0.2-0.9,0.5-0.7,1c0.2,0.7,0.9,0.5,1.4,0.4c2.2-0.4,4-1.7,6.1-2.6c0.3,1.2,0.6,2.3,0.9,3.3c0.7,2.6,2.3,3.8,5.1,3.8
	c7.4-0.1,14.7,0,22-0.1c2.8,0,5.5-0.6,6.6-3.8C286.5,206.5,287.8,208,289.1,209.6L289.1,209.6z"/>
<path class="st2" d="M349.1,259.5c0.1,0.1,0.2,0.2,0.2,0.4c0,1,0.5,1.5,1.4,1.8c0.2,0.3,0.5,0.6,0.8,1c0,1,0.6,1.5,1.5,1.7
	c1.3,1.4,2.7,2.8,4,4.2c1.6,3.4,4.9,5.4,7.1,8.3c1.3,1.7,2.1,3.8,4.1,4.9c0.1,0.1,0.2,0.3,0.2,0.4c-0.1,0.7,0.2,1.1,0.9,1.2
	c0.1,0.1,0.2,0.3,0.2,0.4c0.3,1.4,0.7,2.6,2,3.4c0.7,1.4,1.4,2.7,2,4.1c2.5,6.8,5,13.5,7.5,20.3c0,0.3,0.1,0.6,0.1,0.9
	c-0.2,1-0.4,2,0.4,2.9c0,0.9,0.1,1.7,0.2,2.6c0.1,3.1,0.2,6.3,0.3,9.4c-0.7,0.7-0.7,1.4,0,2.1c0,0.8,0,1.5,0.1,2.2l-0.1,0
	c-1,1.1-2.1,1.4-3.1-0.1c0-0.4,0-0.7,0-1c0.8-2.8-0.6-5.2-1.3-7.7c-0.2-0.6-0.7-1.5-1.5-1.2c-0.8,0.2-0.4,1.1-0.5,1.7
	c-0.1,0.6,0.2,1.3-0.7,1.5c-1-0.9-1-2.2-1.5-3.4c-1.1-2.3-1.7-4.9-4.3-6.2l0,0c0-0.8-0.1-1.5-1.1-1.6l0,0c-0.7-2.3-1.5-4.5-4.3-4.9
	c-0.5-0.5-1.1-1-1.6-1.4c-1-1.7-2.5-2.9-3.8-4.2c-0.2-0.4-0.4-0.9-0.7-1.1c-0.6-0.5-1-1.7-1.9-1.1c-1.1,0.8,0.1,1.5,0.4,2.2
	c1.2,2.2,2.4,4.5,3.5,6.7c1.8,3.8,3.6,7.6,4.1,11.9c-1.9-0.4-1.2-2.2-1.6-3.3c-0.5-1.5-1.2-2.1-2.5-0.9c-0.5,0.5-0.7,1.7-1.8,1.2
	c-1-0.5-1.3-1.5-1.2-2.5c0-1,0-2,0-3c0-1.1-0.5-1.7-1.6-1.8c-1.5,0-3.1-0.1-4.6,0c-1.2,0.1-1.9,0.8-1.9,2.2c0.1,3.2,0,6.5,0.7,9.7
	c0.7,3,2.1,6.1,1.3,9.3c-0.5,2.4-0.3,4.6-0.1,7c0.5,4.2,0.7,8.5-1.4,12.5c-0.3,0.6-0.4,1.6-1.3,1.5c-0.7-0.1-0.7-0.9-1-1.5
	c-1.2-2.3-2-4.8-2.5-7.4c-0.2-1.2-1.1-2.5-2.1-1.4c-2.1,2.3-4.1,4.7-6.5,6.6c-0.2,0.2-0.1,0.7-0.2,1c-1,3.3-0.2,6.7-0.5,10
	c-0.1,1.2,0.5,2.8-1.3,3.1c-2,0.3-2.1-1.5-2.4-2.7c-0.7-3.2-1.2-6.5-1.8-9.8c-0.2-0.9-0.3-1.9-1.5-2c-1.1-0.2-1.6,0.5-1.8,1.5
	c-0.3,1.5-1.1,1.2-1.9,0.5c-0.6-0.5-1-1-1.6-1.5c-2-1.7-3.1-1.5-4.6,0.7c-0.7,1-1.2,2-2,2.9c-1.8,2.4-3.3,2.2-4.4-0.5
	c-1.9-4.7-2.4-4.8-5.9-1c-0.2,0.3-0.5,0.5-0.7,0.8c-2.1,2.3-4.4,2.6-6.9,1c-0.4-0.2-0.7-0.7-1.2-0.2c-0.4,0.4-0.2,0.9,0.1,1.2
	c0.3,0.4,0.8,0.8,1,1.2c1.4,3.4,2.1,6.9-2.6,8.1c-3,0.8-5.6,2.8-6.7,5.6c-2.5,1.8-4.2,1.9-4.7-1.4c-0.1-0.8-0.8-1.5-1.7-1.5
	c-1,0-1.5,0.8-2,1.6c-2.2,3.9-3.2,8.2-3.8,12.6c-0.1,0.6-0.3,1.4,0.4,1.7c0.9,0.3,1.3-0.5,1.6-1.1c1.7-2.6,3.9-4.7,6-6.9
	c1.4-1.4,3-2.5,4.1-5c1.2,0.1,2.6-0.7,3.7-1.5c4.8-3.4,10.6-4.1,15.8-6.2c1.2-0.5,2.6,0,3.4,1.1c0.7,0.9,0,1.8-0.6,2.5
	c-5.8,6.5-8.7,14.7-12.7,22.2c-0.3,0.6-1,1.4-0.3,1.9c0.8,0.6,1.3-0.4,1.7-0.9c3.7-4.8,8.1-9.2,12.7-13c5.8-4.8,12.1-9.2,20.2-9.5
	c2.5-0.1,3.7,1.5,2.8,3.8c-1.6,4.3-3.9,8.1-6.3,12c-1.8,2.9-4.6,4.5-7.6,5.8c0-0.9,0.7-1.5,1.3-2c4.3-4.1,6.9-9.1,8.6-14.7
	c0.2-0.6,0.9-1.4,0.2-2c-0.7-0.7-1.6-0.6-2.4,0.1c-0.7,0.2-1.4,0.4-2.1,0.6c-1.4,0.3-2.8,0.6-3.4,2c-1.9,0.7-3.3,2.4-5.4,2.8
	c-0.7,0-1,0.4-1.2,1c-0.7,0.4-1.2,1.1-2.1,1.2c-1,0.1-1.6,0.6-1.7,1.6c-1.5,1.8-4,2.6-5,4.9c-1.5,0.4-2.4,1.6-3.2,2.8
	c-3,4.4-5.9,8.8-8.8,13.2c-0.5,0.8-1,1.6-2.1,1.3c-1.2-0.4-1.5-1.3-1.6-2.5c-0.1-1.8,0.6-3.4,1-5c0.2-0.8,1.3-1.8,0-2.6
	c0.1-0.9,0.8-1.5,1.3-2.1c1-0.1,1.2-1,1.6-1.7c1.9-4.2,3.6-8.5,5.8-12.6c1.4-2.5,2.8-5.1,4.1-7.7c0.3-0.5,0.7-1.2,0.1-1.8
	c-0.5-0.5-1.2-0.4-1.8-0.2c-0.6,0.2-1.2,0.4-1.7,0.8c-6.9,3.8-14.1,7.2-18.9,13.9c-3.3,4.6-7.4,8.8-6.7,15.1c0,0.3,0,0.5,0,0.8
	c-0.4,1.9-1.7,2.2-3.4,1.1c-3.1-2-2.9-5-2.5-7.9c1-8,2.1-15.9,3.1-23.8c0.1-0.9,0.6-2.1-0.7-2.6c-1.1-0.5-1.9,0.5-2.5,1.2
	c-2.6,2.9-4.4,6.4-6.6,9.6c-2.9,4.3-5.5,8.8-3.8,14.4c0.1,0.3,0,0.7,0,1.1c-0.1,1.5-0.7,2.1-2.3,1.6c-4.5-1.5-6.6-5.2-8-9.2
	c-1-2.7-1.5-5.6-2.3-8.4c-0.3-0.9-0.9-1.7-1.9-1.7s-1.2,0.9-1.4,1.7c-0.9,4.2-1.5,8.3-0.4,12.6c1.9,7.8,7,13.1,13.6,17.2
	c0.7,0.5,1.9,0.9,1.4,2c-0.4,0.8-1.3,1.1-2.3,1c-3.2-0.3-6.1-1.3-8.6-3.5c-1.8-1.6-3.8-3-6.1-3.9c-0.2,0-0.4-0.1-0.5-0.1
	c-1.3-2.4-3.6-3.2-6.1-3.1c-2.5,0.1-4.2-1-6-2.5c-2.4-2-3.6-4.9-6-6.9c-1.5-1.7-3.2-3.4-3.4-5.9c1.2,0,2-0.4,2.4-1.7
	c0.5-1.6,1.1-3.2,1-5c-0.1-1.3,0-2.7,0.2-4c0.1-0.8,0.5-1.7,1.5-1.7c1.1,0,1.4,0.9,1.4,1.7c0.4,4.3,2.5,7.9,4.1,11.7
	c2.7,6.2,7.3,10.9,12.7,14.8c0.5,0.4,1.2,0.9,1.8,0.4c0.8-0.6-0.1-1.3-0.3-1.9c-1.6-4.6-3.9-9-4.1-14c-0.3-7.4-3.5-13.6-6.6-20
	c-1.7-3.5-4.5-6.6-5.1-10.6c-0.5-3.8-1.1-7.6-1.4-11.4c-0.3-3.4-0.8-3.9-4.3-4.1c-1.9-0.1-3.7,0.7-5.6,0.6c0-1.2,1.7-1.8,1.3-3.2
	l-0.1,0.1c1.3,0.3,1.5-1,2-1.6c0.9-1.1,1.9-2,3.3-2.3c0.7,0.4,1.5,0.7,2.3,0.6c2.3-0.3,3.4,0.8,4.1,2.9c1.1,3.1,1.2,6.2,1.2,9.3
	c0.1,4.4,3.7,7.7,7.3,6.7c3.2-0.9,3.9-0.5,4.8,2.9c0.6,2.3,1.1,4.6,1.6,6.8c0.2,1,0.5,2,1.6,2.3c0.7,0.2,1.2,0,1.6-0.6
	c2-2.3,4.3-4.5,6-7c1.2-1.7,2-3.8,2.1-6.1c0.2-3.3,0.3-6.6,1.5-9.8c1.5-4.3,3.9-5.8,8.1-4.6c3.1,0.9,3.9,0.4,4.7-2.8
	c0.2-1.1,0.4-2.1,0.5-3.2c0.5-4.7,1.5-5.5,6.1-5.6c1.9,0,3.9,0.1,5.6,0.8c3.3,1.4,6.1,0.6,9-1c2.9-1.6,3.2-2.8,1.5-5.6
	c-2.2-3.6-4.7-7-6.1-11.1c-0.6-2-2.3-3.5-4-4.7c-1.4-1-3-1.7-4.2-2.8c-4.2-4.3-9.9-6.5-14.5-10.3c-0.7-0.6-1.6-1-2.5-1.1
	c-4.8-0.5-9.1-2.8-13.6-4.3c-5.3-1.8-10.5-3.6-15.6-6c-4.4-2-9.4-2.6-13.7-4.9c-2.4-1.3-5-2.1-7.4-3.3c-3.5-1.6-5.5-0.1-4.9,3.5
	c-6.3-2.8-12.9-4.3-19.6-5.5c0.4-2.2-1.2-2.9-2.8-3.4c-7.3-2.2-14-5.6-20.6-9.2c-1.2-0.7-2.6-1.4-3.8-0.7c-1.4,0.8,0.4,2.1-0.1,3.2
	c-0.6-0.1-0.6-1.3-1.5-0.8l0.1,0.1c0.2-0.9-0.3-1.4-0.7-2c-1-1.6-1.9-3.3-1.3-5.3c1.1,0.7,2.1,1.3,3,1.9c5.2,3.3,11,3.9,16.9,3.9
	c0.1,0.8,0.5,1.3,1.3,1.5c3.1,0.9,6.2,2.1,9.3,2.7c3.8,0.7,7.6,1.8,11.7,1.3c2.6-0.3,5,1.8,7.6,2.5c2.9,0.8,5.8,1.2,8.5,2.6
	c3.8,2,4.6,1.4,4.6-2.8c0-0.5,0-0.9,0-1.4l7.1,2.7c0.2,1.5,1.4,2.4,2.5,3.1c5,3.2,10.2,6.1,15.7,8.4c6.4,2.7,13.3,3.7,19.8,6.3
	c1.6,0.7,3.2,0.4,3.7-1.9c0.2-0.8,0.6-1.6,1.6-1.6c1,0,1.1,1,1.5,1.7c0.2,0.4,0.4,0.8,0.5,1.2c0.2,0.5,0.5,0.8,1,0.5
	c0.3-0.1,0.5-0.5,0.5-0.8c0.2-1-0.2-1.8-0.7-2.6c-0.6-1.2-0.3-2.2,0.5-3.3c3.5-4.8,8.1-8.9,10.7-14.5c0.7-1.5,2.1-2.8,3.6-3.6
	c1.6-0.9,3.2-1.4,4.1,1.1c0.4,1.2,1.6,1.9,2.8,2.5c1.4,0.7,2.8,1.3,3.9,2.4c1.9,1.8,3.4,1.2,4-1.3c0.5-2.1,0.7-4.3,1.2-6.4
	c0.3-1.4,1.3-2.5,2.8-2.6c1.5,0,1.8,1.4,2,2.5c0.5,2.8,0.7,5.5,1.2,8.3c0.8,4.6,1.9,9.1,5.9,12.1c0.7,0.5,1.4,1.4,2.3,1.1
	c1-0.3,0.5-1.4,0.5-2.2c0-1.7,0.8-2.4,2.1-1.3c1.9,1.6,3.7,1.1,5.7,0.6c1.3-0.3,1.5-0.8,1-1.8c-0.7-1.5-1.5-2.9-2.2-4.3
	c-0.4-0.8-0.9-1.7-0.1-2.5c0.7-0.7,1.6-0.9,2.5-0.7c1.3,0.3,2.4,0.9,3,2.1c0.8,1.5,1.4,3.1,2.2,4.7c1.6,3,2.2,6.5,4.3,9.3
	c0.5,0.7,1.1,1.3,2,1c0.8-0.3,0.8-1.1,0.8-1.9c0-0.7,0.1-1.5-0.1-2.2c-1.1-3.8-1.4-7.6-1-11.5c2.3,1.7,4,4.3,6.6,5.6
	c0.6,0.3,1.2,1.2,1.9,0.5c0.6-0.7-0.2-1.3-0.5-1.9c-2.6-4.5-5.4-8.9-4.6-14.4c0.1-0.7-0.4-1.9,0.6-2.1c1-0.1,0.9,1.1,1.2,1.8
	C345.9,254.4,346.3,257.6,349.1,259.5L349.1,259.5z M308.5,294.9c-1.1,1,0.3,2-0.6,2.9c-2.4,2.6-1.5,5.9-1.5,9
	c0,3.2,2.4,5.1,3.4,7.8c1.5,3.9,2.2,8.6,6.7,10.7c0.7,0.3,0.5,1.1,0.7,1.7c2,6,4.1,12,7.5,17.4c0.8,1.2,1.7,1.9,3.1,1.5
	c1.6-0.5,1.2-1.8,1-2.9c-1.3-6.4-2.6-12.9-3.9-19.3c-0.3-1.4-0.3-2.6,0.1-4c0.8-3,1.6-6.1,2.3-9.2c0.3-1.3,0.3-2.7-0.6-3.9
	c-1.2-1.8-2.3-3.6-3.1-5.7c-1-2.4-3.2-3.6-5.4-4.7c-1.9-1-2.1,1.3-3.2,1.7c-0.4,0.1-0.9,0.2-1.3,0.2
	C311.4,298.1,309.5,297.4,308.5,294.9L308.5,294.9z M252.3,370.5c0.4,2.7,0,6.2,1.7,9.4c0.3,0.6,0.5,1.6,1.4,1.4
	c1-0.2,1.2-1.1,1.2-1.9c0.1-5.6,2.9-9.9,6.1-14.2c2.4-3.3,5.7-5.8,7.9-9.3c0.5-0.8,1.1-1.5,0.3-2.4c-2.2-2.5-2.7-5.9-4.2-8.8
	c-0.4-0.8-0.4-2-1.6-1.9c-1.1,0-1.7,0.9-1.9,2c-0.4,1.7-0.6,3.4-1,5c-1.3,5.8-6.9,9.1-8.7,14.7C253,366.3,252.4,368,252.3,370.5
	L252.3,370.5z M312.4,341.3c-0.8-3.9-0.3-8.2-1.6-12.3c-1.1-3.8-2.3-4.4-5.6-2.2c-1.5,1-4,0.4-4.7,2.2c-0.7,1.8,1.6,3.1,1.8,4.9
	c0.5,3.9,2.9,6.8,5.4,9.5c1,1,1.8,3.1,3.5,2.4C313.1,345,311.9,343,312.4,341.3L312.4,341.3z"/>
<path class="st3" d="M227.3,183.9c-0.2,0.2-0.4,0.4-0.6,0.6c-1.6,0.1-2.5,1.2-3.3,2.4l0,0c-1.3,0.3-2.2,1.1-2.8,2.2l0,0
	c-2,1.1-3.6,2.6-4.9,4.4l0,0c-0.8,0.4-1.9,0.6-2.2,1.7l0,0c-1.9,0.1-3,2-5.1,2.3c-3.9,0.5-7.7,0.3-11.6,0c-9.5-0.7-19,0.5-28.5,0.4
	c-0.4,0-0.7,0-1.1,0.1c-2.7,0.9-5.4,0.8-8.1-0.2c-4-1.4-8.1-2.4-12.4-2.2c-3,0.2-5.6,2-6.1,4.9c-0.4,2.6-0.9,5.5,0.1,7.8
	c2.1,5,0.7,9.9,0.4,14.9c-0.3,4.4-0.4,8.9,1.6,13c1.3,2.6,2.7,5.8,6.4,6c0.2,0.2,0.4,0.4,0.6,0.6c-0.3,1.5,0.6,1.6,1.7,1.4l0-0.1
	c-0.7,0.8,0.3,1.3,0.6,1.4c3.9,0.7,5.5,3.8,7.2,6.7c0.1,0.1,0.3,0.1,0.5,0.1l-0.1-0.1c0.3,0.8,0.2,2,1.6,1.7l0,0
	c0.3,2.2,2.3,2.5,3.8,3.3l-0.1,0c1.5,1.9,3.8,2.5,5.9,3.3c6.1,2.2,12.6,2.6,18.9,3.8c11,2.2,21.6,5.4,30.8,12.1
	c0.5,0.3,1,1.2,1.8,0.4l0.2,0l0.1,0.2c-0.3,1.3,0.1,1.7,1.4,1.4c0.2,0,0.2,0.1,0.2,0.2c-0.3,1.2,0.1,1.7,1.4,1.4
	c0.3,0.3,0.5,0.5,0.8,0.8c-0.5,1.6,0.6,2.3,1.7,3l0,0c0.3,0.8,0.2,2,1.6,1.7l0,0c-0.6,0.8,0,1.3,0.4,1.8c4.4,6.4,4.4,13,1.3,20
	c-1.7,3.9-4.1,7.3-6.1,11l0,0c-1.2,0.9-2.6,1.7-2.2,3.5l-5.1,5.1c-1.5-0.4-2.4,0.5-3,1.7l0.1,0c-2.2,1.1-4.3,2.3-6.5,3.4
	c1.2,1.6,2.3,0.5,3.3,0.2c2.5-0.8,5-1.7,7.5-2.6c0.1,0.1,0.2,0.3,0.4,0.4c-0.1,0.5-0.2,0.9-0.3,1.4l0.1-0.1c-0.6,0-0.9,0.5-1.2,1
	c-5.9,9-8.5,18.9-9.2,29.5c-0.4,5.3,1.2,10.3,2.2,15.4c0.1,0.6,0.3,1.5,1.6,1.3c-0.8-6.2-0.7-12.3,2.4-18c0.1,0.1,0.2,0.2,0.3,0.3
	c-0.5,4.5-0.2,9,0.5,13.4c-2.4,2.5-0.5,5.4-0.3,8c0.5,7.7,5.5,12.7,11.4,17c0.8,0.6,2.2,0.9,1.6,2.4c-0.6,1.3-1.8,1.2-3.1,1
	c-5.4-0.6-9-4.5-13.2-7.1c-3.2-2-5.9-4.8-10.2-4.3c-1.1,0.1-2.3-0.6-3.2-1.4c-4.1-3.9-8-8-11.1-12.9c-4-6.3-4.1-13-3.5-20
	c-3.3,5.7-3.6,11.9-2.7,18.3c-1.4,0-1.4-0.9-1.6-1.5c-2.7-8.9-2.7-17.9-0.5-27c1.6-6.6,4.4-12.6,8-18.3c0.4-0.6,0.8-1.2,0.7-2
	c0.2-0.1,0.4-0.1,0.7-0.2l-0.2-0.3c-0.2,0.1-0.4,0.3-0.5,0.4c-2.8,1-5.6,1.9-8.4,2.9c-0.7,0.2-1.6,0.7-1.9-0.1
	c-0.5-1,0.7-0.9,1.2-1.2c11.4-6.7,19.2-16.2,22.9-29c1.9-6.3-0.8-11.4-4-16.4c-7.5-11.6-19.4-16.3-31.9-19.9
	c-7.4-2.1-15.1-2.5-22.5-4.4c-6.1-1.5-12.4-3.7-15.5-9.5c-2.2-4-5.8-5.6-9-7.9c-3.1-2.3-6.3-4.6-7.8-8.4c-1.6-4-1.6-8.1-1.4-12.2
	c0.3-5.1,1.5-10-0.3-15.2c-1.2-3.5-0.3-7.5,0.8-11.1l0,0.1c0.4,0,0.5-0.3,0.6-0.6c0.2-0.5,0.6-0.5,1-0.5c0.2,0.4,0.4,0.6,0.7,0
	l-0.2,0c5.6-1.3,11,0,16.2,1.9c2.3,0.8,4.4,0.5,6.6,0.4c11.1-0.8,22.2-1.7,33.3-0.5c6.5,0.7,12.1-0.9,17.1-5.5
	c7.6-7,15.5-13.6,23.4-20.1c3.4-2.8,7.7-4.3,11.8-6.1c8.3-3.8,16.5-7.8,23.2-14.3c0.3-0.3,0.7-0.8,1.1-0.5c0.6,0.3,0.4,0.9,0.1,1.4
	c-0.8,1.7-1.6,3.3-2.7,5.6c8.5-3.6,15.9-7.3,20.8-14.9c3-4.8,7.2-8.6,11.5-12.2c0.3-0.2,0.5-0.5,0.8-0.7
	c9.6-9.8,19.8-19.2,29.8-28.7c3.1-2.9,6.5-5.4,10.3-7.5c2.6-1.4,5.8,0,7.5,3.4c1.9,3.9,3.1,8.1,4,12.3c0.2,1,0.4,1.9,0.6,2.9
	c-0.6,0.7-1.3,1.4-1.9,2.1c-0.8,0.8-1.7,1.7-2.5,2.5c-2.6,2.1-5,4.4-7.3,6.8c-1.7,1.7-3.5,3.4-5.2,5.2c-4.8,4.8-10.2,9-14.5,14.4
	c-0.2,0-0.3,0.1-0.3,0.3c-0.6,0.8-1.3,1.6-1.9,2.4c-0.2,0-0.3,0.1-0.2,0.3c-0.5,0.5-1.1,1-1.1,1.9h0c-1,0.4-1.4,1.3-2,2.1
	c-4.3,5.6-11,7.2-16.9,10.4c0.6-1.8,1.3-3.4,2.1-5c0.3-0.6,0.8-1.2,0.2-1.7c-0.7-0.5-1.1,0.3-1.5,0.7c-5.6,5-11.9,9.1-18.8,12.1
	c-8.8,3.8-17.4,7.8-24.2,15C230.5,180.7,228.4,181.8,227.3,183.9L227.3,183.9z"/>
<path class="st4" d="M179.6,160.8c-0.1,0.1-0.2,0.1-0.2,0.2c-0.7,0.6-2.3,0.6-1.6,2.2c-0.4,0.4-0.9,0.9-1.3,1.3
	c-1.6-0.6-2.3,0.2-2.5,1.7l0.1-0.1c-1.6-0.1-2.5,0.6-2.8,2.2l0.1,0c-1.1-0.4-1.7,0.3-2.2,1.1l0,0c-0.5,0.2-1,0.4-1.4,0.7
	c-3.7,2.2-7.4,4-12.1,3.2c-2.6-0.4-5.6-0.7-7.6,2.1c7.2-2.9,14,0.5,21.1,1.1c-0.2,0.4-0.3,0.6-0.4,0.7c-5.5,3.4-11.2,6.2-17.9,6.4
	c-0.6,0-1.4-0.4-1.7,0.4c-0.3,0.8,0.5,1.1,1,1.4c0.3,0.2,0.6,0.4,1.5,1.2c-3.6-1-6.3-2-8.9-3.5c-0.9-0.5-1.6-1.7-3-1.1l0.1,0.1
	c0.6-1.3-1.2-1.3-1.1-2.4c0-0.8-0.7-1-1.4-0.9c-1,0-0.6,0.9-0.8,1.4c-1.3,3.6-0.2,6.8,1.7,10.1c-3.5-0.3-5.8-2.4-8.2-4.2
	c-0.1-0.1-0.1-0.2-0.2-0.2c-2-1.3-2.8-4-5.2-4.9l0,0c-0.4-1.2-1.5-1.1-2.4-1.1c-1.9-0.1-3.7,0.1-5.6-0.4c-4.3-1.1-8-3.2-11.6-5.6
	l0,0c0.1-0.2,0.2-0.6,0.4-0.7c4.3-0.5,7.3-4.2,11.7-4.7c-2.1-0.7-3.8-1.9-5.6-3c-0.3-0.3-0.5-0.5-0.8-0.8c-0.7-0.9-1.3-1.9-2.2-3.1
	c1.4,0.3,2.4,0.5,3.5,0.8c0.2-1-0.6-1.2-1-1.6c-2.9-2.8-4.4-6.4-5.6-10.1c-0.2-0.5-1-1.1-0.1-1.6c0.7-0.4,1.2,0.1,1.7,0.6
	c3.9,3.9,9,5.2,14.2,6.1c-2.6-5.7-3.7-16.7-1.3-21.7c0.5,1.1,1.3,1.9,2.5,1.4c1.3-0.5-0.1-1.1,0-1.8c0.9-3.5,1.1-7.3,4.1-10.5
	c0.3,5.2,3.2,8.8,6.1,12.3c1.6,2,3,3.8,1.4,6.4c-0.3,0.4-0.2,0.9,0.6,1.1c-0.1-1.6,1.7-2.5,1.4-4.2l0,0c1.3,0.2,1.4-0.8,1.6-1.6h0
	c1-0.4,2-0.8,1.6-2.2l-0.1,0.1c0.9,0.6,1.3-0.3,1.7-0.6c2-1.5,4.2-2.7,6.5-3.6c4.8-2,9.9-3.5,14.2-6.5c0.5-0.3,1.5-0.3,1-1.4l-0.1,0
	c1.3,0.6,2.1-0.6,2.9-1.1c2.5-1.5,4.8-3.1,7.5-4.9c-1.1,3.2-2.5,5.8-3.1,8.7c-0.6,3.1-2.2,6.5,0.8,9.3l0,0c0.1,0.6,0.4,1.1,1.1,1.1
	l0,0c0.5,1.1,1.8,0.9,2.7,1.4c-0.7,2.1-1.2,4.3-2.2,6.3c-2.2,4.6-4,9.6-10.3,9.9c-0.5,0-1,0.4-0.9,1.3c2.4-0.6,4.7-0.2,6.8,1.2
	c0.3,0.2,0.8,0.8,1.3,0.1l-0.1-0.1c-0.3,1.4,0.9,1.4,1.6,1.8c2.7,1.3,5.7,1.7,8.7,2C180.7,159.9,180.2,160.2,179.6,160.8
	L179.6,160.8z"/>
<path class="st5" d="M294.3,143.6c0-0.2,0.1-0.3,0.2-0.3c1.8,0.1,2.1-1,1.9-2.4c0-0.2,0.1-0.3,0.3-0.3c0.8,0.2,1.4-0.2,1.9-0.8
	c3.9-3.9,7.9-7.9,11.8-11.8c0.5-0.5,1-1.1,0.8-1.9c1.7-1.7,3.5-3.4,5.2-5.2c3.6-1,5.8-3.6,7.3-6.8c0.8-0.8,1.7-1.7,2.5-2.5
	c2.4-0.3,6.6-4.3,7.3-6.8c0.5-0.4,1-0.9,1.5-1.4c2.6-0.4,4.2-2,5.1-4.4l0,0c1.2,0.1,2.2-0.1,2.2-1.7v0c0.7,0.2,1.3,0,1.8-0.4
	c2.4-1.9,5.2-2.8,8.3-2.3c0.1,0.1,0.2,0.2,0.4,0.4c-0.4,1.8,1.1,2.8,1.6,4.2c4.8,12,6,24.6,6,37.4c0,0.8-0.1,1.4-0.8,1.9
	c-6,4.6-11.7,9.7-18.2,13.6c-0.7,0.4-1.3,1-2.2,0.6c-1.9-0.9-3.9-1.6-6.4-2.7c2.8-1.2,5-2.6,7.6-2.6c0.6,0,1.8,0.4,1.7-0.7
	c-0.1-1.1-1.2-0.5-2-0.5c-6.1-0.2-12,1-17.9,2.4l0-0.1c1.8-2.1,2.5-4.7,3.6-7.2c0.2-0.4,0.3-0.9,0-1.2c-0.3-0.3-0.8-0.2-0.9,0.2
	c-0.6,1.8-2.9,2.4-3.2,4.5l0,0c-1.2-0.3-2.1,0.5-3,0.9c-2.2,1.2-4.5,2.1-7,2.8c-1.4,0.4-2-0.1-1.6-1.6l0,0c3.2-0.4,5-2.9,7.5-4.5
	c-8.5,3.4-17.4,5.7-25.2,10.6c2.2-3.1,5.3-5.3,7-8.8c-2.6,1.5-4.9,3.7-8.1,4.7c0.8-1.4,2.4-2.1,2-3.7l0,0
	C294.6,145.5,294.4,144.5,294.3,143.6L294.3,143.6z"/>
<path class="st3" d="M110.4,164.6c0.3,0.3,0.5,0.5,0.8,0.8c-0.6,2.1,2,1.6,2.4,2.7c-4.1,2.9-8.4,4.8-13.5,4.3
	c1.5,0.8,2.9,1.5,4.6,1.4l0,0c-0.3,1.9,2,1.7,2.4,2.9c-2.3,2.3-1.7,7.5,1.2,9.5c0.9,0.6,1.8,1.1,2.7,1.9c-3,0.3-5.9-0.1-8.6-1.7
	c-3.5-2-6.2-4.9-9-7.7c-0.7-0.6-1-1.4-1.7-0.2c-0.1,0.2-0.6,0.5-0.6,0.4c-2.6-3-6.7-1.2-9.8-3.2c-2.1-1.3-4.7-1.9-6.5-3.7
	c-1.6-1.5-3.6-2.1-5.6-3.1c5.1,0.5,9.4-1.5,13.5-4.3c-3.4-1.8-5.7-4.5-7.2-7.9c-0.2-0.5-2.1-1.7,0.5-1.9c0.7-0.1-0.1-1.1-0.3-1.5
	c-1.8-3.1-2.9-6.4-3.3-9.9c-0.1-0.6-0.7-1.3,0.2-1.6c0.8-0.3,1,0.5,1.4,1c3.7,4.1,7.8,7.5,13.8,7.7c0.1,0.1,0.2,0.1,0.3,0.2
	c-0.1-0.1-0.1-0.2-0.2-0.3c-0.3-1.8-0.4-3.6-0.9-5.3c-1.8-6.7,0.1-13.2,1.3-19.7c0.1-0.3,0.1-0.7,0.8-0.7c1.3,1.7-1.3,4.3,1.3,5.9
	c0.3-4.9,2-9.3,5.3-13.3c0,7.4,5.2,12,8.9,17.5c4.9-6.6,12.3-9.2,19.8-11.5c-1.6,3.2-2.7,6.7-3.1,10.4c-2.3-1.7,0.2-4.3-1.4-6
	c-1.3,1.4-1,3-1.3,4.5c-0.7,4-1.8,7.9-1.3,12c0.4,3.2,1.1,6.3,1.7,9.5c-0.1,0.1-0.2,0.2-0.3,0.4c-3.6-0.5-7-1.7-9.8-4.1
	c-1.5-1.3-2.8-2.8-4.2-4.3c-0.4-0.5-0.8-0.8-1.3-0.5c-0.4,0.2-0.2,0.8-0.1,1.2c0.6,3.1,1.2,6.3,2.8,9.1c0.8,1.4,0.7,1.4-0.2,2.9
	c-0.1,0.2-0.1,0.7,0.1,1c1,1.7,2,3.4,3.1,5C109.5,164.8,109.9,165.3,110.4,164.6L110.4,164.6z"/>
<path class="st3" d="M359.8,115.5c16.4-9,33.6-15.9,51.6-20.7c5.4-1.4,10.9-1,16.2,1.1c2.3,0.9,2.8,3.1,3,5.3
	c-0.4,0.2-0.8,0.4-1.2,0.6c-11.9,4.2-23.6,9.1-34.8,14.8c-2.7,1.4-5.5,2.6-7.7,4.8h0.1c-1.8,0.8-4,1.2-4.9,3.3l0-0.1
	c-3.7,0.7-6.3,3.5-9.6,5.1c-3.9,1.9-7,4.9-11,7.3C361.4,129.6,360.7,122.5,359.8,115.5L359.8,115.5z"/>
<path class="st6" d="M218.5,334.5c1.9,0.1,3.7-0.7,5.6-0.6c3.4,0.2,4,0.7,4.3,4.1c0.3,3.8,0.9,7.6,1.4,11.4
	c0.6,4.1,3.4,7.1,5.1,10.6c3.1,6.4,6.3,12.6,6.6,20c0.2,4.9,2.4,9.4,4.1,14c0.2,0.6,1.1,1.3,0.3,1.9c-0.6,0.4-1.3-0.1-1.8-0.4
	c-5.4-3.9-10-8.6-12.7-14.8c-1.7-3.8-3.8-7.4-4.1-11.7c-0.1-0.8-0.3-1.7-1.4-1.7c-1,0-1.4,1-1.5,1.7c-0.2,1.3-0.3,2.7-0.2,4
	c0.1,1.8-0.6,3.4-1,5c-0.4,1.3-1.2,1.7-2.4,1.7c-1.7-0.1-0.9-2.5-2.5-2.7c-0.9-5.2-2.4-10.3-1.3-15.7c0.4-1.7,1.4-3.4,0.9-5.6
	c-2.4,2.5-3.8,5.2-4.8,8.2c-0.9,3-1.1,6.1-1.3,9.2C208.9,359.5,211.2,346.6,218.5,334.5L218.5,334.5z M218.3,356
	c1.1-0.8,1.6-1.2,2.2-1.6c-0.2-0.2-0.4-0.5-0.5-0.5C219.2,353.9,218.7,354.5,218.3,356L218.3,356z"/>
<path class="st7" d="M242.6,398.3c2.3,0.9,4.4,2.3,6.1,3.9c2.5,2.2,5.4,3.2,8.6,3.5c1,0.1,1.9-0.2,2.3-1c0.5-1.1-0.6-1.5-1.4-2
	c-6.6-4.1-11.6-9.4-13.6-17.2c-1.1-4.3-0.5-8.4,0.4-12.6c0.2-0.8,0.4-1.7,1.4-1.7c1,0,1.6,0.7,1.9,1.7c0.8,2.8,1.3,5.6,2.3,8.4
	c1.4,4.1,3.5,7.7,8,9.2c1.6,0.5,2.2-0.1,2.3-1.6c0-0.4,0.1-0.8,0-1.1c-1.7-5.6,0.9-10,3.8-14.4c2.2-3.2,4-6.7,6.6-9.6
	c0.6-0.7,1.4-1.7,2.5-1.2c1.2,0.5,0.8,1.8,0.7,2.6c-1,8-2.2,15.9-3.1,23.8c-0.4,2.9-0.6,5.9,2.5,7.9c1.7,1.1,2.9,0.8,3.4-1.1
	c0.1-0.3,0.1-0.5,0-0.8c-0.7-6.3,3.4-10.5,6.7-15.1c4.8-6.8,12-10.1,18.9-13.9c0.5-0.3,1.1-0.6,1.7-0.8c0.6-0.1,1.3-0.3,1.8,0.2
	c0.5,0.6,0.1,1.2-0.1,1.8c-1.4,2.6-2.7,5.1-4.1,7.7c-2.2,4.1-3.9,8.4-5.8,12.6c-0.3,0.7-0.5,1.6-1.6,1.7c-0.1-1.1,0.5-2.1,0.9-3.1
	c2-5.9,5.1-11.3,8.2-16.7c0.3-0.5,0.9-1,0.3-1.7c-0.5-0.5-1,0-1.5,0c-1.9,0.2-2.7,2-4.1,2.9c-7.9,3.5-13.3,9.5-17.6,16.9
	c-2,3.5-2.3,6.6-1.2,10.2c0.4,1.2-0.1,2.2-0.9,3c-0.9,0.9-2,0.5-3,0.1c-3.8-1.6-5.7-4.5-5.7-8.6c0-1.9-0.1-3.8-0.1-5.7
	c0-1.8,0-3.6,0-5.4c1.1-1.1,0.4-2.5,0.5-3.8c0-0.5,0-1.1,0-1.6c1.1-2.1,0.8-4.5,1.4-6.8c0.3-0.9-0.6-1-1.2-0.6
	c-0.6,0.5-1.3,1-1.7,1.7c-3.2,6.3-6.8,12.4-6.2,19.9c0.3,3.1-1.6,4.1-4.5,3.1c-2.6-0.9-4.9-2.3-6.7-4.4c-1.4-1.6-2.4-3.2-2.4-5.5
	c0.1-2.4-1.1-4.5-1.7-6.8c-0.2-0.7-0.6-1.1-1.4-1c-0.7,0.2-0.6,0.8-0.6,1.3c0,2.5-0.1,4.9,0.1,7.3c0.1,1.6,0.6,3.3,2.6,3.8
	c0.8,0.2,0.9,1,1.2,1.6c1.5,3.6,3.8,6.7,6.5,9.6c1.4,1.6,3.3,2.1,5.1,3c1.9,0.9,3.1,2.2,2.3,4.3c-0.7,2-2.7,2.6-4.5,2
	c-4.2-1.3-8.6-2-11.9-5.4C245.6,401.2,243,400.9,242.6,398.3L242.6,398.3z"/>
<path class="st8" d="M386.9,121.5c2.2-2.2,5-3.5,7.7-4.8c11.3-5.7,22.9-10.6,34.8-14.8c0.4-0.2,0.8-0.4,1.2-0.6
	c3.9-1.1,7.8-2.3,11.8-3.2c5.5-1.2,11.1-1,16.4,1.2c2.9,1.2,3,4.3,3.3,6.9c1.7,13.6,0.3,26.9-3.9,39.9c-6.4,19.8-13.6,39.2-21,58.7
	c-3.6,9.6-6.9,19.3-11.1,28.7c-3.6,8.1-7.4,16.1-11.1,24.1c-0.8,1.6-0.9,2.9-0.2,4.5c4.1,9.9,8,19.9,14.1,28.9
	c-1.3,0.5-1.3-0.7-1.8-1.3c-3.9-5.3-6.5-11.3-9.1-17.2c0-0.2-0.1-0.4-0.1-0.6c-1.4-3.4-2.9-6.9-4.3-10.1c-1.7,1.9-1.2,4.3-2.2,6.3
	c-0.6-0.1-0.5-0.7-0.6-1.1c0.1-2.9,1.8-5.3,2.4-8.1c1.3-2.2,2.4-4.6,3.3-7.1c0.8-1.6,1.5-3.2,2.3-4.9c0.7-2.6,2.2-4.8,3.4-7.1
	c4.1-8,7.3-16.5,10.4-24.9c8.4-23.1,17.4-45.9,24.8-69.3c3.9-12.2,4.9-24.6,4.2-37.2c-0.4-6.2-2.8-8-8.5-6.9
	c-1.6,0.3-3.1,0.9-4.6,1.4c-8.5,2.5-16.2,6.8-23.9,11.1c-12.4,7-24.5,14.6-36.4,22.4c-5.7,3.7-10.8,8.1-16.3,12
	c-0.4-1.2,0.5-1.7,1.2-2.2c5.1-4.1,10.2-8.1,15.7-11.6c11.7-7.5,23.4-15.1,35.6-21.8c10.2-5.6,20.4-11.5,32.5-12.8
	c-5-2.2-10-2-15-0.8c-5.8,1.4-11.4,3.4-17,5.5c-12.1,4.5-24.1,9.3-35.3,16C388.7,121.1,387.9,121.8,386.9,121.5L386.9,121.5z"/>
<path class="st3" d="M127.1,121.5c6.2-3.4,11.9-7.7,18.3-11.1c-2.7,2.8-4,6.3-5.2,9.8c-0.6,1.8-1.1,3.6-1.3,5.5
	c-0.3,2.6,0.4,4.8,2.2,6.7c-0.6,0.8-1.9,1-2.2,2.2l0.1-0.1c-0.8,0.5-1.9,0.8-1.6,2.2l0,0c-1.4-0.3-1.4,0.8-1.6,1.6l0,0
	c-1.2-1.9-2.4-3.7-3.8-5.4C129.2,129.8,127.2,126,127.1,121.5L127.1,121.5z"/>
<path class="st3" d="M298.7,370.5c1.4-0.9,2.2-2.7,4.1-2.9c0.5,0,1-0.5,1.5,0c0.6,0.6,0,1.1-0.3,1.7c-3.1,5.4-6.2,10.8-8.2,16.7
	c-0.4,1-1,1.9-0.9,3.1c-0.5,0.7-1.2,1.2-1.3,2.1c-0.2-0.1-0.3-0.1-0.5-0.1c-3.1,1.1-6.2,2.2-9.5,2.8c-1.4,0.2-2.6,0.4-3.3-1
	c-0.7-1.5,0.1-2.5,1.4-3.4c3.9-2.8,7.9-5.5,10.7-9.3C294.8,377.2,297.1,374.1,298.7,370.5L298.7,370.5z"/>
<path class="st8" d="M359.8,115.5c0.9,7,1.6,14,1.6,21.6c4-2.4,7.2-5.5,11-7.3c3.3-1.6,5.9-4.3,9.6-5.1c-3.3,3-7.3,4.8-10.9,7.2
	c-5.9,3.9-12,7.7-16.8,12.9c-4.2,2.8-8.4,5.5-12.5,8.6c-2.8,2.1-6.4,2.2-9,4.4c1-2.5,3.8-2.5,5.7-4.2c-2.7-0.7-4.9-2.9-8.2-1.7
	c0.6-2.4,3-2.8,4.6-4.3c-6,0.4-11.4,1.6-16.7,4.4c0.5-1.8,1.5-2.8,2.5-3.7c1-0.9,2.1-1.8,1.9-3.4c0.3,0.1,0.4,0,0.3-0.3
	c-0.1,0.1-0.2,0.2-0.3,0.3c-0.4,0-0.7,0-1.1,0c0.2-2.1,2.5-2.7,3.2-4.5c0.1-0.3,0.6-0.5,0.9-0.2c0.4,0.4,0.2,0.8,0,1.2
	c-1.1,2.4-1.8,5.1-3.6,7.2c-0.1,0.1-0.2,0.2-0.2,0.3c0.1-0.1,0.2-0.2,0.3-0.2c5.9-1.3,11.8-2.6,17.9-2.4c0.8,0,1.9-0.6,2,0.5
	c0.1,1.1-1.1,0.7-1.7,0.7c-2.7-0.1-4.8,1.4-7.6,2.6c2.5,1,4.5,1.8,6.4,2.7c1,0.4,1.5-0.2,2.2-0.6c6.6-3.9,12.2-9,18.2-13.6
	c0.6-0.5,0.8-1.1,0.8-1.9c0-12.8-1.2-25.4-6-37.4c-0.5-1.4-2.1-2.4-1.6-4.2c3.4,3.4,4,8,5.4,12.3
	C358.8,110.1,359.2,112.8,359.8,115.5L359.8,115.5z"/>
<path class="st8" d="M127.1,121.5c0,4.5,2,8.3,4.8,11.6c1.4,1.7,2.7,3.5,3.8,5.4c0.3,1.7-1.5,2.6-1.4,4.2c-0.9-0.2-0.9-0.6-0.6-1.1
	c1.6-2.6,0.3-4.5-1.4-6.4c-2.9-3.5-5.8-7.1-6.1-12.3c-3.1,3.2-3.3,7-4.1,10.5c-0.2,0.6,1.3,1.3,0,1.8c-1.2,0.4-2-0.4-2.5-1.4
	c-2.4,5-1.2,16,1.3,21.7c-5.2-0.9-10.3-2.1-14.2-6.1c-0.5-0.5-1-0.9-1.7-0.6c-0.9,0.5-0.1,1.1,0.1,1.6c1.1,3.8,2.7,7.3,5.6,10.1
	c0.4,0.4,1.2,0.6,1,1.6c-1.1-0.2-2.1-0.4-3.5-0.8c0.9,1.2,1.5,2.2,2.2,3.1c-0.5,0.7-1,0.2-1.3-0.2c-1.1-1.6-2.1-3.3-3.1-5
	c-0.2-0.3-0.2-0.8-0.1-1c0.9-1.5,1-1.5,0.2-2.9c-1.7-2.8-2.2-6-2.8-9.1c-0.1-0.4-0.3-1,0.1-1.2c0.5-0.3,0.9,0.1,1.3,0.5
	c1.3,1.5,2.7,3,4.2,4.3c2.8,2.4,6.2,3.6,9.8,4.1c0.2,0.2,0.4,0.3,0.6,0c0,0-0.2-0.2-0.3-0.4c-0.6-3.2-1.3-6.3-1.7-9.5
	c-0.5-4.1,0.6-8,1.3-12c0.3-1.5,0-3.1,1.3-4.5c1.6,1.7-0.9,4.3,1.4,6c0.4-3.8,1.5-7.2,3.1-10.4c0.6-0.7,1.1-1.5,1.7-2.2
	C126.9,119.9,127,120.8,127.1,121.5L127.1,121.5z"/>
<path class="st7" d="M364.3,362.3c-0.1,0.5-0.3,1-0.5,1.5c-1.3,1.4-1.9,3.2-2.3,5c-0.1,0.2-0.2,0.4-0.3,0.5
	c-0.6,0.1-0.9,0.4-0.9,1.1c-0.1,0.2-0.2,0.3-0.3,0.5c-1.6,0.7-2.5,2.1-3.6,3.3c-2.9,0.7-4.1,3.3-6,5.2c-0.5,0.5-0.9,1.4-1.7,1.1
	c-1.1-0.4-0.2-1.2-0.1-1.8c0.1-0.5,0-0.9-0.6-1c-0.7-0.1-1.1,0.4-1.6,0.9c-3.5,3.8-6.9,7.6-10.4,11.4c-1.9,2.1-3.9,3.7-7.1,2.5
	c-0.7-0.3-1.7,0.2-2.6,0.4c1.1-1.8,3.1-2.1,4.8-2.5c5.7-1.3,8.3-6,11.5-10c0.2-0.4,0.4-0.7,0.6-1.1c1.5-0.3,2.4-1.2,2.7-2.8
	c0-0.2,0-0.3,0-0.5c1.5-0.4,2.4-1.2,2.7-2.8c0-0.2,0-0.3,0-0.5c1.1-0.1,1.7-0.9,2.2-1.8c0.8-1.3,1.7-2.6,2.5-3.9
	c0.3-0.5,0.6-1,1.2-0.7c0.6,0.3,0.6,0.9,0.5,1.4c-0.3,1.2-0.7,2.4-0.8,3.7c-0.1,0.7-1.1,1.6-0.1,2.2c0.9,0.5,1.4-0.5,2-1
	c5-4.5,6.9-10.6,8.8-16.8c0.6-1.9,0.6-3.9,2.2-5.4c0,0.7,0,1.5,0,2.2c-0.4,0.2-0.5,0.6-0.3,1c-0.1,0.4-0.2,0.8-0.2,1.2
	c-0.5,0.2-0.5,0.6-0.3,1c-0.2,0.9-0.4,1.7-0.5,2.5C364.9,359.5,364.4,360.8,364.3,362.3L364.3,362.3z"/>
<path class="st3" d="M390.7,368.8c3.9-5.3,9.6-6.2,16.3-2.7c0.2,1.9,2.2,2.2,3.2,3.4c0.7,0.8,1.6,1.6,1,2.8
	c-0.5,1.1-1.7,1.1-2.6,0.9C402.6,372,396.5,371,390.7,368.8L390.7,368.8z"/>
<path class="st2" d="M342.8,380.3c-3.3,4-5.9,8.7-11.5,10c-1.7,0.4-3.7,0.7-4.8,2.5c-0.9,0.2-1.8,0.5-2.7,0.7
	c-2.2,0.4-4.2,1.7-6.5,1.5c-1-0.1-2.4,0.6-3-0.5c-0.8-1.2,0.9-1.7,1.4-2.6c0.2-0.4,0.4-0.8,0.5-1.2c0.2,0,0.3-0.1,0.5-0.1
	c1.2,0.3,1.9-0.6,2.7-1.1c0.4,2.9,2.2,1.6,3.6,1.2c4.1-1.3,7.5-4.3,11.6-5.5C337.7,384.3,339.5,381.1,342.8,380.3L342.8,380.3z"/>
<path class="st3" d="M270.8,375.4c0,0.5,0,1.1,0,1.6c-1.7,1.1-1.2,2.5-0.5,3.8c0,1.8,0,3.6,0,5.4c-0.8,0.2-1,0.7-1,1.4
	c0.3,3.6-2.2,6-3.9,8.7c-0.5,0.8-1.2,1.7-2.4,1.2c-0.7-0.3-1.2-0.8-1.3-1.6c-0.2-1.2,0.5-1.8,1.5-2.3c2-0.8,2.4-2.2,2-4.3
	c-1.2-5.5,1.5-10.2,4.1-14.8C270.2,372.9,270.1,375.5,270.8,375.4L270.8,375.4z"/>
<path class="st8" d="M218.5,334.5c-7.3,12-9.6,24.9-6.8,38.7c0.2-3.1,0.4-6.2,1.3-9.2c0.9-3,2.3-5.7,4.8-8.2
	c0.4,2.2-0.6,3.9-0.9,5.6c-1.1,5.4,0.4,10.5,1.3,15.7c-1.1,0.6-1.1-0.3-1.2-1c-0.1-0.7,0.2-1.5-0.5-2c-0.7-4.5-1-8.9-0.5-13.4
	c0.4-0.2,0.6-0.6,0.3-0.8c-0.4-0.2-0.4,0.3-0.6,0.5c-3.1,5.7-3.2,11.8-2.4,18c-1.4,0.2-1.5-0.8-1.6-1.3c-1.1-5.1-2.6-10.1-2.2-15.4
	c0.7-10.5,3.4-20.5,9.2-29.5c0.3-0.5,0.6-1,1.2-1C220.2,332.7,218.5,333.3,218.5,334.5L218.5,334.5z"/>
<path class="st3" d="M313.9,391.7c-2.5,0.5-3.1-1-2.7-3c0.8-4.4,2.4-8.3,6.5-10.8c1.8-1.1,3.6-2.1,5.4-3.2c0.5-0.3,1.1-0.5,1.5,0
	c0.4,0.6-0.2,1-0.5,1.4c-3,3.5-5.8,7.2-8,11.2c-0.7,1.3-1.6,2.4-1.6,4C314.2,391.4,314.1,391.5,313.9,391.7L313.9,391.7z"/>
<path class="st8" d="M139.5,182c1.3-0.5,2.1,0.6,3,1.1c2.5,1.6,5.3,2.5,8.9,3.5c-0.9-0.7-1.2-1-1.5-1.2c-0.5-0.4-1.2-0.6-1-1.4
	c0.3-0.8,1.1-0.4,1.7-0.4c6.7-0.1,12.4-3,17.9-6.4c0.1-0.1,0.2-0.3,0.4-0.7c-7.1-0.6-13.9-4-21.1-1.1c2-2.8,5-2.5,7.6-2.1
	c4.6,0.8,8.4-1,12.1-3.2c0.5-0.3,1-0.5,1.4-0.7c0.6,1.1-0.5,1.3-1.1,1.6c-2.2,1.2-4.3,2.6-7.3,3.1c4.2,0.7,7.8,1.4,11.7,2
	c-6.9,4.1-13.3,8.3-21.7,8.1c1.1,1.8,3.2,2,4.4,3.5C149.3,187.3,143.9,186,139.5,182L139.5,182z"/>
<path class="st8" d="M454.2,342.2c-1.6,0.6-2.2-0.9-2.8-1.7c-6.3-8.5-11-17.9-15.1-27.5c-2.1-4.9-4.2-9.7-6-14.8
	c1.2,2.3,4.4,2.6,5,5.4c-0.6-0.3-1.3-0.6-2.5-1.3C438.8,316.6,444.7,330.4,454.2,342.2L454.2,342.2z"/>
<path class="st7" d="M293.2,391.1c0.2,0,0.3,0,0.5,0.1c1.3,0.9,0.2,1.8,0,2.6c-0.4,1.6-1.1,3.2-1,5c0.1,1.2,0.4,2.2,1.6,2.5
	c1.1,0.3,1.6-0.6,2.1-1.3c2.9-4.4,5.9-8.8,8.8-13.2c0.8-1.2,1.7-2.4,3.2-2.8c0,2.4-1,4.6-2.5,6.1c-3.2,3.3-5.6,7.1-8.3,10.7
	c-1,1.2-1.9,2.7-3.7,2.2c-1.9-0.6-2.3-2.4-2.2-4.2C291.6,396.1,292.8,393.7,293.2,391.1L293.2,391.1z"/>
<path class="st7" d="M319.4,389.6c-0.9,0.5-1.6,1.4-2.7,1.1c0.2-1.6,1.6-2.4,2.6-3.3c4.6-3.8,7.5-8.9,10.2-14.1
	c0.6-1.1,0.3-2.3-0.3-3.4c0.8-0.7,1.7-0.8,2.4-0.1c0.7,0.6,0,1.4-0.2,2c-1.7,5.6-4.3,10.6-8.6,14.7c-0.6,0.5-1.2,1.1-1.3,2
	C320.7,388.6,319.9,388.9,319.4,389.6L319.4,389.6z"/>
<path class="st7" d="M224,385.7c2.3,2,3.6,4.9,6,6.9c1.8,1.5,3.5,2.6,6,2.5c2.5-0.1,4.7,0.7,6.1,3.1c-1.5-0.5-2.9-0.8-4.5,0
	c-2.2,0.9-4.1-0.4-5.8-1.9C228.4,393.3,225.2,390.3,224,385.7L224,385.7z"/>
<path class="st3" d="M356.5,374.3c1.1-1.2,2-2.6,3.6-3.3c0.2,0.7-0.2,1.1-0.6,1.6c-0.4,0.6-1.1,1.2-0.6,1.8c0.5,0.8,1.2-0.3,1.9,0
	c-1.6,2.5-4.5,3.8-6.4,6c-1.2,1.4-2.7,2.4-3.6,4c-0.3,0.5-0.8,1.5-1.6,0.9c-0.8-0.6,0.1-1.3,0.5-1.8c1.6-2.5,3.3-5,5.4-7
	C355.7,375.9,356.5,375.3,356.5,374.3L356.5,374.3z"/>
<path class="st8" d="M170.6,134.7c-3.1-2.8-1.5-6.2-0.8-9.3c0.6-2.8,1.9-5.5,3.1-8.7c-2.7,1.8-5,3.4-7.5,4.9
	c-0.9,0.5-1.6,1.7-2.9,1.1c4.3-3.6,9.3-6.1,14.1-9.2c-1.5,2.3-3.2,4.4-4.1,6.9c-1.1,3-2,6-2.5,9.2
	C169.6,131.6,171.1,132.9,170.6,134.7L170.6,134.7z"/>
<path class="st8" d="M107.2,176.8c-0.4-1.3-2.7-1.1-2.4-2.9c3.6,2.4,7.3,4.5,11.6,5.6c1.9,0.5,3.7,0.2,5.6,0.4c1,0.1,2-0.1,2.4,1.1
	c-0.8,0.3-1.4,0.6-1.9,1.5c-0.4,0.8-0.4,1.3,0.4,1.7c0.1,0,0.2,0,0.3,0.1c-0.6,0-1.2-0.6-1.7,0c-0.7,0.7-1.3,1.5-1.9,2.2
	c-0.6,0.7-1.1,1.6-2.3,1.8c0.3-1.9,2-2.6,2.7-4c1.8-2.3,1.8-2.4,0.3-2.7c-4.5-1-8.8-2.6-13-4.6L107.2,176.8L107.2,176.8z"/>
<path class="st3" d="M371.8,388c2.2,1.5,3.3,0.7,4-1.6c1.3-4.7,4.5-8.4,7.3-12.1c0.2-0.2,0.6-0.3,1-0.4c-1.4,3.5-4,6.4-5.3,9.9
	c-0.6,1.6-1.3,3.2-2,4.7c-0.5,1.1-1.1,2.3-2.5,2.1C372.9,390.4,371.9,389.6,371.8,388L371.8,388z"/>
<path class="st8" d="M169,155.9c-0.5,0.7-1,0.1-1.3-0.1c-2.1-1.4-4.3-1.8-6.8-1.2c0-0.9,0.4-1.3,0.9-1.3c6.3-0.3,8.2-5.3,10.3-9.9
	c0.9-2,1.5-4.2,2.2-6.3c-0.9-0.5-2.1-0.2-2.7-1.4c1,0,2,0,3,0c1,0,1,0.8,0.8,1.3c-2.2,4.8-2.9,10.4-7.1,14.3
	c-0.8,0.7-1.6,1.4-2.5,2.1C166.6,154.6,168.5,154.4,169,155.9L169,155.9z"/>
<path class="st8" d="M129.7,186.1c2.4,1.8,4.6,3.9,8.2,4.2c-1.9-3.4-2.9-6.6-1.7-10.1c0.2-0.5-0.2-1.4,0.8-1.4
	c0.7,0,1.4,0.1,1.4,0.9c-0.1,1.1,1.8,1.1,1.1,2.4c-0.8-0.4-1.5-0.9-2.2-1.4c-1.4,4.6-0.3,7.1,4.9,10.6c-2.9,1.1-8-0.7-11.2-3.2
	C130.3,187.6,128.9,187.5,129.7,186.1L129.7,186.1z"/>
<path class="st3" d="M107.2,176.9c4.2,2,8.5,3.6,13,4.6c1.5,0.3,1.5,0.4-0.3,2.7c-4.1-1.1-8-2.5-11.3-5.2
	C108,178.6,106.5,178.4,107.2,176.9L107.2,176.9z"/>
<path class="st8" d="M435.4,303.5c1.8-0.7,2.2,1.7,3.7,1.6c0.9-0.6-0.8-1.4,0.2-1.9c3.1,2.2,5.5,5.3,8.5,7.8
	C442.9,309.8,439,307,435.4,303.5L435.4,303.5z M441.4,306.5c-0.4-0.4-0.7-0.7-1.1-0.9c-0.4-0.2-0.5,0.2-0.4,0.3
	c0.1,0.3,0.4,0.6,0.7,0.8C440.8,306.8,441.1,306.6,441.4,306.5z"/>
<path class="st8" d="M139,134.7c0.2-1.2,1.6-1.4,2.2-2.2c6.8-3.9,14.5-5.9,21.3-9.8c0.5,1.1-0.5,1-1,1.4c-4.4,3-9.4,4.5-14.2,6.5
	c-2.3,1-4.5,2.2-6.5,3.6C140.3,134.4,139.9,135.3,139,134.7L139,134.7z"/>
<path class="st7" d="M313.9,391.7c0.2-0.2,0.3-0.3,0.5-0.5c0.6-0.2,1.2-0.3,1.7-0.5c-0.2,0.4-0.3,0.8-0.5,1.2
	c-0.5,0.9-2.1,1.4-1.4,2.6c0.6,1,2,0.4,3,0.5c2.3,0.2,4.3-1.1,6.5-1.5c-1.7,2-9.2,4-11.5,3.1c-1.1-0.5-1.7-1.4-0.4-2.1
	C313.1,393.8,313.5,392.7,313.9,391.7L313.9,391.7z"/>
<path class="st8" d="M112.2,192.8c-0.4,0-0.8,0-1,0.5c-0.2,0.2-0.4,0.4-0.6,0.6l0-0.1c-3.1,1.2-5.9,3-9.2,3.7
	c-1,0.2-1.8,0.4-2.8-0.3c7-0.9,12.4-5,18-8.6c-0.6,2.1-3.2,2.3-4,4.2l0.2,0C112.6,192.6,112.4,192.6,112.2,192.8L112.2,192.8z"/>
<path class="st8" d="M179.6,160.8c0.6-0.6,1.1-0.9-0.3-1.1c-3-0.4-5.9-0.7-8.7-2c-0.8-0.4-1.9-0.4-1.6-1.8c4.7,2.2,9.5,3.5,14.8,2.6
	C182.2,159,181.6,161.1,179.6,160.8L179.6,160.8z"/>
<path class="st3" d="M80.2,189.7c-3.6,2.8-7.6,4.5-12.2,4.4c4.4-0.4,7.9-3.4,12.1-4.5L80.2,189.7z"/>
<path class="st8" d="M352.2,94.8c-3.1-0.5-5.8,0.4-8.3,2.3c-0.5,0.4-1.1,0.6-1.8,0.4C346.6,93.8,349.4,92.3,352.2,94.8L352.2,94.8z"
	/>
<path class="st8" d="M333.5,104.9c-0.7,2.6-4.9,6.5-7.3,6.8c0.6-0.7,1.3-1.4,1.9-2.1C329.9,108.1,331.7,106.5,333.5,104.9
	L333.5,104.9z"/>
<path class="st8" d="M459.9,348.2c-2.8-1-5.3-3.6-5.4-5.8C456.2,344.4,458.4,346,459.9,348.2z"/>
<path class="st8" d="M124.3,180.9c2.4,0.9,3.2,3.6,5.2,4.9C127.7,185.8,124.6,182.8,124.3,180.9z"/>
<path class="st8" d="M340,99.2c-0.9,2.4-2.4,4-5.1,4.4C336.5,101.9,338,100.2,340,99.2z"/>
<path class="st3" d="M370.2,378.2c1.7,1.5,1.1,3.6,1.4,5.4C369.8,382.1,370.1,380.1,370.2,378.2z"/>
<path class="st8" d="M437.4,301.3c-2-0.2-2.9-1.4-3-3.5C435.3,299,436.3,300.1,437.4,301.3z"/>
<path class="st7" d="M323.6,372.6c0.7-1.5,2-1.8,3.4-2C326.4,372.1,325,372.4,323.6,372.6z"/>
<path class="st8" d="M171.1,168.4c0.2-1.6,1.2-2.3,2.8-2.2C173.2,167.3,172.5,168.2,171.1,168.4z"/>
<path class="st8" d="M434.1,297.5c-1.8-0.3-2.2-0.6-2.5-2.7C432.8,295.4,433.4,296.5,434.1,297.5z"/>
<path class="st3" d="M88.6,182.3c0.3,0.6-0.2,0.9-0.5,1.3c-0.3,0.3-0.6,0.7-1.1,0.4c-0.3-0.6,0.2-0.9,0.5-1.3
	C87.8,182.3,88.1,181.9,88.6,182.3L88.6,182.3z"/>
<path class="st8" d="M342.2,97.5c0,1.6-0.9,1.8-2.2,1.7C340.5,98.3,341.1,97.6,342.2,97.5z"/>
<path class="st8" d="M173.9,166.2c0.2-1.4,0.9-2.2,2.5-1.7C175.6,165.3,174.9,166,173.9,166.2z"/>
<path class="st8" d="M431.6,294.8c-1.5,0-1.9-0.8-1.6-2.2C430.9,293,431.4,293.8,431.6,294.8z"/>
<path class="st3" d="M81.7,188.5c0-0.7,0.4-1.2,1.1-1.3c0.3-0.1,0.6,0.1,0.5,0.4c-0.2,0.7-0.8,0.9-1.4,1L81.7,188.5z"/>
<path class="st8" d="M177.7,163.3c-0.6-1.6,0.9-1.6,1.6-2.2C180.1,162.7,178.1,162.4,177.7,163.3z"/>
<path class="st7" d="M313.3,379.1c0.1-1,0.7-1.5,1.7-1.6C314.9,378.6,314.4,379.2,313.3,379.1z"/>
<path class="st8" d="M168.9,169.5c0.5-0.9,1.1-1.5,2.2-1.1C170.7,169.3,170.1,170,168.9,169.5z"/>
<path class="st8" d="M430,292.6c-1.5,0.2-1.3-0.7-1.1-1.6C429.6,291.3,430,291.8,430,292.6z"/>
<path class="st3" d="M90.1,179.9c0.1,0.3,0.3,0.6,0.2,0.8c-0.1,0.3-0.3,0.6-0.7,0.5c-0.1,0-0.2-0.5-0.1-0.7
	C89.6,180.2,89.8,180.1,90.1,179.9L90.1,179.9z"/>
<path class="st3" d="M80.1,189.6c0.1-1,0.9-1.1,1.7-1.1l0.1,0.1c-0.3,0.7-0.9,1-1.6,1.1L80.1,189.6L80.1,189.6z"/>
<path class="st8" d="M171.7,135.8c-0.7-0.1-1-0.5-1.1-1.1C171.5,134.4,171.9,134.8,171.7,135.8z"/>
<path class="st3" d="M371.7,385.8c0.5,0.3,0.6,0.6,0.1,1C371.1,386.5,371.1,386.2,371.7,385.8z"/>
<path class="st7" d="M317.1,376.4c0.1-0.6,0.5-1,1.2-1C318.2,376.2,317.9,376.5,317.1,376.4z"/>
<path class="st3" d="M368.4,369.9c0.1-0.6,0.3-1.2,1-0.5C369.3,369.9,368.9,370,368.4,369.9z"/>
<path class="st3" d="M84.6,186.8c-0.2-0.2-0.3-0.2-0.4-0.4c0.2-0.2,0.3-0.3,0.4-0.4c0,0,0.3,0.2,0.3,0.2
	C84.8,186.5,84.7,186.6,84.6,186.8z"/>
<path class="st6" d="M371.8,148.4c5.5-3.9,10.6-8.3,16.3-12c11.9-7.8,24-15.5,36.4-22.4c7.7-4.3,15.4-8.6,23.9-11.1
	c1.5-0.4,3-1.1,4.6-1.4c5.8-1.1,8.2,0.7,8.5,6.9c0.7,12.6-0.3,25-4.2,37.2c-7.4,23.4-16.4,46.3-24.8,69.3
	c-3.1,8.4-6.3,16.9-10.4,24.9c-1.2,2.4-2.6,4.6-3.4,7.1c-1.1-0.2-1.7,0.5-2.3,1.1c-1.9,2-3.9,2.3-6.5,1.1c-2.9-1.3-5.6-2.8-8.7-3.6
	c-1.7-0.4-3.5-1.7-4.4-3.3s-1.7-1.5-3-0.9c-0.8-0.3-1.1-0.9-1.5-1.7c3.5-0.4,6.8-0.8,10-2.8c-1.9-1.1-3.1,0.8-4.9,0.4
	c-5.7-1.5-10.5-4.7-15.2-7.9c-0.4-0.3-1-0.7-0.7-1.3c0.4-0.6,1.2-0.5,1.7-0.4c3.7,0.9,7.6,1.5,10.2,4.9c-0.9-2.9-3.1-4.8-4.9-7.1
	l0,0c-1-2.7-3.3-4.1-5.5-5.6c-1.3-0.9-2.9-1.6-4.5-3.7c3.5,1.3,5.5-1.6,8.3-0.9c0.1,1.4,1.2,1.7,2.2,2.1c7.5,2.9,13.8,0,19.7-4.2
	c4.9-3.4,8.3-8.2,11.7-13c6.7-9.4,12.6-19.3,17.8-29.6c3.5-7,5.9-14.6,8.2-22c0.4-1.4,1.2-3,0.4-4.6c0-0.4-0.1-0.7-0.1-1.1
	c0.5-0.1,0.9-0.2,1-0.7c1.2-3.7,0.6-7.2-0.5-10.8c-0.4-1.3-1.4-2.1-2.8-2.2c-0.1-0.9,1.3-1.5,0.6-2.6c-0.2,0.1-0.4,0.1-0.5,0.2
	c-7.9,12.6-20.2,18.4-34,22.1c-2.1,0.6-4.7,0.9-6.3,2.8c8.4-2.8,17.1-0.4,25.6-1.7c-0.3,0.7-0.6,1.3-0.8,2c-0.6,2.6-3.2,4.6-2.3,7.6
	c-5.6,4.1-12.4,3.9-18.9,4.4c5.3,1.2,10.6,1.6,15.7,3.1c-1.3,0.2-2.5,0.1-3.8,0.2c-6.5,0.1-12.9,0.6-19.2,2.3
	c-3.3,0.9-6.1,3.3-9.7,3.2c-0.8,0-1.7-0.2-1.9,1.2c8.8-1.6,17.2-0.3,25.6,2c-10.2,1.8-19.3,8-30.1,7.8c5.1-0.9,8.5,3.6,13.1,3.8
	c-8.9,3.4-17.6,0.1-26.4-0.9c1.7,1.5,4.2,0.7,5.7,2s3,2.6,5.1,4.2c-7.8-0.5-13.9-4.4-20.8-6c0.5,2.1,2.2,1.4,3.3,2
	c-1.2,2.6-3.2,0.6-4.8,0.7c-1.2,0.1-1.2-1-0.9-2c0.3-1.2-0.9-1.1-1.5-1.5c-0.6-0.4-1.7,0.1-1.8-0.8c-0.1-0.9,0.8-1.3,1.5-1.7
	c0.8-0.5,1.5-1.1,1.4-2.1c-0.1-1.4-1.4-0.8-2.1-1.1c-1-0.4-2.8-0.8-1.9-2.3c1.3-2.2-0.4-2.4-1.6-3c-1.3-0.7-2.8-0.6-4.3-0.6
	c4.5-2.8,9.8-3.5,14.8-4.8c3.7-0.9,7.4-1.6,11.3-1.8c-5.1-1.8-10.4-2.7-15.8-3.2c4.9-2.2,9.3-4.8,13-8.6c0.6-0.3,1.1-0.7,1.3-1.3
	c3.3-3.4,3.8-4.1,3.4-5.8c-2.6,2.8-6.1,3.7-10.2,4.6C368.3,151.1,370.5,150.2,371.8,148.4L371.8,148.4L371.8,148.4z"/>
<path class="st6" d="M319.4,389.6c0.6-0.7,1.3-1,2.1-1.1c3-1.3,5.8-2.9,7.6-5.8c2.4-3.9,4.7-7.7,6.3-12c0.9-2.3-0.4-3.9-2.8-3.8
	c-8.1,0.3-14.4,4.7-20.2,9.5c-4.6,3.8-9,8.1-12.7,13c-0.4,0.5-0.9,1.5-1.7,0.9c-0.8-0.5,0-1.4,0.3-1.9c3.9-7.6,6.9-15.7,12.7-22.2
	c0.6-0.6,1.3-1.6,0.6-2.5c-0.8-1-2.1-1.5-3.4-1.1c-5.3,2.1-11.1,2.8-15.8,6.2c-1.1,0.8-2.5,1.5-3.9,1.8c1.3-3.1,4-5.1,7-5.9
	c4.7-1.2,4-4.7,2.6-8.1c-0.2-0.5-0.7-0.8-1-1.2c-0.3-0.4-0.5-0.9-0.1-1.2c0.5-0.4,0.8,0,1.2,0.2c2.5,1.7,4.8,1.4,6.9-1
	c0.2-0.3,0.5-0.6,0.7-0.8c3.5-3.8,4-3.7,5.9,1c1.1,2.7,2.6,2.9,4.4,0.5c0.7-0.9,1.3-2,2-2.9c1.5-2.2,2.6-2.3,4.6-0.7
	c0.6,0.5,1,1,1.6,1.5c0.8,0.7,1.7,1,1.9-0.5c0.2-1.1,0.7-1.7,1.8-1.5c1.1,0.2,1.3,1.1,1.5,2c0.6,3.3,1.1,6.6,1.8,9.8
	c0.3,1.2,0.3,3,2.4,2.7c1.8-0.3,1.2-1.9,1.3-3.1c0.2-3.3-0.5-6.7,0.5-10c0.1-0.3,0-0.9,0.2-1c2.4-2,4.4-4.4,6.5-6.6
	c1-1.1,1.9,0.2,2.1,1.4c0.5,2.6,1.3,5.1,2.5,7.4c0.3,0.5,0.3,1.4,1,1.5c0.9,0.1,1-0.9,1.3-1.5c2.1-4,1.9-8.3,1.4-12.5
	c-0.3-2.4-0.5-4.6,0.1-7c0.8-3.2-0.7-6.3-1.3-9.3c-0.7-3.2-0.6-6.5-0.7-9.7c0-1.4,0.7-2.1,1.9-2.2c1.5-0.1,3.1-0.1,4.6,0
	c1.1,0,1.6,0.7,1.6,1.8c0,1,0,2,0,3c0,1.1,0.2,2,1.2,2.5c1.1,0.5,1.2-0.7,1.8-1.2c1.3-1.2,1.9-0.6,2.5,0.9c0.4,1.1-0.2,2.9,1.6,3.3
	c1.2,5.2,2.7,10.4,2.7,15.8c0.5,1.5-1.2,3.6,1.3,4.4c0.1,1.5,0.2,2.9,0.3,4.4c-0.1,0.7-0.1,1.5-0.2,2.2c-0.5,0.3-0.5,0.7-0.2,1.2
	c0,0.2-0.1,0.3-0.2,0.5c-1.5,1.5-1.6,3.6-2.2,5.4c-1.1,0.1-1.4,1-1.5,1.9c-0.2,1.3-0.9,2.4-1.4,3.5c-0.5,1-0.6,2.3-2.3,0.5
	c-0.8-0.9-3.7-2.2-4.9,0c-2,3.7-4.2,7.3-6.1,11c0,0.2,0,0.3,0,0.5c-1.5,0.3-2.5,1.2-2.7,2.8c0,0.2,0,0.3,0,0.5
	c-1.5,0.3-2.5,1.2-2.7,2.8c-0.2,0.4-0.4,0.7-0.6,1.1c-3.2,0.8-5,4-8.2,4.9c-4.2,1.2-7.5,4.2-11.6,5.5
	C321.6,391.2,319.7,392.5,319.4,389.6L319.4,389.6z"/>
<path class="st5" d="M354.2,144.9c4.9-5.3,10.9-9.1,16.8-12.9c3.6-2.4,7.7-4.2,10.9-7.2l0,0.1c1.9-0.7,3.9-1.2,4.9-3.3h-0.1
	c1.1,0.3,1.9-0.4,2.8-0.9c11.1-6.7,23.1-11.5,35.3-16c5.6-2.1,11.2-4.1,17-5.5c5-1.2,9.9-1.4,15,0.8c-12.1,1.4-22.3,7.2-32.5,12.8
	c-12.2,6.7-23.9,14.3-35.6,21.8c-5.5,3.5-10.6,7.5-15.7,11.6c-0.6,0.5-1.6,1-1.2,2.2c0,0,0,0,0,0c-1-0.4-1.7,0.2-2.4,0.8
	c-1.5,1.3-3.1,2.6-4.7,3.9c-3.7,0.3-7.4,0.4-9.6-3.6C354.3,148,354.1,146.5,354.2,144.9L354.2,144.9z"/>
<path class="st8" d="M149.3,242.1c-3.8-0.2-5.1-3.3-6.4-6c-2-4.1-1.8-8.6-1.6-13c0.3-5,1.7-9.9-0.4-14.9c-1-2.3-0.5-5.2-0.1-7.8
	c0.5-2.9,3.1-4.6,6.1-4.9c4.3-0.3,8.4,0.8,12.4,2.2c2.7,1,5.4,1,8.1,0.2c0.3-0.1,0.7-0.1,1.1-0.1c9.5,0.1,19-1.1,28.5-0.4
	c3.9,0.3,7.7,0.5,11.6,0c2.1-0.3,3.1-2.1,5.1-2.3c-1.3,2.8-3.8,3.3-6.4,3.3c-9,0.1-17.9-0.3-26.9,0.1c-5.1,0.2-10.3-0.1-15.6,1
	c1.5,2.1,3,4,3.1,6.5c0,0.5,0.1,1.1,0.1,1.6c-1.2,3-2.9,5.6-5.1,7.9c-1.4,1.4-2.5,3.1-4.1,4.3c-2.6,1.9-4.6,5-8.4,4.6
	c-1.2-0.1-1.1,0.8-0.9,1.4c2.1,4.5,3.1,9.4,6.4,13.3c0.7,1.4,1.5,2.7,2.2,4.1c-0.2,0.1-0.4,0.2-0.6,0.4c-5.9-7.2-7.4-16.7-12.8-24.2
	c-0.8-1.1-0.7-2.8-1.6-4.2c-0.3,4.3-0.6,8.3-0.7,12.4C142,233.8,144.3,238.6,149.3,242.1L149.3,242.1z M160.4,208.7
	c-0.2,0.2-0.5,0.5-0.8,0.7c-1.6-0.1-2.3,0.7-2.5,2.2c-0.1,0.9,0.1,1.7,1,2c1.5,0.4,2.9,0.1,4-1c1-1,1.6-2.2,1.3-3.6
	c-0.2-0.9-0.7-1.5-1.6-1.6C160.9,207.1,160.3,207.6,160.4,208.7L160.4,208.7z M147.9,196.2c-2.2,0.2-4.2,1.2-5.6,3.1
	c-0.7,0.9-0.8,2-0.3,2.8c0.6,1.1,1.4-0.2,2.1-0.2c3.5-0.2,6.9-1.2,10.5-0.5c3.7,0.8,6.5,2.9,9.4,5c0.6,0.4,1.3,1.6,2.3,0.8
	c0.9-0.8,0.6-1.8,0.2-2.8c-0.8-1.9-1.9-3.6-3.8-4.4C158,198,153.1,197,147.9,196.2L147.9,196.2z"/>
<path class="st2" d="M158,243.3c-0.7-1.4-1.5-2.7-2.2-4.1c2.3-1.5,4.3-3.7,7.2-4.3c1.6-0.3,3-1.3,4.3-2.2c5.2-3.6,5.1-10.1-0.1-13.7
	c-1.5-1.1-3.4-1.7-4.4-3.4c2.3-2.3,3.9-4.9,5.1-7.9c2,1.1,4,2.1,6,3.2c0.1,0.1,0.3,0.1,0.4,0.2c1.7,2.6,4.5,2.4,7,2.5
	c5.7,0.1,11.4,0.4,17,1.1c15.4,1.9,29.7,7,43,15.1c3.1,1.9,6.4,3.4,8.8,6.2c-3.8-0.5-6.5-3-9.6-4.9c-7.2-4.6-14.7-8.8-22.9-11.1
	c-5.4-1.5-11-2.4-16.5-3.6c-4.6-1.1-9.4-1.1-14.1-1.3c-4.7-0.2-9.6,0.1-14-2.7c0.2,4,0.3,4,1.9,6.9c2.7,4.8,2.8,9.4-0.6,14
	c-1.6,2.2-3.9,3.4-5.9,5.1c-3.6,2.9-3.5,4,0.6,6.4c0.3,0.2,0.7,0.3,1,0.5c1.8,1.5,4.2,2.1,5.4,4.3
	C168.9,249.7,162.9,247.9,158,243.3L158,243.3z"/>
<path class="st8" d="M289.1,209.6c-1.3-1.5-2.5-3-3.9-4.7c-1.1,3.2-3.8,3.8-6.6,3.8c-7.4,0.1-14.7,0-22,0.1c-2.8,0-4.4-1.2-5.1-3.8
	c-0.3-1-0.6-2.1-0.9-3.3c-2,0.9-3.9,2.2-6.1,2.6c-0.5,0.1-1.1,0.3-1.4-0.4c-0.2-0.5,0.4-0.8,0.7-1c5.4-3.3,9.6-7.9,13.6-12.7
	c1-1.2,2.3-2.3,3.5-3.4c5.4-4.6,12.5-0.8,16.5,3.5c3,3.2,4.8,7.2,7,10.9c1.6,2.7,3.3,5.3,4.9,8C289.3,209.3,289.2,209.4,289.1,209.6
	L289.1,209.6z M256.5,196.1c-3.1,1.8-3.6,4.7-3.7,7.9c-0.1,2.4,1.1,3.6,3.6,3.7c7.6,0.3,15.1-0.6,22.7-0.6c1,0,2-0.3,2.7-1
	c2.4-0.7,2.5-2.3,1.3-4.1c-0.9-1.3-2-2.5-3-3.7c-1.2-2.2-3-3.8-4.7-5.6c-1.2-1.3-2-1.1-2.6,0.6c-1.2,3.3-3.1,6.1-5.8,8.3
	c-1.9,1.5-4.1,1.4-6.1,0.4c-1.6-0.8-2.7-2.2-1.6-4.2c1.4-0.3,2.9-0.4,3.3-2.2c0.2-0.9,0-1.8-0.9-2.4c-1.2-0.7-2.4-0.7-3.8,0
	C256.8,194,257.3,195.4,256.5,196.1L256.5,196.1z"/>
<path class="st8" d="M293.2,145.5c0.4,1.6-1.2,2.3-2,3.7c3.2-1,5.5-3.2,8.1-4.7c-1.7,3.5-4.9,5.7-7,8.8c7.9-4.9,16.8-7.2,25.2-10.6
	c-2.4,1.6-4.3,4.1-7.5,4.5c-0.1-0.4-0.3-0.6-0.7-0.4c-0.1,0-0.1,0.2-0.2,0.4c0.3,0,0.6,0.1,1,0.1c-0.4,1.4,0.2,2,1.6,1.6
	c2.4-0.7,4.7-1.6,7-2.8c0.9-0.5,1.8-1.3,3-0.9c-4.2,3.6-9.2,5.1-14.7,5.5c0.3-1.5,1.7-1.8,1.9-3.1c-0.9-0.7-1.7,0.1-2.4,0.3
	c-6.2,2.5-12.2,5.3-17.4,9.6c-0.3,0.2-0.4,0.6-0.8,0.2c-0.5-0.5-0.1-0.9,0.2-1.1c2.1-1.5,2.7-4.2,4.5-5.9c0.1-0.2,0.1-0.4,0.2-0.6
	l-0.7,0c-4.5,2.3-9.1,4.6-13.6,7c-3.4,1.7-6.6,3.6-8.7,7c-0.2-0.1-0.4-0.2-0.6-0.4c1.7-3.2,3.5-6.4,5.2-9.6
	c-7.7,6.6-16.8,10.5-25.9,14.4c-6.9,2.9-12.2,7.9-17.7,12.7c-1.2,1.1-2.2,2.4-3.9,2.7c1.1-2.1,3.2-3.3,4.8-4.9
	c6.7-7.2,15.4-11.2,24.2-15c7-3,13.2-7.1,18.8-12.1c0.4-0.4,0.8-1.2,1.5-0.7c0.6,0.5,0.1,1.1-0.2,1.7c-0.8,1.6-1.5,3.2-2.1,5
	c5.8-3.1,12.6-4.7,16.9-10.4C291.7,146.8,292.2,145.9,293.2,145.5L293.2,145.5z"/>
<path class="st0" d="M349.1,259.5c-2.8-1.9-3.2-5.1-4.5-7.8c-0.3-0.7-0.2-2-1.2-1.8c-1.1,0.1-0.5,1.3-0.6,2.1
	c-0.7,5.5,2,9.9,4.6,14.4c0.4,0.6,1.2,1.2,0.5,1.9c-0.6,0.7-1.3-0.2-1.9-0.5c-2.6-1.4-4.2-3.9-6.6-5.6c-0.1-0.2-0.3-0.4-0.5-0.6
	c-0.1-0.7-0.4-1.3-1.1-1.6h0c-0.1-0.2-0.1-0.5-0.2-0.8c-4.3-7.3-9.5-14.1-15.3-20.2c-3.6-3.8-8.2-6.5-13.4-7.9
	c-0.4-0.2-0.7-0.3-1.1-0.5c-5.7-2.6-11.6-2.5-17.5-1.3c-9.7,2-17.8,7.2-25.2,13.7c-1.6,1.5-3.2,2.3-5.3,1.2
	c-0.2-0.2-0.4-0.3-0.5-0.5c-0.5-1.2-2-1.6-2.3-3c1-0.3,1.5,0.6,2.1,1c3.2,2.4,3.2,2.4,6.2-0.3c8.2-7.6,17.9-12.2,28.9-13.8
	c6.9-1,13,1.5,19.1,4c8.2,3.4,13.2,10.2,18.3,16.9c2.8,3.7,5.1,7.7,7.7,11.5c1.3,1.9,2.7,3.6,4.9,4.5c0.1,0.1,0.4,0.3,0.4,0.2
	c0.4-0.2,0.1-0.4-0.1-0.6c-0.9-3.3-2.9-6.1-3.2-9.7c-0.2-2.8-0.3-5.6,0.5-8.3c0.2-0.6,0.4-1.3,1.2-1.2c0.6,0.1,1,0.5,1,1.1
	C344.7,250.9,346.9,255.2,349.1,259.5L349.1,259.5z"/>
<path class="st0" d="M250.2,235.9c-2.4-2.8-5.8-4.3-8.8-6.2c-13.2-8.1-27.6-13.1-43-15.1c-5.7-0.7-11.3-1.1-17-1.1
	c-2.5,0-5.3,0.2-7-2.5c4.5,1.9,9.3,1.2,13.9,1.4c14.2,0.5,27.5,4.1,40.4,9.6c8.9,3.8,17.3,8.2,24.7,14.5c1.3,1.1,2.8,1.9,3.4,3.7
	c-0.4,0-0.7,0-1.1,0l-0.6-0.5c-0.5-0.9-1.1-1.5-2.2-1.7c-0.2-0.2-0.4-0.3-0.6-0.5C251.9,236.7,251.2,236,250.2,235.9L250.2,235.9
	L250.2,235.9z"/>
<path class="st8" d="M386.9,215.3c-2.8-0.6-4.8,2.2-8.3,0.9c1.6,2.1,3.2,2.7,4.5,3.7c2.2,1.6,4.5,3,5.5,5.6
	c-2.3-0.9-3.5-3.2-5.5-4.4c-2.4-1.4-4.6-3.1-7.4-3.9c-0.7-0.2-1.6-0.5-1.4-1.4c0.3-1,1.3-0.5,1.9-0.4c2.5,0.5,5,0.2,7.8-0.9
	c-5.5-1.7-10.3-3.5-14.9-5.9c-1.2-0.7-1.4-1.8-2.1-2.7c1-0.7,1.9-1,3.2-1.1c1.8,0,3.3,1.4,5.5,1c-5.4-4-10.5-7.7-16.2-10.4
	c-0.9-0.4-2.1-0.3-2.5-1.5l0,0c0.5,0.1,1.1,0.1,1.6,0.3c6.9,2.3,12.5,6.8,18.2,11.1c-0.4,0.9-1.3,1.3-1.9,1.9
	c-2.2-0.2-4.3-1.5-6.6-1.1c-0.1,0.3-0.1,0.5-0.1,0.5c5.5,3.6,11.5,6.1,18.1,6.9c0.8,0.1,1.4,0.2,1.6,1.1
	C388,215.4,387.3,215.1,386.9,215.3L386.9,215.3z"/>
<path class="st0" d="M343.3,175.6c0.4-0.1,0.8-0.1,1.1-0.2c0.6,0,1.3,0,1.9,0c1.6,1.5,0.7,2.7-0.4,3.9c-0.6,0.6-1.4,1.7-0.2,1.9
	c2.4,0.5,2.4,2.8,3.6,3.9c2.4,2.2,1.2,2.5-0.7,3.3c-1,0.4-1.5,1.1-1.1,2.4c0.4,1.2,0.6,2,2.1,1.8c0.7-0.1,1.5-0.1,2,0.5
	c0,0.5,0.3,0.6,0.7,0.7c-1.5,0.3-3,0.7-4.5,1c-0.7-0.2-1.9,0-1.8-0.8c0.1-2-0.9-2.1-2.4-2c-0.3,0-0.8-0.2-0.9-0.4
	c-0.3-0.5,0.1-0.8,0.5-1.1c1-0.9,2.6-1.2,3.4-3c-1.2,0.1-2.1,0.1-2.9,0.3c-0.7,0.1-1.5,0.7-2,0c-0.5-0.8,0.5-1.2,0.9-1.7
	c0.3-0.4,0.6-0.7,0.8-1.1c0.8-1.1,1.9-2.1-0.7-2.6c-2.2-0.4-2.4-1.7-1-3.6C342.3,177.7,343.6,177.1,343.3,175.6L343.3,175.6z"/>
<path class="st3" d="M343.3,175.6c0.3,1.5-1,2.2-1.8,3.2c-1.4,1.9-1.2,3.2,1,3.6c2.6,0.5,1.5,1.5,0.7,2.6c-0.3,0.4-0.6,0.7-0.8,1.1
	c-0.4,0.5-1.4,0.9-0.9,1.7c0.5,0.6,1.3,0.1,2,0c0.9-0.2,1.7-0.2,2.9-0.3c-0.8,1.8-2.4,2.1-3.4,3c-0.3,0.3-0.8,0.6-0.5,1.1
	c0.1,0.2,0.6,0.4,0.9,0.4c1.5-0.1,2.5,0.1,2.4,2c0,0.8,1.1,0.6,1.8,0.8c-1,1.6-2.4,1.5-3,0.1c-0.6-1.4-1.5-1.3-2.6-1.3
	c-1.3,0-2.2-0.3-3.3-1.2c-1.8-1.5-1.5-2.4-1-4.5c0.4-1.8,1.8-4.1,0.3-6.3c-0.4-0.6-0.4-1.8,0.4-2.2
	C340.2,178.1,341.2,176,343.3,175.6L343.3,175.6z"/>
<path class="st8" d="M388.6,225.6c1.8,2.2,4,4.2,4.9,7.1c-2.6-3.4-6.5-4-10.2-4.9c-0.5-0.1-1.4-0.2-1.7,0.4c-0.3,0.6,0.3,1,0.7,1.3
	c4.8,3.2,9.5,6.4,15.2,7.9c1.8,0.5,3-1.4,4.9-0.4c-3.1,2-6.5,2.4-10,2.8c0.3,0.8,0.6,1.4,1.5,1.7c0.1,0.2,0.3,0.5,0.4,0.7
	c-0.2,0.2-0.3,0.3-0.5,0.5c-2.5-1.7-5.3-3.1-8-4.7c3.1,0.9,6.1,1,9.6,0.1c-4.7-2.1-8.8-4.5-12.8-7.1c-1.3-0.8-3.4-1.9-3-3
	c0.6-1.6,2.9-1.4,4.6-1.2c0.6,0.1,1.3,0.1,1.8,0.4C388.1,228.5,388.8,227.7,388.6,225.6L388.6,225.6z"/>
<path class="st8" d="M346.4,175.3c-0.6,0-1.3,0-1.9,0c0-1.5,1.3-0.8,2-1.2c6.5-3.4,13.5-5.1,20.7-6.4c0.3-0.1,0.6-0.3,1.2-0.6
	c-1.6-0.7-3.1-0.9-4.6-0.9c-1.6,0-3.2-0.4-4.8-0.5c-1.6-0.1-3.2,0-4.8,0c-0.1-0.9,0.5-0.9,1-1.1c5.4-1.8,10.4-4.3,14.7-8.1
	c0.6-0.5,1.1-1.6,2.2-0.6c-3.6,3.8-8.1,6.4-13,8.6c5.4,0.5,10.6,1.4,15.8,3.2c-3.9,0.2-7.6,0.8-11.3,1.8c-5,1.3-10.3,2.1-14.8,4.8
	c-0.4,0-0.9,0-1.1,0.5C347.2,174.9,346.7,174.9,346.4,175.3L346.4,175.3z"/>
<path class="st0" d="M413.2,258.9c-0.6,2.7-2.3,5.2-2.4,8.1c-1.5-0.1-2.1-1.5-3.1-2.4c-1.1-1-2.1-2.4-3.7-2.4c-2,0-1.6-1-1.3-2.2
	c0.1-0.4,0.1-0.7,0.2-1c1.2-0.9,1.1-1.9,0.1-2.9c0.1-0.9,0.1-1.8,0.2-2.6c1.9,0.2,2.2,1.6,2.2,3.1c0,1,0.6,1.7,1.4,2.1
	c0.6,0.3,1.1,0,1.3-0.5c1.4-3,2.6-2,3.8,0.1C412.2,258.6,412.8,258.7,413.2,258.9z"/>
<path class="st0" d="M378.8,330.7c0,0.4,0,0.7,0,1c-0.1,1.6-0.2,3.2,0.3,4.8c0.5,1.9,1.1,0.6,1.8,0.2c0.6,2.5,0.1,3.9-2.4,5.8
	c-0.5-2.8,0.1-5.7-1.1-8.2c-0.6-0.2-0.8,0.1-1,0.6c-0.1,0.5-0.1,1.2-0.9,1c-0.6-0.1-0.8-0.8-0.9-1.2c-0.5-2.2-1.1-4.4-1.5-6.6
	c-0.7-4.4-3.1-8-5.2-11.8c-0.5-0.9-1.2-1.8-1.2-3c0.4,0.2,0.8,0.3,1.1,0.5l0,0c0,0.8,0.3,1.3,1.1,1.6l0,0c0.2,1.7,1.6,2.8,2.4,4.2
	c1.8,3.3,2.5,7,3.5,10.5c0.2,0.6,0,1.5,0.9,1.5c1.1,0,0.7-1,0.8-1.7c0.1-1.3-0.3-2.6,0.5-4C378.4,327.4,377.7,329.4,378.8,330.7
	L378.8,330.7z"/>
<path class="st0" d="M367.9,346.6c-0.1-1.5-0.2-2.9-0.3-4.4c0.4-1.4,0.2-2.8,0-4.3c-0.2-4.5-0.8-8.9-1.8-13.3
	c-1.5-6.5-4.2-12.6-7.3-18.5c-0.4-0.8-1.7-1.7-0.4-2.8c1.4,1.3,2.9,2.5,3.8,4.2c-1.7,0.5-1,1.5-0.5,2.5c5.4,10.6,7.6,21.9,7.4,33.8
	C368.8,344.7,369.3,346,367.9,346.6L367.9,346.6z"/>
<path class="st3" d="M402.7,260c-0.3,1.2-0.7,2.2,1.3,2.2c1.6,0,2.6,1.4,3.7,2.4c1,0.9,1.6,2.2,3.1,2.4c0.2,0.4,0,1,0.6,1.1
	c1.5,2.4,3.9,3.3,6.5,3.8c0,0.2,0.1,0.4,0.1,0.6c-1.6,2.1-2.6,2.3-4.2,0.4c-1.4-1.6-2.7-2.6-5-2.7c-1.9,0-3.1-1.4-3.3-3.3
	c-0.3-2.3-0.5-4.3-3.7-3.2c-0.6,0.2-1.3-0.1-1.6-0.8c-0.3-0.7,0-1.2,0.5-1.7C401.3,260.6,401.7,259.9,402.7,260L402.7,260z"/>
<path class="st8" d="M364.7,153.1c1.6-1.3,3.1-2.6,4.7-3.9c0.7-0.6,1.4-1.2,2.4-0.8c-1.3,1.9-3.5,2.8-5.3,5
	c4.1-0.9,7.6-1.8,10.2-4.6c0.4,1.7-0.1,2.4-3.4,5.8c0-1.9-0.9-1.9-2.4-1.3c-1.7,0.6-3.5,1.2-5.3,1.6
	C364.2,155.1,363.4,154.6,364.7,153.1L364.7,153.1z"/>
<path class="st0" d="M381,311.7c-2.5-6.8-5-13.5-7.5-20.3c1.8,1.5,2.2,3.9,3.1,5.9c1.8,4.1,3.6,8.2,4.5,12.7
	C381.2,310.5,381.6,311.1,381,311.7z"/>
<path class="st0" d="M368.2,281.8c-2-1.1-2.8-3.2-4.1-4.9c-2.2-2.9-5.5-4.9-7.1-8.3C361.8,272.1,365.7,276.4,368.2,281.8
	L368.2,281.8z"/>
<path class="st0" d="M382,327.5c-0.1-3.1-0.2-6.3-0.3-9.4c1.5,0.2,2.3,1,1.6,2.6c-0.9,2.2,0.3,4.7-0.8,6.8
	C382.3,327.5,382.2,327.5,382,327.5L382,327.5z"/>
<path class="st7" d="M380.9,336.7c-0.6,0.4-1.2,1.7-1.8-0.2c-0.5-1.6-0.4-3.2-0.3-4.8c1,1.5,2,1.1,3.1,0.1c0,0.4,0,0.7,0,1.1
	c-0.7,0.8-1,1.8-0.9,2.9C381,336.1,381,336.4,380.9,336.7L380.9,336.7z"/>
<path class="st0" d="M173.9,210.8c-2-1.1-4-2.1-6-3.2c0-0.5-0.1-1.1-0.1-1.6C170.3,207,172.5,208.4,173.9,210.8L173.9,210.8z"/>
<path class="st5" d="M403.3,253.4c-0.1,0.9-0.1,1.8-0.2,2.6c-0.1-0.1-0.2-0.1-0.3,0c-0.9-2.1-1.8-4.2-2.7-6.4
	c0.2-0.2,0.4-0.4,0.6-0.6c0.2,0.1,0.3,0.1,0.5,0.1l0,0c0.2,0.2,0.3,0.4,0.5,0.6l0,0C402.1,250.9,402.7,252.2,403.3,253.4
	L403.3,253.4z"/>
<path class="st7" d="M367.9,313.8c-0.4-0.2-0.8-0.3-1.1-0.5c-1-1.5-2.5-2.6-3.1-4.4C366.4,309.4,367.2,311.5,367.9,313.8
	L367.9,313.8z"/>
<path class="st8" d="M215.8,193.5c1.3-1.8,2.9-3.3,4.9-4.4C219.8,191.4,218.3,192.9,215.8,193.5z"/>
<path class="st8" d="M352.2,193.7c-0.4-0.1-0.7-0.3-0.7-0.7c1.6,0.1,3.3-0.6,4.9,0.4c0.2,0.2,0.4,0.4,0.5,0.6l0,0
	C355.4,193.9,353.8,193.8,352.2,193.7z"/>
<path class="st3" d="M361.5,368.9c0.5-1.8,1-3.6,2.3-5C363.3,365.6,364.3,368.1,361.5,368.9z"/>
<path class="st2" d="M255.6,240.3c0.4,0,0.7,0,1.1,0c0.1,0.1,0.3,0.2,0.4,0.3c0.3,1.4,1.8,1.8,2.3,3
	C257.3,243.5,256.2,242.2,255.6,240.3z"/>
<path class="st8" d="M397.2,245.9c-1.3-0.9-2.4-2-3.3-3.2c0.2-0.2,0.3-0.3,0.5-0.5c1.3,0.9,2.5,1.9,3.3,3.3
	C397.5,245.6,397.3,245.7,397.2,245.9L397.2,245.9z"/>
<path class="st3" d="M364.3,362.3c0.2-1.5,0.6-2.9,1.7-4C365.8,359.8,366.2,361.6,364.3,362.3z"/>
<path class="st8" d="M223.4,186.9c0.8-1.2,1.6-2.4,3.3-2.4C226.1,185.9,225.2,187,223.4,186.9z"/>
<path class="st0" d="M371.5,287.3c-1.3-0.8-1.7-2-2-3.4C370.9,284.6,371.3,285.9,371.5,287.3z"/>
<path class="st8" d="M220.7,189.1c0.6-1.1,1.5-1.9,2.8-2.2C223.3,188.5,222.2,189.1,220.7,189.1z"/>
<path class="st3" d="M402.7,256c0.1,0,0.2,0,0.3,0c1,1,1.1,2-0.1,2.9C402.9,258,402.8,257,402.7,256L402.7,256z"/>
<path class="st0" d="M381.5,315.5c-0.8-0.9-0.6-1.9-0.4-2.9C382.2,313.5,382.1,314.5,381.5,315.5z"/>
<path class="st0" d="M381,335.8c0-1.1,0.3-2,0.9-2.9C382.6,334.2,382,335,381,335.8z"/>
<path class="st8" d="M400.6,249c-0.2,0.2-0.4,0.4-0.6,0.6c-0.4-0.7-0.9-1.3-1.3-2c0.1-0.1,0.3-0.3,0.4-0.4c0.3,0.2,0.6,0.5,1,0.7
	c0,0.3,0.1,0.5,0.5,0.6l0,0C400.5,248.7,400.5,248.9,400.6,249L400.6,249z"/>
<path class="st0" d="M382.1,331.9c0-0.8,0-1.5-0.1-2.2c0.2,0,0.3,0,0.5,0C383.1,330.5,383.3,331.3,382.1,331.9L382.1,331.9z"/>
<path class="st7" d="M382.5,329.7c-0.2,0-0.3,0-0.5,0c-0.7-0.7-0.7-1.4,0-2.1c0.2,0,0.3,0,0.5,0
	C382.5,328.2,382.5,328.9,382.5,329.7L382.5,329.7z"/>
<path class="st8" d="M213.6,195.1c0.4-1.1,1.4-1.2,2.2-1.7C215.8,194.9,215,195.4,213.6,195.1z"/>
<path class="st0" d="M353,264.4c-0.9-0.2-1.5-0.8-1.5-1.7C352.5,262.8,353,263.3,353,264.4z"/>
<path class="st0" d="M350.8,261.7c-0.9-0.3-1.4-0.8-1.4-1.8C350.3,260.1,350.9,260.6,350.8,261.7z"/>
<path class="st3" d="M366.5,355.8c-0.2-0.4-0.1-0.8,0.3-1C367.5,355.4,367.1,355.6,366.5,355.8z"/>
<path class="st0" d="M369.3,283.5c-0.6-0.2-0.9-0.6-0.9-1.2C369.1,282.4,369.5,282.7,369.3,283.5z"/>
<path class="st3" d="M367,353.6c-0.2-0.4-0.1-0.8,0.3-1C368.1,353.2,367.7,353.4,367,353.6z"/>
<path class="st0" d="M367.4,349.9c-0.2-0.5-0.2-0.9,0.2-1.2C368.5,349.3,368.1,349.6,367.4,349.9z"/>
<path class="st3" d="M360.3,370.5c0-0.6,0.3-1,0.9-1.1C361.3,370.1,361,370.5,360.3,370.5z"/>
<path class="st8" d="M289.5,209.2c0.4,0.1,0.6,0.5,0.3,0.8c-0.4,0.3-0.5-0.2-0.7-0.4C289.2,209.4,289.3,209.3,289.5,209.2
	L289.5,209.2z"/>
<path class="st8" d="M398.7,247.6c-0.2-0.2-0.3-0.4-0.5-0.6c0.1-0.1,0.3-0.3,0.4-0.4c0.1,0.2,0.3,0.4,0.4,0.6
	C399,247.3,398.8,247.5,398.7,247.6L398.7,247.6z"/>
<path class="st8" d="M397.7,246.4c-0.2-0.2-0.4-0.4-0.5-0.6c0.2-0.1,0.3-0.3,0.5-0.4c0.2,0.2,0.3,0.4,0.5,0.5
	C398,246.1,397.9,246.3,397.7,246.4L397.7,246.4z"/>
<path class="st8" d="M398.2,247c-0.2-0.2-0.4-0.4-0.5-0.6c0.1-0.1,0.3-0.3,0.5-0.4c0.2,0.2,0.3,0.4,0.5,0.6
	C398.5,246.7,398.4,246.8,398.2,247L398.2,247z"/>
<path class="st6" d="M255.6,240.3c0.6,1.9,1.6,3.2,3.8,3.3c0.2,0.2,0.4,0.3,0.5,0.5c0.4,1.5-0.9,2.5-1.1,3.8
	c-0.1,0.6-0.2,1.4,0.7,1.5c0.7,0.1,0.9-0.5,0.9-1.1c0-1,0.5-1.6,1.5-1.5c2.7,0.4,4.3-1.2,6.1-2.9c1.6-1.5,3.5-2.8,5.6-3.6
	c0.7-0.3,1.5-0.6,1.4-1.4c-0.1-2.2,1.4-2.9,3-3.7c3-1.3,5.9-2.9,9-3.8c1.9-0.6,3.9-1.6,5.9-1.1c5,1.4,9.9,0,14.9,0.1
	c0.4,0.2,0.7,0.3,1.1,0.5c0.4,1.7,1.9,2.1,3.1,2.7c5.4,2.5,10.1,5.6,11.8,11.8c0.6,2,2,3.6,4.1,4.4c2.3,0.8,3.8,2.4,5.2,4.4
	c1.3,2,1.5,5,4.6,5.6h0c0,0.8,0,1.6,1.1,1.6c0.1,0.2,0.3,0.4,0.5,0.6c-0.4,3.9-0.1,7.7,1,11.5c0.2,0.7,0.1,1.4,0.1,2.2
	c0,0.7,0,1.6-0.8,1.9c-0.9,0.3-1.5-0.3-2-1c-2-2.8-2.7-6.3-4.3-9.3c-0.8-1.5-1.5-3.1-2.2-4.7c-0.6-1.2-1.7-1.9-3-2.1
	c-0.9-0.2-1.9,0-2.5,0.7c-0.8,0.8-0.3,1.7,0.1,2.5c0.7,1.5,1.5,2.9,2.2,4.3c0.5,1,0.4,1.5-1,1.8c-2.1,0.5-3.8,1-5.7-0.6
	c-1.3-1.1-2.1-0.4-2.1,1.3c0,0.8,0.5,1.9-0.5,2.2c-0.9,0.3-1.6-0.6-2.3-1.1c-4-3.1-5-7.6-5.9-12.1c-0.5-2.7-0.7-5.5-1.2-8.3
	c-0.2-1.1-0.5-2.6-2-2.5c-1.5,0-2.5,1.1-2.8,2.6c-0.5,2.1-0.7,4.3-1.2,6.4c-0.6,2.6-2.1,3.1-4,1.3c-1.2-1.1-2.6-1.7-3.9-2.4
	c-1.2-0.6-2.4-1.2-2.8-2.4c-0.9-2.6-2.5-2-4.1-1.1c-1.5,0.9-2.9,2.1-3.6,3.6c-2.6,5.5-7.1,9.6-10.7,14.5c-0.8,1-1.1,2-0.5,3.3
	c0.4,0.8,0.9,1.6,0.7,2.6c-0.1,0.3-0.3,0.7-0.5,0.8c-0.5,0.3-0.8-0.1-1-0.5c-0.2-0.4-0.3-0.9-0.5-1.2c-0.4-0.7-0.5-1.7-1.5-1.7
	c-1,0-1.4,0.9-1.6,1.6c-0.5,2.2-2.1,2.5-3.7,1.9c-6.4-2.6-13.3-3.6-19.8-6.3c-5.5-2.3-10.7-5.2-15.7-8.4c-1.1-0.7-2.3-1.5-2.5-3.1
	c0.4,0,0.9,0,1.3,0.1c5.2,2,10.6,2.6,16.1,1.5c2.3-0.5,4.6-0.5,6.8-1.2s4.7-0.6,7.1-2.7c-3.3,0.8-6.1,1.3-8.8,2
	c-8.1,2.1-16.1,1.9-23.9-1.4c-13.1-5.5-26.5-9.2-40.9-8.3c-3.3,0.2-6.8,0.5-10.1-0.4c-1.2-2.2-3.6-2.8-5.4-4.3
	c-0.3-0.2-0.6-0.3-1-0.5c-4.1-2.4-4.2-3.5-0.6-6.4c2-1.6,4.3-2.9,5.9-5.1c3.4-4.6,3.2-9.2,0.6-14c-1.6-2.9-1.7-2.9-1.9-6.9
	c4.4,2.9,9.3,2.6,14,2.7c4.8,0.2,9.5,0.2,14.1,1.3c5.5,1.2,11.1,2.1,16.5,3.6c8.2,2.3,15.6,6.5,22.9,11.1c3,1.9,5.8,4.4,9.6,4.9h0
	c0,1.5,1,1.7,2.2,1.7c0.2,0.2,0.4,0.3,0.6,0.5c0,1.4,1,1.7,2.2,1.7L255.6,240.3L255.6,240.3z"/>
<path class="st7" d="M222.9,277.1l-0.1-0.2l-0.2,0c-4.2-3.9-9.3-6.2-14.5-8.3c-0.6-3.6,1.4-5.1,4.9-3.5c2.5,1.1,5.1,2,7.4,3.3
	c4.4,2.3,9.3,2.9,13.7,4.9c5.1,2.3,10.3,4.2,15.6,6c4.5,1.5,8.8,3.8,13.6,4.3c0.9,0.1,1.8,0.5,2.5,1.1c4.5,3.8,10.2,6,14.5,10.3
	c1.2,1.2,2.8,1.9,4.2,2.8c1.7,1.2,3.4,2.7,4,4.7c1.4,4.1,3.8,7.5,6.1,11.1c1.8,2.9,1.4,3.9-1.5,5.6c-2.9,1.6-5.8,2.4-9,1
	c-1.7-0.7-3.7-0.8-5.6-0.8c-4.5,0.1-5.6,1-6.1,5.6c-0.1,1.1-0.2,2.1-0.5,3.2c-0.7,3.2-1.6,3.7-4.7,2.8c-4.2-1.2-6.6,0.3-8.1,4.6
	c-1.1,3.2-1.3,6.5-1.5,9.8c-0.1,2.3-0.9,4.3-2.1,6.1c-1.8,2.5-4,4.6-6,7c-0.5,0.6-1,0.8-1.6,0.6c-1.1-0.3-1.4-1.4-1.6-2.3
	c-0.6-2.3-1-4.6-1.6-6.8c-0.9-3.4-1.5-3.8-4.8-2.9c-3.6,1-7.2-2.2-7.3-6.7c-0.1-3.2-0.1-6.3-1.2-9.3c-0.8-2.1-1.8-3.3-4.1-2.9
	c-0.8,0.1-1.6-0.2-2.3-0.6c0.6-1.2,0-1.3-0.8-0.8c-2.2,1.4-4.9,1.4-7.1,2.7c-0.9,0.6-1.7,0.7-1.7-0.8l-0.1,0c1.5,0.2,2.1-1,3-1.7
	c1.7-1.7,3.4-3.4,5.1-5.1c0.8-1.1,2.6-1.7,2.2-3.5l0,0c1.1,0.4,1.2-0.6,1.7-1.2c2.9-3.8,4.8-8,6.4-12.4c2.6-7.1,0.9-13.5-3.7-19.2
	l0,0c-0.3-0.8-0.4-1.8-1.6-1.7l0,0c0.4-1.6-1-2.1-1.7-3c-0.3-0.3-0.5-0.5-0.8-0.8c-0.5-0.5-0.9-0.9-1.4-1.4c0-0.2-0.1-0.2-0.2-0.2
	C223.9,278,223.4,277.5,222.9,277.1L222.9,277.1z M249.1,343.5c0.2-8-1.2-15.6-5-22.6c1.9,4.7,3.1,9.6,3.6,14.5
	c0.6,5,0.1,10.2,0.1,15.3c0.2,0,0.5,0.1,0.7,0.1c1-3,1.2-6.2,2.8-9C249.8,341.6,250.2,343.3,249.1,343.5L249.1,343.5z"/>
<path class="st6" d="M308.5,294.9c0.9,2.5,2.9,3.2,5.3,3.2c0.5,0,0.9,0,1.3-0.2c1.1-0.4,1.3-2.7,3.2-1.7c2.2,1.2,4.4,2.4,5.4,4.7
	c0.9,2,1.9,3.9,3.1,5.7c0.8,1.2,0.9,2.6,0.6,3.9c-0.7,3.1-1.5,6.1-2.3,9.2c-0.4,1.4-0.4,2.6-0.1,4c1.3,6.4,2.6,12.9,3.9,19.3
	c0.2,1.2,0.6,2.5-1,2.9c-1.4,0.4-2.4-0.3-3.1-1.5c-3.4-5.4-5.5-11.4-7.5-17.4c-0.2-0.6,0-1.4-0.7-1.7c-4.5-2.1-5.2-6.8-6.7-10.7
	c-1-2.7-3.4-4.6-3.4-7.8c0-3.1-1-6.4,1.5-9C308.8,296.9,307.4,295.9,308.5,294.9L308.5,294.9z"/>
<path class="st6" d="M252.3,370.5c0.1-2.5,0.6-4.2,1.2-6c1.8-5.6,7.4-8.9,8.7-14.7c0.4-1.7,0.6-3.4,1-5c0.2-1,0.8-1.9,1.9-2
	c1.2-0.1,1.2,1.1,1.6,1.9c1.6,2.8,2,6.2,4.2,8.8c0.8,0.9,0.2,1.6-0.3,2.4c-2.1,3.5-5.4,6-7.9,9.3c-3.2,4.2-6,8.6-6.1,14.2
	c0,0.8-0.3,1.7-1.2,1.9c-0.9,0.2-1.1-0.8-1.4-1.4C252.3,376.7,252.7,373.2,252.3,370.5L252.3,370.5z"/>
<path class="st6" d="M220.7,257.3c0,0.5,0,0.9,0,1.4c0,4.2-0.8,4.8-4.6,2.8c-2.7-1.4-5.6-1.9-8.5-2.6c-2.6-0.7-5-2.8-7.6-2.5
	c-4.1,0.5-7.9-0.6-11.7-1.3c-3.2-0.6-6.2-1.8-9.3-2.7c-0.8-0.2-1.2-0.7-1.3-1.5c7.8-0.1,15.6-0.1,23.4,0.9
	C208,252.6,214.4,254.5,220.7,257.3L220.7,257.3z"/>
<path class="st6" d="M312.4,341.3c-0.5,1.7,0.7,3.7-1,4.5c-1.8,0.7-2.6-1.3-3.5-2.4c-2.5-2.7-5-5.5-5.4-9.5
	c-0.2-1.8-2.5-3.1-1.8-4.9c0.7-1.9,3.2-1.2,4.7-2.2c3.3-2.1,4.5-1.6,5.6,2.2C312.1,333.1,311.7,337.4,312.4,341.3L312.4,341.3z"/>
<path class="st7" d="M161.3,253c0.5-1.1-1.3-2.4,0.1-3.2c1.2-0.7,2.6,0,3.8,0.7c6.6,3.6,13.3,7.1,20.6,9.2c1.5,0.5,3.1,1.2,2.8,3.4
	c-5.4-0.9-10.9-1.4-16.2-3.2c-2.4-0.8-4.8-1.8-7.2-2.7l0.1,0c-0.7-1.8-2.4-2.3-3.8-3.3l0,0C161.4,253.6,161.3,253.3,161.3,253
	L161.3,253z"/>
<path class="st8" d="M220.7,257.3c-6.3-2.8-12.8-4.6-19.6-5.6c-7.8-1-15.6-1.1-23.4-0.9c-5.9,0-11.7-0.6-16.9-3.9
	c-1-0.6-1.9-1.2-3-1.9c-0.6,2,0.4,3.7,1.3,5.3c0.4,0.6,1,1.2,0.7,2c-0.2,0-0.4,0-0.5-0.1c-1.7-3-3.3-6.1-7.2-6.7
	c-0.3-0.1-1.3-0.5-0.6-1.4c2,0.8,4.1,3.6,5.9-0.4c0.2-0.1,0.4-0.2,0.6-0.4c4.9,4.6,10.9,6.4,17.5,6.3c3.3,1,6.8,0.7,10.1,0.4
	c14.4-0.9,27.8,2.7,40.9,8.3c7.8,3.3,15.8,3.5,23.9,1.4c2.7-0.7,5.5-1.3,8.8-2c-2.3,2.1-4.9,2-7.1,2.7s-4.6,0.8-6.8,1.2
	c-5.5,1.1-10.9,0.5-16.1-1.5c-0.4-0.1-0.9-0.1-1.3-0.1L220.7,257.3L220.7,257.3z"/>
<path class="st6" d="M288.8,370c-1.3,2.7-3,3.9-4.4,5.2c-2.1,2.2-4.4,4.3-6,6.9c-0.4,0.6-0.8,1.4-1.6,1.1c-0.7-0.3-0.5-1.1-0.4-1.7
	c0.6-4.4,1.5-8.7,3.8-12.6c0.5-0.8,1-1.6,2-1.6c0.9,0,1.6,0.7,1.7,1.5C284.4,372.1,286.1,372,288.8,370L288.8,370z"/>
<path class="st8" d="M165.2,257.1c2.4,0.9,4.8,1.9,7.2,2.7c5.3,1.8,10.8,2.3,16.2,3.2c6.7,1.2,13.3,2.7,19.6,5.5
	c5.2,2.1,10.3,4.4,14.5,8.3c-0.8,0.8-1.3-0.1-1.8-0.4c-9.2-6.7-19.8-9.9-30.8-12.1c-6.3-1.3-12.8-1.6-18.9-3.8
	C169,259.7,166.7,259.1,165.2,257.1L165.2,257.1z"/>
<path class="st7" d="M358.1,303.3c-1.3,1.1,0,2,0.4,2.8c3,6,5.8,12,7.3,18.5c1,4.3,1.6,8.8,1.8,13.3c-0.5,0-0.9-0.1-1.4-0.1
	c0-5.4-1.4-10.6-2.7-15.8c-0.5-4.3-2.3-8.1-4.1-11.9c-1.1-2.3-2.3-4.5-3.5-6.7c-0.4-0.7-1.5-1.5-0.4-2.2c0.9-0.6,1.4,0.6,1.9,1.1
	C357.8,302.5,357.9,302.9,358.1,303.3L358.1,303.3z"/>
<path class="st7" d="M378.8,330.7c-1.1-1.3-0.5-3.3-1.9-4.9c-0.7,1.4-0.3,2.8-0.5,4c-0.1,0.6,0.3,1.6-0.8,1.7
	c-0.9,0-0.7-0.9-0.9-1.5c-1-3.5-1.7-7.2-3.5-10.5c-0.8-1.4-2.1-2.5-2.4-4.2c2.5,1.3,3.1,4,4.3,6.2c0.5,1.1,0.5,2.5,1.5,3.4
	c0.9-0.2,0.6-1,0.7-1.5c0.1-0.6-0.3-1.4,0.5-1.7c0.9-0.3,1.4,0.5,1.5,1.2C378.2,325.6,379.6,328,378.8,330.7L378.8,330.7z"/>
<path class="st8" d="M215.3,328.6c0,1.5,0.8,1.4,1.7,0.8c2.2-1.3,4.9-1.3,7.1-2.7c0.8-0.5,1.4-0.4,0.8,0.8c-1.4,0.4-2.4,1.3-3.3,2.3
	c-0.5,0.6-0.7,1.9-2,1.6c0.1-0.5,0.2-0.9,0.3-1.4c0.2-0.2,0.8-0.3,0.4-0.7c-0.2-0.3-0.6,0-0.8,0.3c-2.5,0.9-5,1.8-7.5,2.6
	c-1,0.3-2.1,1.4-3.3-0.2C211,330.9,213.2,329.7,215.3,328.6L215.3,328.6z"/>
<path class="st8" d="M161.3,253c0,0.3,0,0.6,0.1,0.9c-1.4,0.3-1.4-0.9-1.6-1.7C160.7,251.7,160.7,252.9,161.3,253L161.3,253z"/>
<path class="st7" d="M369,315.5c-0.8-0.3-1.1-0.8-1.1-1.6C368.9,313.9,369,314.7,369,315.5z"/>
<path class="st7" d="M157.4,243.7c-1.7,3.9-3.9,1.2-5.9,0.4l0,0.1c-0.2-0.8-1.2-0.8-1.7-1.4c-0.2-0.2-0.4-0.4-0.6-0.6
	c-5.1-3.5-7.3-8.3-7.1-14.5c0.1-4.1,0.5-8.1,0.7-12.4c0.9,1.4,0.9,3.1,1.6,4.2C150,226.9,151.5,236.5,157.4,243.7L157.4,243.7z"/>
<path class="st8" d="M230,285.5c4.6,5.7,6.4,12.1,3.7,19.2c-1.6,4.4-3.6,8.6-6.4,12.4c-0.4,0.5-0.6,1.5-1.7,1.2
	c1.9-3.7,4.4-7.1,6.1-11c3.1-7,3.1-13.6-1.3-20C230.1,286.8,229.5,286.3,230,285.5L230,285.5z"/>
<path class="st8" d="M311.2,126.2c0.2,0.8-0.2,1.4-0.8,1.9c-3.9,3.9-7.9,7.9-11.8,11.8c-0.5,0.5-1.1,1-1.9,0.8
	C300.9,135.2,306.3,130.9,311.2,126.2L311.2,126.2z"/>
<path class="st8" d="M323.7,114.2c-1.5,3.2-3.7,5.8-7.3,6.8C318.7,118.6,321.1,116.3,323.7,114.2z"/>
<path class="st8" d="M161.4,253.9c1.4,0.9,3.1,1.5,3.8,3.3C163.6,256.4,161.7,256.2,161.4,253.9z"/>
<path class="st8" d="M225.7,318.2c0.3,1.9-1.4,2.4-2.2,3.5C223.1,319.9,224.5,319.1,225.7,318.2z"/>
<path class="st8" d="M226.7,280.9c0.7,1,2.1,1.5,1.7,3C227.3,283.2,226.2,282.5,226.7,280.9z"/>
<path class="st8" d="M218.3,326.9c-0.9,0.8-1.5,2-3,1.7C216,327.5,216.8,326.6,218.3,326.9z"/>
<path class="st8" d="M296.5,140.9c0.1,1.4-0.2,2.5-1.9,2.4C295.2,142.5,295.8,141.7,296.5,140.9z"/>
<path class="st8" d="M228.4,283.8c1.3-0.2,1.4,0.9,1.6,1.7C228.6,285.9,228.7,284.7,228.4,283.8z"/>
<path class="st8" d="M149.9,242.7c0.5,0.5,1.4,0.5,1.7,1.4C150.5,244.3,149.6,244.3,149.9,242.7z"/>
<path class="st8" d="M294.3,143.6c0.1,0.9,0.3,1.9-1.1,1.9C293.2,144.7,293.7,144.2,294.3,143.6z"/>
<path class="st8" d="M224.5,278.7c0.5,0.5,0.9,0.9,1.4,1.4C224.7,280.4,224.2,279.9,224.5,278.7z"/>
<path class="st8" d="M222.9,277.1c0.5,0.5,0.9,0.9,1.4,1.4C223.1,278.8,222.6,278.3,222.9,277.1z"/>
<path class="st0" d="M188.6,326.4c0.2-0.1,0.4-0.3,0.5-0.4l0.2,0.3C189.1,326.3,188.9,326.4,188.6,326.4L188.6,326.4L188.6,326.4z"
	/>
<path class="st0" d="M110.6,194c0.2-0.2,0.4-0.4,0.6-0.6C111.2,193.7,111,194,110.6,194z"/>
<path class="st0" d="M112.2,192.8c0.2-0.2,0.4-0.2,0.7,0C112.6,193.4,112.4,193.3,112.2,192.8z"/>
<path class="st8" d="M104.7,173.8c-1.7,0.1-3.1-0.6-4.6-1.4c5.1,0.4,9.4-1.5,13.5-4.3c-0.4-1.2-3-0.6-2.4-2.7c1.8,1.1,3.5,2.3,5.6,3
	c-4.4,0.5-7.4,4.2-11.7,4.7C104.9,173.2,104.8,173.6,104.7,173.8L104.7,173.8z"/>
<path class="st8" d="M137.4,136.8c-0.3-1.4,0.8-1.7,1.6-2.2C139.4,136.1,138.4,136.4,137.4,136.8z"/>
<path class="st8" d="M135.8,138.5c0.2-0.9,0.2-2,1.6-1.6C137.2,137.7,137,138.7,135.8,138.5z"/>
<path class="st0" d="M87.8,150.4c0.1,0.1,0.1,0.2,0.2,0.3c-0.1-0.1-0.2-0.1-0.3-0.2L87.8,150.4z"/>
<path class="st8" d="M386.9,121.5c-1,2.1-3,2.6-4.9,3.3C382.9,122.7,385.1,122.4,386.9,121.5z"/>
<path class="st8" d="M218.3,356c0.4-1.5,0.9-2,1.7-2.2c0.1,0,0.3,0.3,0.5,0.5C219.9,354.7,219.4,355.2,218.3,356L218.3,356z"/>
<path class="st0" d="M270.3,380.9c-0.6-1.4-1.1-2.8,0.5-3.8C270.7,378.3,271.4,379.7,270.3,380.9z"/>
<path class="st2" d="M398.7,246.6c-0.2-0.2-0.3-0.4-0.5-0.6c-0.2-0.2-0.3-0.4-0.5-0.5c-0.8-1.4-2-2.4-3.3-3.3
	c-0.1-0.2-0.3-0.5-0.4-0.7c1.3-0.7,2.1-0.8,3,0.9s2.7,2.9,4.4,3.3c3.1,0.8,5.9,2.3,8.7,3.6c2.6,1.2,4.6,0.9,6.5-1.1
	c0.6-0.7,1.2-1.3,2.3-1.1c-0.8,1.6-1.5,3.2-2.3,4.9c-1.6-0.3-2.3,0.7-2.7,2c-0.4,1.1-0.9,1.8-1.8,0.5c-1-1.5-2.3-1.6-3.8-1.4
	c-1.5,0.1-2.9-0.4-3.4-1.7c-0.7-1.7-1.8-1.7-3.2-1.5l0,0c-0.2-0.2-0.3-0.4-0.5-0.6l0,0c-0.2-0.2-0.4-0.4-0.5-0.5l0,0
	c-0.1-0.2-0.3-0.4-0.5-0.6c-0.3-0.2-0.6-0.5-1-0.7C398.9,247,398.8,246.8,398.7,246.6L398.7,246.6z"/>
<path class="st7" d="M401.5,249.7c1.4-0.2,2.5-0.2,3.2,1.5c0.5,1.3,1.9,1.8,3.4,1.7c1.5-0.1,2.8,0,3.8,1.4c0.8,1.3,1.4,0.6,1.8-0.5
	c0.4-1.3,1.1-2.3,2.7-2c-0.9,2.4-2,4.8-3.3,7.1c-0.4-0.2-0.9-0.3-1.1-0.6c-1.2-2.1-2.4-3.1-3.8-0.1c-0.3,0.6-0.8,0.8-1.3,0.5
	c-0.9-0.4-1.5-1.1-1.4-2.1c0-1.6-0.3-2.9-2.2-3.1C402.7,252.2,402.1,250.9,401.5,249.7L401.5,249.7z"/>
<path class="st0" d="M417.9,271.8c-2.6-0.5-5-1.4-6.5-3.8c1-2,0.5-4.5,2.2-6.3C415,265,416.4,268.4,417.9,271.8L417.9,271.8z"/>
<path class="st5" d="M322.1,148.8c-0.1,0.1-0.2,0.2-0.3,0.2C321.9,149,322,148.9,322.1,148.8L322.1,148.8L322.1,148.8z"/>
<path class="st1" d="M322.6,145c0.1-0.1,0.2-0.2,0.3-0.3C323,145,322.9,145.1,322.6,145L322.6,145L322.6,145z"/>
<path class="st3" d="M119,153.6c0.1,0.1,0.3,0.3,0.3,0.4c-0.2,0.3-0.4,0.2-0.6,0C118.7,153.8,118.8,153.7,119,153.6z"/>
<path class="st2" d="M348.8,372.7c2-3.7,4.1-7.3,6.1-11c1.2-2.1,4.1-0.9,4.9,0c1.7,1.7,1.8,0.4,2.3-0.5c0.6-1.1,1.3-2.2,1.4-3.5
	c0.1-0.9,0.4-1.8,1.5-1.9c-1.9,6.1-3.8,12.3-8.8,16.8c-0.6,0.5-1.1,1.5-2,1c-1-0.6,0-1.4,0.1-2.2c0.2-1.2,0.6-2.5,0.8-3.7
	c0.1-0.5,0.2-1.1-0.5-1.4c-0.7-0.3-1,0.3-1.2,0.7c-0.8,1.3-1.7,2.6-2.5,3.9C350.5,371.8,349.9,372.6,348.8,372.7L348.8,372.7z"/>
<path class="st2" d="M346.1,376c0.2-1.6,1.2-2.5,2.7-2.8C348.5,374.8,347.6,375.7,346.1,376z"/>
<path class="st2" d="M343.4,379.3c0.2-1.6,1.2-2.4,2.7-2.8C345.8,378,344.8,378.9,343.4,379.3z"/>
<path class="st3" d="M215.6,360.5c0.2-0.2,0.2-0.8,0.6-0.5c0.3,0.2,0.1,0.6-0.3,0.8C215.8,360.7,215.7,360.6,215.6,360.5
	L215.6,360.5z"/>
<path class="st1" d="M441.4,306.5c-0.4,0.1-0.6,0.2-0.8,0.2c-0.3-0.2-0.5-0.5-0.7-0.8c-0.1-0.1,0-0.6,0.4-0.3
	C440.7,305.8,441,306.1,441.4,306.5z"/>
<path class="st2" d="M357,194c-0.2-0.2-0.4-0.4-0.5-0.6c1.4-2.2,0.7-3-1.8-2.6c-0.4,0.1-0.9,0-1.4,0c-1.1-0.1-1.5-0.7-1-1.6
	c1-1.8,0.5-3-1.1-4c-0.5-0.3-0.9-0.8-0.7-1.3c0.8-2.2-0.9-4.2-0.6-6.3c0.1-1.4-0.8-2.3-2.3-2.5c0.2-0.5,0.6-0.5,1.1-0.5
	c1.5,0,2.9-0.1,4.3,0.6c1.1,0.6,2.9,0.8,1.6,3c-0.9,1.5,0.9,1.9,1.9,2.3c0.7,0.3,2-0.3,2.1,1.1c0.1,1.1-0.6,1.6-1.4,2.1
	c-0.7,0.4-1.6,0.8-1.5,1.7c0.1,0.9,1.2,0.4,1.8,0.8c0.6,0.4,1.9,0.2,1.5,1.5c-0.3,1-0.3,2,0.9,2c1.6-0.1,3.5,2,4.8-0.7
	c2.5,1,5,2,7.5,3c-0.1,2,1.3,2.9,2.7,3.8c5.7,3.6,11.5,7,17.3,10.6c4.8,3,9.4,2.2,14-0.6c3.6-2.2,5.8-5.5,8-8.9
	c5.1-7.7,9.9-15.5,13.3-24.2c0.4-1.1,0.8-2.4,2.1-3.1c0.7,0,1.4,0.4,2-0.2c-0.4-1-1.5-1.1-2.2-1.7c2.7-2.7,2.9-6.4,0.2-8.4
	c2.8-2.8,6-5,8.6-8c1.9-1,3.2-2.6,4.5-4.2c1.1-1.5,2.4-2.6,4.2-3c0.8,1.6,0.1,3.3-0.4,4.6c-2.4,7.5-4.7,15-8.2,22
	c-5.1,10.3-11.1,20.2-17.8,29.6c-3.4,4.8-6.8,9.6-11.7,13c-5.9,4.2-12.2,7.1-19.7,4.2c-1-0.4-2.1-0.7-2.2-2.1c0.3-0.2,1,0.1,0.9-0.7
	c-0.2-0.8-0.8-1-1.6-1.1c-6.6-0.8-12.5-3.3-18.1-6.9c0,0,0-0.2,0.1-0.5c2.3-0.4,4.4,0.8,6.6,1.1c1,1.1,2.9,0.9,3.6,2.4
	c0,0.1,0.6,0.2,0.7,0c0.4-0.3,0.5-0.7,0.2-1.2c-0.7-1.2-1-2.7-2.6-3.2c-5.7-4.3-11.3-8.7-18.2-11.1C358,194.1,357.5,194.1,357,194
	L357,194z"/>
<path class="st8" d="M372.2,191.8c-2.5-1-5-2-7.5-3c-1.1-0.6-2.8,0-3.3-2c6.9,1.6,13,5.5,20.8,6c-2.1-1.6-3.6-2.9-5.1-4.2
	s-4-0.5-5.7-2c8.8,1.1,17.5,4.4,26.4,0.9c-4.7-0.2-8-4.7-13.1-3.8c10.8,0.2,19.9-6,30.1-7.8c-8.4-2.3-16.9-3.6-25.6-2
	c0.2-1.4,1.1-1.3,1.9-1.2c3.6,0.1,6.4-2.3,9.7-3.2c6.3-1.6,12.8-2.1,19.2-2.3c1.2,0,2.5,0,3.8-0.2c-5.1-1.6-10.4-1.9-15.7-3.1
	c6.5-0.6,13.3-0.3,18.9-4.4c3.9-2.6,7-6.2,10.8-9c0.2,0.2,0.3,0.3,0.5,0.5c-2.5,3-5.8,5.2-8.6,8c-3.9,2.6-7.9,5.1-12.9,5.3
	c4.3,0.9,8.5,1.9,12.7,3.1c0.6,0.6,1.8,0.7,2.2,1.7c-0.7,0.6-1.4,0.3-2,0.2c-0.8-0.7-1.8-0.9-2.7-1c-7.7-0.2-15.3-0.1-22.9,1.4
	c-2.1,0.4-4.1,0.7-6.2,2.1c8.4,0.9,16.5,1.4,23.9,5.3c-10.8-1.5-19.6,5.1-30,6.6c3.2,3,7.2,1.9,10.6,2.9c-7.3,4.8-15,3.6-23,2.3
	c1.7,1.9,3.9,2.2,5.6,3.4c-1.4,1.2-2.9,0.9-4.4,1C377.4,193.8,374.9,192.2,372.2,191.8L372.2,191.8z"/>
<path class="st2" d="M444.6,129.1c1.4,0.1,2.4,0.9,2.8,2.2c1.1,3.6,1.7,7.1,0.5,10.8c-0.2,0.5-0.6,0.6-1,0.7c-2.3,0-3.8,2-5.9,2.5
	c0.4-3.4-0.4-6.2-3.5-8C439.8,134.6,442.2,131.9,444.6,129.1L444.6,129.1z"/>
<path class="st8" d="M444.6,129.1c-2.4,2.7-4.8,5.4-7.2,8.1c-3.2,2.2-6.3,4.6-9.9,6.3c-4.1,1.9-8.2,4-12.9,5.6
	c9.4,0.6,18.2,0.2,26.3-3.8c2.1-0.5,3.6-2.6,5.9-2.5c0,0.4,0.1,0.7,0.1,1.1c-1.9,0.4-3.1,1.5-4.2,3c-1.2,1.6-2.6,3.2-4.5,4.2
	c-0.2-0.2-0.3-0.3-0.5-0.5c1.3-1.1,2.6-2.2,4-3.3c-0.2-0.2-0.4-0.5-0.6-0.8c-3.6,1.4-7.3,2.7-11.1,3.5c-8.5,1.4-17.2-1-25.6,1.7
	c1.7-2,4.2-2.2,6.3-2.8c13.8-3.7,26-9.5,34-22.1c0.1-0.1,0.3-0.1,0.5-0.2C445.9,127.6,444.5,128.2,444.6,129.1L444.6,129.1z"/>
<path class="st2" d="M430,150c3.8-0.8,7.5-2.1,11.1-3.5c0.2,0.2,0.4,0.5,0.6,0.8c-1.3,1.1-2.6,2.2-4,3.3c-3.8,2.8-6.9,6.4-10.8,9
	c-0.9-3,1.7-5,2.3-7.6C429.4,151.3,429.7,150.6,430,150L430,150z"/>
<path class="st2" d="M366.2,337.8c0.5,0,0.9,0.1,1.4,0.1c0.2,1.4,0.3,2.9-0.1,4.3C365,341.4,366.7,339.3,366.2,337.8z"/>
<path class="st7" d="M162.8,215.5c1,1.7,2.9,2.4,4.4,3.4c5.2,3.6,5.2,10.2,0.1,13.7c-1.3,0.9-2.7,1.9-4.3,2.2
	c-2.9,0.6-4.8,2.8-7.2,4.3c-3.2-3.9-4.3-8.9-6.4-13.3c-0.3-0.6-0.3-1.6,0.9-1.4c3.9,0.4,5.8-2.8,8.4-4.6
	C160.3,218.7,161.4,217,162.8,215.5L162.8,215.5z"/>
<path class="st5" d="M147.9,196.2c5.2,0.8,10.1,1.8,14.8,3.8c1.9,0.8,3,2.5,3.8,4.4c0.4,0.9,0.6,2-0.2,2.8c-1,0.9-1.7-0.3-2.3-0.8
	c-2.9-2.2-5.7-4.3-9.4-5c-3.6-0.7-7,0.3-10.5,0.5c-0.7,0-1.5,1.3-2.1,0.2c-0.5-0.8-0.4-1.9,0.3-2.8
	C143.8,197.4,145.7,196.4,147.9,196.2L147.9,196.2z"/>
<path class="st5" d="M160.4,208.6c0-1,0.5-1.6,1.5-1.4c0.9,0.1,1.4,0.8,1.6,1.6c0.3,1.5-0.3,2.7-1.3,3.6c-1.1,1.1-2.5,1.4-4,1
	c-0.9-0.3-1.1-1.1-1-2c0.2-1.4,1-2.3,2.5-2.2c0,1.1-2.5,1.6-0.9,3c0.6,0.5,1.6,0.2,2.2-0.4c0.7-0.6,1.6-1.3,1.4-2.4
	S161.1,208.8,160.4,208.6L160.4,208.6z"/>
<path class="st3" d="M160.4,208.6c0.7,0.2,1.8-0.2,2,0.9s-0.6,1.8-1.4,2.4c-0.6,0.6-1.6,0.9-2.2,0.4c-1.6-1.4,0.8-1.9,0.9-3
	C159.9,209.1,160.1,208.9,160.4,208.6L160.4,208.6z"/>
<path class="st5" d="M281.8,206.1c-0.8,0.7-1.7,1-2.7,1c-7.6,0-15.1,0.9-22.7,0.6c-2.5-0.1-3.7-1.2-3.6-3.7c0.1-3.1,0.6-6.1,3.7-7.9
	c0.5,1.4,2,0.9,2.9,1.7c-1.1,2,0,3.4,1.6,4.2c2,1,4.2,1.2,6.1-0.4c2.7-2.2,4.6-5.1,5.8-8.3c0.6-1.8,1.4-2,2.6-0.6
	c1.6,1.8,3.5,3.4,4.7,5.6c-0.8,0.1-1.5-0.2-2.1-0.6c-3.1-3.6-3.8-3.6-5.8,0.3c-1.7,3.4-4.6,5.3-8.2,5.9c-3,0.5-4.8-1.4-6.2-3.8
	c-0.7-1.1-1.6-1-2.2,0.3c-1.8,3.9-1.2,4.9,3,5c0.3,0,0.5,0,0.8,0c4.6,0,9.1,0,13.7,0C276,205.7,278.9,205.9,281.8,206.1L281.8,206.1
	z"/>
<path class="st3" d="M278.1,197.8c0.6,0.4,1.3,0.7,2.1,0.6c1,1.2,2.1,2.4,3,3.7c1.2,1.8,1.1,3.4-1.3,4.1c-2.9-0.2-5.8-0.4-8.8-0.6
	c-0.3-1.1-0.6-2.2,0.6-3.1c1.1-0.8,1.8-2,2.3-3.3C276.4,198.1,277.1,197.7,278.1,197.8L278.1,197.8z"/>
<path class="st7" d="M259.4,197.9c-0.8-0.8-2.4-0.3-2.9-1.7c0.8-0.8,0.4-2.1,1.6-2.8c1.4-0.8,2.5-0.8,3.8,0c0.9,0.5,1.1,1.4,0.9,2.4
	C262.3,197.5,260.8,197.6,259.4,197.9L259.4,197.9z"/>
<path class="st1" d="M310,147.1c-0.3,0-0.6-0.1-1-0.1c0.1-0.1,0.1-0.3,0.2-0.4C309.7,146.6,309.9,146.8,310,147.1L310,147.1
	L310,147.1z"/>
<path class="st1" d="M292.4,150.1l0.7,0c-0.1,0.2-0.1,0.4-0.2,0.6C292.7,150.5,292.6,150.3,292.4,150.1z"/>
<path class="st2" d="M307.9,230.5c-5,0-9.9,1.3-14.9-0.1c-2-0.6-4,0.5-5.9,1.1c-3.1,1-6,2.5-9,3.8c-1.6,0.7-3.1,1.5-3,3.7
	c0,0.8-0.7,1.1-1.4,1.4c-2.1,0.8-4,2.1-5.6,3.6c-1.8,1.7-3.4,3.2-6.1,2.9c-1-0.1-1.5,0.5-1.5,1.5c0,0.6-0.1,1.2-0.9,1.1
	c-0.9-0.1-0.8-0.9-0.7-1.5c0.1-1.3,1.5-2.3,1.1-3.8c2.1,1.1,3.7,0.3,5.3-1.2c7.3-6.5,15.5-11.7,25.2-13.7
	C296.3,228,302.3,228,307.9,230.5L307.9,230.5z"/>
<path class="st2" d="M337.9,259.9c-3.1-0.6-3.3-3.6-4.6-5.6c-1.4-2.1-2.9-3.6-5.2-4.4c-2.2-0.7-3.6-2.3-4.1-4.4
	c-1.7-6.2-6.4-9.3-11.8-11.8c-1.3-0.6-2.8-1-3.1-2.7c5.2,1.4,9.7,4.1,13.4,7.9c5.9,6.1,11,12.9,15.3,20.2
	C337.8,259.4,337.9,259.6,337.9,259.9L337.9,259.9z"/>
<path class="st2" d="M339,261.5c-1.2,0-1.2-0.8-1.1-1.6C338.6,260.2,338.9,260.8,339,261.5z"/>
<path class="st1" d="M344.6,264.1c0.2,0.2,0.4,0.4,0.1,0.6c-0.1,0-0.3-0.2-0.4-0.2C344.4,264.3,344.5,264.2,344.6,264.1L344.6,264.1
	z"/>
<path class="st2" d="M255.1,239.8c-1.2,0.1-2.1-0.2-2.2-1.7C253.9,238.2,254.6,238.9,255.1,239.8z"/>
<path class="st2" d="M252.4,237.6c-1.2,0.1-2.1-0.2-2.2-1.7C251.2,236,251.9,236.7,252.4,237.6z"/>
<path class="st5" d="M376.8,205.3c1.5,0.5,1.9,2,2.6,3.2c0.3,0.5,0.1,0.9-0.2,1.2c-0.1,0.1-0.7,0.1-0.7,0c-0.7-1.5-2.6-1.3-3.6-2.4
	C375.5,206.6,376.4,206.2,376.8,205.3L376.8,205.3z"/>
<path class="st7" d="M347.6,174.9c1.5,0.2,2.4,1.1,2.3,2.5c-0.2,2.2,1.4,4.1,0.6,6.3c-0.2,0.6,0.2,1.1,0.7,1.3c1.7,1,2.2,2.2,1.1,4
	c-0.5,0.9-0.2,1.6,1,1.6c0.5,0,0.9,0.1,1.4,0c2.4-0.4,3.1,0.4,1.8,2.6c-1.5-1-3.2-0.3-4.9-0.4c-0.5-0.7-1.3-0.6-2-0.5
	c-1.5,0.2-1.7-0.7-2.1-1.8c-0.4-1.3,0.1-2,1.1-2.4c1.9-0.8,3.1-1.1,0.7-3.3c-1.2-1.1-1.3-3.4-3.6-3.9c-1.1-0.2-0.3-1.3,0.2-1.9
	c1.1-1.2,2.1-2.4,0.4-3.9C346.6,174.9,347.1,174.9,347.6,174.9L347.6,174.9z"/>
<path class="st7" d="M401.1,249.1c0.2,0.2,0.3,0.4,0.5,0.6C401.4,249.5,401.2,249.3,401.1,249.1z"/>
<path class="st7" d="M400.5,248.5c0.2,0.2,0.4,0.4,0.5,0.5c-0.2,0-0.3,0-0.5-0.1C400.5,248.8,400.5,248.7,400.5,248.5L400.5,248.5z"
	/>
<path class="st7" d="M400.1,247.9c0.1,0.2,0.3,0.4,0.5,0.6C400.2,248.5,400,248.3,400.1,247.9z"/>
<path class="st8" d="M249.1,343.5c1.1-0.3,0.7-2,2.3-1.8c-1.6,2.9-1.8,6.1-2.8,9c-0.2,0-0.5-0.1-0.7-0.1c0-5.1,0.5-10.2-0.1-15.3
	c-0.6-4.9-1.8-9.9-3.6-14.5C247.9,328,249.3,335.6,249.1,343.5L249.1,343.5z"/>
<path class="st3" d="M219.6,329.6c0.2-0.4,0.6-0.6,0.8-0.3c0.3,0.4-0.2,0.5-0.4,0.7C219.8,329.9,219.7,329.8,219.6,329.6z"/>
<path class="st7" d="M372.2,191.8c2.7,0.4,5.2,1.9,8.1,1.8c1.5-0.1,3.1,0.2,4.4-1c-1.7-1.2-3.8-1.5-5.6-3.4c8,1.3,15.7,2.5,23-2.3
	c-3.4-1-7.4,0.1-10.6-2.9c10.3-1.6,19.2-8.1,30-6.6c-7.3-3.8-15.5-4.3-23.9-5.3c2.1-1.4,4.2-1.7,6.2-2.1c7.6-1.6,15.2-1.6,22.9-1.4
	c0.9,0,1.9,0.3,2.7,1c-1.3,0.6-1.6,1.9-2.1,3.1c-3.4,8.6-8.2,16.4-13.3,24.2c-2.3,3.4-4.4,6.7-8,8.9c-4.6,2.9-9.2,3.6-14,0.6
	c-5.7-3.6-11.5-7-17.3-10.6C373.6,194.8,372.1,193.8,372.2,191.8L372.2,191.8z"/>
<path class="st7" d="M429.4,167.5c-4.2-1.2-8.4-2.3-12.7-3.1c5-0.2,9-2.6,12.9-5.3C432.3,161.1,432.2,164.8,429.4,167.5L429.4,167.5
	z"/>
<path class="st7" d="M440.9,145.3c-8.2,4.1-17,4.4-26.3,3.8c4.7-1.6,8.8-3.7,12.9-5.6c3.6-1.7,6.7-4.1,9.9-6.3
	C440.5,139.1,441.3,142,440.9,145.3L440.9,145.3z"/>
<path class="st1" d="M278.1,197.8c-1-0.1-1.7,0.3-2.1,1.3c-0.5,1.3-1.2,2.5-2.3,3.3c-1.2,0.9-0.9,2-0.6,3.1c-4.6,0-9.1,0-13.7,0
	c-0.2-2.5-2-3.8-3.8-5c0.6-1.2,1.5-1.4,2.2-0.3c1.5,2.3,3.3,4.3,6.2,3.8c3.6-0.6,6.5-2.6,8.2-5.9C274.3,194.2,275,194.1,278.1,197.8
	L278.1,197.8z"/>
<path class="st3" d="M255.6,200.6c1.9,1.2,3.7,2.4,3.8,5c-0.3,0-0.5,0-0.8,0C254.4,205.5,253.7,204.4,255.6,200.6L255.6,200.6z"/>
</svg>
