<?xml version="1.0" encoding="utf-8"?>
<!-- Generator: Adobe Illustrator 26.5.0, SVG Export Plug-In . SVG Version: 6.00 Build 0)  -->
<svg version="1.1" id="Layer_1" xmlns="http://www.w3.org/2000/svg" xmlns:xlink="http://www.w3.org/1999/xlink" x="0px" y="0px"
	 viewBox="0 0 841.6 907.1" style="enable-background:new 0 0 841.6 907.1;" xml:space="preserve">
<style type="text/css">
	.st0{fill:#F9E98C;}
	.st1{fill:#C8B751;}
	.st2{fill:#201610;}
	.st3{fill:#134242;}
	.st4{fill:#BA6E3A;}
	.st5{fill:#D3814C;}
	.st6{fill:#C1733F;}
	.st7{fill:#327776;}
	.st8{fill:#CB7B46;}
	.st9{fill:#EBECEC;}
	.st10{fill:#FDD2D1;}
	.st11{fill:#C4601E;}
	.st12{fill:#914513;}
	.st13{fill:#B1B1B1;}
	.st14{fill:#B46936;}
</style>
<path class="st0" d="M440.1,54.5c83.4,1.5,175.3,37.9,250.4,112.9c75,74.9,113,166.7,113.1,272.5c0.1,106.3-38,198.3-113.4,273.5
	C615.2,788.1,523.6,825.9,418,826c-106,0-197.8-37.9-272.8-113c-74-74-111.8-164.5-112.9-269.3C30,227.7,204.7,54.5,440.1,54.5z
	 M461.1,274.3c-2.9,0.7-5.6,2-8.1,3.7c-18.2,10.4-28.1,25.9-28.5,47.2c-1-0.4-1.7-0.7-2.4-1.1c-8.9-4.2-18.1-6.1-27.9-4.7
	c-6.1,0.9-12,2.6-17.4,5.9c-1.5,0.9-2.1,0.6-2.2-1c-0.1-2.3-1.1-4.3-1.7-6.4c-2.1-7.7-6.6-13.8-12.6-18.9
	c-10.8-9-23.3-12.3-37.2-10.7c-16.1,1.9-28.9,9.5-38.2,22.8c-7.3,10.5-9.5,22.3-6.8,34.6c2.3,10.4,8.3,18.8,17.2,24.9
	c0.8,0.5,1.7,0.9,1.8,2.2c0.2,2.5,1.2,4.9,1.9,7.2c-0.2-0.1-0.3,0-0.4,0.1c-5-0.1-9.8,1.4-14.6,2c-8.3,1-16.3,3.6-24.6,5
	c-10.6,1.8-20.4,5.6-30,9.9c-10.4,4.6-19.9,11.3-30.2,16.4c-2.6,1.2-4.6,3.3-7.5,4.2c-12.9,4-24.6,10.5-35.6,18.1
	c-6.9,4.7-13.1,10.4-18.8,16.5c-9.7,10.4-19.4,20.8-28.5,31.8c-1.9,2.3-3.1,4.8-3.6,7.8c-0.8,4.4-0.7,8.9-0.5,13.3
	c0.1,2.9-0.2,6.5,2.5,8.6c2.4,1.8,2.8,4,2.9,6.6c0.2,5.8-0.8,11.5-1.2,17.3c-0.2,4,1.4,7.2,3.5,10.3c4.1,6,10.4,9.1,16.9,11.6
	c4.1,1.6,7.8,3.7,11.7,5.4c3.2,1.4,5.1,3.8,7.4,6c2.2,2.1,4,4.8,6.9,6.1c1.9,0.9,3.1,2.3,3.9,4.2c-5.3,1.5-10.7,2.8-15.9,4.5
	c-12.7,4-25.2,8.4-35.6,17c-10,8.2-12.1,19.4-2.2,29.3c4.3,4.4,9.4,7.7,14.8,10.4c20.7,10.3,42.9,15.8,65.4,20.5
	c14.4,3,28.9,5.8,43.5,7.3c9.8,1,19.5,2.8,29.2,4.1c14.4,2,29,2.6,43.5,3.7c8.7,0.7,17.5,0.8,26.2,1.7c11.1,1.2,22.4,1.3,33.5,2.1
	c8.4,0.6,16.8,1.4,25.1,1.7c11,0.4,21.9,1.3,32.9,1.2c18-0.1,36,0,53.9,0c0.8,0,1.6,0.1,2.5-0.1c11.4-1.8,22.9-3.2,34.4-3.6
	c11.7-0.4,23.3-1.4,34.9-2.2c8.8-0.6,17.5-1.5,26.2-2.4c12.5-1.3,24.9-3.1,37.3-4.8c14.4-2,28.7-4.6,42.9-8
	c15.7-3.7,31.3-7.9,45.8-15.1c6.4-3.1,12.4-6.9,17-12.4c4.1-5,5.3-10.6,3.3-16.8c-1.6-4.9-5.1-8.3-8.9-11.4
	c-9.5-7.6-20.7-11.8-32-15.9c-5-1.8-10.3-2.8-15.1-5c2.9-4.3,6-8.6,8.7-13c2.8-4.6,6.3-8.3,11.2-10.7c3-1.4,6-2.9,9-4.4
	c3.5-1.8,6.7-4.1,8.7-7.5c3-5.4,7.2-9.4,12.7-12.3c8.5-4.5,11.3-11,7-20.5c-2.4-5.4-4-11.1-5.8-16.8c-1.2-3.6-3.2-6.5-6.2-9
	c-5-4.1-11-7.1-15.2-12.3c-3.9-4.9-8.8-8.7-14.2-11.6c-7.4-4-12.7-10-17.7-16.5c-5.3-6.9-10.6-13.8-18.6-18
	c-2.5-1.3-4.4-3.4-6.3-5.5c-9.3-10.4-21.7-15-34.7-18.3c-7-1.8-14.3-2.7-20.9-6.1c-11.1-5.7-22.8-9.3-35-11.6c-8-1.5-16.2-2.6-24-5
	c-7.1-2.2-14.3-4.4-21.5-6.2c-7.9-2-16-2.6-23.9-4.5c-5.2-1.2-10.7-1.7-16-2.6c-2.2-0.4-4-1-4.3-3.9c-0.4-3.6-2-6.9-4.1-10
	c-0.4-0.5-0.9-1.1-0.8-1.8c0.6-0.4,1-0.1,1.4,0.1c6.9,2.5,14.1,3.2,21.4,2.3c12.8-1.5,23.9-6.7,33.1-15.7
	c11.5-11.3,17.7-24.7,15.5-41.2c-1.3-10.1-6-18.4-14.1-24.5C493.3,269.3,477.5,268.5,461.1,274.3L461.1,274.3z"/>
<path class="st1" d="M662.1,586.9c4.9,2.2,10.1,3.2,15.1,5c11.3,4.1,22.5,8.3,32,15.9c3.8,3.1,7.3,6.6,8.9,11.4
	c2,6.2,0.8,11.9-3.3,16.8c-4.6,5.5-10.7,9.3-17,12.4c-14.6,7.2-30.1,11.4-45.8,15.1c-14.2,3.3-28.5,5.9-42.9,8
	c-12.4,1.8-24.9,3.5-37.3,4.8c-8.7,0.9-17.4,1.8-26.2,2.4c-11.6,0.8-23.3,1.8-34.9,2.2c-11.5,0.4-23,1.8-34.4,3.6
	c-0.8,0.1-1.6,0.1-2.5,0.1c-18,0-36-0.1-53.9,0c-11,0-21.9-0.9-32.9-1.2c-8.4-0.3-16.8-1.1-25.1-1.7c-11.2-0.8-22.4-0.9-33.5-2.1
	c-8.7-0.9-17.5-1-26.2-1.7c-14.5-1.1-29-1.7-43.5-3.7c-9.8-1.4-19.4-3.2-29.2-4.1c-14.7-1.5-29.1-4.3-43.5-7.3
	c-22.4-4.7-44.7-10.2-65.4-20.5c-5.4-2.7-10.5-6.1-14.8-10.4c-9.8-9.9-7.8-21.1,2.2-29.3c10.4-8.6,22.9-13,35.6-17
	c5.3-1.7,10.6-3,15.9-4.5c0.3,0.3,0.7,0.5,1,0.9c11.1,14,22.2,28,33.4,41.9c1.8,2.2,3.8,4.1,6.7,4.8c5.6,1.2,11.3,2.4,16.9,3.8
	c10.7,2.5,21.4,4.8,32.3,6.6c5.9,1,11.7,2.1,17.6,3.1c7.4,1.2,14.8,2.5,22.1,3.6c6.4,0.9,12.8,2.3,19.2,2.9
	c5.4,0.5,10.7,1.5,16.1,2.3c5,0.7,10,1.6,15,2.1c5.7,0.5,11.3,1.4,17,1.8c8.6,0.6,17.1,1.9,25.7,2.3c17.9,1,35.7,1.2,53.6,1.3
	c10.2,0.1,20.5,1,30.7,0.1c8.8-0.8,17.7-1,26.5-1.5c12.3-0.7,24.5-1.8,36.7-3.2c13.7-1.5,27.3-3.5,40.9-6.2c18-3.6,35.8-8,52.8-15.1
	c7.7-3.2,13.7-7.6,18.1-15C647.9,607.1,655.2,597.2,662.1,586.9L662.1,586.9z"/>
<path class="st2" d="M662.1,586.9c-6.9,10.2-14.2,20.2-20.5,30.7c-4.4,7.3-10.5,11.8-18.1,15c-17,7.1-34.8,11.5-52.8,15.1
	c-13.5,2.7-27.2,4.7-40.9,6.2c-12.2,1.3-24.5,2.5-36.7,3.2c-8.9,0.5-17.7,0.8-26.5,1.5c-10.2,0.9-20.5,0-30.7-0.1
	c-17.9-0.1-35.8-0.3-53.6-1.3c-8.6-0.5-17.1-1.8-25.7-2.3c-5.7-0.4-11.3-1.2-17-1.8c-5-0.5-10-1.4-15-2.1
	c-5.4-0.8-10.7-1.8-16.1-2.3c-6.5-0.6-12.8-2-19.2-2.9c-7.4-1.1-14.8-2.3-22.1-3.6c-5.9-1-11.7-2.1-17.6-3.1
	c-10.9-1.8-21.6-4.1-32.3-6.6c-5.6-1.3-11.2-2.5-16.9-3.8c-2.9-0.6-4.9-2.5-6.7-4.8c-11.1-14-22.2-28-33.4-41.9
	c-0.3-0.3-0.7-0.6-1-0.9c-0.7-1.9-1.9-3.4-3.9-4.2c-2.9-1.3-4.7-4-6.9-6.1c-2.3-2.2-4.2-4.7-7.4-6c-3.9-1.7-7.6-3.8-11.7-5.4
	c-6.5-2.5-12.8-5.6-16.9-11.6c-2.1-3.1-3.7-6.3-3.5-10.3c0.3-5.8,1.4-11.5,1.2-17.3c-0.1-2.6-0.5-4.8-2.9-6.6
	c-2.8-2.1-2.4-5.6-2.5-8.6c-0.2-4.4-0.4-8.9,0.5-13.3c0.6-3,1.8-5.5,3.6-7.8c9.1-11,18.8-21.4,28.5-31.8
	c5.7-6.1,11.9-11.8,18.8-16.5c11.1-7.6,22.7-14.1,35.6-18.1c2.9-0.9,4.9-2.9,7.5-4.2c10.3-5,19.8-11.7,30.2-16.4
	c9.6-4.3,19.4-8.2,30-9.9c8.2-1.4,16.3-4,24.6-5c4.9-0.6,9.7-2.1,14.6-2c-0.5,1.5-2,1.2-2.9,1.4c-11.6,1.7-23,4.1-34.5,6.5
	c-12.4,2.6-24.2,6.7-35.4,12.3c-5.6,2.8-11.2,6-16.4,9.5c-1.5,1-3.5,1.1-5.3,3.1c10.1-2.2,19.3-5.4,29.5-6.8c-1.3,1.8-2.5,1.8-3.6,2
	c-4.6,0.9-9.2,1.5-13.6,3.4c-8.4,1.5-16.4,4.5-24.5,7.3c-12.4,4.2-23.9,10.1-34.6,17.7c-3.5,2.5-6.5,5.6-10.1,8
	c-0.9,0.2-1.3,1-1.9,1.5c-10.7,9.9-19.8,21.3-29.7,31.9c-2.5,2.7-5.2,5.3-7.2,8.4c-3.1,4.9-2.7,10.4-2.6,15.8
	c-0.4,1.9,0.3,3.7,0.4,5.6c0.3,4.4,1.8,6.2,6.3,7.1c0.7,0.1,1.5-0.1,1.6,0.8c-0.7,1.4-3.1-0.5-2.9,1.6c0.4,4.4-0.2,8.8-0.5,13.2
	c-0.1,2.5-0.1,5.1-0.3,7.6c-0.2,2.6,0.6,5,1.8,7.3c4.2,7.5,11.7,10.6,19.1,13.5c6.2,2.4,12.4,4.7,17,10c2.8,3.3,5.7,6.7,10,8.2
	c6.4,2.2,12.2,5.7,18.3,8.5s12,5.8,16.6,11.1c1.7,2,4,3.2,6.8,3.7c3.1,0.5,6.1,1.5,9.2,2.1c5.7,1.3,11.6,1.8,17.2,0.3
	c8-2.1,16.1-2.9,24.3-3.6c5.3,0.7,10.6,2.2,15.8,2.9c5.6,0.8,10.5,2.8,15.5,5.2c3.8,1.8,7.5,4,11.5,5.5c8,3.1,16.5,2.7,24.8,3.8
	c4.1,0.5,8.2,0.9,12.1,2.5c3.9,1.6,7.9,2.1,12,1.1c10.6-2.7,21.4-4.8,32.3-6.2c2.8-0.4,5.4-1.2,8.2-1.4c6.8-0.5,12.4,3.2,18.5,5.2
	c5.6,1.8,11.1,3.8,17,4.3c6.7,0.6,13.5,1,19.9,3.4c6,2.3,12.1,2.2,18.3,0c3.4-1.2,6.7-2.8,9.9-4.5c5.1-2.8,11-3.3,16.3-5.7
	c3.1-1.4,6.2-2.9,9.6-3.6c6.2-1.4,12.2,0.7,18.2,1.6c6.1,0.9,12.3,1.7,18.4,2.6c8.3,1.3,16.6,1.9,24.9,0.8
	c8.9-1.1,16.8-4.6,24.2-9.8c8.1-5.7,16.9-8.9,27.1-7.5c2.8,0.4,5.7,1.1,8.7,0.7c6.4-0.8,12.9-1.6,19.3-2.3
	c10-1.2,19.3-4.1,26.8-11.1c4.2-3.9,6.8-8.9,9.8-13.6c2.1-3.4,4.1-6.9,7.7-8.9c3.9-2.2,7.9-4.1,11.9-6c4-1.9,7.3-4.3,9.5-8.3
	c1.8-3.3,4.3-6,7.1-8.4c2-1.7,4.6-2.5,6.3-4.4c5.3-1.8,10.3-9.3,6.2-16.4c-0.1-0.4-0.3-0.9-0.4-1.3c-1.6-4.1-3.3-8.1-4.3-12.5
	c-1.2-5.2-3-10.4-8-13.7c-3.5-2.3-6.8-5.1-10.2-7.7c-3.1-2.4-5.3-5.8-8.2-8.3c-5.9-5.2-12.8-8.8-19.3-13.1c-3.3-2.2-6.5-4.6-9.8-6.9
	c-0.4-0.3-1.1-0.7-0.8-1.3c0.5-0.9,1.1-0.1,1.6,0.2c1.1,0.8,2.1,1.8,3.5,2.1c0.2,0.1,0.5,0.3,0.7,0.4c0,0.3,0,0.6,0.4,0.3
	c-0.1-0.1-0.2-0.2-0.4-0.3c-0.1-0.2-0.3-0.4-0.4-0.7c-0.6-1.8-2.2-2.9-3.3-4.2c-4.6-5.5-8.4-11.6-14.6-15.6c-4-2.6-7.8-5.4-11.3-8.8
	c-3.3-3.3-6.9-6.3-11.1-8.6c-9.1-5-18.9-8.2-29-10.4c-4.9-1-9.7-2.1-14.1-4.4c-11-5.8-22.8-9.1-34.8-11.6
	c-8.3-1.7-16.7-2.6-24.8-5.2c-11.4-3.6-23-6.7-34.9-8.7c-9.1-1.5-18.3-3-27.5-4.7c-1.8-0.3-1.8,0.5-1.8,1.7c0.1,4-0.6,7.8-2.3,11.3
	c-0.6,1.2-0.6,2.1,0.4,3.1c1,1.1,1.9,1.3,3.3,0.8c4.1-1.8,8.6-2.2,13-2.2c7.5,0.1,14.9,1.3,22.2,2.9c9.9,2.1,19.6,4.9,29.2,7.8
	c4.3,1.3,8.5,2.9,10.9,7c2.2,3.8,5.1,7,8.3,10c2.2,2.1,4.6,4.1,6.9,6.2c1.6,1.5,1.8,3,0,4.6c-2.3,0.4-3.5,1.8-4.3,3.9
	c-1.4,3.4-2,7.3-5.2,9.8c-2,0.6-4,1.8-6-0.2c-0.2-0.2-0.9-0.1-1.2,0.1c-3.7,2.4-7.9,2.8-12,3.7c-4.7,1-9.1,3.5-14.2,1.9
	c-1.6-0.5-3.4-0.5-5.1-0.8c-6.5-0.9-13.2-0.6-19.7-2.1c-2.7-0.6-4.8,0.2-6.8,1.4c-1.7,1-2.2,3.1-3.1,4.7c-1.3,2.2-3.1,3.4-5.7,3.4
	c-1.9,0-3.8,0.6-5.5,1.3c-9.5,4.3-19.4,3.4-29.3,1.9c-5-0.7-10-1.8-15-2.2c-4.3-0.3-8.7-0.2-13.1-0.3c-3.7-0.1-6.8-1.8-9.6-3.9
	c-8.4-6.6-17.7-10.7-28.2-12.3c-5.4-0.8-10.8-1.9-16.4-2.1c-2.2-0.1-4.6-0.2-6.9-0.9c-3.9-1.2-7.8-2.6-11.9-2.9
	c-0.7-0.8-1.7-0.8-2.5-0.7c-3.6,0.1-6.2-1.7-8.6-4.2c-4.4-4.6-8.9-9.1-13.4-13.6c-0.6-0.6-1.2-1.1-1.7-1.7c-2.8-3.1-3.3-5.9-1.2-7.8
	c1.5-1.3,3.2-2.3,5.1-2.8c3.6-1,7.2-2,11.3-3.2c-4.4-2.6-8.1-5.4-11.6-8.4c-2.8-3.3-5.1-6.8-6.8-10.8c-0.7-2.4-1.8-4.7-1.9-7.2
	c-0.1-1.3-1-1.6-1.8-2.2c-8.9-6.1-14.9-14.5-17.2-24.9c-2.7-12.3-0.5-24.1,6.8-34.6c9.3-13.3,22-20.9,38.2-22.8
	c13.9-1.6,26.4,1.7,37.2,10.7c6,5,10.5,11.1,12.6,18.9c0.6,2.1,1.6,4.2,1.7,6.4c0.1,1.6,0.7,2,2.2,1c5.3-3.3,11.2-5,17.4-5.9
	c9.8-1.4,19,0.5,27.9,4.7c0.7,0.3,1.5,0.6,2.4,1.1c0.4-21.4,10.3-36.9,28.5-47.2c0.4,0,0.9,0.1,1.1,0.6c-6.7,3.8-12.6,8.5-17.3,14.6
	c-6.9,8.7-10.9,18.5-10.8,29.8c0,1.5-0.1,3.1,1.3,4.2c1.7,1.2,3.3,2.5,4.9,3.8c0.7,0.7,1.3,2.1,1.7-0.3c0.6-3.9,1.4-7.7,3.2-11.2
	c0.2,0.2,0.5,0.4,0.8,0.7c-0.7,2.3-1.7,4.6-2.1,7c-0.4,2.5-2,5.2-0.2,7.6c2.4,3.1,4.3,6.5,6.1,9.9c0.5,1.8,1.3,3.6,1.4,5.5
	c0.1,3.8,2.5,5.3,5.4,6.6c8.4,3.7,17.1,4.6,26.2,3.3c9.6-1.4,18.3-4.9,25.9-11.1c9.6-7.2,16-16.4,19.1-28.1
	c2.5-9.3,1.7-18.3-2.4-26.8c-10.1-21.1-36.3-26-54.5-18.7c-0.5,0.1-1.1,0.1-1.6,0.2c0-0.4,0-0.7,0-1.1c16.4-5.8,32.2-5,46.5,5.7
	c8.1,6.1,12.8,14.4,14.1,24.5c2.2,16.5-4,29.9-15.5,41.2c-9.2,9-20.4,14.2-33.1,15.7c-7.2,0.9-14.4,0.2-21.4-2.3
	c-0.4-0.1-0.8-0.4-1.4-0.1c-0.1,0.7,0.4,1.2,0.8,1.8c2.1,3,3.7,6.4,4.1,10c0.3,2.9,2.1,3.5,4.3,3.9c5.3,0.9,10.8,1.4,16,2.6
	c7.9,1.8,16,2.5,23.9,4.5c7.2,1.8,14.4,4,21.5,6.2c7.8,2.4,16,3.4,24,5c12.2,2.3,24,5.9,35,11.6c6.6,3.4,13.9,4.2,20.9,6.1
	c13,3.4,25.4,8,34.7,18.3c1.9,2.1,3.8,4.1,6.3,5.5c8,4.2,13.3,11.1,18.6,18c5,6.5,10.3,12.5,17.7,16.5c5.4,2.9,10.3,6.7,14.2,11.6
	c4.1,5.2,10.1,8.1,15.2,12.3c3,2.5,5,5.4,6.2,9c1.8,5.6,3.4,11.4,5.8,16.8c4.3,9.5,1.5,15.9-7,20.5c-5.5,2.9-9.7,6.9-12.7,12.3
	c-2,3.5-5.1,5.8-8.7,7.5c-3,1.5-6,3-9,4.4c-4.9,2.3-8.4,6-11.2,10.7C668.1,578.3,665,582.5,662.1,586.9L662.1,586.9z M491.5,442.1
	c0.2-1.5,0.2-1.5-1.1-1.7c-0.6-0.1-0.5-0.6-0.6-1c-0.1-0.7-0.3-1.4-1.2-1.5c-0.9,0.5,0.5,1.8-0.7,2.2c-1.1-0.3-0.4-1.8-1.6-2.1
	c-0.8,1.2-1.5,2.5-1.3,4.2c-0.3,0.8-0.6,2,0.2,2.2c1.6,0.5,3.5,0.9,5.1,0.7C491.7,444.9,491.3,443.2,491.5,442.1z M464.4,449.8
	c-0.3-1.5-1.9,0.3-2.2-0.8c-0.7-2.4-1.6-1.4-2.3-0.1c-1.1-0.3-0.4-2.2-1.8-1.8c-1,0.3-1.3,1.4-0.9,2.5c0.5,1.1-0.3,2.1-0.2,3.2
	c-0.5,2,0,2.7,2,1.8c0.7-0.3,1.5-0.5,2.3-0.6C463.9,453.6,465,452.3,464.4,449.8L464.4,449.8z M427,396.9c-0.1,0.4-0.2,0.7,0.2,0.9
	c6.9,3.3,16.3,2.5,21.5-4.7c0.4-0.4,0.8-0.7,1.1-1.1c6.2-8.3,6.4-20.1,0.4-29.5c-1.3-3.2-3.8-5.2-6.5-7.5c-0.1,1.3-0.2,2.2-0.3,3.1
	c-1.7,0.1-1-1.2-1-1.9c0-4.7-1.1-9.1-3.2-13.3c-7.7-15.1-21-21.5-37-22.5c-11.7-0.7-22.6,2.8-31.5,10.8c-7,6.4-11.4,14.2-11.2,24.1
	c0.1,2.4,0.2,4.8,0.3,7.3c-0.2,0-0.5,0-0.7,0c-1.6-5.2-0.9-10.4,0-15.6c1.6-4.7,3.9-9,7-12.9c0.8-0.4,1.2-1.2,1.7-1.9
	c1-0.9,2-1.9,3.1-2.6c2.3-1.4,2.8-3.4,2.3-5.8c-1.9-9.5-6.4-17.4-13.8-23.7c-7.2-6.1-15.6-9.4-24.9-10.5c-3.4-0.4-7-1.1-10.5,0.2
	c-1,0-2-0.1-3,0.1c-13.6,2.3-25,8.5-33.4,19.5c-8.5,11.1-11.9,23.7-8.1,37.5c3.9,14.2,13.4,23.5,27.1,28.4c7.6,3,15.4,3.4,23.4,2.3
	c9-1.2,17.2-4.3,24.3-10.1c0.4,0.1,0.7,0.2,1.1,0.3c-0.2,0.4-0.4,0.8-0.7,1.1c-4.6,5-5.9,13.4-2.5,19.2c3.7,6.2,9,10.5,16.3,12.1
	c5.4,1.2,10.7,0.8,16-1.1c1.3-0.5,1.6-2.7,3.4-2c1.3,1.4,2.9,2.1,4.6,2.7c11.7,4,22.9,3.1,33.5-3.3
	C426.5,396.4,426.8,396.7,427,396.9L427,396.9z M423.6,422c1.5-1.2,2.9-3.6,4.7-0.3c0.1,0.1,0.5,0.1,0.7,0c2.5-1,2.8,0.5,2.8,2.4
	c0,0.6-0.2,1.2,0.3,1.8c2,2.1-0.4,5.4,2.1,7.6c0.4,0.3-0.8,1.9-1.7,2.5c-0.5,0.3-1,0.5-1.5,0.7c-0.4,0.2-0.8,0.4-0.8,0.9
	c0,0.5,0.5,0.7,0.9,0.9c0.8,0.4,1.6,0.4,2.4,0.2c1.7,0.1,3.4,0.2,4.8,1.3c0.4,0.2,0.7,0.6,1.1,0.7c2.8,0.9,11.9-1.9,13.5-4.3
	c1.1-1.6,1.8-3.2-0.5-4.5c-1-0.6-2-1.9-1.1-2.9c1.4-1.5,0.2-2.6-0.2-3.8c0.5-1.6,1.1-3.2,0.1-4.9c-0.4-0.6-0.1-1.3,0.3-1.8
	c0.8-0.9,0.5-1.6,0-2.5c-0.8-1.3-1.7-2.6-2.4-3.9c-1.5-2.7-3.9-3.1-6.7-2.6c-3.5,0.6-7.1,1-10.7,1.4c-0.9,0-1.9,0.2-2.5,0.9
	c-2.3,3.1-4.6,6.2-5.8,9.9c-1.3,0.6-1.5,1.6-1.4,3C422.9,423.9,423.5,423.1,423.6,422L423.6,422z M325.9,412.7
	c-0.7-4.7-3.8-8.1-6.6-11.6c-0.3-0.4-0.8-0.4-1.3-0.2c-4.5,1.1-9.2,2.1-13.5,3.8c-3.4,1.4-3.8,3.6-1.3,6.3c0.6,0.7,1.1,1.4,1.7,2.1
	c4.2,4.9,8.4,9.8,13.4,13.9c1.4,1.5,2.9,3,4.8,3.8c1.4,0.6,3.5,1.4,3.8-1c0.3-2.6,0.8-5.2,0.4-8C327,418.7,326.5,415.7,325.9,412.7
	L325.9,412.7z M323.3,399c0-0.2,0-0.4,0-0.5c0.9-0.8,1.9-0.9,3-1.1c8.6-1.6,17.3-1.9,25.9-3.9c1.6-0.4,2.5-0.7,1.1-2.6
	c-2.8-4-4.2-8.6-3.5-13.5c0.2-1.6-0.5-1.2-1.4-0.9c-1.8,0.5-3.6,1.2-5.4,1.5c-3.8,0.7-7.1,3-11.3,2.2c-8.6-1.6-17.4-0.4-26.1-0.4
	c-1.8,0-2.3,0.9-1.3,2.5c1.1,1.9,2.3,3.6,4,5.1c4.5,4,9.9,6.8,14,11.1C322.4,398.9,322.7,399.1,323.3,399c2.4,4.2,5.5,7.9,7.2,12.5
	c1.9,6.4,4.4,12.7,3.1,19.6c-0.2,1.2,0.5,1.5,1.6,1.9c4.7,1.7,9.6,2.5,14.5,3c4.4,0.4,8.8,1,13.2,1.5c1.2,0.1,2.2,0.2,2.2-1.5
	c0.2-7.1,1.7-13.9,3.9-20.7c2-4.6,4.4-9,7.7-13.6c-1.2,0-1.9,0-2.6,0c-5.6,0.1-10.7-1.7-15.2-5c-2.8-2-5.7-2.3-8.9-1.9
	c-2.8,0.4-5.4,1.5-8.2,1.9c-4.2,0.6-8.5,0.4-12.6,1.5C327.3,398.8,325.3,398.8,323.3,399L323.3,399z M527.6,442
	c2.8-0.3,5.6-0.7,8.5-0.5c1.4,0.1,2.6-1.2,3.2-2.6c1-2.2,2-4.5,2.9-6.7c0.8-2,1.7-3.7,4-4.4c1.6-0.5,1.8-1.6,0.5-2.8
	c-0.5-0.5-1.1-0.9-1.7-1.4c-5-4.2-9.9-8.5-13.2-14.3c-1.2-2.1-3-3.7-5.4-4.8c-9-4.2-18.8-5.8-28.2-8.5c-7.1-2-14.5-2.7-21.8-3.8
	c-6.6-1-12.7-0.3-18.9,1.8c-1.8,0.6-3.3,0.7-4.5-1c-0.8-1.1-1.4-1-2.2,0.1c-2.1,2.5-4.5,4.8-7.5,6.1c-0.4,0.2-1.4,0.5-0.9,1
	c2.1,2.4,2.7,5.8,5,8.1c2.2,2.2,3.8,4.8,5.5,7.4c0.6,0.9,1.1,1.8,2.1,2.5c3.9,2.6,3.9,3.1,3,7.8c-0.4,1.9-0.9,4.1,2.5,4.1
	c1.8,0,3.4,1.2,4.9,2.1c4.9,3.1,9.3,6.8,13.1,11.2c1.5,1.7,3,0.5,4.5,0.7c1.1,0.1,0.5-1.6,0.7-2.5c0.2-1,0.4-2.1,0.6-3.2
	c0.2-1,0.9-1.8,2-2c4.1-0.8,7.2,2.4,6.4,6.5c-0.1,0.7-0.1,1.4-0.2,2.4c3.8-0.7,7.1,1.8,11,1c1.2-0.2,2.5,0.2,3.7,0.5
	c1.8,0.5,3.5,0.4,5.3-0.2c2.8-0.9,5.6-2.1,8.6-2.4C523.5,444.1,525.7,443.5,527.6,442L527.6,442z M472.6,439.4
	c-3.7-3.3-7.3-6.7-12.3-8.1c-1.3-0.4-2.5-0.8-3.9,0.9c-1.3,1.6-1.2,3.5-2.3,5c-5.6,3.3-11.1,7-18,3.1c-0.5-0.3-1.2-0.2-1.9-0.3
	c-3.6-0.6-6.9-0.6-10.4,1.6c-2.9,1.8-5,3.8-6.9,6.5c-1.1,0.6-1.6,2.2-3.2,2c-0.1-0.2-0.1-0.3-0.1-0.4c1.1-1.3,2.1-2.6,3.3-3.9
	c2.7-3.1,2.8-3.1-0.1-6.1c-0.6-0.7-1.1-1.6-2.4-1.4c-2.6,0.4-5.3,0.6-7.9,1.1c-1.3,0.2-2.6,0.7-3.9,0.4c-1.2-0.3-0.5-0.8,0.1-1.1
	c2.7,0.4,5.3-0.7,8-0.9c2.7-0.2,5.8-0.2,5.2-4.5c0-0.1,0.2-0.3,0.2-0.5c1.4-4.6,3.8-8.7,6.3-12.8c1.8-3,3.6-6,5.4-9
	c3.7-1.9,7.8-1.5,11.8-2.2c1.8-0.4,4.8,0,5.2-1.2c0.6-1.8-1.3-3.7-2.7-5.2c-0.7-1.7-2-2.2-3.7-1.8c-4.1,1.1-7.9,0-11.6-1.6
	c-1.2-0.5-2.1-0.5-3.3,0.1c-9.2,4.6-18.9,5.1-28.7,2.5c-6.8-1.8-6.8-1.8-13.4-0.4c-2.6,0.5-4.3,1.7-5.4,3.9
	c-2.6,3.4-4.5,7.2-5.6,11.4c-3.2,6.3-3.8,13.2-4.1,20.2c-0.1,1.4,0.8,2,2.2,2.3c9.2,2.1,17.4,6.3,24.8,12.2c2.6,2.1,5.9,3.3,9.6,3.1
	c3.7-0.2,7.4-0.2,11.1,0.2c6,0.7,11.9,1.8,17.8,2.8c6.7,1,13.7,1.6,20.4-0.5c1.1-0.4,3.2,0.1,3.3-2.1c0-2,0-4,0.2-5.9
	c0.1-1.5,0.5-3.4,2.6-3c2.3,0.5,4.8,0.6,6.8,2.1c0.1,1,0.2,2,0.4,2.9c0.1,0.7-0.5,1.8,0.5,2.1c1,0.3,1.6-0.6,2.1-1.4
	c0.7-1.1,1.4-2.3,2-3.5c0.7-1.4,1.7-2.5,3.2-3.2c3.2-1.5,3.2-1.9,0.6-4.2C473.6,440.2,473.1,439.8,472.6,439.4L472.6,439.4z
	 M191.4,596.9c-1.1-2.5-3.6-3.4-5.5-4.9c-5-3.8-11-5.7-16.5-8.7c-2.8-1.5-5.5-3.3-9.4-3.7c2.9,3.5,5.4,6.5,8,9.6
	c0.1,1.4,1.5,2,2.3,2.9c8.3,10.6,16.8,21.2,25.1,31.8c1.6,2,3.7,3,6.2,3.5c11.3,2.4,22.6,4.9,33.8,7.5c7.1,1.7,14.3,2.7,21.4,4
	c8.4,1.6,16.8,3.1,25.3,4.1c5,0.6,9.9,2.2,14.9,2.7c9.1,0.8,18,2.7,27.1,3.6c8.5,0.8,16.8,2.8,25.3,3.5c2.3,0.2,4.8-0.1,7.1,0.3
	c10.4,1.9,20.9,2.5,31.3,2.9c17,0.6,33.9,0.8,50.9,1.2c13.4,0.3,26.8-0.1,40.2-0.7c11-0.5,22-1.5,33-2.2c10.2-0.6,20.4-2.2,30.6-3.6
	c13.4-1.7,26.8-4,40-7c17-3.8,33.7-8.6,49.2-16.7c2.5-1.3,4-3.2,5.5-5.4c6.3-9.4,12.6-18.8,18.8-28.2c0.4-0.5,1.4-1,0.7-1.7
	c-0.6-0.7-1.1,0.2-1.6,0.5c-4.9,2.8-10.2,4.5-15.7,5.7c-6.7,1.5-13.5,1.9-20.3,2.6c-3.5,0.3-7,1.1-10.5,0.5
	c-11.4-2-21.6,0.5-30.7,7.8c-1.3,0.7-2.7,1.4-4,2.2c-2.6,1.4-5.1,3-7.9,4c-11.6,4.1-23.4,3.6-35.3,2.1c-2.8,0-5.5-0.7-8.3-1.2
	c-7.1-1.2-14.2-2.4-21.4-3.2c-3.8-0.4-7.6-0.6-11.5,1.1c-5.6,2.4-11.2,4.9-17.3,6.1c-2.7,0.5-5.8,1.5-7.8,4
	c-0.9,0.3-1.7,0.5-2.5,0.9c-7.7,3.5-15.5,4.8-23.6,1.8c-4-1.5-8.1-2.7-12.4-2.5c-2.1-1-4.4-0.9-6.5-1c-7.3-0.4-14.2-2.4-20.8-5.4
	c-6.7-3-13.3-5.4-20.9-3.1c-3.2,1-6.7,1.2-10.1,1.5c-4.8,0.4-9.6,1.3-14.1,3.1c-2.5,0.4-5,0.9-7.4,1.3c-3.6,0.6-7.1,1.6-10.9,1
	c-2.8-0.5-5.3-1.7-8-2.4c-6.6-1.7-13.4-2.1-20.2-2.2c-1.1,0-2.1-0.1-3.2-0.3c-5.9-1.3-11.6-3.3-17.2-5.5c-0.5-0.9-1.4-1.1-2.2-1.5
	c-5.9-2.8-11.5-5.6-18.1-6.7c-8.2-1.3-16.3-3-24.7-1.7c-4.9,0.8-9.9,1-14.4,3.2c-4.2,0-8.4,0.4-12.5,0
	C206.2,603.5,198,602.6,191.4,596.9L191.4,596.9z M419.9,426.1c-0.9,2.6-1.6,5.2-2.7,7.8c-0.6,1.4-0.9,3.5,0.6,5.1
	c2.7,3.2,4.9,3.2,8.7,0c1.5-1.3,2.5-3.1,4.6-3.7c1-0.3,2.1-1.2,1.6-2.1c-0.5-1.1-1.5,0.2-2.3,0.3c-0.1,0-0.3-0.1-0.6-0.2
	c0.1-1.9,2.4-3.2,1.9-5.4c-1.6,0.2-1.7,2.6-3.8,2.5c0.8-2.6,3-4.5,2.6-7.5c-2.4,1.2-2.8,4.1-5.8,5.7c0.9-2,1.5-3.2,2-4.6
	c0.3-0.7,0.5-1.9-0.2-2.2c-1-0.5-1.2,0.7-1.7,1.3c-1.3,1.8-1.9,4-3.6,5.5C420.5,427.8,421.2,426.6,419.9,426.1L419.9,426.1z
	 M298.2,372.8c0.9,4,2.2,7.7,4.2,11.3c3.1,5.6,8.4,8.9,13.4,12.5c5.7,4.1,9.9,9.4,11.5,16.2c1.2,5.3,2.2,10.7,0.8,16.1
	c-0.8,3.1,1.4,3.1,3.2,3.3c2,0.1,0.9-1.7,1.1-2.6c0.3-1.1,0.6-2.4,0.4-3.5c-2.1-14.1-7.6-26.2-20.4-33.9c-2.6-1.6-5-3.5-7-5.9
	c-2.9-3.4-4.2-7.5-5.5-11.7C299.7,373.8,299.8,372.8,298.2,372.8L298.2,372.8z M332.1,378.5c1.4,0.6,2.6,0.6,4,0.2
	c4-1.3,8-2.6,12.1-3.5c2.4-0.5,2.6-1.8,2.8-3.9C344.9,374.9,338.7,377.3,332.1,378.5z M312.1,378.1c-3.7-1.1-7.3-2.5-11.2-4.2
	c0.5,1.5,0.8,2.4,1.1,3.4c0.2,0.7,0.4,1.7,1.3,1.4C306.2,378.1,309.2,378.8,312.1,378.1L312.1,378.1z M456.6,424.5
	c0.4,0,0.7-0.2,0.7-0.6c0.2-1.1,0-2.1-0.8-3c-1-1-2-1.8-3.4-1.9c-0.3,0-0.6,0.3-0.7,0.7C452.2,420.9,455.3,424.6,456.6,424.5
	L456.6,424.5z M453.6,424.2c-1-0.1-1.3,0.3-1.1,1c0.4,1.6,1.5,2.7,3.1,3.1c0.5,0.1,1.4-0.1,1.2-1C456.4,425.5,455,424.8,453.6,424.2
	L453.6,424.2z M453.8,429.1c-0.7,0-1.6-0.1-1.5,0.8c0.1,1.2,1.4,1.5,2.3,1.9c0.8,0.4,1.1-0.3,1-1
	C455.7,429.5,454.7,429.3,453.8,429.1L453.8,429.1z M354.7,393.3c0,0-0.1-0.1-0.1-0.1s-0.1,0.1-0.2,0.1c0,0,0.1,0.1,0.1,0.1
	S354.7,393.3,354.7,393.3z M203.7,412.7c-0.1,0-0.1,0.1-0.2,0.2c0.1,0.1,0.1,0.2,0.2,0.2c0.1,0,0.1-0.1,0.2-0.1
	C203.8,412.9,203.7,412.8,203.7,412.7z"/>
<path class="st3" d="M461.1,274.3c0,0.4,0,0.7,0,1.1c-2.3,1-4.7,2.1-7,3.1c-0.2-0.5-0.6-0.5-1.1-0.6
	C455.5,276.3,458.2,275,461.1,274.3L461.1,274.3z"/>
<path class="st4" d="M593.7,410.2c10.1,2.2,19.9,5.3,29,10.4c4.2,2.3,7.8,5.3,11.1,8.6c3.4,3.4,7.3,6.2,11.3,8.8
	c6.2,4,10,10.1,14.6,15.6c1.1,1.4,2.7,2.5,3.3,4.2c-0.1,0.1-0.2,0.2-0.3,0.3c-1.4-0.3-2.3-1.3-3.5-2.1c-0.4-0.3-1.1-1-1.6-0.2
	c-0.3,0.5,0.3,1,0.8,1.3c3.2,2.3,6.5,4.6,9.8,6.9c6.5,4.4,13.4,8,19.3,13.1c2.9,2.6,5.1,5.9,8.2,8.3c3.4,2.6,6.6,5.4,10.2,7.7
	c5,3.3,6.8,8.5,8,13.7c1,4.4,2.8,8.3,4.3,12.5c0.2,0.4,0.3,0.8,0.4,1.3c-4.4,0-8.8,0-13.2-0.4c-1.1-0.1-2.2,0.6-3.4,1
	c-1.7,0.5-3.4,1.4-5.2,1.6c-5,0.6-10.1,0.8-14.5,3.7c-0.3,0.2-0.7,0.3-1,0.2c-5-0.5-8.1,3.4-12,5.4c-2.8,1.4-5,3.8-6.2,6.9
	c-0.4,1-1.4,2-2.6,2.3c-3,0.8-5.4,3-7.5,5c-2.2,2.2-4.7,3.6-7.3,5c-0.7,0.4-1.6,0.7-2,1.3c-4.1,5.6-10.5,8-16.3,11.3
	c-3.5,2-7.5,3.1-10.9,5.4c-2.5,1.7-5,3.3-8,3.9c-1.6,0.3-2.1,1.5-1.9,3.1c-0.8-0.2-1.6-0.4-2.3-0.7c-5.4-1.9-11.1-1.6-16.5-0.7
	c-6.9,1.2-13,4.7-18.2,9.5c-1-0.6-2-0.5-3.1-0.2c-6.7,1.5-13,4.5-19.7,6.2c-7.2,1.8-14.4,3.3-21.6,4.9c-5.5,1.2-11,2.8-16.6,3.7
	c-8.1,1.4-16.2,2.3-24.3,3.5c-6.3,1-12.6,2.1-19.1,2c-4.2,0-8.4,0.2-12.6,0.4c-4,0.2-8,1.7-12,0.7c-0.8-0.2-1.7,0-2.3,0.5
	c-1.4,1-2.9,0.9-4.4,0.5c-2-0.6-3.9-0.5-5.9-0.5c-5.8,0.2-11.7,0.4-17.5,0.5c-4.5,0.1-9-0.8-13.6-0.6c-6.4,0.3-12.9-0.3-19.3-0.4
	c-4.9-0.1-9.8-0.1-14.7-0.9c-3.6-0.6-7.5-1.4-10.9-1c-4.5,0.5-8.5-1.1-12.9-1.1c-3,0-6.1-0.4-9.1-0.7c-2.9-0.3-5.7-1.8-8.5-1.1
	c-3.7,0.9-7.3,0.5-10.7-0.5c-6.5-2-13.2-3.2-19.9-3.8c-7-0.7-13.4-3.3-20.3-4.1c-6.5-0.7-12.7-3.5-19.2-4.5c-1.6-0.2-3.3-0.2-4.8-1
	c-6.1-3.2-13-4.3-19.1-7.5c-4.8-2.5-10.2-3.2-15-5.7c-6-3.2-11.6-7-17.6-10.2c-1.2-0.7-2.3-0.9-3.6-0.4c0-1.1-0.3-2-1-3
	c-6-9-13.7-15.8-24.1-19.3c1.2-1.7,0.8-3-0.7-4.3c-3-2.8-6.1-5.6-8.9-8.6c-3.4-3.8-7.2-7.3-11.5-10.1c-1.2-0.8-1.4-3-3.5-2.6
	c0.3-5.5-0.9-10.7-3.2-15.6c-0.2-0.5-0.4-1-0.4-1.5c0-3.2-2.6-5.2-6.2-4.5c-1.2-0.1-2.4-1.4-3.8,0.2c2.5,0.8,4.6,2,5.7,4.1
	c3,5.8,4.3,12,4.6,18.5c-1.9-0.3-3.8-0.9-5.6-1.8c-2.4-1.3-5.1-2-7.8-2.7c-6.6-1.7-14.2-1.6-18-9c-0.2-0.3-0.8-0.4-1.2-0.5
	c-0.1-5.4-0.6-10.9,2.6-15.8c2-3.2,4.7-5.7,7.2-8.4c9.9-10.6,19-22,29.7-31.9c0.6-0.5,1-1.3,1.9-1.5c0,2.5,1.6,2.2,3.2,1.8
	c5.8-1.2,7.3-0.3,8.7,5.4c0,0.1,0,0.2,0,0.3c0.5,3.9-0.5,7.8,0.3,11.8c0.1,0.7-0.3,1.5,0.2,2.3c1.7,2.7,1.7,5.6,1.7,8.7
	c0,3.5,0.7,6.9,4.3,8.8c0.7,0.4,1.4,1.1,1.6,1.8c1,3.8,3.1,6.6,6.4,8.9c5.5,3.8,10.7,7.9,17.1,10.1c2.6,0.9,5.4,1.6,7.9,2.7
	c7.5,3.5,15.3,6.3,23.3,8.4c8.5,2.2,16.2,6.5,24.7,8.7c5.9,1.5,10.9,5,16.9,6.5c5.5,1.4,10.7,3.8,16,5.7c5.7,2,11.6,3.4,17.3,5.2
	c5,1.6,10.4,2,15.5,3.7c3.9,1.3,7.9,0.6,11.8,1.4c6.3,1.2,12.5,2.8,18.8,3.6c9.2,1.1,18.4,1.6,27.7,2.1c3,0.1,6-0.1,9,0.1
	c7.1,0.3,14.1,1.9,21.1-0.5c0.9-0.3,2.1-0.3,3,0c5.1,2.2,10.4,0.2,15.5,0c4.5-0.1,9.1-0.3,13.6-0.5c4.7-0.2,9.2-1.5,14-1.5
	c2.1,0,4.3-0.2,6.4,0c9.9,0.6,19.3-3.6,29.2-3c5.4,0.3,10.7-1.4,16-2.2c4.2-0.6,8.4-1.2,12.8-1.4c5.9-0.2,11.7-2.4,17.7-3.2
	c1.6-0.2,3.2-0.2,4.8-0.4c7.1-1.2,13.8-3.8,21.1-4.4c8.2-0.8,16.1-3.8,24.3-5c6-0.9,11.8-3.2,17.8-4.5c7.5-1.8,15.1-3.5,22.3-6.5
	c2.3-1,4.5-2.7,7-2.7c2,0,3.7-0.8,5.3-1.7c3.5-2,6.3-5.1,10.5-6.1c0.4-0.1,0.7-0.5,1.1-0.8c2.6-1.8,4.1-4.4,5.7-7
	c2.3-3.7,3.7-7.8,3.3-11.9c-0.5-4.7-0.1-9.7-2.6-14.1c-0.5-0.9-0.9-2-1.2-3c-2.5-7.9-7.8-14-12.7-20.3c-3.7-4.6-8.7-8.1-12.2-12.9
	c-0.7-0.9-1.6-1.5-2.7-1.8c-1.6-0.3-2.6-1.2-3.3-2.6c-0.8-1.6-2.2-2.7-3.8-3.4c-1.7-0.8-3.1-2-4.1-3.5c-1.4-1.9-3.2-3.1-5.1-4.3
	c-3-1.9-6-3.9-6.5-7.9c-0.2-1.3-0.9-2-2.2-2.5C594.8,412.2,593.5,411.7,593.7,410.2L593.7,410.2z M468.8,593.2
	c-0.9-0.1-1.6-0.1-1.7,1c-0.3,0.3-0.6,0.6-1,0.9c-0.4,0.4-1.4,0.7-1,1.4c0.6,0.9,1.3,0.1,1.8-0.3c1.9-1.4,4-2.3,6.4-2.8
	c3.4-0.7,6.8-1.6,10.3-2.4c10.2-2.4,20.2-0.8,30.1,1.9c0.8,0.2,1.6,1.5,2.2,0.1c0.5-1.2-1.1-0.9-1.5-1.5c0-1-0.6-1.3-1.3-1.7
	c-1.4-0.9-3.2-1-4.1-2.6c0.1-0.8,0.4-1.4,1.2-1.6c1.6-0.4,3.2-0.7,4.7-1.2c2.2-0.7,5,0.2,6.8-1.3c2.1-1.7,4.4-1.8,6.8-2.2
	c1-0.2,1.9,0.5,2.9,0c4.2-1.8,8.1-5,13.1-4.4c2.2-3,5.6-2.2,8.6-2.8c1.9-0.4,3.7-0.9,4.9-2.5c0.6-0.8,1.5-0.9,2.5-0.9
	c2.2,0,4.3-0.6,6.2-1.6c5.3-2.7,10.9-4.6,16-7.7c1.5-0.9,3.1-1.8,4.7-2c3.6-0.4,5-3.3,6.2-5.8c2-3.9,0.3-6.9-3.1-6.3
	c-2.6,0.5-5.2,0.3-7.8,0.4c-2.4,0.2-4.9-0.8-6.9,1.4c-0.5,0.5-1.2,0-1.7-0.3c-2.1-1.3-4.3-1.3-6.5-0.4c-4.3,1.8-9.1,0.8-13.6,1.8
	c-3.7,0.8-7.6,0.3-11.1,2.3c-1.5,0.8-3,1.1-4.9,0.9c-5.4-0.6-10.9-0.4-16.1,1.4c-2.6,0.9-5.2,1.4-7.9,1.6
	c-7.3,0.7-14.7,0.6-21.9,2.3c-1.6,0.4-3.2,0.3-4.8,0.6c-3.6,0.6-7.4,0-11,1.3c-0.9,0.3-1.9,0.5-2.7,0.1c-2.1-0.8-3.9,0-5.7,0.8
	c-2.6,1.2-5.4,1.8-8.2,1.4c-6-0.9-11.9-0.1-17.7,1c-0.9,0.2-1.9,0.3-2.7,0c-2.1-0.8-3.9,0.1-5.7,0.8c-3.5,1.4-7.2,1.7-10.9,1.3
	c-5-0.5-9.9-1.3-15,0c-4.4,1.1-9.1,0.3-13.6,0.5c-4.6,0.2-9.4-0.1-14.1-0.2c-3.4-0.1-6.8,1.1-10.2-0.1c-2.7-1-5.8-1-8.3-0.3
	c-3.6,0.9-6.9,0-10.3-0.5c-5.1-0.8-10.1-2.6-15.4-0.8c-1.8,0.6-3.9-0.3-5.2-1.7c-1.4-1.4-3.1-1.8-4.9-2c-3.9-0.5-8-0.5-11.8-1.2
	c-3.2-0.6-6.8-0.4-9.6-2.4c-2.4-1.7-5.1-2.2-7.9-2.4c-0.7-0.1-1.5,0-2.1-0.4c-5.2-3-11.5-2.8-16.8-5.7c-1.4-0.8-2.9-1.6-4.5-1.8
	c-5.5-0.8-10.1-3.3-15.1-5.5c-5.5-2.5-11.4-4.4-17.3-6c-5.3-1.5-10.5-3.7-15.7-5.8c-4.8-1.9-9.5-4.2-14.9-2.7
	c-1.2,0.3-2.3-0.2-3.6-0.8c-4.3-2.1-9.1-1.6-13.6-2.2c-0.1,0-0.2,0-0.2,0.1c-1.4,1.2-3,0.9-4.6,0.5c-2.3-0.6-3.8,0.3-4.7,2.5
	c-0.9,2.2-0.2,4,0.5,6c0.9,2.7,3.8,4,4.6,6.6c1.5,4.7,4.6,7.6,9,9.4c1.9,0.8,3.9,1.7,5.1,3.5c1.3,2.1,3.3,3.3,5.4,4.4
	c1.4,0.8,3.5,1,4.3,2.1c2.7,3.7,7.3,4,10.7,6.4c3.6,2.6,8.5,3.3,12.7,5.1c2.8,1.2,6.1,1.6,8.1,4.3c-0.7,0-1.4,0-2.1,0.1
	c-0.8-0.9-1-0.3-1.1,0.5c-1.8,0.3-3.9,0-4.9,2.2c-0.9,0.3-1.9,0.6-2.8,1c-0.4,0.2-0.6,0.7-0.3,1.2c0.2,0.3,0.6,0.2,1,0.1
	c5.2-1.5,10.4-0.6,15.6,0c8,1,15.9,2.8,23.1,7c0.7,0.4,1.5,1.4,2.3,0.4c1.1-1.5-0.8-1.3-1.3-2c-0.3-2.7-3.4-2.9-4.4-4.9
	c1.4-0.6,2.9-1.3,4.4-1c3.3,0.7,6.6,1.6,9.9,2.6c4.7,1.5,9.5,2.9,14.4,2c3.6-0.6,6.7,0.6,10,1.4c2.7,0.6,5.5,2,8.1,1.8
	c4.7-0.2,9.3,0.9,13.9,1.1c2.7,0.2,5.3,0.9,8.2-0.2c2.2-0.8,5.4-1.2,7.5,1.4c-0.8,1.2-2.9,0.9-3.3,2.7c-0.4,0.6-1.6,0.8-0.9,2
	c5.2-2,10.6-3.3,16.2-3.7c0.2,1.5,1.4,1.2,2.3,1.2c3.1,0,6.3-0.2,9.4,0.6c4.6,1.2,9.4-0.1,14,1c0.8,0.2,1.9,0.3,2.1-1
	c4.2,0.6,8.5,1.1,12.1,3.9c1,0.8,2.4,1.1,3.7,1.6c0.4,0.2,1,0.3,1.1-0.3c0.1-0.2-0.2-0.7-0.4-0.9c-0.4-0.4-0.8-0.7-1.2-1.1
	c-0.5-1.8,0.6-2.1,2-2.2c2.7-0.3,5.2,0.5,7.8,0.6c10.8,0.5,21.5-1.3,32.3,0c3.1,0.4,5.7-1.5,8.7-1.7c4.6-0.3,9.2-0.6,13.7-1.3
	c1.9-0.3,3.1-0.2,4.2,1.4C468.9,592.5,468.9,592.8,468.8,593.2L468.8,593.2L468.8,593.2z M129.2,485.4c0,2.7,0.7,3.6,2.7,3.6
	c1.9,0,4.4-2,4.4-3.6c0-2-2-3.5-4.4-3.5C129.2,482,129.4,484,129.2,485.4L129.2,485.4z M600.6,547.7c-0.1-1.1-1-0.9-1.6-0.9
	c-0.7,0-1.7-0.4-1.8,0.6c-0.1,0.9,1,1.2,1.8,1.3C599.6,548.8,600.3,548.5,600.6,547.7L600.6,547.7z"/>
<path class="st5" d="M328.5,433.2c4.1,0.4,8,1.7,11.9,2.9c2.3,0.7,4.6,0.8,6.9,0.9c5.5,0.2,11,1.3,16.4,2.1
	c10.5,1.6,19.9,5.7,28.2,12.3c2.8,2.2,5.9,3.8,9.6,3.9c4.4,0.1,8.7,0,13.1,0.3c5,0.4,10,1.4,15,2.2c9.9,1.5,19.8,2.4,29.3-1.9
	c1.7-0.8,3.6-1.3,5.5-1.3c2.6,0,4.4-1.2,5.7-3.4c1-1.6,1.4-3.7,3.1-4.7c2.1-1.2,4.1-2.1,6.8-1.4c6.4,1.5,13.1,1.2,19.7,2.1
	c1.7,0.2,3.5,0.2,5.1,0.8c5.1,1.6,9.5-0.9,14.2-1.9c4.1-0.9,8.3-1.3,12-3.7c0.3-0.2,1.1-0.3,1.2-0.1c2,2,4,0.8,6,0.2
	c0.9,0.2,1.8,0.7,2.6,0.7c7.6-0.1,14.1,3.6,20.8,6.1c8.5,3.2,16.8,7,23.9,13.1c3.6,3.1,8.9,4.4,9.3,10.3c0,0.2,0.2,0.3,0.3,0.5
	c2.3,3.8,1.6,8.1-0.5,10.9c-3,4-6.8,7.7-11.3,10.4c-6.8,3.9-14.4,5.4-21.7,7.6c-4.2,1.3-8.8,2.4-13.2,3.3c-7.1,1.5-14,4.2-21.4,4.3
	c-0.5,0-1.1,0.2-1.5,0.5c-2.7,1.7-5.9,1.8-8.9,2.1c-6.8,0.8-13.6,1.7-20.3,2.7c-6.2,0.9-12.4,2-18.6,2.9c-8.8,1.3-17.8,1.4-26.6,2.6
	c-3,0.4-6.2-0.1-9.1,0.3c-7.5,1.2-15,0.8-22.5,1.8c-1.5,0.2-3-0.8-4.3-0.5c-5.2,1.2-10.4-0.4-15.6,0.5c-1.8,0.3-3.6,0.5-5.4,0.6
	c-11.4,0.5-22.7-1.3-34.1-1.8c-3.1-0.1-6.4,0-9.3-0.7c-3.2-0.7-6.3-0.6-9.4-0.9c-3.6-0.3-7.1-2-10.9-1.1c-0.1,0-0.4-0.1-0.5-0.2
	c-4.3-2.8-9.5-2.2-14.2-2.8c-5.6-0.7-10.6-3.2-16.1-4.1c-3.7-0.6-7.4-1.8-11-3.4c-5.2-2.4-11-3.2-16.2-5.9c-6.5-3.3-14-3.6-20.3-7.9
	c-3.3-2.3-7.4-3.9-11.1-5.5c-7.2-3.1-12.3-8.6-17.4-14.1c-3.6-3.8-3-7.9,1.1-11.3c0.3-0.3,0.7-0.6,0.9-1c1.3-3.1,4.2-5.6,6.6-6.9
	c3.4-1.9,7.3-3.4,11-5c2.1-0.9,4.5-1.1,6.6-2.2c1.6-0.8,3.3-1.6,5.2-1c-0.9,0.7-2,1.3-2.9,2.1c-4,3.4-8.3,6.5-10.9,11.3
	c-2.9,5.4-2,7.3,3.8,8.9c1.1,0.3,2.1,0.6,3.2,0.5c6.1-0.8,11.6-3.1,16.8-6.2c10-6,18.9-13.6,28-20.8c2,1.3,1.6-0.4,1.7-1.4h0
	c4-0.5,8.2,0.4,11.7-2.9c1.4-1.3,3.8-1.6,6.1-1.2c2.9,0.5,6,0.9,8-2.3c0.5-0.8,1.7-1.5,2.6-1.2C325.5,435.4,326.9,434.2,328.5,433.2
	L328.5,433.2z M544,458.4c-0.2-0.2-0.4-0.4-0.6-0.6l0,0c-1.1-2.4-3-3.4-5.5-2.7c-2.2,0.6-4.4,1.6-6.3,3c-0.5,0.4-1.2,0.9-1.2,1.4
	c-0.1,2.2-0.1,4.5,0.2,6.8c0.3,1.5,2.3,1.2,3.3,2c1.3,1.1,2.7,2.3,4.4,2.4c5.6,0.2,9.1-5.2,6.8-10.4c-0.2-0.2-0.5-0.5-0.7-0.8
	C544.6,459.1,544.5,458.7,544,458.4L544,458.4L544,458.4z M548.5,476.4c-1.9-1.6-2.7,0.4-3.8,1.2c-1.6,1.2-2.5,2.9-1.5,4.7
	c1.1,2,3.2,1.8,5,1.1c1.5-0.5,2.6-1.6,2.9-3.3c0.2-1.3,0.2-2.6-1.6-2.9C549.1,477.1,548.8,476.8,548.5,476.4L548.5,476.4z
	 M525.3,491.8c-0.5-3.5-1.2-6.8-3-9.4c-3.6-5.2-8.2-9.5-13.7-12.6c-7.9-4.5-16.5-6.7-25.3-8.6c-3-0.6-3.5-0.2-2.7,2.7
	c0.4,1.6,1.1,3.1,1.8,4.5c2.3,4.8,5.4,9,8.4,13.3c6.2,9,14.7,14.3,25.2,17C521.1,500,525.3,495.2,525.3,491.8L525.3,491.8z
	 M381.8,472.4c0.4-6.1-0.3-12.1-0.9-18.1c-0.1-0.9,0.4-2.5-1.1-2.7c-1.3-0.1-1.9,1.1-2.6,2.1c-1.8,2.6-3.7,5.1-5.6,7.7
	c-7.2,10-13.2,20.6-15.5,32.9c-0.6,3.2-0.5,6.5,2.4,8.7c2.5,2,5.6,2.6,8.4,1.1c4.7-2.5,8.9-5.8,11.1-10.8
	C380.9,486.6,381.6,479.6,381.8,472.4L381.8,472.4z M341.9,452.8c-0.2-1.2,0.2-2.3-0.7-3c-2.7-2.2-5.3-4.6-8.2-6.7
	c-1.4-1-3-0.6-3.9,1.1c-2,3.9-4.1,7.9-6.1,11.8c-0.4,0.7-0.8,1.4-0.2,2.2c1.5,1.8,2.8,3.9,4.4,5.5c3.3,3.2,9.2,2.4,11.7-1.4
	C341.1,459.4,341.5,456,341.9,452.8L341.9,452.8z M341,478.8c1.3-1.2,4.5,0.6,4.6-2.8c0.1-3.3-1.6-6.2-3.3-6.1
	c-3.5,0.2-5.5,2.2-5.4,5.6C336.9,478.2,339,478.3,341,478.8L341,478.8z M559,468c0.7-0.2,3,0.6,3.1-1.6c0.1-1.3-0.5-3.6-2.7-3.4
	c-1.6,0.1-3.8,0.2-3.9,2.3C555.4,466.7,555.9,468.6,559,468L559,468z"/>
<path class="st6" d="M593.7,410.2c-0.1,1.5,1.2,2,2.2,2.4c1.2,0.5,2,1.2,2.2,2.5c0.5,4,3.5,6,6.5,7.9c1.9,1.2,3.8,2.4,5.1,4.3
	c1,1.5,2.4,2.6,4.1,3.5c1.5,0.8,2.9,1.8,3.8,3.4c0.7,1.4,1.7,2.3,3.3,2.6c1.1,0.2,2,0.9,2.7,1.8c3.6,4.8,8.5,8.3,12.2,12.9
	c5,6.2,10.2,12.4,12.7,20.3c0.3,1,0.7,2.1,1.2,3c2.5,4.4,2.1,9.4,2.6,14.1c0.4,4.1-1,8.1-3.3,11.9c-1.6,2.7-3.1,5.2-5.7,7
	c-0.4,0.3-0.7,0.7-1.1,0.8c-4.1,0.9-7,4-10.5,6.1c-1.6,1-3.3,1.7-5.3,1.7c-2.6,0-4.7,1.8-7,2.7c-7.2,3-14.7,4.7-22.3,6.5
	c-6,1.4-11.8,3.6-17.8,4.5c-8.2,1.3-16.1,4.3-24.3,5c-7.2,0.7-14,3.2-21.1,4.4c-1.6,0.3-3.2,0.2-4.8,0.4c-6,0.8-11.8,3-17.7,3.2
	c-4.3,0.2-8.5,0.8-12.8,1.4c-5.3,0.8-10.6,2.5-16,2.2c-9.9-0.6-19.3,3.6-29.2,3c-2.1-0.1-4.3,0-6.4,0c-4.7,0-9.3,1.3-14,1.5
	c-4.5,0.2-9.1,0.4-13.6,0.5c-5.1,0.1-10.3,2.2-15.5,0c-0.8-0.4-2.1-0.3-3,0c-7,2.4-14.1,0.8-21.1,0.5c-3-0.1-6,0.1-9-0.1
	c-9.2-0.4-18.5-1-27.7-2.1c-6.4-0.8-12.5-2.4-18.8-3.6c-3.9-0.8-8,0-11.8-1.4c-5.1-1.7-10.5-2.1-15.5-3.7
	c-5.8-1.8-11.6-3.2-17.3-5.2c-5.3-1.9-10.6-4.3-16-5.7c-6-1.5-11-5-16.9-6.5c-8.5-2.2-16.2-6.5-24.7-8.7c-8-2.1-15.8-5-23.3-8.4
	c-2.5-1.2-5.3-1.8-7.9-2.7c-6.4-2.2-11.6-6.3-17.1-10.1c-3.3-2.3-5.4-5.1-6.4-8.9c-0.2-0.7-0.9-1.5-1.6-1.8
	c-3.6-1.9-4.3-5.2-4.3-8.8c0-3-0.1-6-1.7-8.7c-0.5-0.8,0-1.6-0.2-2.3c-0.8-3.9,0.2-7.9-0.3-11.8c0-0.1,0-0.2,0-0.3
	c-1.4-5.7-3-6.6-8.7-5.4c-1.6,0.4-3.2,0.6-3.2-1.8c3.6-2.4,6.6-5.5,10.1-8c10.7-7.5,22.3-13.5,34.6-17.7c8-2.8,16-5.8,24.5-7.3
	c0.8,1.1,2,0.9,3.2,1.2c3.2,0.7,5.8-1.2,8.7-1.7c3.9-0.7,7.8,0.1,11.6-0.6c8.8-1.7,17.4-3.7,26.1-5.8c5.2-1.2,10.2-2.9,15.5-3.8
	c3.3-0.5,6.4-1.4,9.1-3.3c1.7-1.2,3.2-1.8,5.2-1.8c2.1,0,4.1-0.2,5.8-2.2c1-1.2,2.6-2.3,4.3-2.6c3.5,3,7.2,5.8,11.6,8.4
	c-4,1.1-7.6,2.2-11.3,3.2c-1.9,0.5-3.7,1.5-5.1,2.8c-2.1,1.9-1.6,4.7,1.2,7.8c0.5,0.6,1.1,1.1,1.7,1.7c-1.6-0.1-2.9,1.3-4.4,1.2
	c-5.5-0.4-10.2,3.5-15.8,2.6c-2.1-0.3-4.1,1-5.9,1.9c-3.7,1.8-7.8,0.6-11.5,2c-2.6,1-5.1,2.7-7.8,3c-4.5,0.5-8.7,1.8-13,2.7
	c-7.4,1.6-14.3,4.9-21.8,6c-2.2,0.3-3.7,2.1-5.9,2.6c-4.7,0.9-9.1,2.6-12.7,6c-0.8,0.8-1.5,1.6-2.7,1.5c-5.4-0.5-7.9,3.1-10.2,7
	c-1.6,2.8-2.9,5.8-4.7,8.4c-0.9,1.3-1.8,2.5-2.1,4c-0.9,5-0.7,9.7,1.7,14.6c2.7,5.7,6.9,9.3,11.7,12.8c0.4,0.3,1,0.5,1.5,0.5
	c1.4-0.2,2.6,0.5,3.4,1.4c1.7,1.8,3.8,2.7,6,3.5c0.8,0.3,1.8,0.7,2.3,1.4c1.1,1.6,2.8,2.3,4.6,2.7c9,2,16.6,7.9,25.8,9.6
	c4.1,0.8,7.7,3.5,11.7,5c5.1,2,10.2,4.3,15.6,5.4c4.3,0.9,8.5,2.3,12.2,4c6.5,3,13.6,3.4,20.1,6c6,2.4,12.6,2.9,19,3.9
	c7.4,1.2,14.6,3.1,22.1,3.6c8.3,0.5,16.6,2.3,25,2.4c9.3,0.1,18.7,1.1,28,0.6c5.7-0.3,11.4-1.3,17.2,0c0.4,0.1,0.9-0.2,1.3-0.3
	c5-0.9,10-1.6,15.2-1.4c4.7,0.2,9.5,1.3,14.3,0.2c1.5-0.3,3-0.9,4.5-1c3.8-0.4,7.7-0.5,11.5-0.9c5.4-0.6,10.9-0.6,16.4-1.7
	c9.3-1.8,18.9-2.6,28.4-3.8c7.5-1,14.9-2.5,22.3-3.8c2.6-0.5,4.9-2.2,7.6-1.6c1.5,0.3,2.8,0.4,4.3-0.1c10-3.7,20.4-5.5,30.7-7.5
	c3-0.6,6-1.2,8.6-2.9c0.7-0.5,1.9-0.8,2.6-0.6c2.1,0.8,3.8-0.2,5.5-0.9c2.4-0.9,4.8-1.7,7.2-2.3c4.8-1.2,9.3-3.4,14-5
	c6.7-2.4,12.3-6.9,17.3-11.9c1.9-1.9,4.1-3.9,3.9-7.2c-0.1-1,0.4-2.2,0.9-3.1c2-3.9,0.8-7.7-0.2-11.6c-0.3-1.2-0.6-2.6-1.7-3.3
	c-1.8-1-2.6-2.8-3.2-4.6c-3.1-8.5-10-12.9-17.6-16.7c0.1-2.9-0.8-5.1-3-7.1c-6.6-5.9-14.7-8.1-22.9-10.1c-3.9-1-8-1.5-12.1-1.8
	c-2.7-0.2-5.6-1.1-8.5,0.1c1.5,2.5,4.2,3.2,5.7,5.2c-1.1,0-2.2,0.4-3.1-0.5c-1.4-1.3-3.2-1.2-5-1.7c-3.6-1-7.1-2.2-10.2-4.5
	c1.8-1.5,1.6-3.1,0-4.6c-2.3-2.1-4.7-4-6.9-6.2c-3.2-3-6-6.2-8.3-10c-2.4-4.1-6.6-5.7-10.9-7c-9.7-2.9-19.4-5.7-29.2-7.8
	c-7.3-1.6-14.7-2.8-22.2-2.9c-4.4,0-8.9,0.4-13,2.2c-1.4,0.6-2.3,0.3-3.3-0.8c-1-1.1-1-1.9-0.4-3.1c1.7-3.6,2.5-7.4,2.3-11.3
	c0-1.2,0-2,1.8-1.7c9.1,1.6,18.3,3.1,27.5,4.7c11.9,2,23.4,5.1,34.9,8.7c8.1,2.6,16.5,3.5,24.8,5.2c12.1,2.5,23.9,5.8,34.8,11.6
	C584,408.1,588.8,409.2,593.7,410.2L593.7,410.2z"/>
<path class="st7" d="M425.8,624.2c4.3-0.2,8.4,1,12.4,2.5c8.2,3,16,1.7,23.6-1.8c0.8-0.4,1.7-0.6,2.5-0.9c0.5,0,1.1-0.1,1.6-0.1
	c3.5-0.2,7.1-2.1,10.4-1.2c6.3,1.9,12.5,1.5,18.8,0.3c3-0.5,6.1-0.9,9.2-0.4c8.7,1.4,16.9,0,24.7-4c0.6-0.3,1.3-0.6,1.6-1.4
	c11.9,1.5,23.7,2,35.3-2.1c2.8-1,5.3-2.6,7.9-4c1.3-0.7,2.7-1.4,4-2.2c8,2.7,16,2.2,23.9-0.5c1.6-0.5,3.1-1.9,4.8-1.6
	c7.8,1.6,15.4-1.7,23.2-0.7c0.6,0.1,1.3-0.2,1.8-0.5c4.4-2.5,9-4.5,13.7-6.5c3.7-1.6,6.7-4.6,10.8-5.5c-6.3,9.4-12.5,18.9-18.8,28.2
	c-1.4,2.1-3,4.1-5.5,5.4c-15.5,8.1-32.2,12.9-49.2,16.7c-13.2,3-26.5,5.2-40,7c-10.2,1.3-20.4,2.9-30.6,3.6c-11,0.7-22,1.6-33,2.2
	c-13.4,0.7-26.8,1-40.2,0.7c-17-0.4-33.9-0.6-50.9-1.2c-10.5-0.4-20.9-1-31.3-2.9c-2.3-0.4-4.7-0.1-7.1-0.3
	c-8.5-0.8-16.9-2.7-25.3-3.5c-9.1-0.9-18-2.8-27.1-3.6c-5-0.4-9.9-2-14.9-2.7c-8.5-1-16.9-2.5-25.3-4.1c-7.1-1.4-14.3-2.4-21.4-4
	c-11.2-2.7-22.5-5.1-33.8-7.5c-2.5-0.5-4.6-1.4-6.2-3.5c-8.4-10.6-16.8-21.1-25.1-31.8c-0.8-1-2.1-1.5-2.3-2.9
	c4.4,1,8.9,1.8,12.7,4.5c3.3,2.3,6.8,3.4,10.7,3.1c6.6,5.7,14.8,6.6,22.9,7.5c4.1,0.5,8.3,0.1,12.5,0c0.4,0.5,0.9,0.5,1.5,0.6
	c4.6,0.3,9.2,0.7,13.8,0.6c11.6-0.3,23.1,0.8,34.2,4.7c3.2,1.1,6.5,2.2,10,0.8c5.6,2.2,11.3,4.2,17.2,5.5c1.1,0.2,2.1,0.3,3.2,0.3
	c6.8,0.1,13.5,0.5,20.2,2.2c2.7,0.7,5.2,1.9,8,2.4c3.8,0.7,7.3-0.3,10.9-1c2.5-0.4,5-0.9,7.4-1.3c6.5,2.8,13.4,2.2,20.2,2.3
	c5.6,0.1,11.2-0.9,16.8-0.6c7.4,0.5,14.5,2.7,21.9,3.5C416.7,625,421.2,625.8,425.8,624.2L425.8,624.2z"/>
<path class="st8" d="M547.7,428.8c3,2.3,6.6,3.5,10.2,4.5c1.7,0.5,3.5,0.4,5,1.7c0.9,0.9,2,0.5,3.1,0.5c3.6,2.8,7.5,5.2,11.4,7.5
	c6.6,4.1,13.9,6.6,21.5,7.8c2.6,0.4,5.6,0.5,7.9-1.6c7.5,3.8,14.5,8.2,17.6,16.7c0.6,1.7,1.4,3.5,3.2,4.6c1.2,0.7,1.4,2.1,1.7,3.3
	c1,3.8,2.2,7.7,0.2,11.6c-0.5,1-0.9,2.1-0.9,3.1c0.2,3.3-2,5.2-3.9,7.2c-5,5-10.5,9.5-17.3,11.9c-4.7,1.6-9.2,3.8-14,5
	c-2.5,0.6-4.8,1.4-7.2,2.3c-1.7,0.7-3.4,1.7-5.5,0.9c-0.7-0.3-1.9,0.1-2.6,0.6c-2.7,1.7-5.6,2.3-8.6,2.9c-10.3,2-20.8,3.8-30.7,7.5
	c-1.4,0.5-2.8,0.5-4.3,0.1c-2.7-0.7-5,1.1-7.6,1.6c-7.4,1.3-14.8,2.8-22.3,3.8c-9.5,1.2-19,2-28.4,3.8c-5.5,1.1-10.9,1.1-16.4,1.7
	c-3.7,0.4-7.6,0.5-11.5,0.9c-1.5,0.2-3,0.7-4.5,1c-4.8,1.1-9.6,0-14.3-0.2c-5.2-0.2-10.2,0.6-15.2,1.4c-0.4,0.1-0.9,0.4-1.3,0.3
	c-5.7-1.2-11.4-0.3-17.2,0c-9.3,0.5-18.6-0.5-28-0.6c-8.4-0.1-16.7-1.9-25-2.4c-7.6-0.4-14.8-2.4-22.1-3.6c-6.4-1-13-1.5-19-3.9
	c-6.5-2.6-13.6-3-20.1-6c-3.7-1.7-8-3-12.2-4c-5.3-1.2-10.5-3.4-15.6-5.4c-4-1.6-7.6-4.3-11.7-5c-9.2-1.7-16.8-7.6-25.8-9.6
	c-1.8-0.4-3.4-1.1-4.6-2.7c-0.5-0.7-1.4-1.1-2.3-1.4c-2.2-0.8-4.3-1.7-6-3.5c-0.8-0.9-2-1.6-3.4-1.4c-0.5,0.1-1.1-0.2-1.5-0.5
	c-4.7-3.5-8.9-7.1-11.7-12.8c-2.4-5-2.6-9.6-1.7-14.6c0.3-1.5,1.2-2.7,2.1-4c1.8-2.6,3.1-5.6,4.7-8.4c2.3-3.9,4.9-7.5,10.2-7
	c1.3,0.1,2-0.8,2.7-1.5c3.5-3.4,8-5.1,12.7-6c2.2-0.4,3.8-2.2,5.9-2.6c7.5-1.1,14.4-4.5,21.8-6c4.3-0.9,8.6-2.2,13-2.7
	c2.7-0.3,5.2-2,7.8-3c3.7-1.5,7.8-0.2,11.5-2c1.8-0.9,3.7-2.2,5.9-1.9c5.6,0.9,10.3-3,15.8-2.6c1.6,0.1,2.8-1.3,4.4-1.2
	c4.5,4.5,8.9,9,13.4,13.6c2.4,2.5,5,4.3,8.6,4.2c0.9,0,1.8,0,2.5,0.7c-1.6,1-3,2.2-5.2,1.3c-0.9-0.4-2.1,0.4-2.6,1.2
	c-2,3.2-5.1,2.8-8,2.3c-2.3-0.4-4.8-0.1-6.1,1.2c-3.5,3.3-7.7,2.3-11.7,2.9c3.2-2.5,5.8-5.9,9.7-7.6c0.4-0.2,0.6-0.3,0.6-0.7
	c0-0.5-0.4-0.8-0.9-0.8c-0.6,0-1.3,0-1.9-0.1c-6.9-0.3-13.4,2.3-20,3.7c-9.8,2.1-18.9,5.8-27.4,11.2c-1.9-0.6-3.6,0.2-5.2,1
	c-2.1,1.1-4.6,1.3-6.6,2.2c-3.7,1.6-7.5,3.1-11,5c-2.4,1.3-5.3,3.7-6.6,6.9c-0.2,0.4-0.6,0.7-0.9,1c-4.1,3.5-4.7,7.5-1.1,11.3
	c5.1,5.4,10.2,11,17.4,14.1c3.8,1.6,7.8,3.1,11.1,5.5c6.2,4.4,13.8,4.6,20.3,7.9c5.2,2.6,11,3.5,16.2,5.9c3.6,1.6,7.3,2.8,11,3.4
	c5.5,0.9,10.5,3.4,16.1,4.1c4.7,0.6,9.9,0,14.2,2.8c0.1,0.1,0.4,0.2,0.5,0.2c3.8-0.9,7.2,0.8,10.9,1.1c3.1,0.3,6.2,0.2,9.4,0.9
	c3,0.7,6.2,0.5,9.3,0.7c11.4,0.5,22.7,2.3,34.1,1.8c1.8-0.1,3.6-0.3,5.4-0.6c5.2-0.8,10.4,0.7,15.6-0.5c1.3-0.3,2.8,0.7,4.3,0.5
	c7.4-1.1,15-0.7,22.5-1.8c2.9-0.5,6,0.1,9.1-0.3c8.8-1.2,17.8-1.3,26.6-2.6c6.2-0.9,12.4-2,18.6-2.9c6.8-1,13.5-1.9,20.3-2.7
	c3-0.4,6.2-0.4,8.9-2.1c0.5-0.3,1-0.5,1.5-0.5c7.4,0,14.3-2.8,21.4-4.3c4.5-0.9,9-2,13.2-3.3c7.3-2.3,14.9-3.7,21.7-7.6
	c4.6-2.7,8.3-6.4,11.3-10.4c2.1-2.8,2.8-7.2,0.5-10.9c-0.1-0.1-0.3-0.3-0.3-0.5c-0.4-5.9-5.7-7.2-9.3-10.3c-7-6.1-15.4-10-23.9-13.1
	c-6.7-2.5-13.2-6.3-20.8-6.1c-0.9,0-1.7-0.5-2.6-0.7c3.2-2.5,3.8-6.4,5.2-9.8C544.3,430.5,545.4,429.1,547.7,428.8L547.7,428.8z"/>
<path class="st6" d="M105.9,502.1c0.4,0.2,1,0.2,1.2,0.5c3.8,7.4,11.4,7.4,18,9c2.7,0.7,5.4,1.4,7.8,2.7c1.8,1,3.6,1.5,5.6,1.8
	c0,0.7,0,1.4,0.1,2.1c0.2,1.1-0.5,3,1.1,3c1.3,0,0.5-1.9,0.8-2.9c1.6-0.6,1.1-2.1,1.2-3.3c2.1-0.4,2.3,1.8,3.5,2.6
	c4.3,2.9,8.1,6.4,11.5,10.1c2.8,3.1,5.8,5.8,8.9,8.6c1.4,1.3,1.9,2.7,0.7,4.3c-2.7-0.1-5.4-1.4-8.2,0c-0.2,0-0.4,0-0.5,0
	c-0.9,0.1-2.2-0.3-2.3,0.7c-0.1,1.3,1.3,0.6,2.1,0.9c4.6,1.7,9.5,2.7,13.4,5.9c0,1.2,0.8,1.2,1.7,1.2c0.2,0,0.3,0.1,0.4,0.2
	c0.8,3,5.4,6.6,8.9,6.9c3.6,2.5,5.8,6.5,9,9.5c0.3,0.3,0.3,1,0.9,0.6c0.5-0.3,0.8-0.7,0.4-1.3c-0.2-0.4-0.5-0.8-0.7-1.2
	c0-0.3,0-0.7,0-1.1c1.3-0.5,2.4-0.2,3.6,0.4c5.9,3.3,11.6,7.1,17.6,10.2c4.8,2.5,10.2,3.2,15,5.7c6.1,3.2,13,4.3,19.1,7.5
	c1.5,0.8,3.2,0.8,4.8,1c6.5,1,12.6,3.8,19.2,4.5c6.9,0.8,13.4,3.4,20.3,4.1c6.7,0.7,13.4,1.8,19.9,3.8c3.4,1,7,1.4,10.7,0.5
	c2.9-0.7,5.7,0.8,8.5,1.1c3,0.3,6.2,0.7,9.1,0.7c4.3,0,8.4,1.6,12.9,1.1c3.5-0.4,7.3,0.5,10.9,1c4.9,0.8,9.8,0.8,14.7,0.9
	c6.4,0.2,12.9,0.7,19.3,0.4c4.5-0.2,9,0.7,13.6,0.6c5.8-0.1,11.7-0.4,17.5-0.5c2,0,4-0.1,5.9,0.5c1.5,0.4,3,0.5,4.4-0.5
	c0.7-0.5,1.5-0.7,2.3-0.5c4.1,1,8-0.5,12-0.7c4.2-0.2,8.4-0.4,12.6-0.4c6.5,0.1,12.7-1.1,19.1-2c8.1-1.2,16.2-2.2,24.3-3.5
	c5.6-1,11.1-2.5,16.6-3.7c7.2-1.6,14.5-3.1,21.6-4.9c6.7-1.7,12.9-4.7,19.7-6.2c1.1-0.3,2.1-0.4,3.1,0.2c-0.4,1-1.9,1.4-1.6,2.8
	c-0.4,0.4-1,0.6-1.1,1.1c-0.2,0.5-1.2,0.8-0.5,1.6c0.8,0.9,1.2-0.1,1.7-0.5c7.9-6.4,17.1-9.5,27.1-10.3c5-0.4,10,0.6,15,1.3
	c0.7,0.1,2,0.5,2.2-0.4c0.3-1.3-1.2-0.9-1.9-1.3c-0.9-1.4-2.5-1.9-3.9-2.5c-0.2-1.5,0.3-2.8,1.9-3.1c3-0.6,5.6-2.2,8-3.9
	c3.4-2.3,7.4-3.4,10.9-5.4c5.7-3.3,12.1-5.7,16.3-11.3c0.5-0.6,1.3-1,2-1.3c2.6-1.4,5-2.8,7.3-5c2-2,4.4-4.1,7.5-5
	c1.2-0.3,2.2-1.3,2.6-2.3c1.2-3.1,3.4-5.5,6.2-6.9c3.9-2,6.9-6,12-5.4c0.3,0,0.8,0,1-0.2c4.4-2.9,9.5-3.1,14.5-3.7
	c1.8-0.2,3.4-1,5.2-1.6c1.1-0.3,2.3-1.1,3.4-1c4.4,0.5,8.8,0.4,13.2,0.4c4.2,7.1-0.9,14.6-6.2,16.4c-0.4-1.5-1.3-1.7-2.7-1.4
	c-1.9,0.3-3.9,1-5.8,0.8c-3.8-0.4-7.3,0.4-10.8,1.3c-5.7,1.5-11.2,3.8-16.5,6.5c-0.6,0-1.2,0.1-1.9,0.1c-0.2-0.6-0.7-0.8-1.3-0.7
	c-2.9,0.6-5.8,1-8.6,2.1c-8.8,3.6-14.2,10.1-16.9,19c-2.2-0.1-3.8,0.9-5.3,2.3c-1.6,1.5-3.4,2.6-5.5,3.4c-2,0.7-4,1.4-5.7,2.6
	c-5.8,3.9-12.4,6.1-18.6,9.2c-7.5,3.7-15.9,5.8-23.9,8.7c-4.2,1.5-8.6,2.6-12.9,4c-6.5,2.1-13.1,3.6-19.4,6.1
	c-1.1,0.4-2.4,0.9-3.4,0.7c-3.3-0.8-5.9,1.2-8.8,2c-3.6,0.9-7.1,2-10.6,3c-2.3,0.6-4.6,1.6-6.8,1.5c-5.2-0.1-9.9,1.7-14.8,2.8
	c-1.2,0.3-1.7,0.9-1.6,2.1c-6-0.9-12-3-18.2-1.6c-3.4,0.8-6.5,2.2-9.6,3.6c-5.3,2.4-11.2,2.9-16.3,5.7c-3.2,1.7-6.4,3.3-9.9,4.5
	c-6.1,2.2-12.2,2.3-18.3,0c-6.4-2.5-13.2-2.8-19.9-3.4c-5.9-0.5-11.4-2.4-17-4.3c-6.1-2-11.7-5.7-18.5-5.2c-2.8,0.2-5.5,1-8.2,1.4
	c-10.9,1.4-21.6,3.4-32.3,6.2c-4,1-8.1,0.5-12-1.1c-3.9-1.6-8-2-12.1-2.5c-8.3-1-16.8-0.7-24.8-3.8c-4-1.5-7.7-3.7-11.5-5.5
	c-5-2.4-9.8-4.4-15.5-5.2c-5.3-0.7-10.5-2.3-15.8-2.9c-0.2-1.5-1.6-1.3-2.5-1.6c-2.5-0.7-5.1-1.2-7.6-1.9c-6.4-1.8-12.3-5.2-19-6.2
	c-1-0.1-1.8-0.6-2.7-1c-3.6-1.8-7-4.1-10.8-5.7c-2.9-1.2-6.1-1.9-8.6-3.7c-3.3-2.3-6.9-4-10.3-5.9c-5.4-3-10.5-6.2-15.5-9.9
	c-3.3-2.4-6.2-5.5-10.1-7.3c-2.1-1-4.4-2.2-5.8-4.4c-1.3-2.1-3.3-3.4-5.3-4.5c-2.6-1.3-4.8-2.9-7.1-4.7c-4.9-4-10.8-6.3-16.5-9
	c-0.2-0.1-0.4-0.1-0.5-0.1c-4.5-0.3-9-0.7-13.4-2.2c-1.3-0.4-2.8-0.9-4.3-0.6c0.3-4.4,0.9-8.7,0.5-13.2c-0.2-2.2,2.2-0.3,2.9-1.6
	c-0.1-0.9-0.9-0.7-1.6-0.8c-4.4-0.9-6-2.7-6.3-7.1C106.3,505.8,105.6,504,105.9,502.1L105.9,502.1z"/>
<path class="st9" d="M388.1,396.9c-1.9-0.7-2.1,1.5-3.4,2c-5.3,1.9-10.5,2.4-16,1.1c-7.2-1.6-12.6-5.9-16.3-12.1
	c-3.4-5.8-2.1-14.2,2.5-19.2c0.3-0.3,0.5-0.7,0.7-1.1c1.3-1,2.5-2,3.8-2.8c1-0.6,1.1-1.2,0.5-2.1c-0.1-2.4-0.3-4.8-0.3-7.3
	c-0.2-9.9,4.1-17.7,11.2-24.1c8.9-8.1,19.8-11.5,31.5-10.8c16.1,1,29.3,7.4,37,22.5c2.1,4.1,3.2,8.6,3.2,13.3c0,0.7-0.8,2,1,1.9
	c2.5,1.1,4.2,3.4,6.7,4.4c6,9.4,5.8,21.2-0.4,29.5c-0.3,0.4-0.8,0.8-1.1,1.1c-1.2-0.2-2,0.7-3,1.1c-3.8,1.7-7.7,1.9-11.6,0.5
	c-1.2-0.4-2.2-1.3-3.6-1.2c-1.5-2.5-1.8,0.2-2.7,0.6c-0.5,0.1-1.1,0.1-1.5,0.3c-11.9,6.9-24.3,6.4-36.8,2.1
	C389,396.4,388.5,396.3,388.1,396.9L388.1,396.9z M408.9,372.4c-2.4,1.5-3.5,3.9-4.4,6.5c-2.7,0.3-4.6-0.5-5.7-3.3
	c-1-2.6-3.8-4.3-5.7-4c5.5,4.6,6.2,10.9,2,20.1c1.3,0.1,1.7-0.8,2.2-1.6c1.5-2.3,1.9-5,2.6-7.6c0.2-1-0.4-2.8,1-2.5
	c1.5,0.2,3.9-0.9,4.5,2.1c0.6,3.1,2.5,5,4.1,5.5c-2.6-6.2-1.3-12,2.5-17.6C410,369.9,409.7,371.4,408.9,372.4L408.9,372.4z
	 M383.7,355.7c0,2.8,1.4,4.5,3.8,4.5c2.3,0,3.8-1.7,3.9-4.5c0.1-2.5-1.6-4.3-4-4.3C384.9,351.5,383.8,352.8,383.7,355.7L383.7,355.7
	z M419.8,355.3c0-2.5-1.6-4.3-3.8-4.3c-2.3,0-3.9,1.8-4,4.5c0,2.6,1.4,4.5,3.6,4.5C417.8,360.1,419.7,357.9,419.8,355.3L419.8,355.3
	z M380.4,389.2c0-1.9-2.8-4.6-4-4.2c-1.4,0.4-3.4,0.5-3.2,2.9c0.1,2.8,1.4,4.1,4.2,4.1C379.5,391.9,380.5,390.8,380.4,389.2
	L380.4,389.2z M404,361.1c-3,0-6.1,1.5-5.7,2.8c0.5,1.6,1.5,3,3.5,3.1c1.8,0,3.8-1.8,3.8-3.5C405.4,362.2,404.9,361.2,404,361.1
	L404,361.1z M430.9,381.9c1.2,0.3,1.5-0.6,1.4-1.5c-0.3-1.5-0.8-3.3-2.4-3.4c-1.2-0.1-2.5,1.1-2.5,2.7
	C427.5,381.8,429.2,381.7,430.9,381.9L430.9,381.9z M383.3,390.7c0.1,0.1,0.3,0.3,0.4,0.5c0.3,0.5-0.1,1.6,0.9,1.4s0.6-1.1,0.5-1.8
	c-0.1-0.6-0.3-1.3-0.9-1.6c-1-0.6-2-0.4-2.7,0.5c-0.5,0.6-0.6,1.8,0,2.2C382.8,392.9,382.2,390.6,383.3,390.7L383.3,390.7z
	 M422.8,387.8c-0.2,1.2,0.4,1.6,1.5,1.6c1,0,1.9-0.3,1.8-1.5c-0.1-1-0.3-2.3-1.7-2.4C422.8,385.5,422.8,386.7,422.8,387.8z"/>
<path class="st10" d="M354.6,367.2c-7.1,5.8-15.4,8.9-24.3,10.1c-8,1.1-15.8,0.7-23.4-2.3c0.2-1.5-1-2.2-1.9-3.1
	c-4.4-4.8-8.8-9.6-11.8-15.5c-4.3-8.4-5.2-17.4-3.5-26.6c0.6-3.3,1.3-6.5,3-9.5c4.5-7.8,11-13,19.5-15.8c0.8-0.2,1.5-0.7,1.8-1.5
	c3.5,1.1,6.8,2.5,9.9,4.4c8.6,5,16.1,11.5,22.7,18.9c5.5,6.1,10,12.8,12.8,20.6c-0.9,5.2-1.6,10.4,0,15.6
	C358.4,364.6,355.6,365.1,354.6,367.2L354.6,367.2z"/>
<path class="st10" d="M500.5,348.8c-7.6,6.1-16.3,9.7-25.9,11.1c-9.1,1.3-17.8,0.4-26.2-3.3c-2.9-1.3-5.3-2.8-5.4-6.6
	c0-1.8-0.9-3.6-1.4-5.5c2.1-0.5,1.2-2.4,1.5-3.7c2.1-7.5,4.8-14.7,7.8-21.9c5.9-14.3,14.9-26.3,25.9-37c0.2-0.1,0.3-0.1,0.5-0.1
	c1.4,0.4,2.8,0.6,4.3,0.6c2.3-0.1,4.5,0.6,6.5,1.6c9.2,4.6,14.8,12.2,17.6,21.9c1.5,5.2,1.6,10.5,1.2,16c-0.5,6.8-1.9,13.3-4.1,19.8
	C502.1,344.1,500.1,346,500.5,348.8L500.5,348.8z"/>
<path class="st8" d="M676.7,544.2c5.3-2.8,10.7-5,16.5-6.5c3.5-1,7-1.8,10.8-1.3c1.9,0.2,3.9-0.4,5.8-0.8c1.3-0.2,2.3-0.1,2.7,1.4
	c-1.7,2-4.3,2.7-6.3,4.4c-2.8,2.5-5.3,5.2-7.1,8.4c-2.2,3.9-5.6,6.4-9.5,8.3c-4,1.9-8.1,3.8-11.9,6c-3.6,2-5.6,5.5-7.7,8.9
	c-3,4.7-5.6,9.7-9.8,13.6c-7.5,7.1-16.9,9.9-26.8,11.1c-6.4,0.8-12.9,1.5-19.3,2.3c-2.9,0.4-5.8-0.3-8.7-0.7
	c-10.1-1.4-19,1.8-27.1,7.5c-7.3,5.1-15.3,8.6-24.2,9.8c-8.3,1-16.6,0.5-24.9-0.8c-6.1-1-12.2-1.8-18.4-2.6
	c-0.1-1.2,0.4-1.8,1.6-2.1c4.9-1.1,9.7-2.9,14.8-2.8c2.3,0,4.6-0.9,6.8-1.5c3.5-1,7.1-2.1,10.6-3c2.9-0.8,5.5-2.8,8.8-2
	c1,0.2,2.3-0.3,3.4-0.7c6.3-2.5,12.9-4,19.4-6.1c4.3-1.4,8.6-2.5,12.9-4c8-2.9,16.3-4.9,23.9-8.7c6.2-3.1,12.8-5.3,18.6-9.2
	c1.7-1.2,3.7-1.9,5.7-2.6c2.1-0.7,3.9-1.8,5.5-3.4c1.5-1.4,3.1-2.5,5.3-2.3c0.1,0.4,0.1,0.8,0.2,1.2c-0.2,0.9-0.5,1.7-0.7,2.6
	c-0.1,0.4-0.1,0.9,0.5,1c0.5,0.1,0.8-0.2,0.9-0.7c2.6-6.4,7.5-10.8,12.7-15c1.6,0,3.2,0,3.1-2.3h0.1c1.4,0.2,2.7,0.2,2.7-1.8
	c1.7-1.4,3.9-1.8,5.7-2.9C674.6,546.1,676.4,546.1,676.7,544.2L676.7,544.2z"/>
<path class="st9" d="M465.2,447.8c-2-1.5-4.5-1.6-6.8-2.1c-2.1-0.4-2.5,1.4-2.6,3c-0.2,2-0.1,4-0.2,5.9c-7,1.9-14.2,2.5-21.2,1.3
	c-10.7-1.8-21.4-3.5-32.3-3.5c-3,0-5.7-0.9-8.4-2.6c-5.8-3.7-11-8.5-17.9-10.1c-1-0.2-1.6-0.9-2-2c-2.3-5.8-3.2-11.8-2.7-18
	c0.1-1.1,0.6-2.4-0.5-3.3c1.1-4.2,3-8,5.6-11.4c3.6,0.3,7-0.4,10.3-1.9c1.2-0.6,2.3-0.6,3.5,0.2c2,1.3,4.1,2.3,6.4,2.8
	c8.3,1.5,16.6,1.3,24.4-1.9c3.4-1.4,6-1,9.2,0.1c4.2,1.5,8.5,0.9,12.2-1.9c1.4,1.5,3.3,3.5,2.7,5.2c-0.4,1.2-3.4,0.8-5.2,1.2
	c-3.9,0.8-8.1,0.4-11.8,2.2c-0.5,0.2-1.1,0.2-1.5,0.5c-5.4,3.9-9.5,8.8-11.1,15.4c-0.2,1.1-0.8,1.9-1.7,2.7c-2.5,2-5.1,4.1-7.5,6.2
	c-1.1,1-3.1,1-3.4,2.8c-0.7,0.3-1.3,0.8-0.1,1.1c1.3,0.4,2.6-0.1,3.9-0.4c2.6-0.5,5.3-0.7,7.9-1.1c1.3-0.2,1.7,0.8,2.4,1.4
	c2.9,3,2.8,3,0.1,6.1c-1.1,1.3-2.2,2.6-3.3,3.9c0,0,0,0.2,0.1,0.4c1.6,0.2,2.1-1.4,3.2-2c2.4-0.1,3.9-1.8,5.5-3.2
	c2.9-2.5,5.9-2.8,9.3-1.7c7.1,2.4,13.8,1.8,20.1-2.3c1.5-1,2.2-2,2.2-3.7c1-1.5,1-3.4,2.3-5c1.4-1.8,2.5-1.3,3.9-0.9
	c5,1.3,8.6,4.8,12.3,8.1c-0.1,0.4,0,1.1-0.2,1.2c-2.5,1.4-4.2,3.5-5.3,6.1C466.7,447.5,465.8,447.5,465.2,447.8L465.2,447.8z"/>
<path class="st8" d="M110.8,530.4c1.5-0.3,2.9,0.2,4.3,0.6c4.4,1.4,8.9,1.8,13.4,2.2c0.2,0,0.4,0.1,0.5,0.1c5.7,2.7,11.6,5.1,16.5,9
	c2.3,1.8,4.5,3.4,7.1,4.7c2.1,1,4,2.4,5.3,4.5c1.3,2.1,3.7,3.3,5.8,4.4c3.9,1.8,6.7,4.8,10.1,7.3c4.9,3.6,10.1,6.9,15.5,9.9
	c3.5,1.9,7.1,3.6,10.3,5.9c2.6,1.8,5.8,2.6,8.6,3.7c3.8,1.5,7.2,3.8,10.8,5.7c0.9,0.5,1.7,0.9,2.7,1c6.7,0.9,12.6,4.3,19,6.2
	c2.5,0.7,5.1,1.2,7.6,1.9c0.9,0.3,2.3,0.1,2.5,1.6c-8.2,0.7-16.3,1.5-24.3,3.6c-5.6,1.5-11.5,1-17.2-0.3c-3.1-0.7-6.1-1.6-9.2-2.1
	c-2.8-0.5-5-1.7-6.8-3.7c-4.5-5.2-10.4-8.3-16.6-11.1c-6.1-2.8-11.9-6.3-18.3-8.5c-4.2-1.5-7.2-4.9-10-8.2c-4.5-5.3-10.8-7.5-17-10
	c-7.5-2.9-14.9-6-19.1-13.5c-1.3-2.3-2-4.6-1.8-7.3C110.7,535.5,110.7,533,110.8,530.4L110.8,530.4z"/>
<path class="st11" d="M527.6,442c-1.9,1.5-4.1,2.1-6.5,2.3c-3,0.2-5.8,1.5-8.6,2.4c-1.8,0.6-3.5,0.7-5.3,0.2
	c-1.2-0.3-2.6-0.7-3.7-0.5c-3.8,0.8-7.2-1.7-11-1c0.1-1,0.1-1.7,0.2-2.4c0.8-4.2-2.3-7.3-6.4-6.5c-1.1,0.2-1.8,0.9-2,2
	c-0.2,1-0.4,2.1-0.6,3.2c-0.2,0.9,0.4,2.6-0.7,2.5c-1.4-0.2-3,1-4.5-0.7c-3.8-4.4-8.2-8.1-13.1-11.2c-1.5-1-3.1-2.1-4.9-2.1
	c-3.4,0-2.8-2.3-2.5-4.1c0.9-4.7,0.9-5.1-3-7.8c-1-0.6-1.5-1.6-2.1-2.5c-1.6-2.6-3.3-5.2-5.5-7.4c2.7-1,5.3-2,8.4-1.2
	c2.1,0.5,4.3,0.1,6.3-1c1.4-0.7,2.8-1.1,4.4-1.2c6.2-0.4,12.2,0.8,18.3,2c8.2,1.7,16.3,3.9,24,7.3c7.6,3.3,14.7,7.3,21.7,11.6
	c3.5,2.1,3.7,4.3,1.4,7.7c-0.7,1-1.6,2-2.3,3C528.5,438.2,527.3,439.8,527.6,442L527.6,442z"/>
<path class="st12" d="M527.6,442c-0.3-2.2,0.9-3.8,2-5.4c0.7-1,1.6-2,2.3-3c2.3-3.4,2.1-5.5-1.4-7.7c-7-4.3-14.1-8.3-21.7-11.6
	c-7.8-3.4-15.8-5.6-24-7.3c-6-1.3-12-2.4-18.3-2c-1.6,0.1-3,0.5-4.4,1.2c-2,1-4.2,1.5-6.3,1c-3.1-0.8-5.7,0.2-8.4,1.2
	c-2.3-2.3-2.9-5.7-5-8.1c-0.5-0.5,0.5-0.8,0.9-1c3.1-1.3,5.5-3.6,7.5-6.1c0.9-1.1,1.5-1.2,2.2-0.1c1.2,1.7,2.7,1.6,4.5,1
	c6.1-2.1,12.2-2.8,18.9-1.8c7.3,1.1,14.7,1.8,21.8,3.8c9.4,2.7,19.2,4.3,28.2,8.5c2.3,1.1,4.2,2.7,5.4,4.8
	c3.3,5.8,8.2,10.1,13.2,14.3c0.6,0.5,1.1,0.9,1.7,1.4c1.4,1.2,1.2,2.3-0.5,2.8c-2.4,0.7-3.2,2.4-4,4.4c-0.9,2.3-1.9,4.5-2.9,6.7
	c-0.6,1.4-1.8,2.7-3.2,2.6C533.2,441.3,530.4,441.7,527.6,442L527.6,442z"/>
<path class="st9" d="M500.5,348.8c-0.5-2.8,1.6-4.7,2.4-7.1c2.2-6.4,3.6-12.9,4.1-19.8c0.4-5.5,0.3-10.8-1.2-16
	c-2.8-9.7-8.4-17.3-17.6-21.9c-2-1-4.2-1.7-6.5-1.6c-1.5,0.1-2.9-0.2-4.3-0.6c0.4-1.7-0.8-1.6-1.8-1.5c-2.2,0.4-4.4,0.7-6.4,1.8
	c-13.3,6.8-22.1,17.8-29,30.7c-1.4,2.1-2.5,4.2-3.1,6.6c-1.9,3.5-2.6,7.4-3.2,11.2c-0.4,2.5-1,1-1.7,0.3c0.2-2.9-0.4-5.8,0.3-8.7
	c3.9-17.4,12.6-31.8,26.2-43.3c1.4-1.2,3.5-1.7,4-3.7c18.3-7.4,44.5-2.4,54.6,18.7c4.1,8.6,4.8,17.6,2.4,26.8
	C516.6,332.4,510.1,341.6,500.5,348.8L500.5,348.8z"/>
<path class="st9" d="M314,303c-0.3,0.9-1,1.3-1.8,1.5c-8.5,2.8-15,8-19.5,15.8c-1.7,3-2.4,6.2-3,9.5c-1.7,9.2-0.8,18.2,3.5,26.6
	c3,5.8,7.4,10.6,11.8,15.5c0.8,0.9,2,1.6,1.9,3.1c-13.8-4.9-23.2-14.1-27.1-28.4c-3.8-13.8-0.4-26.3,8.1-37.5
	c8.4-11,19.8-17.2,33.4-19.5c1-0.2,2,0,3-0.1c0.1,0.7,0.6,0.8,1.1,0.9c13,2.4,24,8.3,33,18c6.1,6.6,10.1,14.1,9.6,23.5
	c-0.4,0.7-0.9,1.5-1.7,1.9c0-1.3,0-2.7-1.2-3.7c0.1-1.2-0.7-2.2-1.2-3.2c-5.3-9.8-13.5-16.6-23.4-21.4c-7.9-3.8-16.2-5.7-25-4.4
	c-0.7,0.1-1.5,0-1.4,1.1C314,302.6,314,302.8,314,303L314,303z"/>
<path class="st4" d="M305.9,390.9c-1.8,0.4-3.3,1.4-4.3,2.6c-1.6,2-3.6,2.2-5.8,2.2c-2,0-3.6,0.6-5.2,1.8c-2.7,1.9-5.8,2.8-9.1,3.3
	c-5.2,0.8-10.3,2.5-15.5,3.8c-8.7,2.1-17.4,4.1-26.1,5.8c-3.8,0.7-7.8,0-11.6,0.6c-2.9,0.5-5.5,2.5-8.7,1.7
	c-1.1-0.3-2.4-0.1-3.2-1.2c4.3-1.9,9-2.5,13.6-3.4c1.1-0.2,2.3-0.2,3.6-2c-10.2,1.4-19.4,4.6-29.5,6.8c1.8-2,3.8-2.1,5.3-3.1
	c5.2-3.5,10.8-6.7,16.4-9.5c11.3-5.6,23.1-9.7,35.5-12.3c11.5-2.4,22.9-4.7,34.5-6.5c1-0.1,2.5,0.2,2.9-1.4c0.1-0.2,0.3-0.2,0.4-0.1
	C300.7,384,303.1,387.6,305.9,390.9L305.9,390.9z"/>
<path class="st11" d="M369,415.4c-2.2,6.7-3.7,13.6-3.9,20.7c0,1.7-1,1.6-2.2,1.5c-4.4-0.5-8.8-1.1-13.2-1.5c-5-0.5-9.8-1.2-14.5-3
	c-1.1-0.4-1.8-0.7-1.6-1.9c1.3-6.9-1.2-13.2-3.1-19.6c5.6-1.4,11.4-1.8,17.1-1.9c5.1-0.1,10.1,1.1,14.9,3.3
	C364.7,413.8,366.5,415.5,369,415.4L369,415.4z"/>
<path class="st6" d="M322.2,398.5c-4.1-4.4-9.5-7.1-14-11.1c-1.7-1.5-2.9-3.2-4-5.1c-0.9-1.5-0.5-2.5,1.3-2.5
	c8.7,0,17.4-1.2,26.1,0.4c4.1,0.8,7.5-1.5,11.3-2.2c1.8-0.4,3.6-1,5.4-1.5c0.8-0.2,1.6-0.7,1.4,0.9c-0.7,5,0.7,9.5,3.5,13.5
	c1.3,1.9,0.4,2.2-1.1,2.6c-8.5,2-17.3,2.2-25.9,3.9c-1.1,0.2-2.1,0.3-3,1.1C322.9,398.5,322.5,398.5,322.2,398.5L322.2,398.5z"/>
<path class="st12" d="M369,415.4c-2.5,0.1-4.4-1.6-6.5-2.5c-4.8-2.2-9.9-3.4-14.9-3.3c-5.7,0.1-11.5,0.5-17.1,1.9
	c-1.8-4.6-4.8-8.3-7.3-12.4l0.1-0.1c2-0.2,4-0.2,5.9-0.6c4.2-1.1,8.4-0.9,12.6-1.5c2.8-0.4,5.4-1.5,8.2-1.9c3.2-0.4,6.1-0.2,8.9,1.9
	c4.5,3.2,9.6,5.1,15.2,5c0.7,0,1.4,0,2.6,0C373.4,406.3,371.1,410.8,369,415.4L369,415.4z"/>
<path class="st13" d="M477,281.9c-11,10.7-20,22.7-25.9,37c-3,7.2-5.7,14.4-7.8,21.9c-0.3,1.2,0.5,3.1-1.5,3.7
	c-1.8-3.4-3.7-6.8-6.1-9.9c-1.9-2.4-0.2-5.1,0.2-7.6c0.4-2.4,1.4-4.7,2.1-7c1.2-2.1,2.2-4.2,3-6.5c0.8-1.4,1.7-2.8,2.5-4.1
	c5.1-8.6,11.5-16.2,19.6-22.2C467.1,284.2,471.4,281.2,477,281.9L477,281.9z"/>
<path class="st13" d="M314,303c0-0.2,0-0.4,0-0.5c3.6-0.2,7.2-0.9,10.8-0.2c16.8,3.1,30.3,11.2,38.6,26.7c0.4,0.7,0.6,1.5,1.7,1.4
	c1.2,1,1.1,2.3,1.2,3.7c-3.1,3.9-5.3,8.2-7,12.9c-2.8-7.8-7.3-14.5-12.8-20.6c-6.6-7.4-14.1-13.8-22.7-18.9
	C320.8,305.5,317.5,304,314,303L314,303z"/>
<path class="st3" d="M530.5,617.2c-0.2,0.8-0.9,1.1-1.6,1.4c-7.8,4-16,5.4-24.7,4c-3.1-0.5-6.1-0.1-9.2,0.4
	c-6.3,1.1-12.4,1.5-18.8-0.3c-3.3-1-6.9,1-10.4,1.2c-0.5,0-1.1,0.1-1.6,0.1c2-2.5,5.1-3.5,7.8-4c6.1-1.2,11.7-3.8,17.3-6.1
	c3.9-1.6,7.7-1.5,11.5-1.1c7.1,0.8,14.2,2,21.3,3.2C525,616.5,527.7,617.2,530.5,617.2L530.5,617.2z"/>
<path class="st11" d="M438.2,440c-1.4-1.1-3.1-1.2-4.8-1.3c0.1-1.3,1.4-1.5,2.1-2.3c2.7-2.9,2.8-5.2,0.5-8.3c-0.9-1.2-2-2.4-2.1-4
	c-0.1-2.7-2-4.1-3.8-5.5c-2-1.5-2.3-2.5-0.6-4.5c0.8-1,2.1-1.5,2.1-3c3.6-0.5,7.1-0.8,10.7-1.4c2.8-0.5,5.2-0.1,6.7,2.6
	c0.8,1.3,1.6,2.6,2.4,3.9c0.5,0.8,0.8,1.6,0,2.5c-0.4,0.5-0.7,1.1-0.3,1.8c1,1.6,0.4,3.2-0.1,4.9c-0.8,0.2-1.2,0.7-1.4,1.5
	c-0.5,1.4-1.1,2.8-1.7,4.2c-1.8,3.9-3.7,7.6-8.5,8.6C439,439.4,438.6,439.7,438.2,440L438.2,440z"/>
<path class="st3" d="M655.8,593.5c-4.1,0.9-7.1,3.9-10.8,5.5c-4.6,2-9.3,4-13.7,6.5c-0.5,0.3-1.2,0.6-1.8,0.5
	c-7.8-1-15.4,2.3-23.2,0.7c-1.7-0.3-3.2,1-4.8,1.6c-7.9,2.7-15.8,3.2-23.9,0.5c9-7.3,19.3-9.8,30.7-7.8c3.5,0.6,7-0.1,10.5-0.5
	c6.8-0.7,13.6-1.1,20.3-2.6c5.5-1.3,10.8-2.9,15.7-5.7c0.5-0.3,1-1.2,1.6-0.5C657.3,592.6,656.2,593,655.8,593.5L655.8,593.5z"/>
<path class="st13" d="M462.7,275.2c-0.6,2-2.6,2.6-4,3.7c-13.6,11.5-22.3,25.9-26.2,43.3c-0.6,2.9-0.1,5.8-0.3,8.7
	c-1.6-1.3-3.3-2.5-4.9-3.8c-1.5-1.1-1.3-2.7-1.3-4.2c-0.2-11.3,3.9-21.1,10.8-29.8c4.8-6,10.6-10.8,17.3-14.6c2.4-1,4.7-2.1,7-3.1
	C461.7,275.4,462.2,275.3,462.7,275.2L462.7,275.2z"/>
<path class="st13" d="M368,332.1c0.6-9.4-3.5-16.9-9.6-23.5c-8.9-9.7-20-15.7-33-18c-0.6-0.1-1.1-0.2-1.1-0.9
	c3.5-1.2,7-0.6,10.5-0.2c9.2,1.1,17.7,4.4,24.9,10.5c7.4,6.3,11.9,14.2,13.8,23.7c0.5,2.4,0,4.4-2.3,5.8
	C370,330.2,369,331.2,368,332.1L368,332.1z"/>
<path class="st12" d="M318.3,426.9c-5-4.2-9.1-9.1-13.4-13.9c-0.6-0.7-1.1-1.4-1.7-2.1c-2.5-2.7-2.1-4.9,1.3-6.3
	c4.4-1.7,9-2.7,13.5-3.8c0.5-0.1,1-0.1,1.3,0.2c2.8,3.6,5.9,6.9,6.6,11.6c-1.8,0.2-3.6,0.3-5.4,0.6c-3.1,0.5-4.1,1.8-3.1,4.9
	C318.4,421.1,318.8,423.9,318.3,426.9L318.3,426.9z"/>
<path class="st3" d="M425.8,624.2c-4.5,1.5-9,0.8-13.6,0.3c-7.4-0.8-14.5-3-21.9-3.5c-5.6-0.3-11.2,0.7-16.8,0.6
	c-6.8-0.1-13.7,0.5-20.2-2.3c4.5-1.8,9.3-2.8,14.1-3.1c3.4-0.3,7-0.5,10.1-1.5c7.6-2.3,14.2,0.2,20.9,3.1c6.6,2.9,13.5,4.9,20.8,5.4
	C421.4,623.3,423.7,623.2,425.8,624.2L425.8,624.2z"/>
<path class="st13" d="M442.2,402.4c-3.7,2.9-7.9,3.4-12.2,1.9c-3.2-1.1-5.8-1.5-9.2-0.1c-7.8,3.2-16.1,3.3-24.4,1.9
	c-2.4-0.4-4.5-1.5-6.4-2.8c-1.2-0.8-2.3-0.8-3.5-0.2c-3.2,1.6-6.7,2.2-10.3,1.9c1.1-2.2,2.9-3.4,5.4-3.9c6.6-1.3,6.5-1.4,13.4,0.4
	c9.8,2.6,19.5,2.1,28.7-2.5c1.2-0.6,2.1-0.6,3.3-0.1c3.7,1.6,7.5,2.7,11.6,1.6C440.2,400.1,441.5,400.7,442.2,402.4L442.2,402.4z"/>
<path class="st3" d="M286.2,611.1c-3.5,1.4-6.9,0.2-10-0.8c-11.1-3.8-22.5-5-34.2-4.7c-4.6,0.1-9.2-0.2-13.8-0.6
	c-0.6,0-1.1-0.1-1.5-0.6c4.6-2.2,9.6-2.4,14.4-3.2c8.4-1.3,16.4,0.4,24.7,1.7c6.7,1.1,12.3,4,18.1,6.7
	C284.8,610,285.7,610.3,286.2,611.1L286.2,611.1z"/>
<path class="st13" d="M370.5,416.5c1.1,1,0.6,2.2,0.5,3.3c-0.5,6.2,0.5,12.2,2.7,18c0.4,1.1,1,1.7,2,2c6.9,1.6,12.1,6.4,17.9,10.1
	c2.7,1.7,5.4,2.6,8.4,2.6c10.9,0,21.6,1.6,32.3,3.5c7.1,1.2,14.2,0.5,21.2-1.3c-0.1,2.2-2.2,1.8-3.3,2.1c-6.7,2.1-13.7,1.5-20.4,0.5
	c-5.9-0.9-11.9-2.1-17.8-2.8c-3.7-0.4-7.4-0.4-11.1-0.2c-3.7,0.2-7-1-9.6-3.1c-7.4-5.9-15.6-10.1-24.8-12.2
	c-1.3-0.3-2.2-0.8-2.2-2.3C366.8,429.7,367.3,422.8,370.5,416.5L370.5,416.5z"/>
<path class="st10" d="M419.9,426.1c1.3,0.6,0.6,1.7,1.3,2.4c1.7-1.5,2.3-3.8,3.6-5.5c0.4-0.6,0.7-1.9,1.7-1.3
	c0.7,0.4,0.5,1.5,0.2,2.2c-0.5,1.3-1.1,2.5-2,4.6c2.9-1.5,3.4-4.4,5.8-5.7c0.4,3-1.8,4.9-2.6,7.5c2.1,0.1,2.1-2.3,3.8-2.5
	c0.6,2.2-1.8,3.5-1.9,5.4c0.3,0.1,0.5,0.2,0.6,0.2c0.8,0,1.8-1.3,2.3-0.3c0.5,1-0.6,1.8-1.6,2.1c-2,0.6-3.1,2.4-4.6,3.7
	c-3.8,3.2-6,3.2-8.7,0c-1.4-1.6-1.2-3.7-0.6-5.1C418.4,431.3,419,428.6,419.9,426.1L419.9,426.1z"/>
<path class="st11" d="M318.3,426.9c0.5-3,0.1-5.8-0.8-8.7c-1-3.1-0.1-4.3,3.1-4.9c1.8-0.3,3.6-0.4,5.4-0.6c0.6,3,1.1,6,1.5,9
	c0.4,2.8-0.1,5.4-0.4,8c-0.3,2.5-2.4,1.6-3.8,1C321.1,430,319.7,428.5,318.3,426.9L318.3,426.9z"/>
<path class="st3" d="M191.4,596.9c-4,0.3-7.4-0.9-10.7-3.1c-3.8-2.6-8.3-3.4-12.7-4.5c-2.6-3.1-5.1-6.2-8-9.6
	c3.9,0.4,6.6,2.2,9.4,3.7c5.5,2.9,11.5,4.8,16.5,8.7C187.8,593.5,190.3,594.4,191.4,596.9L191.4,596.9z"/>
<path class="st13" d="M298.2,372.8c1.6,0,1.4,1,1.7,1.9c1.3,4.1,2.6,8.2,5.5,11.7c2,2.4,4.4,4.3,7,5.9c12.8,7.7,18.3,19.8,20.4,33.9
	c0.2,1.1-0.1,2.4-0.4,3.5c-0.2,0.9,0.9,2.7-1.1,2.6c-1.8-0.1-3.9-0.2-3.2-3.3c1.3-5.4,0.4-10.9-0.8-16.1
	c-1.6-6.9-5.9-12.1-11.5-16.2c-5-3.6-10.3-6.8-13.4-12.5C300.4,380.6,299.1,376.8,298.2,372.8L298.2,372.8z"/>
<path class="st13" d="M402.8,438.7c0.3-1.9,2.3-1.8,3.4-2.8c2.4-2.2,4.9-4.2,7.5-6.2c0.9-0.7,1.4-1.6,1.7-2.7
	c1.6-6.7,5.7-11.5,11.1-15.4c0.4-0.3,1-0.3,1.5-0.5c-1.8,3-3.6,6-5.4,9c-2.5,4.1-4.9,8.2-6.3,12.8c0,0.2-0.3,0.3-0.2,0.5
	c0.6,4.2-2.5,4.2-5.2,4.5C408.1,438,405.5,439.1,402.8,438.7L402.8,438.7z"/>
<path class="st13" d="M454.1,437.3c0,1.7-0.7,2.8-2.2,3.7c-6.4,4.1-13.1,4.7-20.1,2.3c-3.4-1.2-6.5-0.8-9.3,1.7
	c-1.6,1.4-3.1,3-5.5,3.2c1.9-2.6,4-4.6,6.9-6.5c3.5-2.2,6.7-2.2,10.4-1.6c0.6,0.1,1.3,0,1.9,0.3C443,444.2,448.5,440.5,454.1,437.3
	L454.1,437.3z"/>
<path class="st12" d="M431.7,411c0,1.5-1.4,2-2.1,3c-1.6,2.1-1.4,3,0.6,4.5c1.8,1.4,3.7,2.8,3.8,5.5c0,1.6,1.2,2.8,2.1,4
	c2.3,3.1,2.2,5.4-0.5,8.3c-0.7,0.8-2,1-2.1,2.3c-0.8,0.2-1.6,0.2-2.4-0.2c-0.4-0.2-0.9-0.4-0.9-0.9c0-0.5,0.4-0.8,0.8-0.9
	c0.5-0.2,1-0.4,1.5-0.7c1-0.6,2.1-2.2,1.7-2.5c-2.5-2.1-0.1-5.5-2.1-7.6c-0.5-0.5-0.4-1.2-0.3-1.8c0-1.9-0.3-3.4-2.8-2.4
	c-0.2,0.1-0.7,0.1-0.7,0c-1.8-3.3-3.2-0.9-4.7,0.3l-0.1-0.2c1.2-3.8,3.5-6.8,5.8-9.9C429.8,411.2,430.8,411,431.7,411L431.7,411z"/>
<path class="st12" d="M438.2,440c0.4-0.2,0.8-0.5,1.2-0.6c4.8-0.9,6.7-4.7,8.5-8.6c0.6-1.4,1.2-2.8,1.7-4.2c0.3-0.7,0.6-1.3,1.4-1.5
	c0.4,1.2,1.5,2.3,0.2,3.8c-0.9,1,0,2.3,1.1,2.9c2.3,1.3,1.7,2.9,0.5,4.5c-1.7,2.4-10.8,5.2-13.5,4.3
	C438.9,440.6,438.6,440.2,438.2,440L438.2,440z"/>
<path class="st13" d="M388.1,396.9c0.4-0.6,0.9-0.5,1.4-0.3c12.6,4.3,24.9,4.8,36.8-2.1c0.4-0.2,1-0.2,1.5-0.3
	c-0.1,1-1.3,1.2-1.7,2.1c-10.6,6.5-21.9,7.3-33.5,3.3C391.1,399,389.4,398.2,388.1,396.9L388.1,396.9z"/>
<path class="st13" d="M430.6,393.6c1.4-0.1,2.4,0.8,3.6,1.2c3.9,1.3,7.8,1.1,11.6-0.5c1-0.4,1.8-1.4,3-1.1c-5.2,7.2-14.6,8-21.5,4.7
	c-0.4-0.2-0.3-0.6-0.2-0.9C428.7,396.4,429.2,394.5,430.6,393.6z"/>
<path class="st13" d="M465.2,447.8c0.6-0.3,1.5-0.3,1.8-1c1.1-2.6,2.8-4.7,5.3-6.1c0.2-0.1,0.2-0.8,0.2-1.2c0.5,0.4,1,0.7,1.5,1.1
	c2.6,2.3,2.6,2.7-0.6,4.2c-1.5,0.7-2.5,1.8-3.2,3.2c-0.6,1.2-1.3,2.4-2,3.5c-0.5,0.8-1.1,1.7-2.1,1.4c-1-0.3-0.4-1.4-0.5-2.1
	C465.5,449.8,465.4,448.8,465.2,447.8L465.2,447.8z"/>
<path class="st0" d="M332.1,378.5c6.6-1.2,12.8-3.7,18.9-7.1c-0.2,2.1-0.4,3.4-2.8,3.9c-4.1,0.9-8.1,2.2-12.1,3.5
	C334.7,379.2,333.5,379.1,332.1,378.5z"/>
<path class="st10" d="M457,452.7c-0.1-1.1,0.7-2,0.2-3.2c-0.4-1-0.1-2.1,0.9-2.5c1.4-0.5,0.7,1.4,1.8,1.8c0.7-1.3,1.6-2.3,2.3,0.1
	c0.4,1.2,1.9-0.7,2.2,0.8C462.5,452.2,459.6,452.1,457,452.7L457,452.7z"/>
<path class="st0" d="M312.1,378.1c-2.9,0.7-5.9-0.1-8.8,0.7c-0.9,0.2-1.1-0.8-1.3-1.4c-0.4-1-0.7-2-1.1-3.4
	C304.8,375.6,308.4,377,312.1,378.1L312.1,378.1z"/>
<path class="st10" d="M485,442.2c-0.2-1.6,0.5-2.9,1.3-4.2c1.2,0.3,0.5,1.8,1.6,2.1c1.2-0.4-0.2-1.7,0.7-2.2
	c0.9,0.1,1.1,0.8,1.2,1.5c0.1,0.4,0,0.9,0.6,1c1.3,0.2,1.3,0.2,1.1,1.7C489.4,441.7,487.2,441.7,485,442.2L485,442.2z"/>
<path class="st13" d="M485,442.2c2.1-0.4,4.3-0.4,6.5-0.1c-0.2,1.1,0.1,2.8-1.2,3c-1.7,0.2-3.5-0.2-5.1-0.7
	C484.5,444.1,484.8,442.9,485,442.2L485,442.2z"/>
<path class="st13" d="M457,452.7c2.6-0.6,5.5-0.5,7.4-3c0.6,2.5-0.4,3.9-3,4.2c-0.8,0.1-1.6,0.2-2.3,0.6
	C457,455.4,456.4,454.7,457,452.7z"/>
<path class="st10" d="M456.6,424.5c-1.3,0.1-4.4-3.6-4.2-4.8c0.1-0.4,0.4-0.7,0.7-0.7c1.4,0.2,2.4,1,3.4,1.9c0.8,0.9,1,1.8,0.8,3
	C457.3,424.3,457,424.5,456.6,424.5L456.6,424.5z"/>
<path class="st13" d="M450.3,362.5c-2.5-1-4.2-3.3-6.7-4.4c0.1-0.9,0.2-1.8,0.3-3.1C446.5,357.3,449,359.3,450.3,362.5z"/>
<path class="st3" d="M354.6,367.2c1-2.2,3.8-2.6,4.8-4.8c0.2,0,0.5,0,0.7,0c0.6,0.9,0.5,1.5-0.5,2.1c-1.4,0.8-2.6,1.9-3.8,2.8
	C355.3,367.4,355,367.3,354.6,367.2L354.6,367.2z"/>
<path class="st13" d="M453.6,424.2c1.4,0.5,2.8,1.3,3.2,3c0.2,0.9-0.7,1.1-1.2,1c-1.6-0.4-2.7-1.5-3.1-3.1
	C452.3,424.6,452.6,424.2,453.6,424.2L453.6,424.2z"/>
<path class="st3" d="M440.9,313.6c-0.7,2.3-1.8,4.5-3,6.5c-0.2-0.2-0.5-0.5-0.8-0.7c0.6-2.4,1.7-4.6,3.1-6.6
	C440.5,313,440.7,313.3,440.9,313.6L440.9,313.6z"/>
<path class="st3" d="M430.6,393.6c-1.4,0.9-1.8,2.8-3.6,3.3c-0.2-0.2-0.5-0.5-0.7-0.7c0.4-0.8,1.5-1,1.7-2.1
	C428.8,393.8,429.1,391.1,430.6,393.6L430.6,393.6z"/>
<path class="st13" d="M453.8,429.1c0.9,0.2,1.9,0.4,1.9,1.7c0,0.7-0.2,1.4-1,1c-0.9-0.4-2.2-0.7-2.3-1.9
	C452.2,429,453.1,429.2,453.8,429.1L453.8,429.1z"/>
<path class="st12" d="M423.6,422c-0.2,1.1-0.7,2-1.5,2.9c-0.1-1.4,0-2.5,1.4-3L423.6,422L423.6,422z"/>
<path class="st12" d="M322.2,398.5c0.4,0,0.7,0,1.1,0c0,0.2,0,0.4,0,0.5l-0.1,0.1C322.7,399.2,322.4,399,322.2,398.5L322.2,398.5z"
	/>
<path class="st6" d="M354.7,393.3c0,0-0.1,0.1-0.2,0.1c0,0-0.1-0.1-0.1-0.1c0,0,0.1-0.1,0.2-0.1S354.7,393.2,354.7,393.3z"/>
<path class="st4" d="M203.6,412.7c0.1,0.1,0.1,0.1,0.2,0.2c-0.1,0-0.1,0.1-0.2,0.1s-0.1-0.1-0.2-0.2
	C203.5,412.8,203.6,412.8,203.6,412.7z"/>
<path class="st4" d="M663.4,458.4c0.1,0.1,0.2,0.2,0.4,0.3C663.3,459.1,663.3,458.8,663.4,458.4L663.4,458.4z"/>
<path class="st4" d="M663.3,458.5c-0.2-0.1-0.5-0.3-0.7-0.4c0.1-0.1,0.2-0.2,0.3-0.3C663.1,458,663.2,458.2,663.3,458.5L663.3,458.5
	L663.3,458.5z"/>
<path class="st14" d="M243.7,574.5c-2-2.7-5.3-3.1-8.1-4.3c-4.2-1.8-9.1-2.5-12.7-5.1c-3.4-2.4-8-2.7-10.7-6.4
	c-0.8-1.2-2.9-1.4-4.3-2.1c-2.1-1.1-4.1-2.3-5.4-4.4c-1.2-1.8-3.1-2.7-5.1-3.5c-4.4-1.8-7.5-4.8-9-9.4c-0.9-2.6-3.7-3.9-4.6-6.6
	c-0.7-2-1.4-3.8-0.5-6c0.9-2.2,2.4-3.1,4.7-2.5c1.6,0.4,3.2,0.7,4.6-0.5c0.1,0,0.2-0.1,0.2-0.1c4.6,0.6,9.4,0.1,13.6,2.2
	c1.2,0.6,2.4,1.1,3.6,0.8c5.4-1.5,10.1,0.7,14.9,2.7c5.2,2.1,10.4,4.3,15.7,5.8c5.9,1.7,11.8,3.5,17.3,6c4.9,2.2,9.6,4.7,15.1,5.5
	c1.6,0.2,3.1,1.1,4.5,1.8c5.3,2.8,11.5,2.6,16.8,5.7c0.6,0.3,1.4,0.3,2.1,0.4c2.8,0.2,5.5,0.7,7.9,2.4c2.8,2,6.4,1.8,9.6,2.4
	c3.9,0.7,7.9,0.8,11.8,1.2c1.8,0.2,3.5,0.6,4.9,2c1.4,1.4,3.4,2.3,5.2,1.7c5.3-1.7,10.3,0.1,15.4,0.8c3.4,0.5,6.6,1.5,10.3,0.5
	c2.6-0.7,5.6-0.6,8.3,0.3c3.4,1.2,6.8,0,10.2,0.1c4.7,0.1,9.5,0.4,14.1,0.2c4.5-0.2,9.2,0.6,13.6-0.5c5.1-1.3,10-0.5,15,0
	c3.6,0.4,7.4,0.1,10.9-1.3c1.8-0.7,3.6-1.6,5.7-0.8c0.8,0.3,1.8,0.2,2.7,0c5.9-1.1,11.7-1.9,17.7-1c2.8,0.4,5.5-0.2,8.2-1.4
	c1.8-0.8,3.6-1.7,5.7-0.8c0.8,0.3,1.8,0.2,2.7-0.1c3.6-1.3,7.3-0.7,11-1.3c1.6-0.3,3.2-0.2,4.8-0.6c7.2-1.7,14.6-1.6,21.9-2.3
	c2.7-0.2,5.3-0.8,7.9-1.6c5.2-1.7,10.7-2,16.1-1.4c1.9,0.2,3.5,0,4.9-0.9c3.5-2,7.4-1.6,11.1-2.3c4.5-0.9,9.2,0.1,13.6-1.8
	c2.2-1,4.4-1,6.5,0.4c0.6,0.4,1.2,0.8,1.7,0.3c2-2.1,4.6-1.2,6.9-1.4c2.6-0.2,5.2,0.1,7.8-0.4c3.4-0.7,5.1,2.4,3.1,6.3
	c-1.2,2.4-2.6,5.4-6.2,5.8c-1.6,0.2-3.3,1.1-4.7,2c-5.1,3.1-10.7,5-16,7.7c-2,1-4,1.6-6.2,1.6c-1,0-1.8,0.1-2.5,0.9
	c-1.3,1.6-3,2.1-4.9,2.5c-3,0.6-6.4-0.2-8.6,2.8c-5-0.5-8.9,2.6-13.1,4.4c-1,0.5-1.9-0.2-2.9,0c-2.4,0.4-4.7,0.5-6.8,2.2
	c-1.8,1.5-4.6,0.6-6.8,1.3c-1.5,0.5-3.1,0.8-4.7,1.2c-0.8,0.2-1.1,0.9-1.2,1.6c-0.9-0.1-1.8,0-2.7-0.4c-9.1-3.8-18.2-2.7-27.3-0.2
	c-3.8,1.1-6.8,3.6-10.2,5.4c-1-1.5-2.3-1.7-4.2-1.4c-4.5,0.7-9.1,1-13.7,1.3c-3,0.2-5.6,2.1-8.7,1.7c-10.8-1.3-21.5,0.6-32.3,0
	c-2.6-0.1-5.2-0.9-7.8-0.6c-1.5,0.2-2.5,0.4-2,2.2c-0.4-0.2-0.8-0.3-1.2-0.5c0.1-0.7-0.2-1.2-0.8-1.6c-7.8-5.7-16.5-8.9-26.1-9.4
	c-9.4-0.5-18.5,0.8-27,5.4c-2.1-2.6-5.3-2.2-7.5-1.4c-2.9,1.1-5.5,0.3-8.2,0.2c-4.6-0.3-9.2-1.3-13.9-1.1c-2.7,0.1-5.4-1.2-8.1-1.8
	c-3.3-0.8-6.4-2-10-1.4c-4.9,0.8-9.7-0.5-14.4-2c-3.2-1.1-6.6-1.9-9.9-2.6c-1.5-0.3-3,0.4-4.4,1c-3.5-1.5-6.9-3.1-10.4-4.3
	C253.5,574.1,248.6,574.1,243.7,574.5L243.7,574.5z"/>
<path class="st12" d="M345.1,589.3c8.4-4.6,17.6-5.9,27-5.4c9.6,0.5,18.3,3.6,26.1,9.4c0.6,0.4,0.9,0.9,0.8,1.6
	c-11.6-5.5-24.1-6.2-36.7-6.5c-7.1-0.2-13.7,2.1-20.4,3.7C342.2,590.2,344.2,590.5,345.1,589.3L345.1,589.3z"/>
<path class="st12" d="M468.9,592c3.4-1.8,6.4-4.4,10.2-5.4c9.1-2.5,18.2-3.7,27.3,0.2c0.9,0.4,1.8,0.3,2.7,0.4
	c0.9,1.6,2.8,1.7,4.1,2.6c0.7,0.5,1.4,0.8,1.3,1.7c-8.8-2.6-17.8-3.6-27-2.6c-6.4,0.7-12.5,2.6-18.7,4.3
	C468.9,592.8,468.9,592.4,468.9,592L468.9,592z"/>
<path class="st12" d="M606.7,576.2c1.4,0.6,3,1.1,3.9,2.5c-1.7-0.1-3.4-0.1-5.1-0.4c-7.9-1.4-15.5-0.5-23.1,1.9
	c-5.1,1.6-9.8,4.2-14.3,7c-0.3-1.4,1.2-1.8,1.6-2.8c5.2-4.8,11.3-8.3,18.2-9.5c5.4-0.9,11-1.2,16.5,0.7
	C605.1,575.8,605.9,576,606.7,576.2L606.7,576.2z"/>
<path class="st12" d="M243.7,574.5c4.9-0.4,9.9-0.4,14.6,1.2c3.5,1.2,6.9,2.9,10.4,4.3c1,2.1,4.1,2.3,4.4,4.9
	c-1.1-0.4-2.2-0.8-3.3-1.2c-5.4-2-10.7-4-16.5-5c-5.9-1-11.9-0.6-17.8-1.5c1-2.2,3.1-1.9,4.9-2.2c0.4,0,0.9-0.1,1.1-0.5
	C242.3,574.6,243,574.6,243.7,574.5L243.7,574.5z"/>
<path class="st12" d="M158.1,540.8c2.7-1.4,5.4-0.1,8.2,0c10.4,3.5,18.1,10.3,24.1,19.3c0.6,1,1,1.9,1,3c0,0.3,0,0.7,0,1.1
	c-0.4-0.3-0.8-0.5-1.1-0.8c-5.9-7.4-13.2-13.1-21.3-17.8C165.5,543.6,161.6,542.7,158.1,540.8L158.1,540.8z"/>
<path class="st2" d="M341.8,592c6.7-1.6,13.4-3.8,20.4-3.7c12.6,0.3,25.1,1,36.7,6.5c0.4,0.2,0.8,0.3,1.2,0.5
	c0.4,0.3,0.9,0.7,1.2,1.1c0.2,0.2,0.5,0.6,0.4,0.9c-0.2,0.6-0.7,0.5-1.1,0.3c-1.2-0.5-2.6-0.8-3.7-1.6c-3.6-2.8-7.8-3.3-12.1-3.9
	c-0.4-0.2-0.8-0.5-1.2-0.5c-6.4-1.1-12.8-1.9-19.3-1.7c-2.4,0.1-4.9-0.5-7.2,0.5c-5.6,0.3-11,1.6-16.2,3.7
	C340.1,592.7,341.4,592.6,341.8,592L341.8,592z"/>
<path class="st2" d="M468.9,593.2c6.2-1.7,12.3-3.6,18.7-4.3c9.1-1,18.1,0,27,2.6c0.4,0.6,2,0.3,1.5,1.5c-0.6,1.4-1.4,0.1-2.2-0.1
	c-9.9-2.7-19.9-4.3-30.1-1.9c-3.4,0.8-6.8,1.7-10.3,2.4c-2.4,0.5-4.5,1.4-6.4,2.8c-0.5,0.4-1.2,1.2-1.8,0.3c-0.4-0.7,0.5-1,1-1.4
	c0.3-0.3,0.6-0.6,1-0.9C467.9,594.2,468.5,593.9,468.9,593.2L468.9,593.2L468.9,593.2z"/>
<path class="st2" d="M235.5,577.3c5.9,0.9,11.8,0.5,17.8,1.5c5.8,1,11.1,3.1,16.5,5c1.1,0.4,2.2,0.8,3.3,1.2c0.5,0.7,2.4,0.5,1.3,2
	c-0.8,1-1.6,0-2.3-0.4c-7.1-4.1-15-5.9-23.1-7c-5.2-0.7-10.4-1.5-15.6,0c-0.4,0.1-0.8,0.2-1-0.1c-0.3-0.5,0-1,0.3-1.2
	C233.6,577.8,234.6,577.6,235.5,577.3L235.5,577.3z"/>
<path class="st2" d="M140.5,518.5c-0.3,1,0.5,2.9-0.8,2.9c-1.6,0-0.9-1.9-1.1-3c-0.1-0.7-0.1-1.4-0.1-2.1
	c-0.4-6.5-1.7-12.7-4.6-18.5c-1.1-2.1-3.2-3.3-5.7-4.1c1.4-1.6,2.6-0.3,3.8-0.2c1.3,1.2,2.8,2.3,3.6,4c2,4.1,3.2,8.4,4.2,12.8
	C140.3,513,139.6,515.8,140.5,518.5L140.5,518.5z"/>
<path class="st14" d="M140.5,518.5c-0.9-2.7-0.3-5.5-0.9-8.2c-0.9-4.4-2.2-8.7-4.2-12.8c-0.8-1.7-2.3-2.8-3.6-4
	c3.6-0.7,6.3,1.3,6.2,4.5c0,0.5,0.2,1,0.4,1.5c2.3,5,3.4,10.2,3.2,15.7C141.7,516.4,142.2,517.8,140.5,518.5L140.5,518.5z"/>
<path class="st14" d="M357,590.3c2.4-1,4.8-0.4,7.2-0.5c6.5-0.2,12.9,0.6,19.3,1.7c0.4,0.1,0.8,0.4,1.2,0.5c-0.2,1.3-1.3,1.2-2.1,1
	c-4.6-1.1-9.4,0.1-14-1c-3.1-0.8-6.3-0.6-9.4-0.6C358.4,591.4,357.2,591.8,357,590.3L357,590.3z"/>
<path class="st14" d="M129.2,485.4c0.1-1.4,0-3.4,2.7-3.5c2.4-0.1,4.4,1.5,4.4,3.5c0,1.6-2.4,3.6-4.4,3.6
	C129.9,489,129.2,488.1,129.2,485.4L129.2,485.4z"/>
<path class="st14" d="M600.6,547.7c-0.3,0.8-0.9,1.2-1.7,1c-0.8-0.1-1.8-0.4-1.8-1.3c0.1-1,1.1-0.6,1.8-0.6
	C599.6,546.8,600.5,546.6,600.6,547.7L600.6,547.7z"/>
<path class="st12" d="M468.8,593.2c-0.3,0.7-0.9,1-1.7,1C467.2,593.1,468,593,468.8,593.2z"/>
<path class="st14" d="M241.5,574.6c-0.3,0.4-0.7,0.5-1.1,0.5C240.5,574.3,240.7,573.7,241.5,574.6z"/>
<path class="st2" d="M255.1,447.8c8.4-5.4,17.6-9.2,27.4-11.2c6.6-1.4,13-4,20-3.7c0.6,0,1.3,0,1.9,0.1c0.5,0,0.8,0.3,0.9,0.8
	c0,0.5-0.3,0.6-0.6,0.7c-3.9,1.7-6.5,5.1-9.7,7.6h0c-0.8,0.2-1.3,0.8-1.7,1.4c-9.1,7.2-18,14.9-28,20.8c-5.2,3.1-10.7,5.4-16.8,6.2
	c-1.1,0.1-2.1-0.2-3.2-0.5c-5.9-1.6-6.7-3.5-3.8-8.9c2.6-4.8,6.9-7.8,10.9-11.3C253.1,449.1,254.1,448.5,255.1,447.8L255.1,447.8z
	 M289.8,444.3c3.1-2.6,6.2-5.2,9.5-8c-1.7-0.5-2.7,0.1-3.7,0.4c-7,2.3-13.5,5.6-19.9,9.2c-4.5,2.5-9.1,5.2-13,8.6
	c-1.2,0.8-2.5,1.5-3.7,2.3c-3.4,2.6-6.6,5.4-9,9c-0.5,0.7-1.2,1.6-0.6,2.5c0.6,0.8,1.5,0.1,2.3-0.1c3.4-0.8,6.6-1.9,9.7-3.5
	C271.9,459.3,280.8,451.8,289.8,444.3L289.8,444.3z M295.9,434.9c-8.3,1.7-16.6,3.5-24.6,6.4c-9.2,3.4-17.6,8.1-24.6,15
	c-2.4,2.3-4.5,5-5.2,8.4c-0.5,2.7,1.4,3.2,3.3,3.7c1.5,0.4,2.9,0.7,3.5-1.7c0.5-2,2-3.6,3.5-5.1c7.4-7.5,16.5-12.7,25.4-18
	c6-3.6,12.5-6.1,19-8.6c0.5-0.1,1.1-0.2,1.9-0.3C297,434.4,296.4,434.4,295.9,434.9L295.9,434.9z"/>
<path class="st2" d="M525.3,491.9c0,3.4-4.2,8.2-9.3,6.9c-10.5-2.7-19-8-25.2-17c-3-4.3-6.1-8.5-8.4-13.3c-0.7-1.5-1.4-3-1.8-4.5
	c-0.8-2.9-0.3-3.3,2.7-2.7c8.8,1.9,17.4,4,25.3,8.6c5.5,3.2,10,7.5,13.7,12.6C524.2,485.1,524.8,488.3,525.3,491.9L525.3,491.9z
	 M487.2,474.3c2,3.4,4.5,6.5,6.9,9.7c5.9,7.6,14.1,11.3,23.1,13.6c1,0.3,2.3,0.4,3.1-0.5c0.8-1.1,0.3-2.2-0.2-3.3
	c-1.7-3.7-4.4-6.8-7.3-9.7c-0.7-1.5-2.1-2.2-3.3-3.2c-7.1-6.1-15.3-10.2-24-13.5c-0.6-0.2-1.3-0.5-1.8,0c-0.4,0.5,0.1,1,0.3,1.5
	C485.1,470.8,486.2,472.5,487.2,474.3L487.2,474.3z M522.4,494.9c1.8-2.8,1-8.9-1.5-12.2c-9.3-12.5-22.8-17.2-37.3-19.9
	c-0.5-0.1-1.6-0.9-1.7,0.4c0,0.9,0.1,2.2,1.4,2.3c2.4,0.1,4.3,1.4,6.4,2.3c7.9,3.2,15.5,7.2,21.8,13.1
	C515.9,484.9,519.7,489.4,522.4,494.9L522.4,494.9z"/>
<path class="st2" d="M381.8,472.4c-0.2,7.2-0.9,14.3-3.8,20.9c-2.2,5-6.4,8.3-11.1,10.8c-2.8,1.5-5.9,0.8-8.4-1.1
	c-2.8-2.2-2.9-5.5-2.4-8.7c2.2-12.3,8.3-22.9,15.5-32.9c1.9-2.6,3.8-5.1,5.6-7.7c0.7-1,1.3-2.2,2.6-2.1c1.5,0.2,1,1.8,1.1,2.7
	C381.5,460.3,382.1,466.3,381.8,472.4L381.8,472.4z M366.4,489c-1.4,3.9-2,8-2.2,12.1c-0.1,2.1,1.1,2.7,2.7,1.6
	c6.3-3.9,11.3-8.8,11.6-16.8c0.2-0.2,0.6-0.3,0.6-0.5c1.5-6.2,1.5-12.5,1.4-18.8c0-0.7-0.1-1.6-0.8-1.9c-0.9-0.3-1.1,0.6-1.6,1.2
	c-0.7,0.9-1.4,1.9-2.1,2.8C371.4,474.8,367.7,481.4,366.4,489L366.4,489z M379.1,453.2c-3.6,5.4-7.4,10.3-10.9,15.5
	c-5.7,8.4-9.2,17.6-10.9,27.6c-0.5,2.8,0.7,4.8,2.8,6.3c1.8,1.3,2.9,0.7,2.9-1.5c0-2.1,0.3-4.1,0.6-6.2c1.6-10.3,5.3-19.7,11.9-27.8
	C378.9,463,381.7,459.1,379.1,453.2L379.1,453.2z"/>
<path class="st2" d="M341.9,452.8c-0.5,3.2-0.9,6.6-2.8,9.6c-2.5,3.8-8.4,4.6-11.7,1.4c-1.7-1.6-3-3.6-4.4-5.5
	c-0.6-0.8-0.2-1.5,0.2-2.2c2-3.9,4-7.9,6.1-11.8c0.9-1.7,2.5-2.1,3.9-1.1c2.8,2.1,5.5,4.4,8.2,6.7
	C342.2,450.6,341.8,451.7,341.9,452.8L341.9,452.8z M332.5,464c1.8,0.9,3.2,0.4,4.6-1c2-2.1,2.6-4.6,3.1-7.3
	c0.9-4.8,0.8-5.2-3.3-7.6c-0.9-0.9-1.8-1.8-2.7-2.6c-2-1.8-2.9-1.8-4.2,0.5c-2,3.5-3.9,7.1-5.8,10.7c-0.2,0.3-0.3,0.7-0.2,1
	C324.4,460.1,329.6,464,332.5,464L332.5,464z"/>
<path class="st2" d="M545.2,460.3c2.3,5.2-1.2,10.6-6.8,10.4c-1.7-0.1-3-1.3-4.4-2.4c-1-0.8-3-0.5-3.3-2c-0.4-2.2-0.3-4.5-0.2-6.8
	c0-0.5,0.7-1.1,1.2-1.4c1.9-1.4,4.1-2.4,6.3-3c2.5-0.7,4.4,0.3,5.5,2.7c-1.1,0.2-1.5-0.8-2.1-1.3c-0.9-0.6-1.8-1.1-2.8-0.3
	c-1.6,0.8-3.3,1.4-4.9,2.3c-1.5,0.8-2.7,6.6-1.4,7.1c2.5,1,4.2,3.9,7.3,3.5c3.3-0.3,5.5-2.6,5.6-5.7
	C545.2,462.5,545.2,461.4,545.2,460.3L545.2,460.3z"/>
<path class="st12" d="M538.5,456.3c1-0.8,1.9-0.3,2.8,0.3c0.7,0.5,1.1,1.4,2.1,1.3l0,0c0,0.4,0.2,0.6,0.6,0.6l0,0
	c-0.1,0.5,0,0.9,0.5,1.1c0.2,0.2,0.5,0.5,0.7,0.8c0,1.1,0,2.1,0,3.2c-0.1,3.1-2.3,5.4-5.6,5.7c2.2-2.7,2.5-5.5,1.3-8.7
	C540.2,458.9,538.8,458,538.5,456.3L538.5,456.3z"/>
<path class="st2" d="M341,478.8c-2.1-0.5-4.1-0.6-4.1-3.2c0-3.5,1.9-5.4,5.4-5.6c1.6-0.1,3.4,2.8,3.3,6.1
	C345.6,479.4,342.3,477.5,341,478.8L341,478.8z M342,477.2c0.9-0.4,2.6,0.4,2.5-1.5c-0.1-1.3-0.5-2.6-0.9-3.9c-0.3-1-1-1.1-1.8-0.3
	c-3.1,0.3-3.7,0.8-3.3,4.1C338.8,477.9,340.4,477.6,342,477.2L342,477.2z"/>
<path class="st2" d="M549.4,477.4c1.8,0.2,1.8,1.6,1.6,2.9c-0.2,1.6-1.4,2.8-2.9,3.3c-1.8,0.6-3.9,0.9-5-1.1c-1-1.9-0.1-3.5,1.5-4.7
	c1.1-0.8,1.9-2.8,3.8-1.2c-0.6,0-1.1,0.2-1.2,0.9c-1.2,0.9-3.3,1.2-2.2,3.5c0.7,1.5,1.8,2.1,3.4,1
	C550.8,480.9,549.8,479,549.4,477.4L549.4,477.4z"/>
<path class="st2" d="M559,468c-3.1,0.6-3.6-1.3-3.5-2.6c0.1-2.2,2.3-2.2,3.9-2.3c2.2-0.1,2.8,2.1,2.7,3.4
	C562,468.6,559.7,467.8,559,468L559,468z M559.1,464.1c-0.7,0.4-1.9,0.1-2,1.4c-0.1,1.1,0.7,1.4,1.6,1.5c0.9,0.1,1.7-0.1,1.8-1.2
	C560.4,464.9,560.1,464.2,559.1,464.1L559.1,464.1z"/>
<path class="st12" d="M547.2,477.4c0.1-0.7,0.6-0.9,1.2-0.9c0.3,0.3,0.7,0.6,1,0.9c0.3,1.7,1.3,3.5-1.1,4.5
	C547.4,480.5,547.9,478.8,547.2,477.4L547.2,477.4z"/>
<path class="st8" d="M293.2,443.5c0.5-0.6,1-1.2,1.7-1.4C294.8,443,295.2,444.7,293.2,443.5z"/>
<path class="st2" d="M544.5,459.5c-0.5-0.2-0.7-0.6-0.5-1.1C544.5,458.6,544.5,459.1,544.5,459.5z"/>
<path class="st2" d="M544,458.5c-0.4,0-0.6-0.2-0.6-0.6C543.7,458.1,543.8,458.3,544,458.5z"/>
<path class="st2" d="M606.8,449.2c-2.3,2.1-5.3,2-7.9,1.6c-7.6-1.2-14.8-3.7-21.5-7.8c-3.9-2.4-7.8-4.8-11.4-7.5
	c-1.5-2-4.2-2.7-5.7-5.2c3-1.2,5.8-0.3,8.5-0.1c4,0.2,8.1,0.8,12.1,1.8c8.2,2,16.3,4.2,22.9,10.1C606,444.1,606.9,446.3,606.8,449.2
	L606.8,449.2z M567.4,434.5c-0.2-0.1-0.4-0.3-0.6-0.4c0,0-0.1,0.1-0.2,0.2C567,434.3,567.2,434.4,567.4,434.5
	c2.8,2.8,6.6,4.3,9.8,6.6c5.1,3.6,10.8,5.7,16.7,7.5c1.8,0.5,3.7,0.9,5.5,1.2c0.7,0.1,1.5,0.2,2-0.5c0.5-0.8-0.3-1.3-0.8-1.8
	c-2.6-2.7-5.8-4.6-9.3-6c-1-0.9-2.4-1.3-3.7-1.6C581,437.8,574.7,434.3,567.4,434.5L567.4,434.5z M563.3,430.9
	c0.6,1.4,1.3,1.8,2.2,1.8c8.2,0.4,15.7,3,23.2,6c5.2,2.1,10.4,4.4,14,9c0.5,0.7,0.8,1.8,2,1.3c1.2-0.5,1-1.5,0.7-2.6
	c-0.7-2.4-2.5-3.8-4.3-5C589.8,433.6,576.8,432.2,563.3,430.9L563.3,430.9z"/>
<path class="st12" d="M648.2,565.9c-0.1-0.4-0.1-0.8-0.2-1.2c2.7-8.9,8.1-15.5,16.9-19c2.8-1.1,5.7-1.6,8.6-2.1
	c0.6-0.1,1.1,0.1,1.3,0.7c-0.9,1.1-2.3,1.4-3.5,2c-5.7,2.6-10.8,6.2-15.2,10.7C653.3,559.8,650.9,563,648.2,565.9L648.2,565.9z"/>
<path class="st2" d="M568.1,587.2c4.5-2.8,9.2-5.4,14.3-7c7.5-2.4,15.2-3.3,23.1-1.9c1.7,0.3,3.4,0.3,5.1,0.4
	c0.7,0.3,2.2-0.1,1.9,1.3c-0.2,0.9-1.5,0.5-2.2,0.4c-5-0.7-10-1.8-15-1.3c-10,0.8-19.2,3.9-27.1,10.3c-0.5,0.4-0.9,1.4-1.7,0.5
	c-0.7-0.7,0.3-1.1,0.5-1.6C567.2,587.8,567.7,587.6,568.1,587.2L568.1,587.2z"/>
<path class="st2" d="M158.1,540.8c3.5,1.9,7.4,2.8,10.9,4.8c8.1,4.7,15.4,10.4,21.3,17.8c0.3,0.3,0.7,0.5,1.1,0.8
	c0.2,0.4,0.4,0.8,0.7,1.2c0.4,0.6,0.1,1-0.4,1.3c-0.6,0.3-0.6-0.4-0.9-0.6c-3.2-3-5.3-7-9-9.5c-2.6-2.8-5.7-4.9-8.9-6.9
	c-0.1-0.1-0.3-0.2-0.4-0.2c-0.4-0.6-0.9-1-1.7-1.2c-3.9-3.2-8.8-4.2-13.4-5.9c-0.7-0.3-2.2,0.4-2.1-0.9c0.1-1,1.5-0.6,2.3-0.7
	C157.8,540.7,157.9,540.8,158.1,540.8L158.1,540.8z"/>
<path class="st2" d="M648.2,565.9c2.7-3,5.1-6.1,7.8-9c4.4-4.6,9.5-8.1,15.2-10.7c1.2-0.6,2.6-0.8,3.5-2c0.6,0,1.2-0.1,1.9-0.1
	c-0.2,2-2.1,2-3.3,2.7c-1.9,1-4,1.5-5.7,2.9c-1,0.5-2,0.9-2.7,1.8h-0.1c-1.2,0.5-2.4,1.1-3.1,2.3c-5.2,4.2-10,8.7-12.7,15
	c-0.2,0.5-0.4,0.8-0.9,0.7c-0.6-0.1-0.6-0.6-0.5-1C647.8,567.6,648,566.8,648.2,565.9L648.2,565.9z"/>
<path class="st4" d="M172.8,549.6c3.2,1.9,6.4,4,8.9,6.9C178.3,556.2,173.6,552.6,172.8,549.6z"/>
<path class="st4" d="M170.7,548.3c0.8,0.1,1.3,0.5,1.7,1.2C171.5,549.5,170.7,549.5,170.7,548.3z"/>
<path class="st2" d="M408.9,372.4c0.8-0.9,1.1-2.5,3.2-2.4c-3.8,5.6-5.2,11.3-2.5,17.6c-1.6-0.5-3.5-2.5-4.1-5.5
	c-0.6-3-3-1.9-4.5-2.1c-1.5-0.2-0.8,1.6-1,2.5c-0.7,2.6-1.1,5.3-2.6,7.6c-0.5,0.8-0.9,1.7-2.2,1.6c4.1-9.3,3.5-15.5-2-20.1
	c2-0.3,4.7,1.4,5.7,4c1.1,2.8,3,3.6,5.7,3.3c1.2,0.2,2.3,0.2,2.7-1.3C407.7,375.8,408.3,374.1,408.9,372.4L408.9,372.4z"/>
<path class="st2" d="M383.7,355.7c0-2.9,1.2-4.2,3.7-4.3c2.4,0,4.1,1.8,4,4.3c-0.1,2.8-1.6,4.5-3.9,4.5
	C385.1,360.2,383.7,358.4,383.7,355.7L383.7,355.7z"/>
<path class="st2" d="M419.8,355.3c0,2.6-2,4.8-4.1,4.8c-2.1,0-3.6-1.9-3.6-4.5c0-2.7,1.6-4.5,4-4.5
	C418.2,350.9,419.8,352.7,419.8,355.3L419.8,355.3z"/>
<path class="st3" d="M380.4,389.2c0.1,1.6-0.9,2.7-3,2.8c-2.8,0.1-4.1-1.3-4.2-4.1c-0.1-2.4,1.9-2.5,3.2-2.9
	C377.7,384.6,380.4,387.3,380.4,389.2L380.4,389.2z M376.5,390.5c1.6,0,2.5-0.2,2.6-1.5c0-1.8-1.5-2.2-2.7-2.6
	c-0.7-0.2-2,0.4-1.9,1.7C374.5,389.7,375.3,390.6,376.5,390.5L376.5,390.5z"/>
<path class="st7" d="M404,361.1c1,0.1,1.5,1.2,1.5,2.4c0.1,1.7-2,3.5-3.8,3.5c-2,0-3-1.4-3.5-3.1C397.9,362.6,400.9,361,404,361.1
	L404,361.1z M404.2,363.7c-0.2-1-0.8-1.7-1.6-1.4c-1,0.4-3,0-2.9,1.8c0,1.2,1.2,2.1,2.5,2C403.4,366,404,364.9,404.2,363.7z"/>
<path class="st2" d="M430.9,381.9c-1.6-0.2-3.4-0.1-3.5-2.2c-0.1-1.6,1.2-2.8,2.5-2.7c1.7,0.1,2.2,1.9,2.4,3.4
	C432.5,381.3,432.1,382.2,430.9,381.9L430.9,381.9z M431.1,379.9c-0.4-0.5-0.8-1.3-1.4-1.6c-0.3-0.2-1.1,0.5-1.1,1.2
	c0,0.8,0.5,1.3,1.4,1.2C430.5,380.7,431.1,380.9,431.1,379.9L431.1,379.9z"/>
<path class="st3" d="M383.3,390.7c-1.1-0.1-0.5,2.1-1.8,1.2c-0.6-0.5-0.5-1.6,0-2.2c0.7-0.8,1.7-1,2.7-0.5c0.6,0.3,0.7,1,0.9,1.6
	c0.2,0.7,0.5,1.6-0.5,1.8c-0.9,0.2-0.6-0.9-0.9-1.4C383.5,391.1,383.4,390.9,383.3,390.7L383.3,390.7z"/>
<path class="st2" d="M422.8,387.8c0-1.1,0-2.3,1.5-2.3c1.4,0,1.6,1.4,1.7,2.4c0.2,1.2-0.8,1.4-1.8,1.5
	C423.2,389.4,422.6,389,422.8,387.8z"/>
<path class="st13" d="M408.9,372.4c-0.6,1.8-1.1,3.5-1.7,5.2c-0.4,1.5-1.5,1.5-2.7,1.3C405.3,376.3,406.4,373.9,408.9,372.4
	L408.9,372.4z"/>
<path class="st2" d="M440.9,313.6c-0.2-0.3-0.4-0.5-0.6-0.8c6.9-12.9,15.6-23.9,29-30.7c2-1,4.2-1.4,6.4-1.8c1-0.2,2.2-0.2,1.8,1.5
	c-0.2,0-0.3,0-0.5,0.1c-5.6-0.7-9.9,2.3-14,5.3c-8.1,5.9-14.4,13.6-19.6,22.2C442.6,310.8,441.8,312.2,440.9,313.6L440.9,313.6z"/>
<path class="st6" d="M661.7,553.8c0.7-1.2,1.9-1.8,3.1-2.3C664.9,553.8,663.3,553.9,661.7,553.8z"/>
<path class="st6" d="M664.9,551.5c0.7-0.9,1.7-1.3,2.7-1.8C667.6,551.7,666.3,551.7,664.9,551.5z"/>
<path class="st2" d="M365.2,330.3c-1,0.1-1.3-0.7-1.7-1.4c-8.3-15.5-21.8-23.6-38.6-26.7c-3.6-0.7-7.2,0.1-10.8,0.2
	c-0.1-1.1,0.7-1,1.4-1.1c8.8-1.3,17.1,0.6,25,4.4c9.9,4.8,18.1,11.5,23.4,21.4C364.5,328.1,365.2,329.1,365.2,330.3z"/>
<path class="st12" d="M296.1,435.1c-6.5,2.5-13,5-19,8.6c-8.9,5.3-18,10.5-25.4,18c-1.5,1.5-3,3.1-3.5,5.1c-0.6,2.4-2,2.1-3.5,1.7
	c-1.9-0.5-3.9-1-3.3-3.7c0.7-3.4,2.8-6.1,5.2-8.4c7.1-6.9,15.4-11.7,24.6-15c8-2.9,16.3-4.7,24.6-6.4L296.1,435.1L296.1,435.1z"/>
<path class="st11" d="M289.8,444.4c-9,7.4-18,15-28.4,20.5c-3.1,1.6-6.3,2.8-9.7,3.5c-0.8,0.2-1.7,0.9-2.3,0.1
	c-0.6-0.8,0.1-1.7,0.6-2.5c2.4-3.6,5.6-6.4,9-9c1.1-0.9,2.4-1.6,3.7-2.3c5-1.2,9.4-4,14.2-5.7C281.2,447.3,285.1,444.7,289.8,444.4
	L289.8,444.4z"/>
<path class="st12" d="M289.8,444.4c-4.7,0.4-8.6,3-12.9,4.6c-4.8,1.8-9.2,4.5-14.2,5.7c4-3.5,8.5-6.1,13-8.6
	c6.4-3.5,13-6.9,19.9-9.2c1-0.3,2-1,3.7-0.4C296,439.2,292.9,441.8,289.8,444.4L289.8,444.4z"/>
<path class="st12" d="M296,434.9c0.5-0.5,1.1-0.5,2.1-0.1c-0.8,0.1-1.4,0.2-1.9,0.3L296,434.9L296,434.9z"/>
<path class="st11" d="M512.9,484.1c2.9,2.9,5.5,5.9,7.3,9.7c0.5,1.1,1,2.2,0.2,3.3c-0.8,1-2,0.8-3.1,0.5c-9-2.3-17.2-6-23.1-13.6
	c-2.4-3.1-4.9-6.2-6.9-9.7c0.6-0.8,1.4-0.8,2.2-0.5c7.2,2.1,14.4,3.9,20.3,9C510.6,483.5,511.6,484.1,512.9,484.1L512.9,484.1z"/>
<path class="st12" d="M522.5,494.9c-2.7-5.5-6.6-10-11-14.1c-6.3-5.9-13.8-9.9-21.8-13.1c-2.1-0.8-4-2.1-6.4-2.3
	c-1.3-0.1-1.5-1.4-1.4-2.3c0.1-1.3,1.2-0.5,1.7-0.4c14.5,2.7,28,7.4,37.3,19.9C523.5,486,524.3,492.1,522.5,494.9L522.5,494.9z"/>
<path class="st12" d="M512.9,484.1c-1.3,0-2.2-0.6-3.1-1.4c-5.9-5-13.2-6.9-20.3-9c-0.8-0.2-1.6-0.3-2.2,0.5c-1-1.8-2.1-3.6-3.1-5.4
	c-0.2-0.5-0.7-1-0.3-1.5c0.5-0.5,1.2-0.3,1.8,0c8.7,3.3,16.9,7.4,24,13.5C510.7,481.9,512.2,482.6,512.9,484.1L512.9,484.1z"/>
<path class="st12" d="M379.1,453.2c2.6,5.8-0.2,9.8-3.6,13.9c-6.6,8.1-10.4,17.5-11.9,27.8c-0.3,2.1-0.6,4.1-0.6,6.2
	c0,2.1-1.1,2.7-2.9,1.5c-2.1-1.5-3.3-3.5-2.8-6.3c1.7-10,5.2-19.1,10.9-27.6C371.7,463.6,375.5,458.6,379.1,453.2L379.1,453.2z"/>
<path class="st11" d="M378.5,485.9c-0.3,8.1-5.3,12.9-11.6,16.8c-1.6,1-2.8,0.5-2.7-1.6c0.2-4.1,0.8-8.2,2.2-12.1
	c2.1-1.3,2.1-3.8,3.4-5.6c2.4-3.4,4.5-7,7.8-10.2C377.9,477.7,378.2,481.8,378.5,485.9L378.5,485.9z"/>
<path class="st12" d="M378.5,485.9c-0.3-4.1-0.6-8.2-0.9-12.7c-3.3,3.2-5.4,6.8-7.8,10.2c-1.3,1.8-1.3,4.3-3.4,5.6
	c1.3-7.7,5-14.2,9.5-20.3c0.7-0.9,1.4-1.9,2.1-2.8c0.4-0.5,0.7-1.5,1.6-1.2c0.7,0.3,0.8,1.2,0.8,1.9c0.2,6.3,0.1,12.6-1.4,18.8
	C379,485.6,378.7,485.8,378.5,485.9L378.5,485.9z"/>
<path class="st11" d="M332.5,464c-2.9,0-8.1-3.9-8.6-6.4c-0.1-0.3,0-0.7,0.2-1c1.9-3.6,3.8-7.2,5.8-10.7c1.3-2.3,2.3-2.3,4.2-0.5
	c0.9,0.9,1.8,1.8,2.7,2.6c0.1,0.5,0,1.1,0.3,1.5c1.5,2.6,1.1,5.1-0.5,7.3C335.1,459.2,334,461.7,332.5,464L332.5,464z"/>
<path class="st12" d="M332.5,464c1.5-2.3,2.5-4.9,4.2-7.1c1.6-2.2,2-4.7,0.5-7.3c-0.2-0.4-0.2-1-0.3-1.5c4.1,2.4,4.3,2.9,3.3,7.6
	c-0.5,2.7-1.1,5.3-3.1,7.3C335.7,464.4,334.3,464.9,332.5,464z"/>
<path class="st11" d="M538.5,456.3c0.3,1.7,1.7,2.6,2.3,4.2c1.3,3.3,0.9,6.1-1.3,8.7c-3.2,0.4-4.8-2.5-7.3-3.5
	c-1.3-0.5-0.1-6.4,1.4-7.1C535.2,457.7,536.9,457,538.5,456.3L538.5,456.3z"/>
<path class="st11" d="M341.9,477.2c-1.5,0.4-3.2,0.7-3.5-1.5c-0.4-3.3,0.1-3.8,3.3-4.1C341.8,473.4,341.9,475.3,341.9,477.2z"/>
<path class="st12" d="M341.9,477.2c0-1.9-0.1-3.8-0.2-5.6c0.8-0.8,1.5-0.7,1.8,0.3c0.4,1.2,0.8,2.5,0.9,3.9
	C344.6,477.6,342.8,476.8,341.9,477.2L341.9,477.2z"/>
<path class="st11" d="M547.2,477.4c0.7,1.4,0.2,3.2,1.1,4.5c-1.5,1.1-2.7,0.5-3.4-1C543.9,478.6,546,478.3,547.2,477.4L547.2,477.4z
	"/>
<path class="st12" d="M559.1,464.1c1.1,0.1,1.4,0.9,1.3,1.7c-0.1,1-0.8,1.3-1.8,1.2c-0.8-0.1-1.6-0.4-1.6-1.5
	C557.2,464.2,558.3,464.4,559.1,464.1L559.1,464.1z"/>
<path class="st12" d="M563.3,431c13.5,1.2,26.5,2.6,37.7,10.5c1.8,1.3,3.7,2.7,4.3,5c0.3,1,0.5,2-0.7,2.6c-1.2,0.5-1.5-0.6-2-1.3
	c-3.6-4.6-8.7-6.9-14-9c-7.5-3-15.1-5.6-23.2-6C564.6,432.7,563.9,432.4,563.3,431L563.3,431z"/>
<path class="st11" d="M591.4,441.4c3.5,1.4,6.7,3.2,9.3,6c0.5,0.5,1.3,0.9,0.8,1.8c-0.5,0.7-1.3,0.6-2,0.5c-1.9-0.3-3.7-0.6-5.5-1.2
	c-5.9-1.8-11.6-3.9-16.7-7.5c2.7-1.4,5.4,0,8.1,0.2C587.4,441.3,589.4,442.8,591.4,441.4L591.4,441.4z"/>
<path class="st12" d="M591.4,441.4c-2.1,1.4-4.1-0.1-6.1-0.2c-2.7-0.1-5.4-1.5-8.1-0.2c-3.2-2.2-7-3.7-9.8-6.6l0,0
	c7.3-0.1,13.6,3.4,20.3,5.3C589,440.2,590.4,440.5,591.4,441.4L591.4,441.4z"/>
<path class="st12" d="M567.4,434.5c-0.2-0.1-0.5-0.1-0.7-0.2c0.1-0.1,0.2-0.2,0.2-0.2C567.1,434.2,567.2,434.3,567.4,434.5
	L567.4,434.5z"/>
<path class="st9" d="M376.5,390.5c-1.2,0.1-2-0.8-2.1-2.4c0-1.4,1.2-1.9,1.9-1.7c1.1,0.4,2.7,0.8,2.7,2.6
	C379,390.3,378.1,390.6,376.5,390.5L376.5,390.5z"/>
<path class="st10" d="M404.2,363.7c-0.2,1.2-0.8,2.4-2.1,2.5c-1.2,0.1-2.4-0.9-2.5-2c-0.1-1.8,1.9-1.4,2.9-1.8
	C403.4,361.9,404.1,362.7,404.2,363.7z"/>
<path class="st13" d="M431.1,379.9c0,1-0.6,0.9-1.1,0.9c-0.9,0-1.4-0.5-1.4-1.2c0-0.7,0.8-1.4,1.1-1.2
	C430.3,378.6,430.7,379.4,431.1,379.9L431.1,379.9z"/>
</svg>
