<?xml version="1.0" encoding="utf-8"?>
<!-- Generator: Adobe Illustrator 26.0.3, SVG Export Plug-In . SVG Version: 6.00 Build 0)  -->
<svg version="1.1" id="Layer_1" xmlns="http://www.w3.org/2000/svg" xmlns:xlink="http://www.w3.org/1999/xlink" x="0px" y="0px"
	 viewBox="0 0 692.6 748.7" style="enable-background:new 0 0 692.6 748.7;" xml:space="preserve">
<style type="text/css">
	.st0{fill:#FFFFFF;}
	.st1{fill:#E6E6E6;}
	.st2{fill:#3F3D56;}
	.st3{fill:#EF4600;}
</style>
<ellipse transform="matrix(0.7071 -0.7071 0.7071 0.7071 -36.37 417.1742)" class="st0" cx="485.4" cy="252.5" rx="75.4" ry="75.4"/>
<path class="st0" d="M692.1,308.7c0.2,0,0.3-0.1,0.5-0.1c-0.1-0.3-0.2-0.6-0.3-1c-0.2,0.3-0.5,0.7-0.7,1L692.1,308.7z"/>
<path class="st1" d="M186.6,430.9c0.4,16.4,3.2,32.7,8.2,48.4c0.1,0.4,0.2,0.7,0.4,1.1h30.5c0-0.3-0.1-0.7-0.1-1.1
	c-2-23.4-13.8-165.9,0.3-190.2C224.6,291,184.3,356.5,186.6,430.9z"/>
<path class="st1" d="M188.9,479.3c0.3,0.4,0.5,0.7,0.8,1.1h22.9c-0.2-0.3-0.4-0.7-0.6-1.1c-3.8-6.8-15-27.2-25.4-48.4
	c-11.2-22.7-21.4-46.4-20.6-54.9C165.8,377.9,158.1,436.6,188.9,479.3z"/>
<path class="st1" d="M426.9,483.2c-0.4,14.3-2.8,28.5-7.1,42.2c-0.1,0.3-0.2,0.6-0.3,0.9h-26.6c0-0.3,0.1-0.6,0.1-0.9
	c1.8-20.4,12-144.6-0.2-165.8C393.8,361.3,429,418.4,426.9,483.2z"/>
<path class="st1" d="M424.9,525.4c-0.2,0.3-0.5,0.6-0.7,0.9h-20c0.2-0.3,0.3-0.6,0.5-0.9c3.3-6,13.1-23.8,22.1-42.2
	c9.7-19.8,18.7-40.4,17.9-47.9C445.1,437,451.8,488.2,424.9,525.4z"/>
<path class="st2" d="M122.6,61.2l12.4-9.9c-9.6-1.1-13.6,4.2-15.2,8.4c-7.5-3.1-15.7,1-15.7,1l24.8,9
	C127.6,66.2,125.4,63.3,122.6,61.2z"/>
<path class="st2" d="M496.5,10.1l12.4-9.9c-9.6-1.1-13.6,4.2-15.2,8.4c-7.5-3.1-15.7,1-15.7,1l24.8,9
	C501.5,15.1,499.3,12.2,496.5,10.1z"/>
<path class="st2" d="M679.1,402.7c0,8.2-0.3,16.4-0.9,24.5c-4.4,63.8-26.6,125.2-63.9,177.1c-4.9,6.8-10,13.4-15.4,19.9
	c-13.9,16.7-29.4,32-46.2,45.8l-73.6-43.2l-44-102.7c0,0,65.6-132.9,243.8-130.5C679.1,396.7,679.1,399.7,679.1,402.7z"/>
<path class="st3" d="M678.2,427.2c-6.8,96.5-53.7,185.6-129.3,246L480.6,633l-39-91.1C441.6,542,504.8,414,678.2,427.2z"/>
<path class="st2" d="M614.3,604.3c-4.9,6.8-10,13.4-15.4,19.9c-36,43.2-82,77.1-134,98.5c-10.5,4.3-21.3,8.2-32.3,11.5
	c-79.6,21.2-164,15.8-240.2-15.3c-75.5-33.7-136.4-93.2-172-167.7c-4.8-10-9.1-20.3-12.9-30.9c66.5-48.7,197.6-118.5,340.5-50.7
	c39.5,18.8,74.8,35.9,105.9,51.3C532.7,559.9,585.1,588.1,614.3,604.3z"/>
<path class="st3" d="M598.9,624.2c-122.5,146.8-340.9,166.6-487.7,44c-38.4-32-69.3-71.9-90.8-117C76,507.3,204.1,428.3,344.7,495
	c36.2,17.2,68.5,32.8,96.9,46.9C524.4,583,575.4,610.9,598.9,624.2z"/>
<path class="st2" d="M500.9,705.4c-11.6,6.4-23.6,12.2-35.9,17.3c-41.8,17.2-86.7,26.1-131.9,26c-108.5,0-210.8-51-276.2-137.6
	C139.5,602.5,367.9,590.7,500.9,705.4z"/>
<path class="st3" d="M465,722.7c-132.8,54.6-285.5,21.6-384-82.9C111.1,635.4,347.1,605,465,722.7z"/>
<path class="st1" d="M621.1,210.8L621.1,210.8C374,28.1,90.9,156.7,88.7,157.7v0c64.8-64.8,152.7-101.1,244.4-101
	C453.2,56.6,559,117.9,621.1,210.8z"/>
<ellipse transform="matrix(0.9841 -0.1774 0.1774 0.9841 -43.9608 18.3589)" class="st2" cx="80.7" cy="255" rx="76.9" ry="156.9"/>
<path class="st3" d="M119.3,509c-2.5-187.3-65.2-363.1-65.8-364.9l-5.7,2.1c0.6,1.7,63,176.6,65.4,362.9L119.3,509z"/>
<rect x="41.6" y="209.4" transform="matrix(0.3077 -0.9515 0.9515 0.3077 -205.8324 214.7081)" class="st3" width="6.1" height="78.9"/>
<rect x="80.7" y="251.1" transform="matrix(0.7839 -0.6208 0.6208 0.7839 -131.8083 129.5201)" class="st3" width="78.9" height="6.1"/>
<ellipse class="st2" cx="309.5" cy="212.6" rx="83.2" ry="169.8"/>
<path class="st3" d="M301.8,490.5c33.3-200,0.3-399.2,0-401.2l-6.5,1.1c0.3,2,33.1,200.2,0,399L301.8,490.5z"/>
<rect x="269" y="156.4" transform="matrix(0.4717 -0.8818 0.8818 0.4717 -31.6918 345.3122)" class="st3" width="6.6" height="85.3"/>
<rect x="309.1" y="216" transform="matrix(0.8816 -0.4719 0.4719 0.8816 -61.8494 191.9366)" class="st3" width="85.3" height="6.6"/>
<path class="st1" d="M671,327.8c-30.5-17.1-62.4-31.7-95.4-43.6c-182.1-65.9-362.8-40.5-433.4,53.8c55-115.6,251.3-151.9,449.4-80.2
	c23.1,8.3,45.6,18,67.6,28.9C664,300.1,667.9,313.8,671,327.8z"/>
<path class="st2" d="M425,141.8l12.4-9.9c-9.6-1.1-13.6,4.2-15.2,8.4c-7.5-3.1-15.7,1-15.7,1l24.8,9C430,146.9,427.8,144,425,141.8z
	"/>
</svg>
