<?xml version="1.0" encoding="utf-8"?>
<!-- Generator: Adobe Illustrator 26.0.3, SVG Export Plug-In . SVG Version: 6.00 Build 0)  -->
<svg version="1.1" id="Layer_1" xmlns="http://www.w3.org/2000/svg" xmlns:xlink="http://www.w3.org/1999/xlink" x="0px" y="0px"
	 viewBox="0 0 2268.5 1468.1" style="enable-background:new 0 0 2268.5 1468.1;" xml:space="preserve">
<style type="text/css">
	.st0{fill:#005C95;}
</style>
<g>
	<path class="st0" d="M1640.7,475.9c65.5,77.4,130.3,154,195.8,231.6c0-2.8,0-4.3,0-6c0-181.5,0-362.9-0.1-544.3
		c0-4.3,1.3-5.1,5.6-5.1c110,0.1,220,0.1,330.1,0c4.3,0,5.7,0.7,5.7,5.1c-0.3,26.9-0.2,53.7,0,80.6c0,3.7-0.8,4.8-5,4.8
		c-73.4-0.2-146.8-0.1-220.2-0.3c-4.6,0-5.4,1.3-5.4,5.3c0.2,44,0.2,87.9,0,131.9c0,3.7,0.8,4.8,5,4.8c72.8-0.2,145.6-0.1,218.4-0.2
		c4,0,5.1,0.8,5.1,4.8c-0.2,27.1-0.2,54.3,0,81.4c0,3.5-0.9,4.3-4.6,4.3c-72.9-0.1-145.8-0.1-218.9-0.2c-3.9,0-5.1,0.8-5.1,4.7
		c0.2,44.7,0.2,89.4,0,134c0,3.5,1,4.3,4.6,4.3c73.5-0.1,147.1-0.1,220.6-0.2c4.2,0,5.4,0.8,5.3,4.9c-0.3,26.9-0.3,53.7,0,80.6
		c0,4.2-1.3,5.3-5.4,4.8c-1.9-0.3-3.8-0.1-5.8-0.1c-108.3,0.1-216.5,0.1-324.7,0.2c-44.6,0-89.1,0-133.8,0.1c-3.1,0-5.1-0.8-7-3.2
		c-57.8-73.8-115.6-147.6-173.5-221.4c-2.6-3.3-3.7-6.5-3.6-10.7c0.2-29.9,0.2-59.8,0-89.8c0-3.5,0.6-4.8,4.7-4.8
		c37.2,0,74.4-0.3,111.6-0.4c33.5-0.2,64.5-24.4,69.2-55.4c5.7-37.7-16.5-67.8-56.6-74.7c-7.7-1.3-15.5-1.7-23.4-1.7
		c-39.7,0-79.5,0.1-119.2-0.1c-4.3,0-5.3,0.8-5.3,4.9c0.1,150.6,0.1,301.1,0.3,451.6c0,4.5-1.4,5.3-5.8,5.3
		c-33.4-0.2-66.7-0.2-100.1,0c-3.6,0-4.9-0.5-4.9-4.4c0.1-182.3,0.1-364.5,0-546.8c0-3.6,1.1-4.3,4.6-4.3
		c84.8,0.1,169.5-0.8,254.3,0.4c46,0.6,86.6,16.3,120.9,46.3c27.9,24.4,41.2,54.5,44.7,89.3c2.7,26.1,1.5,51.9-5.8,77.3
		c-7.4,25.7-22.9,46-43.9,63.6c-27.1,22.6-58.5,35.9-93.7,42.3C1664.2,473.3,1653.2,475.3,1640.7,475.9z"/>
	<path class="st0" d="M621.8,361.1c-2.6,6.5-5,12.5-7.3,18.5c-42.4,108-84.7,216-127,324c-1.2,3-2.7,3.8-5.9,3.8
		c-26.8-0.2-53.4-0.2-80.2,0c-3.1,0-4.5-0.8-5.7-3.6c-25.6-65.6-51.3-131.2-77-196.8c-18.6-47.5-37.2-95-55.8-142.5
		c-0.4-0.9-0.8-1.8-1.2-2.7c-1.4,0.4-1.2,1.5-1.4,2.3c-15.9,78.8-31.8,157.7-47.7,236.6c-6.9,34.4-13.8,68.7-20.6,103.1
		c-0.5,2.8-1.7,3.5-4.6,3.5c-36.8-0.1-73.5-0.1-110.3,0c-3.7,0-3.8-0.8-3.2-3.9c15.6-78.1,31-156.2,46.5-234.2
		c16.5-83.1,33.1-166.2,49.6-249.4c4.3-21.5,8.8-43.1,12.8-64.7c0.5-2.8,1.7-3.3,4.3-3.3c35.7,0.1,71.5,0.1,107.2,0
		c2.8,0,3.9,0.8,5,3.3c43.7,105.1,87.4,210.3,131.1,315.4c3.8,9.2,7.7,18.3,11.7,28c8.9-21.5,17.5-42.4,26.1-63.4
		c38.4-93.2,76.8-186.5,115.2-279.8c1.2-2.8,2.6-3.7,5.7-3.7c35.3,0.1,70.6,0.2,105.9,0c3.6,0,4.7,1.1,5.3,4.2
		c16.6,81.4,33.2,162.8,50,244.2c14.4,70.3,28.9,140.7,43.3,211c6.3,30.8,12.7,61.6,19.1,92.4c0.6,3.1-0.2,3.7-3.3,3.7
		c-38.1-0.1-76.2-0.1-114.3,0c-2.8,0-3.7-1-4.2-3.3c-7.7-38.7-15.5-77.5-23.3-116.2c-8.4-41.9-16.8-83.8-25.3-125.6
		c-6.7-33.3-13.4-66.6-20-99.9C622.5,362.2,622.3,362,621.8,361.1z"/>
	<path class="st0" d="M1119,474.7c0-75.8,0-151.7,0.1-227.5c0-4.1-1.2-4.9-5.3-4.9c-40.1,0.2-80,0.1-120.1,0.2
		c-3.5,0-4.3-0.8-4.3-4.1c0.2-27.4,0.2-54.8,0-82.3c0-3.1,0.6-4.2,4.3-4.2c120.2,0.1,240.4,0.1,360.5,0c3.5,0,4.4,0.8,4.4,4.1
		c-0.2,27.4-0.2,54.8,0,82.3c0,3.3-0.9,4.1-4.4,4.1c-40.1-0.1-80.3,0-120.5-0.2c-4.2,0-5,1.1-5,4.8c0.1,151.7,0.1,303.3,0.1,455
		c0,5.3,0,5.3-5.9,5.3c-33.1,0-66.1-0.1-99.2,0.1c-3.9,0-4.9-0.8-4.9-4.5C1119,626.9,1119,550.8,1119,474.7z"/>
	<path class="st0" d="M953.2,430.2c0,90.9,0,181.7,0.1,272.6c0,3.8-1.1,4.7-5.1,4.7c-33.7-0.2-67.3-0.2-101,0
		c-3.5,0-4.8-0.4-4.8-4.2c0.1-182.4,0.1-364.9,0-547.2c0-3.3,1.1-4.1,4.4-4.1c33.9,0.1,68,0.2,101.9,0c3.9,0,4.4,1.2,4.4,4.4
		C953.2,247.7,953.2,339,953.2,430.2z"/>
</g>
<g>
	<path d="M162.7,889.2c-3.2-11-9.7-22.2-23.4-22.2c-11,0-20.5,7.5-20.5,18.3c0,31.2,79.1,10.8,79.1,69.9c0,19.4-15.6,48.3-57.1,48.3
		c-32,0-55.1-14.7-60.3-45.6l33.7-4.7c3,13.4,10.4,23.4,26.4,23.4c13.2,0,24.2-6.5,24.2-20.2c0-31.8-79.1-13.4-79.1-67.4
		c0-28.5,25.5-48.9,54.7-48.9c28.5,0,49.9,17.3,52.8,44L162.7,889.2z"/>
	<path d="M353.2,921.8c0,39.9-21.4,81.7-69.4,81.7s-69.4-41.8-69.4-81.7s21.4-81.7,69.4-81.7S353.2,881.9,353.2,921.8z M249,921.8
		c0,20.4,5.8,56.6,34.8,56.6s34.8-36.3,34.8-56.6c0-20.4-5.8-56.6-34.8-56.6C254.8,865.2,249,901.4,249,921.8z"/>
	<path d="M406.8,974.2h70v26.9H373V842.5h33.7v131.7H406.8z"/>
	<path d="M544.1,1001.1h-30.7l-51.2-158.5H497l31.6,117.8h0.4l31.6-117.8h34.8L544.1,1001.1z"/>
	<path d="M605.3,1001.1V842.5H639V1001L605.3,1001.1L605.3,1001.1z"/>
	<path d="M711.6,842.5L762,947h0.4V842.5h33.7V1001H760l-63.6-127.4H696V1001h-33.7V842.5H711.6z"/>
	<path d="M886.1,946.5v-25.1h61.6v79.7h-23.6l-3.2-11.2c-9.5,10-24,13.7-35.2,13.7c-48,0-69.4-41.8-69.4-81.7s21.4-81.7,69.4-81.7
		c33.1,0,58.6,19,62,49.1l-30.3,4.3c-2.8-15.3-10.8-28.3-31.8-28.3c-29,0-34.8,36.3-34.8,56.6c0,20.4,5.8,56.6,34.8,56.6
		c26.2,0,30.9-14.1,29.6-32L886.1,946.5L886.1,946.5z"/>
	<path d="M1101.7,842.5c39.1,0,55.3,27.1,55.3,49.9c0,24-15.1,47.9-63.8,47.9h-22.7v60.7h-33.7V842.5H1101.7z M1077.4,913.4
		c18.4,0,45,2.9,45-22s-26.6-22-45-22h-6.9v44H1077.4z"/>
	<path d="M1239.4,842.5c38.7,0,53.8,26.1,53.8,46.3c0,17.3-11.5,33.4-28.5,39.9l33.5,72.3h-35.5l-30.3-65.8h-25.7v65.8H1173V842.5
		H1239.4z M1221.4,908.4c14.7,0,37.2,0.8,37.2-19c0-21.8-22.7-20-39.3-20h-12.5v38.9L1221.4,908.4L1221.4,908.4z"/>
	<path d="M1451,921.8c0,39.9-21.4,81.7-69.4,81.7s-69.4-41.8-69.4-81.7s21.4-81.7,69.4-81.7S1451,881.9,1451,921.8z M1346.8,921.8
		c0,20.4,5.8,56.6,34.8,56.6s34.8-36.3,34.8-56.6c0-20.4-5.8-56.6-34.8-56.6C1352.7,865.2,1346.8,901.4,1346.8,921.8z"/>
	<path d="M1470.9,1001.1V842.5h48.4c54.5,0,68.3,17.9,68.3,43.6c0,14.9-7.6,25.7-21.2,32.8c15.3,6.9,24.4,20.6,24.4,36.5
		c0,27.3-23.6,45.6-54.3,45.6h-65.6V1001.1z M1504.7,906.9c24.9,0,48.4,2.6,48.4-19.2c0-22.6-24.6-20.2-48.4-20.2V906.9z
		 M1526.5,976c10.2,0,29.8,1.2,29.8-22.8c0-21.6-19-24.5-51.7-22.2v45H1526.5z"/>
	<path d="M1644.5,974.2h70v26.9h-103.8V842.5h33.7v131.7H1644.5z"/>
	<path d="M1835.9,869.4H1765v37.9h58.8v26.9H1765v39.9h75v26.9h-108.8V842.5h104.6L1835.9,869.4L1835.9,869.4z"/>
	<path d="M1966.5,842.5h55.3V1001h-33.7V874.7h-0.4l-31.1,126.3h-30.3l-31.1-126.3h-0.4V1001h-33.7V842.5h55.3l24.9,113.7h0.4
		L1966.5,842.5z"/>
	<path d="M2123.6,889.2c-3.2-11-9.7-22.2-23.3-22.2c-11,0-20.5,7.5-20.5,18.3c0,31.2,79.1,10.8,79.1,69.9
		c0,19.4-15.6,48.3-57.1,48.3c-32,0-55.1-14.7-60.3-45.6l33.7-4.7c3,13.4,10.4,23.4,26.4,23.4c13.2,0,24.2-6.5,24.2-20.2
		c0-31.8-79.1-13.4-79.1-67.4c0-28.5,25.5-48.9,54.7-48.9c28.5,0,49.9,17.3,52.8,44L2123.6,889.2z"/>
	<path d="M188.9,1114H118v37.9h54.7v26.9H118v66.8H84.3v-158.5h104.6L188.9,1114L188.9,1114z"/>
	<path d="M336.8,1166.3c0,39.9-21.4,81.7-69.4,81.7s-69.4-41.8-69.4-81.7c0-39.9,21.4-81.7,69.4-81.7
		C315.4,1084.6,336.8,1126.4,336.8,1166.3z M232.5,1166.3c0,20.4,5.8,56.6,34.8,56.6s34.8-36.3,34.8-56.6c0-20.4-5.8-56.6-34.8-56.6
		C238.4,1109.7,232.5,1145.9,232.5,1166.3z"/>
	<path d="M418.7,1087.1c38.7,0,53.8,26.1,53.8,46.3c0,17.3-11.5,33.4-28.5,39.9l33.5,72.3H442l-30.3-65.8H386v65.8h-33.7v-158.5
		L418.7,1087.1L418.7,1087.1z M400.8,1152.9c14.7,0,37.2,0.8,37.2-19c0-21.8-22.7-20-39.3-20h-12.5v38.9L400.8,1152.9L400.8,1152.9z
		"/>
	<path d="M680.5,1245.6h-34.4l-11-39.7h-49.7l-11,39.7H540l47.1-158.5h45.4L680.5,1245.6z M610.7,1114.4h-0.9l-17.7,66.4h36.3
		L610.7,1114.4z"/>
	<path d="M827.5,1133.7c-3.2-11-9.7-22.2-23.4-22.2c-11,0-20.5,7.5-20.5,18.3c0,31.2,79.1,10.8,79.1,69.9
		c0,19.4-15.6,48.3-57.1,48.3c-32,0-55.1-14.7-60.3-45.6l33.7-4.7c3,13.4,10.4,23.4,26.4,23.4c13.2,0,24.2-6.5,24.2-20.2
		c0-31.8-79.1-13.4-79.1-67.4c0-28.5,25.5-48.9,54.7-48.9c28.5,0,49.9,17.3,52.8,44L827.5,1133.7z"/>
	<path d="M1005.2,1245.6h-34.4l-11-39.7h-49.7l-11,39.7h-34.4l47.1-158.5h45.4L1005.2,1245.6z M935.4,1114.4h-0.9l-17.7,66.4h36.3
		L935.4,1114.4z"/>
	<path d="M1115.5,1114h-70.9v37.9h54.7v26.9h-54.7v66.8h-33.7v-158.5h104.6V1114z"/>
	<path d="M1232.5,1114h-70.9v37.9h58.8v26.9h-58.8v39.9h75v26.9h-108.8v-158.5h104.6L1232.5,1114L1232.5,1114z"/>
	<path d="M1319.6,1087.1c38.7,0,53.8,26.1,53.8,46.3c0,17.3-11.5,33.4-28.5,39.9l33.5,72.3h-35.5l-30.3-65.8h-25.7v65.8h-33.7
		v-158.5L1319.6,1087.1L1319.6,1087.1z M1301.6,1152.9c14.7,0,37.2,0.8,37.2-19c0-21.8-22.7-20-39.3-20H1287v38.9L1301.6,1152.9
		L1301.6,1152.9z"/>
	<path d="M1591.1,1245.6h-34.6L1534,1136h-0.4l-22.7,109.6h-34.6l-35.5-158.5h33.3l20.1,111.7h0.4l21-111.7h37.2l21,111.7h0.4
		l21.8-111.7h33.3L1591.1,1245.6z"/>
	<path d="M1770.6,1166.3c0,39.9-21.4,81.7-69.4,81.7s-69.4-41.8-69.4-81.7c0-39.9,21.4-81.7,69.4-81.7
		C1749.2,1084.6,1770.6,1126.4,1770.6,1166.3z M1666.4,1166.3c0,20.4,5.8,56.6,34.8,56.6s34.8-36.3,34.8-56.6
		c0-20.4-5.8-56.6-34.8-56.6C1672.2,1109.7,1666.4,1145.9,1666.4,1166.3z"/>
	<path d="M1852.5,1087.1c38.7,0,53.8,26.1,53.8,46.3c0,17.3-11.5,33.4-28.5,39.9l33.5,72.3h-35.5l-30.3-65.8h-25.7v65.8h-33.7
		v-158.5L1852.5,1087.1L1852.5,1087.1z M1834.6,1152.9c14.7,0,37.2,0.8,37.2-19c0-21.8-22.7-20-39.3-20H1820v38.9L1834.6,1152.9
		L1834.6,1152.9z"/>
	<path d="M1958,1218.7h70v26.9h-103.8v-158.5h33.7v131.6H1958z"/>
	<path d="M2081.5,1087.1c64,0,86.7,34.2,86.7,79.3c0,44.6-24.9,79.3-75,79.3h-52.8v-158.5h41.1V1087.1z M2090.5,1218.7
		c26.8,0,43-15.9,43-56c0-33.2-15.1-48.7-46.7-48.7H2074v104.7H2090.5z"/>
</g>
<g>
	<path d="M2159.7,1086.3h-6.2v18.7h-4.8v-18.7h-6.2v-3.8h17.2V1086.3z"/>
	<path d="M2176.6,1082.5h7.9v22.6h-4.8v-18h-0.1l-4.4,18h-4.3l-4.4-18h-0.1v18h-4.8v-22.6h7.9l3.5,16.2h0.1L2176.6,1082.5z"/>
</g>
</svg>
