<?xml version="1.0" encoding="utf-8"?>
<!-- Generator: Adobe Illustrator 26.5.0, SVG Export Plug-In . SVG Version: 6.00 Build 0)  -->
<svg version="1.1" id="Layer_1" xmlns="http://www.w3.org/2000/svg" xmlns:xlink="http://www.w3.org/1999/xlink" x="0px" y="0px"
	 viewBox="0 0 2100 1500" style="enable-background:new 0 0 2100 1500;" xml:space="preserve">
<style type="text/css">
	.st0{fill:#343F48;}
	.st1{fill:#727A81;}
	.st2{fill:#3B474F;}
	.st3{fill:#8E959A;}
	.st4{fill:#FBFBFB;}
	.st5{fill:#FDFEFE;}
	.st6{fill:#FDFDFE;}
	.st7{fill:#FD5C39;}
	.st8{fill:#FDFDFD;}
	.st9{fill:#49C4B1;}
	.st10{fill:#36424B;}
</style>
<g>
	<g>
		<path class="st0" d="M1390,234.1c12,0,24,0,36,0c0.6,1.1,1.7,0.8,2.7,0.9c24,2.3,46,10.1,66.1,23.3c8.5,5.6,8.8,5.9,15.8-1.8
			c10.5-11.4,23.1-17.3,38.8-17.3c132.2,0.1,264.4,0,396.6,0.1c26.6,0,45,16.4,48.2,42.8c0,27,0,54,0,81
			c-1.2,12.3-6.4,22.5-15.3,31.1c-9.7,9.4-19,19.1-28.7,28.5c-2.7,2.6-3.5,5.2-3.5,8.7c0.1,52.1,0,104.3,0.1,156.4
			c0.1,15.2-5,27.7-15.8,38.5c-26.6,26.2-52.8,52.7-79.2,79.1c-1.2,1.2-2.4,2.6-4.3,4.6c2.5,0,4.1,0,5.7,0c19.2,0,38.3-0.2,57.5,0.1
			c22.1,0.3,39.1,20.9,35.7,42.7c-4.2,26.8-8.4,53.6-12.6,80.4c-0.8,4.8-1.3,9.6-3,14.1c-5.6,15-19.2,24.1-36.6,24.3
			c-8.9,0.1-17.8,0-26.7,0c-0.2,0.4-0.5,0.8-0.7,1.3c1.2,1,2.6,1.9,3.7,3c16.9,16.2,29.8,34.9,36,57.7c7.3,27,5.4,54.1-2.7,80.3
			c-19.8,64.3-61.7,106.3-128,122.3c-6.8,1.7-13.9,2.5-20.8,3.7c-1,0-2,0-3,0c-4-2.4-8.4-0.9-12.5-0.9
			c-516.8-0.1-1033.5-0.1-1550.3-0.1c-1.4,0-3.1-0.8-4,1c-0.3,0-0.7,0-1,0c-0.2-0.3-0.3-0.7-0.5-0.7c-16.7-3.8-26.9-14-30.7-30.7
			c-0.1-0.2-0.5-0.4-0.7-0.6c0-3.7,0-7.3,0-11c0.9-0.4,0.9-1.3,1-2.1c4.4-27.8,8.8-55.5,13.1-83.3c2.8-17.8,14.5-30.1,31.9-33
			c6.8-1.1,13.6-0.3,20.5-0.5c5.5-0.1,11.1,0,16.6,0c0.2-0.5,0.4-0.9,0.6-1.4c-1.9-1.6-3.9-3.1-5.7-4.8c-1.9-1.8-3.7-3.8-5.5-5.8
			c-22.5-24.5-36-52.9-35.4-86.5c0.9-54,23.7-98.1,63.3-134c1.1-1,3-1.5,3.1-3.7c-1.9,0-3.8,0-5.6,0c-19.8,0-39.7,0.1-59.5,0
			c-19.6-0.2-35.1-13.7-37.5-32.6c0-28.1,0-56.1,0-84.2c0.8-8.4,4.4-15.6,10.3-21.6c8.8-9.1,19.9-12,33.5-11.2
			c-26.1-24.2-41.5-52.4-43.8-87c0-6.7,0-13.4,0-20.1c3-32.4,14.4-61.4,36.4-85.7c25.2-27.9,57.5-39,94.4-39
			c256.3,0,512.6-0.1,768.8,0.1c45.4,0,87.3,11.3,122.6,41.5c2.2,1.9,2.9,0.8,4.2-0.8c5.1-6.6,10.3-13.1,16.2-19
			c35.6-35.6,71-71.3,106.8-106.7c18.1-18,39.7-30.1,64.5-36.3C1374.5,237.1,1382.2,235.7,1390,234.1z M1437.5,627.6
			c0.3,1.3,0.5,2.3,0.7,3.2c0.2,1,0.5,1.9,0.8,2.9c9.8,38,33.1,62.7,71.7,71.8c24,5.6,48.2,5.4,72.3-0.4
			c17.3-4.2,32.6-12.1,45.3-24.9c24.3-24.5,48.7-48.8,73.1-73.2c1-1,1.7-2.4,3.9-2.7c0,1.9,0,3.7,0,5.5c0,27.7,0,55.3,0,83
			c0,8.9,2.5,11.4,11.2,11.4c25.5,0,51-0.1,76.5,0.1c4.9,0,8.5-1.5,11.9-4.9c32.9-33.1,65.9-66.1,99-99c3.7-3.7,5.3-7.5,5.3-12.7
			c-0.2-57.2-0.1-114.3-0.2-171.5c0-3.8,1.2-6.5,3.9-9.1c13.3-13.1,26.4-26.4,39.7-39.5c2.9-2.9,4.3-6,4.3-10.2
			c-0.1-23.3,0-46.7-0.1-70c0-7.5-2.8-10.4-10.1-10.4c-91,0-182,0-273-0.1c-3.8,0-6.6,1.3-9.2,4c-7.7,7.9-15.5,15.6-23.3,23.3
			c-0.8,0.8-1.3,2.4-3.2,1.9c0-6.2,0-12.3,0-18.5c0-7.8-2.7-10.6-10.4-10.6c-26.2,0-52.3,0.1-78.5-0.1c-4.2,0-7.2,1.4-10.1,4.4
			c-11,11.2-22.1,22.2-33.1,33.3c-2.1,2.1-3.1,2.5-5.2-0.2c-22.7-29-52.7-42.5-89.3-43c-34.3-0.5-63.3,10.4-87.5,35.3
			c-31.7,32.6-64,64.6-96.5,96.5c-18.7,18.4-31.4,40.3-39.5,65c-1,3-2,6.1-3.3,9.8c-7.5-17.9-17.5-33.1-31.2-45.6
			c-25.7-23.3-56.7-32.9-90.5-34.2c-23.8-0.9-47.7-0.1-71.5-0.5c-4.7-0.1-5.6,1.4-5.6,5.8c0.1,70.8,0.1,141.6,0.1,212.4
			c0,27.8,0,55.7,0,83.5c0,2.4-0.7,4.8,3.5,4.7c27.2-0.3,54.3,0.2,81.5-0.5c21.5-0.5,42.3-5,61.6-15c30.1-15.7,47.3-41.4,56.7-73.2
			c0.6-1.9,0.3-4.2,2.4-5.7c1.3,3.9,2.3,7.5,3.6,11.1c9.9,27.5,24.4,51.8,48.7,69c42,29.7,102.8,25.4,140.1-10
			c16.7-15.8,32.6-32.4,48.9-48.6C1434.1,630,1435.1,628.4,1437.5,627.6z M751.8,700.2c-0.2,0.1-0.4,0.2-0.6,0.3
			c-0.4-1.1-0.8-2.1-1.1-3.2c-3.7-17.6-7.4-35.1-11.1-52.7c-17.1-80.7-34.2-161.4-51.3-242.1c-0.7-3.6-2-4.7-5.8-4.7
			c-30.2,0.2-60.3,0.2-90.5,0c-4.7,0-6.5,1.2-7.5,5.9c-5.9,25.9-12.3,51.8-18.5,77.6C548,554,530.6,626.8,513,699.5
			c-0.9,3.5-0.7,4.7,3.5,4.7c25.5-0.2,51-0.2,76.5,0c3.3,0,4.6-0.9,5.1-4.3c1.6-10.5,3.6-21,5.4-31.5c0.4-2.4,1.1-3.7,4-3.6
			c16.3,0.2,32.7,0.2,49,0c2.8,0,3.6,0.9,4,3.5c1.5,10.5,3.2,21.1,4.8,31.6c0.4,2.2,0.4,4.3,3.9,4.3c52.8-0.1,105.6-0.1,158.5,0
			c2.9,0,3.6-1,3.5-3.7c-0.6-50.5,1.9-101-4-151.3c-0.8-6.8-1.8-13.6-0.9-20.6c0.9,1.4,1.5,2.9,2,4.4c19.5,55.7,39,111.4,58.4,167.1
			c1,2.9,2.1,4.2,5.4,4.2c23.8-0.2,47.7-0.2,71.5,0c3.6,0,4.3-1.1,4.3-4.5c-0.1-99.1-0.1-198.3,0-297.4c0-3.5-1-4.4-4.4-4.4
			c-23.7,0.1-47.3,0.2-71,0c-4.1,0-4.5,1.5-4.5,4.9c0.1,24.8-0.1,49.7,0.1,74.5c0.1,9.7,0.5,19.3,1.4,28.9c2.2,22.5,4.8,45,7.2,67.5
			c0.3,2.5,0.3,4.9,0.5,7.4c-1.5-1.3-2-2.6-2.5-4c-20.9-58.2-41.9-116.3-62.6-174.6c-1.3-3.6-2.9-4.7-6.7-4.7
			c-22.5,0.2-45,0.3-67.5-0.1c-5.4-0.1-6.4,1.6-6.4,6.6C751.8,503,751.8,601.6,751.8,700.2z M1538.1,955.1c1.9,1.1,1.7,2.2,1.9,3.2
			c9.3,46.2,18.6,92.3,27.8,138.5c0.8,3.9,1.9,5.4,6.3,5.4c30.8-0.2,61.7-0.1,92.5-0.1c6.2,0,6.2,0,4.3-5.9
			c-14.8-45.6-29.5-91.2-44.5-136.7c-1.2-3.6-0.6-5.1,3-6.6c25.6-10.7,43.9-29.2,55.1-54.4c10.7-24.1,13.9-49.7,11-75.7
			c-3.6-31.3-20.7-52.6-50.2-63.9c-17.9-6.9-36.7-9.8-55.7-10.6c-35.8-1.5-71.6-0.3-107.5-0.8c-5-0.1-6.4,1.6-7.1,6.2
			c-7.6,49.2-15.4,98.3-23.2,147.5c-7.2,45.5-14.3,91.1-21.5,136.6c-3.1,19.7-6.2,39.5-9.5,59.2c-0.7,4.1,0.2,5.5,4.6,5.4
			c28.7-0.2,57.3-0.2,86,0c3.4,0,5.1-0.7,5.4-4.5c0.4-5.1,1.6-10.2,2.4-15.3c4.9-31.4,9.8-62.8,14.6-94.2
			C1535.7,977.2,1536.8,966.3,1538.1,955.1z M1080,896.3c-0.3,0-0.6-0.1-0.9-0.1c0-1-0.1-2,0-3c2.8-17.9,5.6-35.8,8.4-53.8
			c4.6-29.3,9-58.6,13.7-87.8c0.6-3.5-0.3-4.3-3.6-4.3c-29.3,0.1-58.7,0.1-88,0c-3,0-4,1.2-4.5,4c-6,38.2-12,76.3-18,114.4
			c-12.1,77.1-24.2,154.2-36.5,231.3c-0.8,4.8,0.7,5.1,4.6,5.1c28.2-0.1,56.3-0.2,84.5,0.1c5.2,0.1,6.6-1.7,7.3-6.5
			c7.9-50.8,16-101.6,24.1-152.4c0.1-0.8,0.1-1.7,1.5-1.5c0.1,0.6,0.3,1.2,0.5,1.8c10.7,51.2,21.3,102.3,31.9,153.5
			c0.8,3.9,2.2,5,6.1,5c31-0.2,62-0.1,93-0.1c1.5,0,2.9-0.1,4.8-0.2c-0.5-1.9-0.9-3.5-1.4-5.1c-17.6-57.3-35.2-114.5-52.9-171.7
			c-1.4-4.4-1.1-7.6,1.3-11.6c32.6-53.6,65-107.4,97.5-161.2c0.8-1.3,2.7-2.8,1.8-4.3c-0.9-1.4-3.1-0.6-4.7-0.6c-30,0-60,0-90-0.1
			c-3.9,0-5.9,1.2-7.6,4.7c-19.5,39-39.2,77.9-58.9,116.9C1089.3,877.9,1084.6,887.1,1080,896.3z M1310.6,1102c28,0,56,0,84,0.1
			c3.4,0,5.2-0.5,5.8-4.6c3.6-24.4,7.5-48.7,11.6-73c0.8-4.8-0.7-5.8-5.3-5.8c-23.5,0.2-47,0.1-70.5,0.1c-5.9,0-6,0-5-6
			c2.2-14,4.8-27.9,6.5-41.9c0.7-5.3,2.7-6.4,7.5-6.3c20.2,0.2,40.3,0.2,60.5,0.1c8.2,0,6.8,1.3,8.2-7c4-23.8,7.7-47.6,11.8-71.4
			c0.7-4.3,0-5.5-4.4-5.4c-21,0.2-42-0.1-63,0.2c-5.1,0.1-5.7-1.8-5-6.1c2.1-12.8,4.1-25.6,5.9-38.5c0.6-4,1.9-5.4,6.3-5.4
			c24.2,0.2,48.3,0.1,72.5,0.1c2.6,0,4.7,0.1,5.3-3.5c3.8-25.2,7.8-50.3,11.9-75.5c0.6-3.8-0.4-4.9-4.3-4.9
			c-56.3,0.1-112.6,0.1-169,0c-3.7,0-4.8,1.3-5.4,4.7c-4,26-8.1,52-12.2,77.9c-7.5,47.8-15.1,95.7-22.6,143.5
			c-6.5,41.3-12.9,82.5-19.6,123.8c-0.6,4,0.2,5,4.2,5C1254.2,1101.9,1282.4,1102,1310.6,1102z M379.9,747.3c-9,0-18,0-27,0
			c-34.3-0.2-63.5,11.9-86.9,37.1c-18,19.3-30,41.9-36.2,67.5c-8.1,33.5-1.4,63.4,22.5,88.8c8.6,9.1,17.5,17.9,27.2,25.7
			c4.5,3.6,8.2,7.8,11.3,12.6c9.1,14.2,0.8,33.2-15.8,35.8c-3.4,0.6-7,0.7-10.5,0.7c-18.8,0.1-37.7,0.1-56.5,0c-3.5,0-4.8,1-5.3,4.6
			c-3.9,25.7-7.9,51.3-12.2,76.9c-0.7,4.1,0.1,5.1,4.2,5.1c22.2-0.2,44.3-0.1,66.5-0.1c6.5,0,13-0.4,19.4-1.6
			c44.5-8.5,75.6-34.4,95.4-74.5c8.7-17.5,12.8-36.4,13.7-55.9c1.3-28.1-10.2-50.7-30.8-69.2c-9.3-8.3-18.9-16.3-28.1-24.7
			c-5.1-4.7-9-10.4-9.8-17.5c-1.5-13.3,9.1-24.5,23.4-24.6c21.2-0.1,42.3-0.1,63.5,0c2.9,0,4.5-0.6,5-3.9c4-26.2,8-52.3,12.3-78.4
			c0.6-3.8-0.5-4.5-3.9-4.5C407.5,747.4,393.7,747.3,379.9,747.3z M1715.2,1102c9.8,0,19.7,0,29.5,0c26.3-0.1,50.2-8,71.3-23.6
			c34.6-25.6,52.9-60.4,56.8-103c2.6-28-6.5-51.7-26.9-71.2c-6.2-5.9-12.7-11.3-19.1-16.8c-6.7-5.7-13.9-11-18.5-18.8
			c-2.8-4.7-4.7-9.6-3.8-15.2c1.8-11.6,11.2-19.5,23.6-19.5c21-0.1,42-0.1,63,0.1c3.5,0,4.8-0.8,5.4-4.5c4-26,8.1-52,12.4-77.9
			c0.6-3.9-0.9-4.4-4.2-4.4c-23.3,0.1-46.7,0-70,0.1c-29.9,0.1-56.3,9.7-78.3,30.1c-23,21.4-37.5,47.9-44,78.5
			c-6.2,29.4-0.8,56.2,19,79.6c9.2,10.8,19.4,20.6,30.3,29.7c4.4,3.7,8.4,7.5,11.7,12.2c10.8,15.6,2.2,35.2-16.5,37.5
			c-3,0.4-6,0.5-9,0.5c-18.8,0-37.7,0.1-56.5,0c-3.3,0-4.8,1-5.2,4.4c-0.4,3.6-1,7.2-1.6,10.9c-3.5,21.9-6.8,43.7-10.5,65.6
			c-0.8,4.7,0.6,5.9,5.2,5.8C1691.2,1101.8,1703.2,1102,1715.2,1102z M609.3,834c7.2,0,14.4-0.4,21.5,0.1c5.2,0.4,6.6-1.6,7.3-6.4
			c3.6-24.7,7.6-49.3,11.5-74c1-6.4,1.1-6.4-5.4-6.4c-57.2,0-114.3,0-171.5,0c-7.3,0-14.7,0.1-22-0.1c-3.1-0.1-4.3,1-4.8,4.2
			c-3.9,26-7.9,52-12.2,77.9c-0.7,4.1,0.3,4.7,4,4.7c14.7-0.2,29.3,0,44-0.1c3.1,0,4.1,0.6,3.5,3.9c-1.9,10.7-3.4,21.4-5.1,32
			c-7.5,47.7-15,95.4-22.5,143c-4.4,28.1-8.9,56.2-13.4,84.3c-0.6,3.8,0.3,4.9,4.3,4.9c29-0.2,58-0.1,87,0c3,0,4.3-0.7,4.8-4
			c2-14.2,4.5-28.3,6.7-42.4c11.4-72.5,22.9-145,34.2-217.5c0.5-3.5,2-4.3,5.2-4.2C593.9,834.1,601.6,834,609.3,834z M893.4,1102
			c8.8,0,17.7,0,26.5,0c9,0,9.2,0,10.6-8.8c3.9-24,7.6-48,11.5-72c0.7-4.3-0.2-5.9-4.9-5.8c-11.7,0.3-23.3,0.1-35,0.1
			c-5.2,0-10.3,0.1-15.4-1.1c-18.3-4.3-27.3-17.4-31.6-34.4c-4.9-19.5-3.4-39.1,0-58.5c4.1-23,11.2-45,25.9-63.6
			c12.5-15.9,28.9-24.1,49.4-24c12.3,0.1,24.7,0,37,0c2.3,0,4.1,0,4.6-3.1c4.1-26.8,8.4-53.6,12.7-80.4c0.4-2.6-0.4-3.3-2.8-3.2
			c-19.5,0.2-39.1-1.4-58.4,1c-58.1,7.3-102.4,36.4-132.5,86.7c-17.5,29.1-26.7,61.2-31.7,94.5c-4.3,28.7-5.3,57.4,2,85.8
			c10.9,42.5,36,71.7,79.6,83C858.1,1102.9,875.8,1102,893.4,1102z M227.5,704.1C227.5,704.1,227.5,704,227.5,704.1
			c9.8-0.1,19.7,0,29.5-0.1c19.6-0.3,37.4-6.4,52.8-18.4c26.4-20.5,37.6-48.3,38.1-81c0.4-28.1-10.3-51.1-31.6-69.3
			c-6.8-5.9-14.1-11.2-21.4-16.4c-7-5.1-14.2-9.9-19.5-17c-4.7-6.2-6.5-12.8-3-20.1c3.4-7.2,9.7-9.3,17.4-9.3
			c17.8,0.2,35.7,0,53.5,0.1c3.5,0,4.9-0.6,4.8-4.6c-0.2-21.8-0.2-43.7,0-65.5c0-3.7-0.8-4.8-4.6-4.7c-20.8,0.2-41.7,0.2-62.5,0.1
			c-7.7,0-15.3,0.8-22.8,2.7c-31.5,8-51,29-61.4,58.8c-13.9,39.5-7.1,74.7,24.2,104c8.9,8.3,18.3,16,28.2,23.1
			c5,3.6,9.9,7.4,13.4,12.6c4.4,6.7,5.7,13.9,2.1,21.3c-3.5,7.1-9.9,9.2-17.5,9.1c-17.7-0.2-35.3,0-53-0.1c-3.2,0-4.2,0.9-4.2,4.2
			c0.2,22.2,0.1,44.3,0,66.5c0,3.2,0.7,4.3,4.1,4.2C205.2,704,216.4,704.1,227.5,704.1z M663.4,1102c14.5,0,29-0.1,43.5,0.1
			c3.2,0,4.6-0.7,5.2-4.2c7.5-48.2,15.2-96.3,22.8-144.5c10.6-67.1,21.1-134.1,31.8-201.2c0.6-3.8-0.2-4.9-4.1-4.9
			c-28.8,0.1-57.6,0.1-86.5,0c-3.8,0-5,1.3-5.6,4.9c-5.4,35-11,70-16.5,105c-7.5,47.5-15,95-22.5,142.5
			c-5.1,32.4-10.2,64.8-15.4,97.1c-0.6,3.7,0,5.3,4.3,5.2C634.8,1101.8,649.1,1102,663.4,1102z M494.1,588.5c0-37,0.1-74-0.1-110.9
			c0-4.3,1.2-5.2,5.3-5.1c12.7,0.3,25.3,0,38,0.2c3.3,0,4.6-0.7,4.6-4.4c-0.2-22-0.2-44,0-66c0-3.5-1-4.4-4.5-4.4
			c-55.8,0.1-111.6,0.1-167.4,0c-3.2,0-4.2,0.9-4.2,4.1c0.1,22.2,0.1,44.3,0,66.5c0,3.3,0.9,4.2,4.2,4.2c11.8-0.2,23.7,0.2,35.5-0.2
			c5-0.2,5.9,1.3,5.9,6.1c-0.2,73.3-0.1,146.6-0.2,219.9c0,5,1.4,5.9,6.1,5.9c24-0.2,48-0.2,72,0c4.3,0,5.1-1.3,5-5.3
			C494,662.1,494.1,625.3,494.1,588.5z"/>
		<path class="st1" d="M185.1,1139.9c1-1.8,2.7-1,4-1c516.8,0,1033.5,0,1550.3,0.1c4.1,0,8.5-1.5,12.5,0.9
			C1229.6,1139.9,707.4,1139.9,185.1,1139.9z"/>
		<path class="st2" d="M1947.9,1139.9c-1.2-1.7-3.3-1.3-5-1.8c-20.2-5.8-32.4-25-29-46.2c3.2-20.1,21.9-34.4,43.3-33.1
			c19.1,1.2,35.7,18,36.7,37.1c1.1,21.8-13,39.7-33.9,43c-0.8,0.1-1.7,0-2.2,0.9C1954.6,1139.9,1951.2,1139.9,1947.9,1139.9z
			 M1918.9,1098.5c-0.2,19.5,15,35.2,34.3,35.5c19.6,0.2,35.5-15.3,35.6-34.8c0.1-19.1-15.8-35.1-34.9-35.1
			C1934.9,1064.1,1919,1079.6,1918.9,1098.5z"/>
		<path class="st3" d="M152.1,625c0.3-0.2,0.5-0.2,0.9-0.1c0,28.1,0,56.1,0,84.2c-0.3,0-0.6-0.1-0.9-0.1
			C152.1,681,152.1,653,152.1,625z"/>
		<path class="st4" d="M1994.2,282.1c0.2,0,0.5,0,0.7,0c0,27,0,54,0,81h-0.4h-0.4C1994.2,336.1,1994.2,309.1,1994.2,282.1z"/>
		<path class="st3" d="M153,505.1l-0.4-0.1h-0.5c0-6.7,0-13.3,0-20c0.3,0,0.6,0,1,0C153,491.7,153,498.4,153,505.1z"/>
		<path class="st5" d="M1437.5,627.6c-2.4,0.8-3.4,2.4-4.7,3.7c-16.3,16.2-32.2,32.8-48.9,48.6c-37.3,35.5-98.2,39.7-140.1,10
			c-24.3-17.2-38.9-41.5-48.7-69c-1.3-3.6-2.4-7.3-3.6-11.1c-2.1,1.4-1.9,3.8-2.4,5.7c-9.4,31.8-26.6,57.5-56.7,73.2
			c-19.3,10-40.1,14.5-61.6,15c-27.1,0.7-54.3,0.2-81.5,0.5c-4.2,0-3.5-2.3-3.5-4.7c0-27.8,0-55.7,0-83.5c0-70.8,0-141.6-0.1-212.4
			c0-4.4,0.8-5.9,5.6-5.8c23.8,0.3,47.7-0.4,71.5,0.5c33.8,1.2,64.9,10.9,90.5,34.2c13.8,12.5,23.7,27.8,31.2,45.6
			c1.3-3.8,2.3-6.8,3.3-9.8c8-24.8,20.7-46.6,39.5-65c32.4-31.9,64.7-63.9,96.5-96.5c24.2-24.8,53.3-35.7,87.5-35.3
			c36.6,0.5,66.6,14,89.3,43c2.1,2.7,3.1,2.3,5.2,0.2c11-11.2,22.1-22.2,33.1-33.3c2.9-2.9,5.9-4.4,10.1-4.4
			c26.2,0.1,52.3,0.1,78.5,0.1c7.7,0,10.4,2.8,10.4,10.6c0,6.2,0,12.3,0,18.5c1.9,0.6,2.4-1.1,3.2-1.9c7.8-7.7,15.7-15.5,23.3-23.3
			c2.6-2.7,5.4-4,9.2-4c91,0.1,182,0,273,0.1c7.4,0,10.1,2.9,10.1,10.4c0,23.3-0.1,46.7,0.1,70c0,4.2-1.4,7.3-4.3,10.2
			c-13.3,13.1-26.4,26.4-39.7,39.5c-2.7,2.6-3.9,5.3-3.9,9.1c0.1,57.2,0,114.3,0.2,171.5c0,5.3-1.6,9-5.3,12.7
			c-33.1,32.9-66.1,65.9-99,99c-3.4,3.5-7,5-11.9,4.9c-25.5-0.2-51-0.1-76.5-0.1c-8.7,0-11.2-2.5-11.2-11.4c0-27.7,0-55.3,0-83
			c0-1.8,0-3.5,0-5.5c-2.2,0.3-2.9,1.7-3.9,2.7c-24.4,24.4-48.8,48.8-73.1,73.2c-12.7,12.8-28,20.7-45.3,24.9
			c-24.1,5.8-48.3,6-72.3,0.4c-38.6-9-61.9-33.7-71.7-71.8c-0.2-1-0.5-1.9-0.8-2.9C1438,629.9,1437.8,628.9,1437.5,627.6z
			 M1526.1,441.5c0.2-11.2-0.7-22.3-2.2-33.4c-3.7-26.8-11.3-52.3-25.6-75.5c-38.4-62.4-116.2-60.2-154.9-27.1
			c-17.6,15-29.4,33.9-37.4,55.2c-12.8,34.2-16.3,69.6-12.7,105.7c2.6,26.2,9,51.4,21.5,74.9c24,44.8,65.4,65.5,115.4,56.6
			c34-6.1,57.3-26.9,73.2-56.6C1520,510.2,1525.8,476.4,1526.1,441.5z M1751.7,400.1c0-35.7-0.1-71.3,0.1-107c0-3.8-0.9-5.1-5-5.1
			c-23.8,0.2-47.7,0.1-71.5,0.1c-7.3,0-6.6-1-6.6,6.8c0,63.6,0,127.3,0,190.9c0,8.2-0.2,16.3-2.8,24.2c-2.1,6.5-6.4,10.8-13.3,12.1
			c-12.8,2.4-21.3-3.1-24.5-15.9c-1.9-7.5-1.7-15.2-1.7-22.9c-0.1-63.1-0.1-126.3,0-189.4c0-4.4-0.9-6-5.7-5.9
			c-23.8,0.3-47.7,0.3-71.5,0c-4.8-0.1-5.7,1.5-5.7,5.9c0.1,64.1,0.1,128.3,0.1,192.4c0,13,0.6,26,3.4,38.7
			c8.2,37.9,29.9,62.8,68.5,71.5c18.9,4.3,38,4.5,57.1,1.4c37.2-6.1,62-26.6,73.1-63c4.7-15.4,6-31.4,6-47.4
			C1751.8,458.4,1751.7,429.2,1751.7,400.1z M1897.9,478.5c0-36.5,0.1-73-0.1-109.5c0-4.6,0.8-6.3,5.9-6.2c12.3,0.4,24.7,0,37,0.2
			c3.3,0,4.7-0.7,4.7-4.4c-0.1-22.2-0.1-44.3,0-66.5c0-3.3-1.1-4.2-4.3-4.2c-55.8,0.1-111.6,0.1-167.5,0c-3.2,0-4.3,0.9-4.3,4.2
			c0.1,22.2,0.1,44.3,0,66.5c0,3.6,1.3,4.4,4.6,4.4c11.7-0.2,23.3,0.3,35-0.2c5.3-0.2,6.2,1.5,6.2,6.4
			c-0.2,73.3-0.1,146.6-0.2,219.9c0,4.3,0.9,5.7,5.5,5.6c24.2-0.2,48.3-0.2,72.5,0c4.2,0,5.2-1.3,5.2-5.3
			C1897.8,552.5,1897.9,515.5,1897.9,478.5z M1068.5,551.5c0,24.7,0.1,49.3-0.1,74c0,4.3,1.5,5,5.2,4.5c8.4-1.3,15.5-4.8,21.3-11
			c5.9-6.4,9.6-13.9,12.2-22.1c6.7-22.1,7-44.6,4.5-67.3c-1.4-12.5-4-24.6-10.3-35.7c-6.2-11-15.2-17.8-27.9-19.5
			c-3.7-0.5-4.9,0.3-4.9,4.2C1068.6,502.9,1068.5,527.2,1068.5,551.5z"/>
		<path class="st6" d="M751.8,700.2c0-98.6,0-197.3-0.1-295.9c0-5,1-6.6,6.4-6.6c22.5,0.3,45,0.2,67.5,0.1c3.7,0,5.4,1,6.7,4.7
			c20.8,58.2,41.7,116.4,62.6,174.6c0.5,1.4,1,2.7,2.5,4c-0.2-2.5-0.2-4.9-0.5-7.4c-2.4-22.5-5-45-7.2-67.5
			c-0.9-9.6-1.3-19.3-1.4-28.9c-0.2-24.8,0-49.7-0.1-74.5c0-3.4,0.4-4.9,4.5-4.9c23.7,0.2,47.3,0.2,71,0c3.5,0,4.4,0.9,4.4,4.4
			c-0.1,99.1-0.1,198.3,0,297.4c0,3.4-0.7,4.5-4.3,4.5c-23.8-0.2-47.7-0.2-71.5,0c-3.4,0-4.4-1.3-5.4-4.2
			c-19.4-55.7-38.9-111.4-58.4-167.1c-0.5-1.5-1.1-3-2-4.4c-0.8,7,0.1,13.8,0.9,20.6c5.8,50.3,3.4,100.8,4,151.3
			c0,2.7-0.6,3.7-3.5,3.7c-52.8-0.1-105.6-0.1-158.5,0c-3.6,0-3.6-2.1-3.9-4.3c-1.6-10.5-3.3-21-4.8-31.6c-0.4-2.6-1.2-3.6-4-3.5
			c-16.3,0.1-32.7,0.2-49,0c-2.9,0-3.6,1.2-4,3.6c-1.8,10.5-3.8,21-5.4,31.5c-0.5,3.4-1.7,4.3-5.1,4.3c-25.5-0.1-51-0.2-76.5,0
			c-4.2,0-4.4-1.2-3.5-4.7c17.6-72.7,35-145.5,52.5-218.2c6.2-25.9,12.5-51.7,18.5-77.6c1.1-4.6,2.8-5.9,7.5-5.9
			c30.2,0.2,60.3,0.2,90.5,0c3.8,0,5,1.2,5.8,4.7c17,80.7,34.1,161.4,51.3,242.1c3.7,17.6,7.4,35.1,11.1,52.7
			c0.2,1.1,0.7,2.1,1.1,3.2C751.4,700.4,751.6,700.3,751.8,700.2z M635.1,471.5c-0.3,0-0.6,0-0.9,0c-1.5,12.2-2.8,24.4-4.7,36.5
			c-4.4,29.2-9,58.5-13.8,87.7c-0.7,4.1,0.7,4.3,3.9,4.2c8.5-0.2,17-0.3,25.5,0c4.4,0.2,5.1-1,4.5-5.3c-4.1-32.2-8.6-64.3-11.7-96.5
			C637.1,489.2,636,480.4,635.1,471.5z"/>
		<path class="st7" d="M1538.1,955.1c-1.4,11.3-2.5,22.2-4.1,33c-4.7,31.4-9.7,62.8-14.6,94.2c-0.8,5.1-1.9,10.2-2.4,15.3
			c-0.3,3.8-2,4.5-5.4,4.5c-28.7-0.1-57.3-0.2-86,0c-4.5,0-5.3-1.4-4.6-5.4c3.3-19.7,6.4-39.4,9.5-59.2
			c7.2-45.5,14.3-91.1,21.5-136.6c7.7-49.2,15.6-98.3,23.2-147.5c0.7-4.6,2.1-6.3,7.1-6.2c35.8,0.5,71.7-0.7,107.5,0.8
			c19,0.8,37.8,3.7,55.7,10.6c29.5,11.3,46.6,32.6,50.2,63.9c3,26.1-0.2,51.6-11,75.7c-11.2,25.3-29.5,43.7-55.1,54.4
			c-3.6,1.5-4.2,3.1-3,6.6c14.9,45.5,29.7,91.1,44.5,136.7c1.9,5.9,1.9,5.9-4.3,5.9c-30.8,0-61.7-0.1-92.5,0.1
			c-4.4,0-5.5-1.5-6.3-5.4c-9.2-46.2-18.5-92.3-27.8-138.5C1539.9,957.3,1540.1,956.2,1538.1,955.1z M1567.4,823.8
			c-2.3,0.9-6.6-2.4-7.5,3.3c-4.2,26.6-8.5,53.2-13,79.8c-0.7,4,0.9,5,4.4,5c11.4,0.1,21.2-3.6,29.6-11.2
			c11.6-10.5,16.7-24.1,18.4-39.3C1601.9,839.1,1590,824.7,1567.4,823.8z"/>
		<path class="st7" d="M1080,896.3c4.7-9.2,9.3-18.3,14-27.5c19.7-38.9,39.4-77.8,58.9-116.9c1.8-3.5,3.7-4.7,7.6-4.7
			c30,0.2,60,0.1,90,0.1c1.6,0,3.8-0.8,4.7,0.6c0.9,1.5-0.9,2.9-1.8,4.3c-32.4,53.7-64.9,107.5-97.5,161.2
			c-2.4,3.9-2.7,7.2-1.3,11.6c17.8,57.2,35.3,114.5,52.9,171.7c0.5,1.6,0.9,3.2,1.4,5.1c-1.8,0.1-3.3,0.2-4.8,0.2
			c-31,0-62-0.1-93,0.1c-4,0-5.3-1.2-6.1-5c-10.5-51.2-21.2-102.3-31.9-153.5c-0.1-0.6-0.3-1.3-0.5-1.8c-1.4-0.2-1.4,0.8-1.5,1.5
			c-8.1,50.8-16.2,101.6-24.1,152.4c-0.7,4.8-2.1,6.5-7.3,6.5c-28.2-0.3-56.3-0.2-84.5-0.1c-3.9,0-5.4-0.3-4.6-5.1
			c12.3-77.1,24.4-154.2,36.5-231.3c6-38.1,12-76.3,18-114.4c0.4-2.8,1.5-4,4.5-4c29.3,0.1,58.7,0.1,88,0c3.3,0,4.2,0.8,3.6,4.3
			c-4.7,29.3-9.1,58.5-13.7,87.8c-2.8,17.9-5.6,35.8-8.4,53.8c-0.1,1,0,2,0,3C1079.4,896.2,1079.7,896.2,1080,896.3z"/>
		<path class="st7" d="M1310.6,1102c-28.2,0-56.3-0.1-84.5,0.1c-4.1,0-4.9-1-4.2-5c6.6-41.2,13.1-82.5,19.6-123.8
			c7.5-47.8,15.1-95.7,22.6-143.5c4.1-26,8.2-51.9,12.2-77.9c0.5-3.4,1.7-4.7,5.4-4.7c56.3,0.1,112.6,0.1,169,0
			c3.9,0,4.9,1.1,4.3,4.9c-4.1,25.1-8.1,50.3-11.9,75.5c-0.6,3.7-2.7,3.5-5.3,3.5c-24.2,0-48.3,0.1-72.5-0.1c-4.3,0-5.7,1.4-6.3,5.4
			c-1.8,12.9-3.8,25.7-5.9,38.5c-0.7,4.3-0.1,6.2,5,6.1c21-0.3,42,0,63-0.2c4.4,0,5.2,1.2,4.4,5.4c-4.1,23.8-7.7,47.6-11.8,71.4
			c-1.4,8.3,0,7-8.2,7c-20.2,0.1-40.3,0.2-60.5-0.1c-4.9-0.1-6.9,1-7.5,6.3c-1.7,14-4.3,28-6.5,41.9c-0.9,6-0.9,6,5,6
			c23.5,0,47,0.1,70.5-0.1c4.6,0,6.1,1,5.3,5.8c-4,24.3-8,48.6-11.6,73c-0.6,4.1-2.4,4.6-5.8,4.6
			C1366.5,1102,1338.5,1102,1310.6,1102z"/>
		<path class="st7" d="M379.9,747.3c13.8,0,27.7,0.1,41.5-0.1c3.4,0,4.6,0.6,3.9,4.5C421,777.9,417,804,413,830.2
			c-0.5,3.3-2,3.9-5,3.9c-21.2-0.1-42.3-0.1-63.5,0c-14.4,0.1-25,11.3-23.4,24.6c0.8,7.1,4.6,12.9,9.8,17.5
			c9.2,8.4,18.8,16.4,28.1,24.7c20.6,18.4,32,41,30.8,69.2c-0.9,19.5-5,38.3-13.7,55.9c-19.9,40.1-50.9,66-95.4,74.5
			c-6.4,1.2-12.9,1.6-19.4,1.6c-22.2,0-44.3-0.1-66.5,0.1c-4.1,0-4.9-0.9-4.2-5.1c4.3-25.6,8.3-51.2,12.2-76.9
			c0.5-3.6,1.8-4.6,5.3-4.6c18.8,0.2,37.7,0.1,56.5,0c3.5,0,7-0.2,10.5-0.7c16.6-2.7,24.9-21.7,15.8-35.8c-3.1-4.8-6.8-9-11.3-12.6
			c-9.8-7.8-18.7-16.6-27.2-25.7c-23.9-25.5-30.6-55.3-22.5-88.8c6.2-25.6,18.2-48.2,36.2-67.5c23.4-25.2,52.6-37.3,86.9-37.1
			C361.9,747.4,370.9,747.3,379.9,747.3z"/>
		<path class="st7" d="M1715.2,1102c-12,0-24-0.2-36,0.1c-4.7,0.1-6-1.1-5.2-5.8c3.6-21.8,7-43.7,10.5-65.6
			c0.6-3.6,1.3-7.2,1.6-10.9c0.3-3.3,1.8-4.4,5.2-4.4c18.8,0.1,37.7,0.1,56.5,0c3,0,6-0.2,9-0.5c18.7-2.3,27.3-21.9,16.5-37.5
			c-3.3-4.7-7.3-8.6-11.7-12.2c-10.9-9.1-21.1-18.9-30.3-29.7c-19.8-23.3-25.2-50.2-19-79.6c6.5-30.6,21-57.1,44-78.5
			c22-20.5,48.3-30.1,78.3-30.1c23.3-0.1,46.7,0,70-0.1c3.3,0,4.9,0.5,4.2,4.4c-4.3,25.9-8.4,51.9-12.4,77.9
			c-0.6,3.7-1.9,4.5-5.4,4.5c-21-0.2-42-0.1-63-0.1c-12.3,0.1-21.8,7.9-23.6,19.5c-0.9,5.6,1,10.5,3.8,15.2
			c4.7,7.7,11.9,13,18.5,18.8c6.4,5.5,13,10.9,19.1,16.8c20.4,19.5,29.5,43.2,26.9,71.2c-3.9,42.6-22.1,77.4-56.8,103
			c-21.1,15.6-45,23.5-71.3,23.6C1734.8,1102,1725,1102,1715.2,1102z"/>
		<path class="st7" d="M609.3,834c-7.7,0-15.3,0.1-23-0.1c-3.2-0.1-4.7,0.7-5.2,4.2c-11.3,72.5-22.8,145-34.2,217.5
			c-2.2,14.1-4.7,28.2-6.7,42.4c-0.5,3.3-1.8,4-4.8,4c-29-0.1-58-0.1-87,0c-3.9,0-4.9-1.1-4.3-4.9c4.6-28.1,9-56.2,13.4-84.3
			c7.5-47.7,15-95.4,22.5-143c1.7-10.7,3.2-21.4,5.1-32c0.6-3.3-0.4-3.9-3.5-3.9c-14.7,0.1-29.3,0-44,0.1c-3.7,0-4.7-0.6-4-4.7
			c4.3-25.9,8.3-51.9,12.2-77.9c0.5-3.1,1.6-4.2,4.8-4.2c7.3,0.2,14.7,0.1,22,0.1c57.2,0,114.3,0,171.5,0c6.5,0,6.4,0,5.4,6.4
			c-3.9,24.7-7.9,49.3-11.5,74c-0.7,4.8-2.1,6.8-7.3,6.4C623.6,833.6,616.4,834,609.3,834z"/>
		<path class="st7" d="M893.4,1102c-17.6,0-35.3,0.9-52.7-3.6c-43.6-11.3-68.7-40.5-79.6-83c-7.2-28.4-6.3-57.1-2-85.8
			c5-33.3,14.2-65.4,31.7-94.5c30.1-50.2,74.4-79.4,132.5-86.7c19.4-2.4,39-0.8,58.4-1c2.4,0,3.2,0.7,2.8,3.2
			c-4.3,26.8-8.5,53.6-12.7,80.4c-0.5,3.1-2.3,3.1-4.6,3.1c-12.3,0-24.7,0-37,0c-20.4-0.1-36.8,8.1-49.4,24
			c-14.8,18.7-21.8,40.6-25.9,63.6c-3.4,19.5-4.9,39.1,0,58.5c4.3,17.1,13.2,30.1,31.6,34.4c5.1,1.2,10.2,1.1,15.4,1.1
			c11.7,0,23.3,0.2,35-0.1c4.7-0.1,5.6,1.5,4.9,5.8c-3.9,24-7.6,48-11.5,72c-1.4,8.8-1.6,8.8-10.6,8.8
			C911.1,1102,902.2,1102,893.4,1102z"/>
		<path class="st8" d="M227.5,704.1c-11.2,0-22.3-0.1-33.5,0.1c-3.4,0.1-4.1-1-4.1-4.2c0.1-22.2,0.1-44.3,0-66.5
			c0-3.3,0.9-4.2,4.2-4.2c17.7,0.1,35.3-0.1,53,0.1c7.6,0.1,14-2,17.5-9.1c3.6-7.4,2.3-14.6-2.1-21.3c-3.5-5.2-8.4-9-13.4-12.6
			c-9.9-7.1-19.3-14.8-28.2-23.1c-31.3-29.3-38.1-64.4-24.2-104c10.4-29.8,29.9-50.7,61.4-58.8c7.5-1.9,15.1-2.7,22.8-2.7
			c20.8,0,41.7,0.1,62.5-0.1c3.8,0,4.7,1.1,4.6,4.7c-0.2,21.8-0.2,43.7,0,65.5c0,4-1.3,4.6-4.8,4.6c-17.8-0.2-35.7,0-53.5-0.1
			c-7.6-0.1-13.9,2.1-17.4,9.3c-3.4,7.2-1.6,13.9,3,20.1c5.3,7,12.5,11.9,19.5,17c7.3,5.3,14.5,10.6,21.4,16.4
			c21.3,18.2,32,41.3,31.6,69.3c-0.5,32.7-11.7,60.6-38.1,81c-15.4,12-33.2,18.1-52.8,18.4C247.2,704.1,237.4,704,227.5,704.1
			C227.5,704,227.5,704.1,227.5,704.1z"/>
		<path class="st7" d="M663.4,1102c-14.3,0-28.7-0.2-43,0.1c-4.3,0.1-4.9-1.5-4.3-5.2c5.2-32.4,10.3-64.8,15.4-97.1
			c7.5-47.5,15-95,22.5-142.5c5.5-35,11.1-70,16.5-105c0.6-3.7,1.7-5,5.6-4.9c28.8,0.2,57.6,0.2,86.5,0c4,0,4.7,1.2,4.1,4.9
			c-10.7,67.1-21.2,134.1-31.8,201.2c-7.6,48.2-15.3,96.3-22.8,144.5c-0.6,3.5-2,4.2-5.2,4.2C692.4,1101.9,677.9,1102,663.4,1102z"
			/>
		<path class="st6" d="M494.1,588.5c0,36.8-0.1,73.6,0.1,110.4c0,4-0.7,5.3-5,5.3c-24-0.2-48-0.2-72,0c-4.7,0-6.1-0.9-6.1-5.9
			c0.2-73.3,0.1-146.6,0.2-219.9c0-4.7-1-6.2-5.9-6.1c-11.8,0.4-23.7,0-35.5,0.2c-3.3,0.1-4.2-0.9-4.2-4.2c0.1-22.2,0.1-44.3,0-66.5
			c0-3.3,0.9-4.1,4.2-4.1c55.8,0.1,111.6,0.1,167.4,0c3.5,0,4.5,0.9,4.5,4.4c-0.2,22-0.2,44,0,66c0,3.7-1.3,4.4-4.6,4.4
			c-12.7-0.2-25.3,0.1-38-0.2c-4.1-0.1-5.3,0.9-5.3,5.1C494.2,514.6,494.1,551.5,494.1,588.5z"/>
		<path class="st4" d="M1918.9,1098.5c0.2-18.9,16-34.5,35-34.4c19.1,0.1,35,16,34.9,35.1c-0.1,19.5-16,35-35.6,34.8
			C1933.9,1133.8,1918.7,1118.1,1918.9,1098.5z M1964.1,1099.5c5.2-3.6,7.1-8.1,5.6-13.3c-1.3-4.5-5.3-7.2-11.3-7.3
			c-5.5-0.1-11,0-16.5-0.1c-1.9,0-3.1,0.1-3.1,2.6c0.1,11.6,0.1,23.3,0,34.9c0,1.8,0.5,2.7,2.5,2.7c2.1,0,3.1-0.6,2.9-2.8
			c-0.1-0.8,0-1.7,0-2.5c0-12.3,0-12.2,12.4-11.9c4.3,0.1,6.5,2.1,7.1,6.1c0.3,1.8,0.5,3.6,0.5,5.5c0,4.5,1.4,7.1,6.6,5
			c-1.2-3.3-1.7-6.8-1.8-10.3C1968.9,1104.4,1967.5,1101.4,1964.1,1099.5z"/>
		<path class="st9" d="M1526.1,441.5c-0.3,34.9-6,68.6-22.7,99.8c-15.9,29.7-39.1,50.5-73.2,56.6c-50,8.9-91.4-11.7-115.4-56.6
			c-12.5-23.4-18.9-48.6-21.5-74.9c-3.5-36.1-0.1-71.5,12.7-105.7c8-21.4,19.8-40.2,37.4-55.2c38.6-33.1,116.4-35.3,154.9,27.1
			c14.3,23.3,22,48.7,25.6,75.5C1525.4,419.2,1526.3,430.3,1526.1,441.5z M1441.7,441.7c-0.3-13-0.7-26-2.8-38.8
			c-1.9-11.5-4.5-22.9-11.5-32.7c-9.9-13.7-26.6-13.6-36.5,0.1c-4.5,6.2-7.2,13.1-8.9,20.5c-6.9,29.9-6.6,60.1-2.3,90.3
			c1.5,10.4,4.2,20.6,10,29.6c10.2,15.9,28.4,16,38.8,0.4c3-4.5,5-9.4,6.6-14.5C1440.5,478.7,1441.2,460.2,1441.7,441.7z"/>
		<path class="st9" d="M1751.7,400.1c0,29.2,0.1,58.3,0,87.5c0,16-1.4,32-6,47.4c-11,36.4-35.9,56.9-73.1,63
			c-19.1,3.1-38.2,2.9-57.1-1.4c-38.6-8.7-60.3-33.7-68.5-71.5c-2.8-12.8-3.4-25.7-3.4-38.7c0-64.1,0-128.3-0.1-192.4
			c0-4.4,1-5.9,5.7-5.9c23.8,0.3,47.7,0.3,71.5,0c4.8-0.1,5.7,1.5,5.7,5.9c-0.1,63.1-0.1,126.3,0,189.4c0,7.6-0.2,15.4,1.7,22.9
			c3.2,12.8,11.8,18.3,24.5,15.9c6.9-1.3,11.2-5.5,13.3-12.1c2.6-7.9,2.8-16,2.8-24.2c0-63.6,0-127.3,0-190.9c0-7.8-0.7-6.7,6.6-6.8
			c23.8,0,47.7,0.1,71.5-0.1c4,0,5,1.2,5,5.1C1751.7,328.8,1751.7,364.4,1751.7,400.1z"/>
		<path class="st9" d="M1897.9,478.5c0,37-0.1,74,0.1,111c0,4.1-1,5.4-5.2,5.3c-24.2-0.2-48.3-0.2-72.5,0c-4.5,0-5.5-1.4-5.5-5.6
			c0.1-73.3,0-146.6,0.2-219.9c0-4.8-0.9-6.6-6.2-6.4c-11.6,0.5-23.3,0-35,0.2c-3.3,0-4.7-0.7-4.6-4.4c0.1-22.2,0.1-44.3,0-66.5
			c0-3.3,1.1-4.2,4.3-4.2c55.8,0.1,111.6,0.1,167.5,0c3.2,0,4.3,0.9,4.3,4.2c-0.1,22.2-0.1,44.3,0,66.5c0,3.7-1.4,4.4-4.7,4.4
			c-12.3-0.2-24.7,0.2-37-0.2c-5.1-0.2-5.9,1.6-5.9,6.2C1898,405.6,1897.9,442,1897.9,478.5z"/>
		<path class="st10" d="M1068.5,551.5c0-24.3,0.1-48.6-0.1-73c0-4,1.2-4.7,4.9-4.2c12.7,1.7,21.7,8.6,27.9,19.5
			c6.3,11.1,8.9,23.2,10.3,35.7c2.5,22.7,2.2,45.2-4.5,67.3c-2.5,8.2-6.2,15.8-12.2,22.1c-5.8,6.2-12.9,9.7-21.3,11
			c-3.7,0.6-5.2-0.2-5.2-4.5C1068.6,600.8,1068.5,576.2,1068.5,551.5z"/>
		<path class="st10" d="M635.1,471.5c1,8.9,2,17.7,2.8,26.6c3.1,32.3,7.7,64.4,11.7,96.5c0.5,4.3-0.1,5.5-4.5,5.3
			c-8.5-0.3-17-0.2-25.5,0c-3.2,0.1-4.6-0.2-3.9-4.2c4.8-29.2,9.4-58.4,13.8-87.7c1.8-12.1,3.1-24.3,4.7-36.5
			C634.5,471.5,634.8,471.5,635.1,471.5z"/>
		<path class="st0" d="M1567.4,823.8c22.6,0.9,34.5,15.3,32,37.5c-1.7,15.3-6.8,28.8-18.4,39.3c-8.4,7.6-18.3,11.3-29.6,11.2
			c-3.6,0-5.1-1-4.4-5c4.4-26.6,8.7-53.2,13-79.8C1560.9,821.3,1565.1,824.7,1567.4,823.8z"/>
		<path class="st2" d="M1964.1,1099.5c3.5,1.9,4.8,4.9,4.9,8.7c0.1,3.5,0.5,7,1.8,10.3c-5.1,2-6.5-0.5-6.6-5c0-1.8-0.2-3.7-0.5-5.5
			c-0.7-4-2.9-6-7.1-6.1c-12.3-0.4-12.3-0.5-12.4,11.9c0,0.8-0.1,1.7,0,2.5c0.2,2.2-0.8,2.8-2.9,2.8c-2,0-2.5-0.8-2.5-2.7
			c0.1-11.6,0.1-23.3,0-34.9c0-2.5,1.2-2.6,3.1-2.6c5.5,0.1,11-0.1,16.5,0.1c5.9,0.1,10,2.9,11.3,7.3
			C1971.1,1091.5,1969.3,1095.9,1964.1,1099.5z M1952.7,1083.7c-8.6-0.1-8.6-0.1-8.5,8.5c0,0.8,0.1,1.7,0,2.5
			c-0.1,1.9,0.6,2.8,2.6,2.7c4.1-0.2,8.3,0,12.4-0.5c3.9-0.5,5.6-3.3,5.4-7.1c-0.2-3.5-2-6-5.9-6.1
			C1956.7,1083.6,1954.7,1083.7,1952.7,1083.7z"/>
		<path class="st5" d="M1441.7,441.7c-0.5,18.5-1.1,37-6.7,54.8c-1.6,5.1-3.6,10-6.6,14.5c-10.4,15.7-28.6,15.6-38.8-0.4
			c-5.8-9-8.4-19.2-10-29.6c-4.4-30.2-4.6-60.4,2.3-90.3c1.7-7.3,4.4-14.3,8.9-20.5c9.9-13.6,26.6-13.7,36.5-0.1
			c7,9.7,9.6,21.1,11.5,32.7C1441,415.7,1441.4,428.7,1441.7,441.7z"/>
		<path class="st4" d="M1952.7,1083.7c2,0,4-0.1,6,0c3.9,0.1,5.6,2.6,5.9,6.1c0.3,3.8-1.5,6.6-5.4,7.1c-4.1,0.5-8.3,0.3-12.4,0.5
			c-1.9,0.1-2.7-0.9-2.6-2.7c0.1-0.8,0-1.7,0-2.5C1944.2,1083.5,1944.2,1083.5,1952.7,1083.7z"/>
	</g>
</g>
</svg>
